<svg width="97" height="104" viewBox="0 0 97 104" fill="none" xmlns="http://www.w3.org/2000/svg">
<g clip-path="url(#clip0_1562_11635)">
<path d="M36.8287 11.63C36.8287 10.48 37.8287 8.86 37.4987 8L35.3687 6.77L31.0887 17.52L26.7287 20L24.5787 16.86L31.0187 7.23L28.8887 6C28.6187 6.13 28.3487 6.26 28.0687 6.42C23.1787 9.19 19.1787 16 19.1787 21.67C19.1787 24.52 20.1787 26.52 21.7587 27.44L23.8887 28.66L24.1787 28H24.3387V78C21.2578 81.3345 19.4334 85.6373 19.1787 90.17C19.081 91.9017 19.5981 93.6123 20.6387 95L22.7787 96.26L24.9187 84.26L29.2787 81.78L31.4387 84.93L27.1187 95.8L29.2587 97C29.2587 97 36.7987 85.75 36.8287 80.1C36.8857 78.6892 36.5683 77.2884 35.9087 76.04L36.4487 75.59L34.3287 74.36C33.5443 73.8954 32.6388 73.676 31.7287 73.73V23.73C34.7187 20.4 36.8087 15.72 36.8287 11.63Z" fill="#2B2C33"/>
<path d="M24.2891 78.06L26.4191 79.29V29.26L24.2891 28.03V78.06Z" fill="#2B2C33"/>
<path d="M33.8587 75V25C36.8587 21.67 38.9387 17 38.9687 12.89C39.0825 11.1363 38.5606 9.40029 37.4987 7.99998L33.2287 18.76L28.8687 21.24L26.7087 18.09L31.0187 7.22998C30.7487 7.35998 30.4787 7.49998 30.2087 7.65998C25.3287 10.43 21.3487 17.25 21.3087 22.9C21.3087 27.04 23.3887 29.38 26.4187 29.26V79.26C23.4187 82.6 21.3387 87.26 21.3087 91.37C21.1932 93.1239 21.7152 94.8605 22.7787 96.26L27.0487 85.51L31.4187 83L33.5687 86.14L29.2587 97L30.0787 96.58C34.9487 93.81 38.9287 86.98 38.9687 81.33C38.9987 77.22 36.8987 74.88 33.8587 75Z" fill="#6D7080"/>
<path d="M30.4891 83.55L31.4191 83.03L33.5691 86.17L29.2591 97.03L27.1191 95.8L31.4391 84.94L30.4891 83.55Z" fill="#2B2C33"/>
<path d="M57.1785 36.4199C57.1785 35.6499 57.8285 34.5799 57.6285 33.9999L56.1785 33.1799L53.3285 40.3499L50.3885 41.9999L48.9485 39.8999L53.2485 33.4799L51.8285 32.6499L51.2785 32.9999C49.5597 34.109 48.1268 35.608 47.0964 37.3752C46.066 39.1423 45.4671 41.1277 45.3485 43.1699C45.3485 45.0699 45.9985 46.3999 47.0685 47.0199L48.4885 47.8399L48.6585 47.4099H48.7585V80.7499C46.7203 82.9669 45.515 85.8229 45.3485 88.8299C45.2785 89.9954 45.6338 91.1467 46.3485 92.0699L47.7685 92.8899L49.1985 84.8899L52.1085 83.2399L53.5485 85.3399L50.6685 92.5799L52.0985 93.4099C52.0985 93.4099 57.0985 85.8999 57.1485 82.1299C57.1859 81.1887 56.9756 80.2543 56.5385 79.4199L56.8885 79.1199L55.4785 78.2999C54.9559 77.9826 54.3488 77.8326 53.7385 77.8699V44.4999C55.7877 42.2871 57.0038 39.4307 57.1785 36.4199Z" fill="#2B2C33"/>
<path d="M48.7588 80.7501L50.1788 81.5701V48.1901L48.7588 47.3701V80.7501Z" fill="#2B2C33"/>
<path d="M55.179 78.71V45.33C57.2101 43.1053 58.4111 40.2477 58.579 37.24C58.6436 36.0752 58.2889 34.9257 57.579 34L54.719 41.18L51.809 42.83L50.379 40.73L53.249 33.49C53.063 33.5714 52.8827 33.6649 52.709 33.77C50.9901 34.8791 49.5572 36.3781 48.5268 38.1453C47.4964 39.9124 46.8976 41.8978 46.779 43.94C46.779 46.7 48.159 48.27 50.179 48.19V81.57C48.1444 83.7885 46.9427 86.6442 46.779 89.65C46.7143 90.8148 47.0691 91.9642 47.779 92.89L50.639 85.72L53.549 84.06L54.979 86.16L52.079 93.41C52.259 93.32 52.439 93.23 52.619 93.12C54.3313 92.0159 55.7601 90.5247 56.7902 88.7668C57.8203 87.0089 58.4227 85.0335 58.549 83C58.569 80.19 57.179 78.62 55.179 78.71Z" fill="#6D7080"/>
<path d="M52.8984 84.4101L53.5184 84.0601L54.9484 86.1601L52.0784 93.4101L50.6484 92.5801L53.5284 85.3401L52.8984 84.4101Z" fill="#2B2C33"/>
<path d="M76.6591 41.6999C76.6591 41.0199 77.2291 40.0699 77.0591 39.5699L75.8091 38.8499L73.2991 45.1499L70.7491 46.5999L69.4791 44.7599L73.2591 39.1199L72.0091 38.3999C71.8491 38.4666 71.6891 38.5466 71.5291 38.6399C70.0204 39.6171 68.7627 40.9354 67.8577 42.4884C66.9526 44.0414 66.4256 45.7856 66.3191 47.5799C66.238 48.2332 66.3356 48.8963 66.6015 49.4986C66.8674 50.1008 67.2917 50.6197 67.8291 50.9999L69.0791 51.7199L69.1791 51.2999C69.2089 51.3049 69.2393 51.3049 69.2691 51.2999V80.6099C67.4863 82.5637 66.4274 85.0697 66.2691 87.7099C66.217 88.7388 66.5404 89.7516 67.1791 90.5599L68.4291 91.2799L69.6791 84.2799L72.2391 82.8199L73.4991 84.6699L70.9791 90.9999L72.2291 91.7199C72.2291 91.7199 76.6391 85.1299 76.6591 81.8199C76.7053 81.0018 76.54 80.1856 76.1791 79.4499L76.4891 79.1899L75.1791 78.4699C74.7158 78.2007 74.1842 78.0721 73.6491 78.0999V48.7899C75.4454 46.8478 76.5096 44.3411 76.6591 41.6999Z" fill="#2B2C33"/>
<path d="M69.3086 80.6101L70.5586 81.34V52.03L69.3086 51.3V80.6101Z" fill="#2B2C33"/>
<path d="M74.9185 78.8201V49.5101C76.7061 47.5634 77.766 45.0587 77.9185 42.4201C77.9794 41.3981 77.6745 40.3878 77.0585 39.5701L74.5485 45.8701L71.9985 47.3201L70.7285 45.4801L73.2585 39.1201C73.0925 39.1915 72.9321 39.2751 72.7785 39.3701C71.2694 40.3445 70.0113 41.6609 69.1061 43.2124C68.2009 44.7639 67.6741 46.5069 67.5685 48.3001C67.5685 50.7201 68.7885 52.1001 70.5685 52.0301V81.3401C68.7808 83.2868 67.721 85.7916 67.5685 88.4301C67.5022 89.4527 67.8076 90.4649 68.4285 91.2801L70.9385 85.0001L73.4885 83.5501L74.7485 85.3901L72.2285 91.7501C72.3785 91.6801 72.5385 91.6001 72.7085 91.5001C74.2164 90.5245 75.4737 89.2079 76.3788 87.6566C77.2838 86.1054 77.8113 84.3629 77.9185 82.5701C77.9285 80.1301 76.6985 78.7501 74.9185 78.8201Z" fill="#6D7080"/>
<path d="M72.9485 83.84L73.4885 83.53L74.7485 85.37L72.2285 91.73L70.9785 91.01L73.4985 84.65L72.9485 83.84Z" fill="#2B2C33"/>
</g>
<defs>
<clipPath id="clip0_1562_11635">
<rect width="58.74" height="91.03" fill="white" transform="translate(19.1787 6)"/>
</clipPath>
</defs>
</svg>
