<svg width="96" height="100" viewBox="0 0 96 100" fill="none" xmlns="http://www.w3.org/2000/svg">
<g clip-path="url(#clip0_622_6610)">
<path d="M50.2828 98.3662C45.7629 98.8689 44.554 94.4322 44.554 94.4322C44.554 94.4322 65.6939 86.3566 66.3364 49.2351C66.979 12.1135 44.7718 6.13604 44.7718 6.13604C44.7718 6.13604 51.6006 -0.62823 62.0671 4.81379C71.2048 9.56735 84.2416 25.6967 82.6624 54.535C81.9218 68.0526 78.1425 95.2736 50.2828 98.3662Z" fill="#2B2C33"/>
<path d="M48.8995 58.2395C53.5392 45.2355 44.848 37.1599 19.5803 32.2206C-0.459552 28.2866 21.6605 -7.61106 57.1987 2.93422C51.459 0.890728 16.7813 21.9813 34.7845 28.2319C43.9985 31.4447 52.6352 36.9741 56.7412 42.0883C62.6552 49.5301 65.7265 69.812 48.8995 58.2395Z" fill="#6D7080"/>
<path d="M58.963 46.678C58.963 46.678 57.6343 42.591 43.2687 44.4924C43.2687 44.4924 36.1676 45.4868 36.1023 53.0051C36.0369 60.5234 51.1431 60.884 51.1431 60.884C51.1431 60.884 46.7866 57.0156 46.841 52.262C46.8955 47.5085 58.963 46.678 58.963 46.678Z" fill="white"/>
<path d="M42.9312 56.043C40.9439 55.3124 38.7814 55.2094 36.7341 55.748C36.7341 55.748 33.4667 57.1904 33.2489 59.0263C33.031 60.8622 52.8531 63.3974 56.5888 62.7855C60.5532 62.1189 61.0869 59.1574 61.0869 59.1574C61.0869 59.1574 57.1116 61.6053 42.9312 56.043Z" fill="#2B2C33"/>
<path d="M16.3565 57.8461C16.3565 57.8461 19.4169 52.3276 40.84 55.2563C41.2974 55.3109 47.3094 56.8517 44.8589 56.8408C43.3886 56.8408 36.1459 56.043 36.8974 56.207C22.7388 62.3265 44.0094 105.262 63.8641 94.3229C31.5934 112.113 3.1563 74.7186 16.3565 57.8461Z" fill="#6D7080"/>
<path d="M60.4878 50.0437C59.867 48.6777 59.072 42.3943 51.9164 45.3666C44.7609 48.339 46.8084 56.5785 48.8995 58.2395C50.9907 59.9005 55.7066 62.709 57.6125 62.2719C59.5185 61.8348 64.7354 59.4634 60.4878 50.0437Z" fill="#CDCED0"/>
<path d="M52.0035 91.1539C55.0053 92.674 58.3354 93.4249 61.6967 93.3394" stroke="#111214" stroke-width="0.5" stroke-miterlimit="10" stroke-linecap="round"/>
<path d="M56.1531 88.3455C56.1531 88.3455 62.7641 90.7058 64.8116 90.531" stroke="#111214" stroke-width="0.5" stroke-miterlimit="10" stroke-linecap="round"/>
<path d="M59.6274 84.2257C59.6274 84.2257 62.3176 86.3238 67.8939 86.9139" stroke="#111214" stroke-width="0.5" stroke-miterlimit="10" stroke-linecap="round"/>
<path d="M62.47 80.248C65.0914 81.9466 68.1614 82.8147 71.281 82.7395" stroke="#111214" stroke-width="0.5" stroke-miterlimit="10" stroke-linecap="round"/>
<path d="M64.0819 76.008C64.0819 76.008 69.1463 78.4449 72.9256 78.3356" stroke="#111214" stroke-width="0.5" stroke-miterlimit="10" stroke-linecap="round"/>
<path d="M65.073 72.1068C65.073 72.1068 70.9543 74.8278 74.5811 74.0192" stroke="#111214" stroke-width="0.5" stroke-miterlimit="10" stroke-linecap="round"/>
<path d="M66.0315 67.8013C66.0315 67.8013 72.7078 69.7902 75.5395 69.4951" stroke="#111214" stroke-width="0.5" stroke-miterlimit="10" stroke-linecap="round"/>
<path d="M51.3392 7.3381C51.3392 7.3381 57.3621 5.15255 59.4205 6.00491" stroke="#111214" stroke-width="0.5" stroke-miterlimit="10" stroke-linecap="round"/>
<path d="M55.6738 9.89518C55.6738 9.89518 63.0145 8.12489 64.6373 10.0372" stroke="#111214" stroke-width="0.5" stroke-miterlimit="10" stroke-linecap="round"/>
<path d="M59.7908 13.8947C59.7908 13.8947 64.6374 12.1354 67.273 13.6106" stroke="#111214" stroke-width="0.5" stroke-miterlimit="10" stroke-linecap="round"/>
<path d="M62.5354 17.7741C62.5354 17.7741 68.4166 16.5939 70.0285 17.9271" stroke="#111214" stroke-width="0.5" stroke-miterlimit="10" stroke-linecap="round"/>
<path d="M64.7463 22.0141C64.7463 22.0141 71.3464 20.9213 72.9692 22.6042" stroke="#111214" stroke-width="0.5" stroke-miterlimit="10" stroke-linecap="round"/>
<path d="M66.576 26.4289C66.576 26.4289 74.0692 26.2868 75.5395 28.0571" stroke="#111214" stroke-width="0.5" stroke-miterlimit="10" stroke-linecap="round"/>
<path d="M68.1553 31.0404C68.1553 31.0404 76.9663 32.0676 77.8485 33.5428" stroke="#111214" stroke-width="0.5" stroke-miterlimit="10" stroke-linecap="round"/>
<path d="M68.6344 36.231C68.6344 36.231 75.2454 35.6409 77.7395 37.7063" stroke="#111214" stroke-width="0.5" stroke-miterlimit="10" stroke-linecap="round"/>
<path d="M69.0375 40.7224C69.0375 40.7224 77.8485 42.3834 78.4039 42.8205L78.9485 43.2685" stroke="#111214" stroke-width="0.5" stroke-miterlimit="10" stroke-linecap="round"/>
<path d="M69.4296 45.0279C69.4296 45.0279 78.3604 47.2134 78.796 47.4648" stroke="#111214" stroke-width="0.5" stroke-miterlimit="10" stroke-linecap="round"/>
<path d="M69.5929 49.8907C69.5929 49.8907 77.7395 51.5517 78.4039 52.2183" stroke="#111214" stroke-width="0.5" stroke-miterlimit="10" stroke-linecap="round"/>
<path d="M69.5929 54.6443C69.5929 54.6443 75.7573 55.9775 77.6306 56.3053" stroke="#111214" stroke-width="0.5" stroke-miterlimit="10" stroke-linecap="round"/>
<path d="M68.6018 59.2886L77.0861 60.9387" stroke="#111214" stroke-width="0.5" stroke-miterlimit="10" stroke-linecap="round"/>
<path d="M67.3928 63.4848L76.4217 65.4737" stroke="#111214" stroke-width="0.5" stroke-miterlimit="10" stroke-linecap="round"/>
<path d="M55.3907 3.83029C55.9144 3.82549 56.4369 3.88049 56.9482 3.9942H57.0353C57.1878 3.9942 71.9672 6.51851 79.1228 30.0241C86.3545 53.8138 77.1188 76.9259 77.0099 77.1991C76.9009 77.4723 72.0435 90.7386 60.4552 95.0223C59.7125 95.167 58.9572 95.2366 58.2007 95.2299C53.7789 95.2299 45.2401 93.1974 37.7252 79.5705C30.3954 66.2823 33.238 60.4688 34.8063 58.5892C35.3094 58.0013 35.9349 57.5313 36.6387 57.2122C37.3425 56.8931 38.1074 56.7328 38.8796 56.7424H38.9341C42.6002 56.7468 46.1973 57.7435 49.3461 59.6273C53.4194 62.2828 55.8809 62.8401 57.1442 62.8401C57.4766 62.8485 57.808 62.8004 58.1244 62.698C58.9023 62.5128 59.6272 62.1503 60.243 61.6386C60.8587 61.1269 61.3487 60.4799 61.675 59.7476C64.0493 54.6334 59.6166 45.006 59.3007 44.3394C58.9849 43.6728 55.8155 36.8102 40.9816 29.6744C38.9563 28.7303 36.8716 27.9199 34.741 27.2484C33.2924 26.7676 30.7766 25.6858 30.232 23.6969C29.7963 22.0796 30.6567 20.0143 32.8023 17.5555C40.6876 8.52921 50.1085 3.80843 55.3472 3.80843L55.3907 3.83029ZM55.3472 2.71565C49.4333 2.71565 39.7291 7.9719 31.9855 16.8343C25.5487 24.2105 31.1795 27.2375 34.4033 28.2866C36.4908 28.9426 38.5321 29.7385 40.5133 30.6688C55.5215 37.8811 58.3096 44.7875 58.3096 44.7875C58.3096 44.7875 65.3562 59.682 57.7977 61.6599C57.5872 61.7297 57.3656 61.7594 57.1442 61.7473C56.1531 61.7473 53.964 61.3321 49.9451 58.7094C46.6233 56.7155 42.8267 55.6584 38.9559 55.6497H38.9341C38.0022 55.642 37.0799 55.8384 36.2315 56.2254C35.3831 56.6123 34.6291 57.1803 34.0221 57.8898C31.6152 60.7857 29.8181 67.386 36.8212 80.095C44.7064 94.3994 53.8877 96.3227 58.2551 96.3227C59.1229 96.3398 59.9896 96.2518 60.8364 96.0604C73.089 91.5691 78.0881 77.5707 78.0881 77.5707C78.0881 77.5707 87.6615 54.1744 80.2664 29.7072C72.8712 5.23997 57.1987 2.96699 57.1987 2.96699C56.6056 2.83149 55.9989 2.76549 55.3907 2.77029L55.3472 2.71565Z" fill="#4D505B"/>
</g>
<defs>
<clipPath id="clip0_622_6610">
<rect width="71" height="98" fill="white" transform="translate(12 1)"/>
</clipPath>
</defs>
</svg>
