<svg width="96" height="102" viewBox="0 0 96 102" fill="none" xmlns="http://www.w3.org/2000/svg">
<g filter="url(#filter0_d_1007_10370)">
<path d="M45.08 34.83C45.3562 38.4565 45.1916 42.1031 44.59 45.69C44.059 48.9101 43.09 52.0425 41.71 55C40.5148 57.5915 38.8346 59.9302 36.76 61.89C35.223 63.328 33.3752 64.3922 31.36 65C30.928 65.1371 30.4869 65.2441 30.04 65.32L29.53 65.4H29.28C27.8288 65.2398 26.4153 64.834 25.1 64.2C22.4973 62.8734 20.2249 60.9803 18.45 58.66C16.3044 55.879 14.6165 52.7732 13.45 49.46C12.0632 45.602 11.2185 41.5702 10.94 37.48C10.6197 33.4128 10.862 29.3209 11.66 25.32C12.3326 21.8658 13.5512 18.5407 15.27 15.47C16.6709 12.9111 18.6292 10.6999 21 8.99998C22.2213 8.1815 23.5744 7.57937 25 7.21998C25.9591 6.97507 26.9617 6.95453 27.93 7.15998C29.7077 7.54109 31.3931 8.26823 32.89 9.29998C35.2275 10.9306 37.2303 12.9946 38.79 15.38C40.5871 18.0975 42.0036 21.0482 43 24.15C44.1167 27.6143 44.815 31.1998 45.08 34.83Z" fill="#2B2C33"/>
<path d="M44.77 34.31C45.0462 37.9365 44.8816 41.5831 44.28 45.17C43.7481 48.3867 42.7792 51.5156 41.4 54.47C40.2049 57.0615 38.5246 59.4003 36.45 61.36C34.9174 62.7941 33.0721 63.852 31.06 64.45C30.6287 64.5896 30.1874 64.6965 29.74 64.77L29.22 64.85H28.97C27.5192 64.6816 26.1065 64.2727 24.79 63.64C22.189 62.3108 19.9172 60.4182 18.14 58.1C15.9944 55.319 14.3065 52.2132 13.14 48.9C11.765 45.0662 10.9205 41.0625 10.63 37C10.306 32.9196 10.5483 28.814 11.35 24.8C12.0436 21.3617 13.2754 18.0543 15 15C16.4216 12.4517 18.3926 10.2519 20.77 8.55999C21.9602 7.72577 23.2819 7.09705 24.68 6.69999C25.6391 6.45508 26.6417 6.43455 27.61 6.63999C29.3831 7.02579 31.0643 7.7526 32.56 8.77999C34.8975 10.4106 36.9004 12.4746 38.46 14.86C40.2606 17.5805 41.6805 20.5345 42.68 23.64C43.8 27.1005 44.5017 30.6827 44.77 34.31Z" fill="#6D7080" stroke="#2B2C33" stroke-width="7" stroke-miterlimit="10"/>
<path d="M17.01 8.01999L69.16 7.42999L72.61 65.67L25.5 65.59L10.13 42.94L17.01 8.01999Z" fill="#2B2C33"/>
<path d="M23.17 7.16998L63.08 7.46998" stroke="#6D7080" stroke-width="2" stroke-miterlimit="10"/>
<path d="M19.86 11.74L59.76 12.04" stroke="#6D7080" stroke-width="2.2" stroke-miterlimit="10"/>
<path d="M17.66 16.77L57.56 17.07" stroke="#6D7080" stroke-width="2.4" stroke-miterlimit="10"/>
<path d="M14.67 22.12L54.58 22.43" stroke="#6D7080" stroke-width="2.6" stroke-miterlimit="10"/>
<path d="M12.6801 28.08L52.5801 28.39" stroke="#6D7080" stroke-width="2.8" stroke-miterlimit="10"/>
<path d="M12.2 34.47L52.11 34.78" stroke="#6D7080" stroke-width="3" stroke-miterlimit="10"/>
<path d="M13.3199 40.47L53.2299 40.78" stroke="#6D7080" stroke-width="2.8" stroke-miterlimit="10"/>
<path d="M14.98 46.44L54.88 46.74" stroke="#6D7080" stroke-width="2.6" stroke-miterlimit="10"/>
<path d="M16.59 51.86L56.5 52.16" stroke="#6D7080" stroke-width="2.4" stroke-miterlimit="10"/>
<path d="M19.5601 57.19L59.4601 57.49" stroke="#6D7080" stroke-width="2.2" stroke-miterlimit="10"/>
<path d="M22.78 62.36L62.68 62.66" stroke="#6D7080" stroke-width="2" stroke-miterlimit="10"/>
<path d="M82.36 35.6C82.6325 39.2135 82.5387 42.8454 82.08 46.44C81.6771 49.6078 80.8983 52.7164 79.76 55.7C78.832 58.2054 77.4488 60.5176 75.68 62.52C74.4607 63.8878 72.9115 64.9206 71.18 65.52C70.8248 65.6583 70.4561 65.7588 70.08 65.82L69.64 65.9H69.43C68.1851 65.7093 66.9874 65.2852 65.9 64.65C63.6218 63.2079 61.6921 61.2782 60.25 59C58.3754 56.1339 56.9175 53.0161 55.92 49.74C54.7163 45.8599 53.9679 41.853 53.69 37.8C53.3725 33.7525 53.5269 29.6818 54.15 25.67C54.6581 22.2792 55.6411 18.9768 57.07 15.86C58.1696 13.413 59.7988 11.2408 61.84 9.5C62.8179 8.70303 63.9424 8.10513 65.15 7.74C65.9552 7.52014 66.8047 7.52014 67.61 7.74C69.1474 8.16151 70.5763 8.90836 71.8 9.93C73.8289 11.6568 75.5237 13.7413 76.8 16.08C78.3665 18.8627 79.592 21.8241 80.45 24.9C81.4457 28.3932 82.0856 31.9781 82.36 35.6Z" fill="#6D7080" stroke="#2B2C33" stroke-width="7" stroke-miterlimit="10"/>
<path d="M67.72 7.59H67.75L71.11 7.62" stroke="#2B2C33" stroke-miterlimit="10"/>
<path d="M75.49 15.6L59.78 15.48" stroke="#2B2C33" stroke-width="2.2" stroke-miterlimit="10"/>
<path d="M78.82 20.01L56.84 19.84" stroke="#2B2C33" stroke-width="2.4" stroke-miterlimit="10"/>
<path d="M81.06 24.71L55 24.52" stroke="#2B2C33" stroke-width="2.6" stroke-miterlimit="10"/>
<path d="M82.6 29.93L53.9 29.72" stroke="#2B2C33" stroke-width="2.8" stroke-miterlimit="10"/>
<path d="M84 35.52L83.42 35.51L53.58 35.28" fill="#DADDEA"/>
<path d="M84 35.52L83.42 35.51L53.58 35.28" stroke="#2B2C33" stroke-width="3" stroke-miterlimit="10"/>
<path d="M83.47 40.73L53.97 40.5" stroke="#2B2C33" stroke-width="2.8" stroke-miterlimit="10"/>
<path d="M82.83 45.9L55.04 45.7" stroke="#2B2C33" stroke-width="2.6" stroke-miterlimit="10"/>
<path d="M81.52 50.6L56.73 50.42" stroke="#2B2C33" stroke-width="2.4" stroke-miterlimit="10"/>
<path d="M79.34 55.21L59.33 55.05" stroke="#2B2C33" stroke-width="2.2" stroke-miterlimit="10"/>
<path d="M63.5699 59.57L75.5199 59.67H75.5299" fill="#DADDEA"/>
<path d="M63.5699 59.57L75.5199 59.67H75.5299" stroke="#2B2C33" stroke-miterlimit="10"/>
<path d="M28.3199 87.81C34.8199 89.59 42.0099 84.93 46.8299 84.07C56.3399 81.99 60.4999 87.07 65.4099 89.41C67.3265 90.1735 69.4019 90.4516 71.4519 90.2196C73.5018 89.9876 75.4626 89.2526 77.16 88.08C75.16 90.62 70.3499 92.62 65.1599 91.31C60.3299 90.03 56.3599 84.31 46.5099 86.45C41.2799 87.63 33.6399 90.89 28.3199 87.81Z" fill="#2F3348"/>
<path d="M17 85.16C22.47 88.38 28.52 91.16 34.89 90.7C40.5263 90.0412 46.0669 88.729 51.4 86.79C48.26 89.51 40.96 92.63 34.4 93.12C31.0943 93.1446 27.8234 92.4447 24.8173 91.0695C21.8112 89.6942 19.1429 87.6771 17 85.16Z" fill="#2F3348"/>
<path d="M42.8199 84.47C46.7199 82 50.9999 79.26 58.2699 81.63C64.7099 83.85 67.9099 85.44 71.1699 84.34C76.1699 82.64 74.5299 78.08 71.4499 78.2C69.7299 78.2 68.3199 79.93 69.7699 82.08C66.4499 79.19 71.2699 75.08 74.6699 77.95C76.9399 79.87 76.8299 83.71 73.4599 85.72C65.3099 90.51 58.3099 80.79 48.5099 82.72C46.5823 83.1975 44.6828 83.7818 42.8199 84.47Z" fill="#2F3348"/>
</g>
<defs>
<filter id="filter0_d_1007_10370" x="-4" y="0" width="103.636" height="108" filterUnits="userSpaceOnUse" color-interpolation-filters="sRGB">
<feFlood flood-opacity="0" result="BackgroundImageFix"/>
<feColorMatrix in="SourceAlpha" type="matrix" values="0 0 0 0 0 0 0 0 0 0 0 0 0 0 0 0 0 0 127 0" result="hardAlpha"/>
<feOffset dy="4"/>
<feGaussianBlur stdDeviation="2"/>
<feComposite in2="hardAlpha" operator="out"/>
<feColorMatrix type="matrix" values="0 0 0 0 0 0 0 0 0 0 0 0 0 0 0 0 0 0 0.25 0"/>
<feBlend mode="normal" in2="BackgroundImageFix" result="effect1_dropShadow_1007_10370"/>
<feBlend mode="normal" in="SourceGraphic" in2="effect1_dropShadow_1007_10370" result="shape"/>
</filter>
</defs>
</svg>
