<svg width="96" height="100" viewBox="0 0 96 100" fill="none" xmlns="http://www.w3.org/2000/svg">
<g clip-path="url(#clip0_652_10243)">
<path d="M74.8548 31.5929C73.5464 26.1927 71.486 20.9994 68.7329 16.1627C66.351 11.9034 63.1659 8.13749 59.3508 5.06969C55.9474 2.30434 51.8088 0.57576 47.4356 0.0929423C45.5922 -0.0799481 43.7337 -0.0017016 41.9118 0.3255C39.4326 0.779495 37.0517 1.65687 34.8753 2.91852C30.5915 5.48694 26.9475 8.98069 24.2148 13.1395C20.8738 18.1379 18.3598 23.6335 16.7678 29.4185C14.9031 36.1218 13.9719 43.0464 14.0001 49.9999C13.9707 56.9535 14.9019 63.8783 16.7678 70.5813C18.3539 76.3684 20.8683 81.865 24.2148 86.8604C26.9574 91.0253 30.6086 94.5262 34.8987 97.1046C37.0073 98.3117 39.3011 99.168 41.689 99.6395H41.9118C43.1044 99.8483 44.313 99.9533 45.524 99.9534C46.169 99.9534 46.8023 99.9534 47.4356 99.872C49.7949 99.6368 52.0979 99.0119 54.2493 98.0232C56.0749 97.1823 57.7949 96.1326 59.3743 94.8953C63.189 91.8317 66.3741 88.0697 68.7564 83.8139C71.5075 78.968 73.5677 73.7673 74.8782 68.3604C76.3432 62.349 77.0717 56.1843 77.0478 49.9999C77.0659 43.7992 76.3295 37.6189 74.8548 31.5929Z" fill="#6D7080"/>
<path d="M78.8069 31.6047C77.4806 26.1993 75.4046 21.0025 72.6382 16.1628C70.2555 11.9073 67.0704 8.14536 63.2561 5.08139C59.8624 2.3203 55.7375 0.588297 51.376 0.0930203C49.5366 -0.0798286 47.682 -0.00157923 45.864 0.325578C44.2198 0.629663 42.6177 1.12535 41.0909 1.80232C40.3226 2.14757 39.5747 2.53579 38.8509 2.96511C34.5589 5.53107 30.9067 9.02495 28.167 13.186C24.8233 18.183 22.3091 23.6791 20.72 29.4651C18.8505 36.1518 17.9153 43.0612 17.9405 50C17.9083 56.9545 18.8436 63.8802 20.72 70.5814C22.2998 76.3707 24.8147 81.8682 28.167 86.8605C30.9031 91.0276 34.5558 94.526 38.8509 97.093C41.027 98.353 43.4083 99.2266 45.8875 99.6744C46.3214 99.7558 46.767 99.8139 47.2127 99.8605C48.6044 100.006 50.0077 100.006 51.3995 99.8605C55.7807 99.3759 59.9291 97.6524 63.3499 94.8953C67.1589 91.8214 70.3429 88.0567 72.732 83.8023C75.4796 78.9548 77.5396 73.7546 78.8539 68.3488C80.3107 62.3404 81.0313 56.1796 81 50C81.0181 43.8031 80.2818 37.6266 78.8069 31.6047ZM69.4835 62.5581C68.5828 66.2458 67.1781 69.7941 65.3084 73.1047C63.685 76.0061 61.5153 78.5719 58.9169 80.6628C56.5883 82.5429 53.7625 83.7177 50.7779 84.0465C49.6057 84.1673 48.4224 84.1321 47.2596 83.9419H46.9664C45.2833 83.6272 43.6657 83.0336 42.1815 82.186C39.2553 80.4294 36.7628 78.0456 34.8869 75.2093C32.6067 71.8005 30.8923 68.0514 29.8089 64.1047C27.2886 54.9149 27.2886 45.2246 29.8089 36.0349C30.897 32.0862 32.6111 28.3339 34.8869 24.9186C36.7616 22.0813 39.2543 19.6972 42.1815 17.9419C43.6635 17.0895 45.2819 16.4957 46.9664 16.186C47.5357 16.0801 48.1117 16.014 48.6904 15.9884C49.3696 15.9361 50.0518 15.9361 50.731 15.9884C53.7179 16.3166 56.5448 17.496 58.87 19.3837C61.4711 21.4719 63.6413 24.0382 65.2615 26.9419C67.1333 30.2473 68.5381 33.7921 69.4366 37.4767C70.4508 41.5754 70.9666 45.7798 70.9729 50C70.9865 54.2301 70.4864 58.4465 69.4835 62.5581Z" fill="#2B2C33"/>
<path d="M68.123 49.8605C68.1319 54.0872 67.6279 58.2996 66.6218 62.407C65.7211 66.0946 64.3165 69.6429 62.4468 72.9535C60.8237 75.8518 58.6585 78.4169 56.0669 80.5116C54.1466 82.0436 51.8948 83.1141 49.4877 83.6395C48.9714 83.7652 48.446 83.8507 47.9162 83.8953H47.3064H47.0132C45.3301 83.5807 43.7125 82.9871 42.2283 82.1395C39.3021 80.3829 36.8096 77.999 34.9337 75.1628C32.6535 71.754 30.9391 68.0049 29.8557 64.0581C27.3354 54.8684 27.3354 45.1781 29.8557 35.9884C30.9438 32.0396 32.6579 28.2874 34.9337 24.8721C36.8084 22.0348 39.3011 19.6507 42.2283 17.8953C43.7103 17.043 45.3287 16.4491 47.0132 16.1395C47.5825 16.0336 48.1586 15.9675 48.7372 15.9418C51.4257 16.3866 53.9516 17.5166 56.0669 19.2209C58.6577 21.3027 60.8231 23.8562 62.4468 26.7442C64.3185 30.0496 65.7234 33.5944 66.6218 37.2791C67.629 41.398 68.133 45.6222 68.123 49.8605Z" fill="#DADDEA"/>
<path d="M55.9147 44.0232C56.8316 47.8459 56.8316 51.8285 55.9147 55.6512C55.4962 57.3623 54.8452 59.0091 53.9796 60.5465C53.2153 61.8803 52.2094 63.0628 51.0125 64.0349C49.9271 64.9064 48.6125 65.4511 47.2245 65.6046C46.6414 65.6572 46.054 65.6338 45.4771 65.5349C44.7196 65.4002 43.9903 65.1408 43.3192 64.7674C41.9573 63.953 40.7987 62.844 39.9299 61.5232C38.8741 59.9423 38.0821 58.2029 37.5844 56.3721C36.4117 52.1049 36.4117 47.6044 37.5844 43.3372C38.0868 41.5044 38.8784 39.762 39.9299 38.1744C40.8047 36.8617 41.9622 35.7576 43.3192 34.9419C44.0045 34.542 44.7544 34.2627 45.5357 34.1163C46.1126 34.0174 46.7001 33.9939 47.2831 34.0465C48.6736 34.1989 49.9895 34.7482 51.0712 35.6279C52.2735 36.5945 53.2803 37.7781 54.0382 39.1163C54.9058 40.6486 55.5569 42.2919 55.9733 44" fill="#8891A8"/>
<path d="M54.4955 44.9186C55.2774 48.1636 55.2774 51.5456 54.4955 54.7907C54.1388 56.2413 53.5866 57.6376 52.8537 58.9419C52.2125 60.0779 51.3657 61.087 50.3557 61.9186C49.4351 62.6571 48.3195 63.1173 47.1423 63.2442C45.9714 63.3559 44.7953 63.0909 43.7882 62.4884C42.6334 61.801 41.6509 60.8627 40.9149 59.7442C40.0153 58.4038 39.3419 56.9271 38.9212 55.3721C37.9205 51.7607 37.9205 47.9486 38.9212 44.3372C39.3443 42.783 40.0175 41.3067 40.9149 39.9651C41.6496 38.8465 42.6273 37.9049 43.7765 37.2093C44.358 36.874 44.9923 36.6381 45.6529 36.5116C46.1408 36.4284 46.6376 36.4089 47.1306 36.4535C48.3154 36.581 49.4367 37.0499 50.3557 37.8023C51.3752 38.6276 52.227 39.6379 52.8654 40.7791C53.6003 42.0783 54.1527 43.471 54.5072 44.9186" fill="#6D7080"/>
<path d="M52.9475 45.8837C53.5729 48.4947 53.5729 51.2146 52.9475 53.8256C52.6645 54.9882 52.2226 56.1071 51.634 57.1512C51.1203 58.0721 50.4313 58.8856 49.6051 59.5465C48.8731 60.1448 47.9801 60.5167 47.0368 60.6163C46.6475 60.6664 46.2533 60.6664 45.864 60.6163C45.331 60.5183 44.8191 60.3294 44.3511 60.0581C43.4114 59.5063 42.6096 58.7511 42.0056 57.8488C41.2835 56.7797 40.7409 55.6017 40.3989 54.3605C39.6012 51.456 39.6012 48.3928 40.3989 45.4884C40.7409 44.2471 41.2835 43.0691 42.0056 42C42.6096 41.0977 43.4114 40.3425 44.3511 39.7907C44.8211 39.5236 45.3323 39.335 45.864 39.2325C46.2533 39.1824 46.6475 39.1824 47.0368 39.2325C47.9801 39.3321 48.8731 39.704 49.6051 40.3023C50.4292 40.9653 51.1178 41.7783 51.634 42.6977C52.2226 43.7417 52.6645 44.8606 52.9475 46.0232" fill="#2B2C33"/>
<path d="M48.3386 23.4884C48.4731 24.0365 48.54 24.5987 48.538 25.1628C48.54 25.7269 48.4731 26.2891 48.3386 26.8372C48.2173 27.328 48.032 27.8009 47.7874 28.2442C47.5684 28.6282 47.2779 28.9675 46.9313 29.2442C46.6237 29.4961 46.2488 29.6537 45.8523 29.6977C45.6855 29.727 45.5148 29.727 45.348 29.6977C45.1208 29.6586 44.9024 29.5799 44.703 29.4651C44.3153 29.2276 43.9833 28.9104 43.7296 28.5349C43.4261 28.0826 43.2002 27.5836 43.0612 27.0581C42.7171 25.8334 42.7171 24.5387 43.0612 23.3139C43.2002 22.7849 43.426 22.282 43.7296 21.8256C43.9833 21.4501 44.3153 21.1329 44.703 20.8953C44.9024 20.7806 45.1208 20.7018 45.348 20.6628C45.5153 20.6394 45.6851 20.6394 45.8523 20.6628C46.2488 20.7068 46.6237 20.8644 46.9313 21.1163C47.279 21.3964 47.5696 21.7397 47.7874 22.1279C48.036 22.5693 48.2215 23.0428 48.3386 23.5349" fill="#6D7080"/>
<path d="M47.3653 24.093C47.4514 24.4432 47.4947 24.8024 47.4943 25.1628C47.4948 25.5194 47.4515 25.8747 47.3653 26.2209C47.289 26.5336 47.1707 26.8348 47.0135 27.1163C46.872 27.3585 46.6895 27.5749 46.474 27.7558C46.2724 27.9079 46.0336 28.0042 45.7821 28.0349C45.6773 28.0522 45.5703 28.0522 45.4655 28.0349C45.3235 28.0123 45.1877 27.9608 45.0667 27.8837C44.8164 27.7409 44.6035 27.5418 44.4451 27.3023C44.2541 27.0115 44.1078 26.6941 44.0112 26.3605C43.9127 25.9805 43.8615 25.59 43.8588 25.1977C43.8607 24.8053 43.9119 24.4147 44.0112 24.0349C44.1057 23.7005 44.2521 23.3828 44.4451 23.093C44.6031 22.8502 44.8159 22.6471 45.0667 22.5C45.1901 22.4278 45.3249 22.3767 45.4655 22.3488C45.5707 22.3372 45.6769 22.3372 45.7821 22.3488C46.036 22.3781 46.2762 22.479 46.474 22.6395C46.6912 22.8187 46.874 23.0354 47.0135 23.2791C47.1727 23.5555 47.2912 23.8531 47.3653 24.1628" fill="#4D505B"/>
<path d="M33.937 41.6744C34.0715 42.2225 34.1384 42.7847 34.1364 43.3488C34.1384 43.9129 34.0715 44.4751 33.937 45.0232C33.8178 45.5146 33.6324 45.9879 33.3858 46.4302C33.1668 46.8142 32.8762 47.1536 32.5297 47.4302C32.2221 47.6821 31.8472 47.8397 31.4507 47.8837C31.2839 47.9131 31.1132 47.9131 30.9464 47.8837C30.7192 47.8447 30.5008 47.7659 30.3014 47.6511C29.9111 47.4169 29.5785 47.0991 29.328 46.7209C29.0223 46.2698 28.7963 45.7705 28.6595 45.2442C28.3155 44.0194 28.3155 42.7247 28.6595 41.5C28.7986 40.9709 29.0244 40.4681 29.328 40.0116C29.5817 39.6361 29.9136 39.3189 30.3014 39.0814C30.5008 38.9666 30.7192 38.8879 30.9464 38.8488C31.1137 38.8254 31.2835 38.8254 31.4507 38.8488C31.8472 38.8928 32.2221 39.0504 32.5297 39.3023C32.8774 39.5824 33.168 39.9258 33.3858 40.3139C33.6304 40.7408 33.8159 41.1984 33.937 41.6744Z" fill="#6D7080"/>
<path d="M32.9754 42.2791C33.0615 42.6293 33.1048 42.9884 33.1044 43.3488C33.1049 43.7054 33.0616 44.0608 32.9754 44.407C32.8991 44.7197 32.7808 45.0209 32.6236 45.3023C32.4821 45.5446 32.2996 45.7609 32.0841 45.9419C31.8853 46.0988 31.6451 46.1956 31.3922 46.2209C31.2874 46.2383 31.1804 46.2383 31.0756 46.2209C30.9336 46.1983 30.7978 46.1469 30.6768 46.0698C30.4265 45.927 30.2136 45.7278 30.0553 45.4884C29.8642 45.1976 29.7179 44.8801 29.6213 44.5465C29.5228 44.1666 29.4716 43.7761 29.4689 43.3837C29.4708 42.9914 29.522 42.6008 29.6213 42.2209C29.7158 41.8866 29.8622 41.5688 30.0553 41.2791C30.2132 41.0362 30.426 40.8332 30.6768 40.6861C30.8002 40.6139 30.935 40.5628 31.0756 40.5349C31.1808 40.5233 31.287 40.5233 31.3922 40.5349C31.6461 40.5642 31.8863 40.6651 32.0841 40.8256C32.3013 41.0048 32.4841 41.2215 32.6236 41.4651C32.7828 41.7416 32.9013 42.0391 32.9754 42.3488" fill="#4D505B"/>
<path d="M35.8487 63.4651C35.9813 64.0056 36.0483 64.5599 36.0481 65.1162C36.0502 65.6803 35.9832 66.2426 35.8487 66.7907C35.7317 67.2827 35.5462 67.7563 35.2975 68.1976C35.0761 68.5833 34.7861 68.9261 34.4414 69.2093C34.1272 69.4556 33.7491 69.6088 33.3507 69.6511C33.1874 69.6743 33.0215 69.6743 32.8582 69.6511C32.6322 69.6017 32.4148 69.5194 32.2132 69.4069C31.8203 69.1759 31.487 68.8575 31.2398 68.4767C30.9341 68.0256 30.708 67.5262 30.5713 67C30.2272 65.7752 30.2272 64.4805 30.5713 63.2558C30.7103 62.7267 30.9362 62.2239 31.2398 61.7674C31.4906 61.3895 31.8231 61.0718 32.2132 60.8372C32.4171 60.7324 32.634 60.6542 32.8582 60.6046C33.0219 60.5875 33.187 60.5875 33.3507 60.6046C33.75 60.6515 34.1279 60.8086 34.4414 61.0581C34.7861 61.3413 35.0761 61.684 35.2975 62.0697C35.5462 62.5111 35.7317 62.9847 35.8487 63.4767" fill="#6D7080"/>
<path d="M34.8754 64.0814C35.0474 64.7765 35.0474 65.5025 34.8754 66.1977C34.8033 66.5117 34.6847 66.8134 34.5236 67.093C34.3821 67.3353 34.1996 67.5516 33.9841 67.7326C33.7852 67.8894 33.5451 67.9863 33.2922 68.0116C33.1874 68.029 33.0804 68.029 32.9755 68.0116C32.8298 67.9893 32.6902 67.9378 32.5651 67.8605C32.3208 67.7139 32.1125 67.5153 31.9552 67.2791C31.7598 66.9907 31.6132 66.6725 31.5213 66.3372C31.3262 65.5741 31.3262 64.7748 31.5213 64.0116C31.6132 63.6763 31.7598 63.3582 31.9552 63.0698C32.1123 62.8303 32.3205 62.6278 32.5651 62.4767C32.6949 62.4094 32.8328 62.3586 32.9755 62.3256C33.0808 62.314 33.187 62.314 33.2922 62.3256C33.5461 62.3549 33.7863 62.4558 33.9841 62.6163C34.1996 62.7972 34.3821 63.0135 34.5236 63.2558C34.6847 63.5354 34.8033 63.8371 34.8754 64.1512" fill="#4D505B"/>
<path d="M51.9742 73.6511C52.1087 74.1992 52.1756 74.7615 52.1736 75.3255C52.1756 75.8896 52.1087 76.4519 51.9742 77C51.8571 77.492 51.6716 77.9656 51.423 78.4069C51.2085 78.7973 50.9174 79.1413 50.5669 79.4186C50.2593 79.6705 49.8844 79.8281 49.488 79.8721C49.3207 79.8954 49.1509 79.8954 48.9837 79.8721C48.7565 79.833 48.5381 79.7543 48.3386 79.6395C47.9547 79.4012 47.6267 79.084 47.377 78.7093C47.0695 78.2535 46.8397 77.7507 46.6968 77.2209C46.3527 75.9962 46.3527 74.7015 46.6968 73.4767C46.8397 72.9506 47.0695 72.4516 47.377 72C47.6235 71.6226 47.9521 71.3048 48.3386 71.0697C48.5381 70.955 48.7565 70.8762 48.9837 70.8372C49.1505 70.8078 49.3212 70.8078 49.488 70.8372C49.8844 70.8812 50.2593 71.0387 50.5669 71.2907C50.9173 71.5634 51.2085 71.9036 51.423 72.2907C51.6696 72.733 51.855 73.2062 51.9742 73.6976" fill="#6D7080"/>
<path d="M51.0007 74.2674C51.0868 74.6136 51.1302 74.969 51.1297 75.3256C51.1301 75.686 51.0868 76.0451 51.0007 76.3953C50.9265 76.705 50.8081 77.0026 50.6489 77.279C50.5141 77.5259 50.3307 77.7434 50.1094 77.9186C49.9115 78.0791 49.6714 78.18 49.4175 78.2093C49.3123 78.2209 49.2061 78.2209 49.1008 78.2093C48.9603 78.1814 48.8255 78.1303 48.7021 78.0581C48.4513 77.911 48.2385 77.7079 48.0805 77.4651C47.8875 77.1753 47.7411 76.8576 47.6466 76.5232C47.5472 76.1434 47.496 75.7528 47.4941 75.3604C47.4969 74.9681 47.5481 74.5776 47.6466 74.1977C47.7432 73.864 47.8894 73.5466 48.0805 73.2558C48.2389 73.0163 48.4518 72.8172 48.7021 72.6744C48.8231 72.5973 48.9588 72.5458 49.1008 72.5232C49.2057 72.5059 49.3127 72.5059 49.4175 72.5232C49.6703 72.5485 49.9105 72.6454 50.1094 72.8023C50.3279 72.9802 50.5109 73.1971 50.6489 73.4418C50.8061 73.7233 50.9244 74.0245 51.0007 74.3372" fill="#4D505B"/>
<path d="M64.4289 59.3954C64.5634 59.9434 64.6304 60.5057 64.6283 61.0698C64.6342 61.6494 64.5672 62.2275 64.4289 62.7907C64.3132 63.2849 64.1234 63.7592 63.866 64.1977C63.6517 64.5848 63.3651 64.9281 63.0216 65.2093C62.7097 65.4616 62.331 65.619 61.9309 65.6628C61.7637 65.686 61.5939 65.686 61.4267 65.6628C61.2027 65.6254 60.9878 65.5465 60.7934 65.4302C60.4033 65.1957 60.0708 64.8779 59.82 64.5C59.5172 64.0416 59.2878 63.5396 59.1398 63.0116C58.9705 62.402 58.8876 61.7719 58.8935 61.1395C58.8896 60.5073 58.9725 59.8775 59.1398 59.2674C59.2876 58.7431 59.5171 58.2449 59.82 57.7907C60.0673 57.4099 60.4005 57.0915 60.7934 56.8605C60.9878 56.7442 61.2027 56.6653 61.4267 56.6279C61.5935 56.599 61.7641 56.599 61.9309 56.6279C62.331 56.6717 62.7097 56.8291 63.0216 57.0814C63.3681 57.3596 63.6552 57.7035 63.866 58.093C64.1214 58.5284 64.3111 58.9985 64.4289 59.4884" fill="#6D7080"/>
<path d="M63.5023 60.0116C63.5844 60.3584 63.6238 60.7137 63.6196 61.0698C63.6238 61.4297 63.5844 61.7889 63.5023 62.1395C63.419 62.4481 63.2969 62.745 63.1387 63.0233C63.004 63.2702 62.8205 63.4876 62.5993 63.6628C62.4068 63.8247 62.17 63.926 61.9191 63.9535C61.8139 63.9653 61.7076 63.9653 61.6024 63.9535C61.4582 63.9258 61.3195 63.8747 61.192 63.8023C60.9462 63.6487 60.7347 63.4469 60.5704 63.2093C60.3815 62.9188 60.2391 62.6011 60.1482 62.2674C60.0392 61.8893 59.984 61.4979 59.984 61.1047C59.9849 60.7114 60.0401 60.3202 60.1482 59.9419C60.2411 59.6089 60.3834 59.2915 60.5704 59C60.7347 58.7656 60.9463 58.5676 61.192 58.4186C61.3171 58.3412 61.4567 58.2898 61.6024 58.2674C61.7072 58.2499 61.8143 58.2499 61.9191 58.2674C62.1675 58.2961 62.403 58.3928 62.5993 58.5465C62.8178 58.7244 63.0008 58.9413 63.1387 59.1861C63.2949 59.4693 63.4169 59.7698 63.5023 60.0814" fill="#4D505B"/>
<path d="M63.5963 37.2093C63.7295 37.7576 63.7965 38.3197 63.7956 38.8837C63.7977 39.4478 63.7308 40.01 63.5963 40.5581C63.4792 41.0502 63.2937 41.5237 63.0451 41.9651C62.8305 42.3555 62.5394 42.6994 62.189 42.9767C61.8814 43.2287 61.5065 43.3863 61.11 43.4302C60.9427 43.4536 60.773 43.4536 60.6057 43.4302C60.3785 43.3912 60.1601 43.3125 59.9607 43.1977C59.5767 42.9594 59.2488 42.6422 58.999 42.2674C58.6831 41.7868 58.4531 41.2557 58.3188 40.6977C58.1456 40.0886 58.0587 39.4585 58.0608 38.8256C58.0608 38.1928 58.1476 37.563 58.3188 36.9535C58.4641 36.4282 58.6938 35.9296 58.999 35.4767C59.2488 35.102 59.5767 34.7848 59.9607 34.5465C60.1601 34.4317 60.3785 34.353 60.6057 34.314C60.773 34.2906 60.9427 34.2906 61.11 34.314C61.5065 34.3579 61.8814 34.5155 62.189 34.7674C62.5394 35.0447 62.8305 35.3887 63.0451 35.7791C63.2918 36.2173 63.4772 36.6867 63.5963 37.1744" fill="#6D7080"/>
<path d="M62.6226 37.814C62.7947 38.513 62.7947 39.2428 62.6226 39.9419C62.5485 40.2516 62.43 40.5492 62.2708 40.8256C62.1392 41.0746 61.9552 41.2927 61.7313 41.4651C61.5335 41.6256 61.2934 41.7265 61.0394 41.7558C60.9342 41.7674 60.828 41.7674 60.7228 41.7558C60.5823 41.728 60.4475 41.6768 60.324 41.6047C60.0707 41.4608 59.8572 41.2571 59.7025 41.0116C59.5095 40.7219 59.3631 40.4041 59.2685 40.0698C59.1692 39.69 59.118 39.2994 59.1161 38.907C59.1195 38.5147 59.1707 38.1243 59.2685 37.7442C59.3662 37.4146 59.5124 37.1012 59.7025 36.814C59.8572 36.5685 60.0707 36.3648 60.324 36.2209C60.4475 36.1487 60.5823 36.0976 60.7228 36.0698C60.8276 36.0524 60.9346 36.0524 61.0394 36.0698C61.2934 36.0991 61.5335 36.2 61.7313 36.3605C61.9552 36.5329 62.1392 36.751 62.2708 37C62.43 37.2764 62.5485 37.574 62.6226 37.8837" fill="#4D505B"/>
<path d="M47.7756 2.44185C51.8803 6.30581 55.4034 10.7348 58.2367 15.593C54.1347 11.7266 50.612 7.29794 47.7756 2.44185Z" fill="#6D7080"/>
<path d="M25.5986 20.6046C31.0298 18.1262 36.7734 16.3857 42.6741 15.4302C37.247 17.9192 31.5019 19.6602 25.5986 20.6046Z" fill="#6D7080"/>
<path d="M18.7966 42.8721C21.8629 38.1591 25.5906 33.9031 29.8675 30.2325C26.8016 34.9458 23.0739 39.2018 18.7966 42.8721Z" fill="#6D7080"/>
<path d="M21.494 67.9535C22.3467 62.668 23.9994 57.5404 26.3962 52.7442C25.5361 58.0279 23.8837 63.1544 21.494 67.9535Z" fill="#6D7080"/>
<path d="M69.8354 12.7907C70.2849 18.4172 69.9256 24.0784 68.7681 29.6046C68.3128 23.9782 68.6722 18.3161 69.8354 12.7907Z" fill="#6D7080"/>
<path d="M78.9712 37.2093C77.7495 42.2665 75.7479 47.1064 73.037 51.5581C74.2587 46.5009 76.2603 41.661 78.9712 37.2093Z" fill="#6D7080"/>
<path d="M79.4402 62.2325C76.1082 65.6036 72.2217 68.3876 67.9471 70.4651C71.2818 67.0919 75.1726 64.3078 79.452 62.2325H79.4402Z" fill="#6D7080"/>
<path d="M70.7852 83.5116C65.8206 84.6929 60.6983 85.0854 55.6096 84.6744C60.5742 83.4927 65.6965 83.1003 70.7852 83.5116Z" fill="#6D7080"/>
<path d="M51.4582 97.7442C47.4957 94.0824 44.108 89.8534 41.4076 85.1977C45.3701 88.8595 48.7578 93.0885 51.4582 97.7442Z" fill="#6D7080"/>
<path d="M30.4185 87.7442C29.6755 82.2638 29.7426 76.7053 30.6179 71.2442C31.3552 76.7249 31.288 82.2825 30.4185 87.7442Z" fill="#6D7080"/>
</g>
<defs>
<clipPath id="clip0_652_10243">
<rect width="67" height="100" fill="white" transform="translate(14)"/>
</clipPath>
</defs>
</svg>
