<svg width="96" height="100" viewBox="0 0 96 100" fill="none" xmlns="http://www.w3.org/2000/svg">
<g clip-path="url(#clip0_595_10029)">
<path d="M63.8456 100.166L29.6221 97.9276L31.7566 96.2884L57.8555 98.6188C61.1434 98.9029 67.3661 99.5443 65.9535 99.8365C64.5409 100.129 63.9418 100.182 63.8456 100.166Z" fill="#6D7080"/>
<path d="M40.3316 85.9881C40.1101 85.6394 39.8885 85.2884 39.667 84.9269C39.4338 84.5537 39.2122 84.1678 38.9907 83.7725C38.7575 83.3761 38.5243 82.9563 38.3028 82.5494C38.0579 82.0818 37.8014 81.6038 37.5682 81.1141C37.3234 80.636 37.0901 80.1346 36.857 79.6344C36.7402 79.3884 36.6237 79.1447 36.5188 78.887C36.4139 78.655 36.309 78.4206 36.2157 78.1886L36.1807 78.1175C35.8659 77.3701 35.5511 76.6145 35.2712 75.8333C35.0847 75.3669 34.9098 74.8994 34.7583 74.4212C34.7259 74.3534 34.6986 74.2833 34.6767 74.2114C34.4901 73.6517 34.3036 73.1049 34.1287 72.5335C33.9421 71.9727 33.7789 71.4013 33.604 70.83C33.4408 70.247 33.2892 69.664 33.1376 69.081C33.0793 68.8712 33.0209 68.6508 32.9744 68.4408C32.8111 67.81 32.6596 67.157 32.5196 66.5169C32.5196 66.5052 32.508 66.4808 32.508 66.4691C32.4147 66.0272 32.3214 65.5829 32.2398 65.127C32.2048 64.9883 32.1698 64.8355 32.1465 64.6851C32.0766 64.3353 32.0183 63.9867 31.96 63.6357C31.89 63.2626 31.82 62.8883 31.7619 62.5175C31.6803 61.9917 31.5986 61.4682 31.5287 60.9306C31.4354 60.3022 31.3538 59.6597 31.2839 59.0196L31.2137 58.4252C31.1554 57.7839 31.0854 57.1414 31.0388 56.5013C31.0271 56.408 31.0271 56.3032 31.0155 56.2098C31.0038 55.9754 30.9805 55.7434 30.9688 55.5102C30.9455 55.1942 30.9222 54.8689 30.9105 54.5541C30.8989 54.3442 30.8872 54.1215 30.8755 53.9116C30.8522 53.6563 30.8522 53.3998 30.8406 53.1304C30.8406 53.0255 30.8289 52.9217 30.8289 52.805C30.8172 52.5368 30.8056 52.2673 30.8056 52.0016C30.8056 51.8594 30.7939 51.7101 30.7939 51.5679C30.7822 51.056 30.7822 50.5302 30.7822 50.0066V49.5509C30.7822 49.0496 30.7822 48.5494 30.8055 48.048C30.8172 47.4055 30.8405 46.7654 30.8755 46.1241C30.8872 45.6565 30.9105 45.203 30.9455 44.7481C30.947 44.6393 30.9548 44.5306 30.9688 44.4227C30.9805 44.165 31.0038 43.9073 31.0271 43.6496C31.0291 43.5486 31.0369 43.4478 31.0504 43.3476C31.097 42.7891 31.1553 42.2178 31.2136 41.6686C31.2719 41.0634 31.3419 40.4571 31.4235 39.8602C31.5285 39.0906 31.6334 38.335 31.75 37.576C31.7617 37.5422 31.7617 37.4944 31.7733 37.4605C31.9016 36.6677 32.0415 35.8736 32.193 35.0924C32.2047 35.0353 32.2164 34.9642 32.228 34.9047C32.3562 34.288 32.4845 33.6826 32.6127 33.0883C32.671 32.7851 32.741 32.4797 32.8226 32.1881C32.9508 31.6425 33.0907 31.0933 33.2307 30.5581L33.2657 30.417C33.4056 29.8818 33.5572 29.3443 33.7204 28.8208C33.7554 28.668 33.802 28.5293 33.8487 28.3765C34.2802 26.9412 34.7465 25.5548 35.2595 24.2023C35.516 23.5365 35.7724 22.8742 36.0407 22.2214C36.0423 22.2214 36.0438 22.2211 36.0452 22.2206C36.0467 22.22 36.048 22.2191 36.0491 22.218C36.0501 22.2169 36.051 22.2156 36.0516 22.2142C36.0522 22.2128 36.0524 22.2112 36.0524 22.2097C36.2973 21.615 36.5538 21.018 36.8336 20.4351C36.8919 20.2963 36.9503 20.1576 37.0202 20.0283C37.5565 18.8623 38.1395 17.7441 38.7459 16.6597C39.049 16.1106 39.3638 15.573 39.6786 15.0611C39.702 15.0157 39.7369 14.9679 39.7603 14.9224C40.0984 14.3847 40.4365 13.8612 40.7863 13.3483C40.9844 13.0323 41.2061 12.7292 41.4276 12.426C41.5326 12.2627 41.6491 12.1006 41.7657 11.9363C42.1738 11.3883 42.5819 10.8636 42.99 10.3516C43.0133 10.3259 43.0367 10.2921 43.06 10.27C43.3631 9.89567 43.678 9.53419 43.9811 9.18559C44.2959 8.82298 44.6108 8.47318 44.9372 8.14668C45.252 7.80972 45.5785 7.48206 45.905 7.16723C46.2315 6.85358 46.5696 6.53643 46.9078 6.24495C47.2226 5.95344 47.549 5.68761 47.8755 5.41828C48.0388 5.29118 48.2032 5.15012 48.3652 5.02302C48.6439 4.80148 48.9249 4.58927 49.2164 4.39221C49.2864 4.34555 49.3447 4.29776 49.4145 4.25227C49.7643 4.00625 50.1013 3.76257 50.4639 3.54219C50.8149 3.31934 51.1751 3.09794 51.5366 2.88807C51.8981 2.69101 52.249 2.49281 52.6233 2.30509H52.6339C52.9033 2.16402 53.1691 2.04856 53.4384 1.9203C53.695 1.7932 53.9503 1.68825 54.2197 1.5705C54.5928 1.42009 54.966 1.27898 55.3483 1.15072C55.5361 1.08075 55.7226 1.02363 55.9092 0.952632C56.0957 0.894337 56.2823 0.83721 56.4805 0.789385C56.6671 0.732257 56.8653 0.672654 57.0519 0.627305C57.4262 0.534026 57.8226 0.452421 58.2074 0.369612C58.3939 0.335795 58.5805 0.299644 58.7671 0.26466H58.7787C58.8009 0.26466 58.8125 0.254048 58.8359 0.254048C59.0469 0.216729 59.2568 0.194586 59.4667 0.160769C59.6648 0.137458 59.8515 0.11298 60.0497 0.0896335C60.1506 0.0875065 60.2514 0.0801034 60.3516 0.0674546C60.4684 0.0674546 60.5953 0.0557814 60.7376 0.0441437L60.7959 0.321646C58.394 0.754224 56.062 1.64039 53.8454 2.91131C49.9044 5.16158 46.3131 8.65959 43.2466 13.1369C40.1567 17.6727 37.6265 23.1994 35.8658 29.4258C34.0936 35.7116 33.1141 42.6715 33.1141 50.0067C33.1141 57.342 34.0935 64.3006 35.8658 70.5725C37.6265 76.8129 40.1566 82.3396 43.2466 86.8625C46.3131 91.3516 49.9044 94.8379 53.8454 97.0988C56.062 98.372 58.3939 99.2465 60.7959 99.6768L60.7376 99.9682C59.8397 99.911 58.9471 99.7902 58.0663 99.6068H58.043C57.9381 99.5835 57.8331 99.5613 57.7282 99.538C57.6128 99.5135 57.5078 99.4902 57.3889 99.4564C57.2735 99.4307 57.1685 99.4086 57.0519 99.3736C56.9481 99.3514 56.8315 99.3153 56.715 99.292C56.167 99.1392 55.6294 98.9665 55.0942 98.7684C54.7199 98.6273 54.3468 98.4886 53.976 98.3242C53.7522 98.2309 53.5435 98.1376 53.3219 98.0327C53.1692 97.9627 53.0188 97.8939 52.8672 97.8123C52.7028 97.7412 52.5524 97.6596 52.3996 97.5768C52.3585 97.5554 52.3161 97.5368 52.2725 97.5209C52.0965 97.4276 51.9332 97.3331 51.7712 97.2399C51.5251 97.0988 51.2675 96.96 51.0238 96.8073C50.9083 96.7502 50.8022 96.6802 50.6845 96.6092C50.1726 96.2838 49.6607 95.9469 49.171 95.5843C48.8201 95.3278 48.4703 95.0724 48.1321 94.7926C47.794 94.5232 47.4442 94.2434 47.1177 93.9519C47.0711 93.9064 47.0128 93.8586 46.9662 93.8131C46.733 93.6009 46.4881 93.3922 46.2665 93.1823C46.2134 93.139 46.1628 93.0927 46.115 93.0435C45.7885 92.7264 45.462 92.4011 45.1356 92.0758C44.6808 91.5977 44.2144 91.108 43.7714 90.581C43.5615 90.3373 43.3516 90.0924 43.1417 89.8371C43.0484 89.7203 42.9436 89.6027 42.8502 89.4861C42.8034 89.4309 42.7606 89.3724 42.7219 89.3112C42.6724 89.2597 42.6257 89.2056 42.582 89.1491C42.3721 88.8798 42.1622 88.5999 41.9524 88.3201C41.7891 88.0997 41.6375 87.8899 41.4743 87.666C41.346 87.4794 41.2178 87.2952 41.0895 87.1086C40.8796 86.8171 40.6697 86.514 40.4832 86.198C40.4283 86.1313 40.3777 86.0612 40.3316 85.9881" fill="#6D7080"/>
<path d="M49.4731 71.2044C49.3448 70.9583 49.2271 70.703 49.1 70.457C49.2516 70.1771 49.4148 69.9218 49.5664 69.6419C49.6247 69.5252 49.6713 69.4076 49.7296 69.291C50.0561 68.6392 50.3826 67.9745 50.6741 67.2761C50.7908 67.0068 50.8956 66.727 51.0006 66.4576C51.2221 65.8979 51.4553 65.3394 51.6524 64.7681C51.7713 64.4404 51.8646 64.1034 51.9695 63.7782C52.1421 63.2405 52.3182 62.6915 52.4709 62.1446C52.5747 61.7598 52.669 61.3634 52.7624 60.9786C52.914 60.3839 53.0535 59.7776 53.181 59.1596C53.207 59.0638 53.2268 58.9664 53.2405 58.8681C53.4154 57.9819 53.5541 57.0959 53.6847 56.1875C53.6953 56.0942 53.7069 56.0115 53.7185 55.9182C53.8456 54.9621 53.9389 53.9943 53.9984 53.0149C54.0081 52.9606 54.012 52.9055 54.01 52.8504C54.08 51.8488 54.115 50.8216 54.115 49.7967C54.115 48.7695 54.08 47.7457 54.01 46.7406C54.01 46.673 53.9984 46.5902 53.9984 46.5203C53.9284 45.5408 53.8351 44.5614 53.7185 43.6053C53.7069 43.5703 53.7069 43.5225 53.6952 43.4886C53.5658 42.5441 53.4142 41.6113 53.2405 40.6902C53.2289 40.6424 53.2172 40.5853 53.2055 40.5258C53.019 39.5942 52.8103 38.6614 52.5643 37.7636C52.5643 37.7519 52.5526 37.7403 52.5526 37.7274C52.3066 36.8296 52.0384 35.9552 51.7469 35.0921C51.7003 34.965 51.6524 34.8484 51.6069 34.719C51.3738 34.0451 51.1172 33.3793 50.849 32.7368C50.7674 32.5398 50.6846 32.3416 50.6042 32.1433C50.2777 31.396 49.9407 30.6742 49.5781 29.9746C49.5665 29.964 49.5664 29.9501 49.556 29.9385C49.4032 29.647 49.24 29.3916 49.0884 29.1118C47.9526 31.4052 47.0389 33.8022 46.36 36.2698C45.2175 40.3986 44.5878 44.9693 44.5878 49.7626C44.5878 54.5654 45.2175 59.136 46.36 63.2625C47.1529 66.1553 48.2139 68.8125 49.4732 71.204L49.4731 71.2044ZM93.4554 31.5945C94.8651 37.2974 95.6347 43.5004 95.6347 50.0066C95.6347 56.5012 94.8651 62.7159 93.4554 68.4048C92.0318 74.1298 89.9691 79.3663 87.3911 83.8542C84.7793 88.391 81.6427 92.1689 78.111 94.9427C74.5314 97.7411 70.532 99.5018 66.2645 99.9098C64.4397 100.084 62.5996 100.006 60.796 99.6778C58.3942 99.2463 56.0621 98.3719 53.8456 97.0998C49.9033 94.8378 46.3133 91.3515 43.2467 86.8624C40.1568 82.3395 37.6266 76.8129 35.866 70.5735C34.0937 64.3017 33.1143 57.3419 33.1143 50.0065C33.1143 42.6712 34.0937 35.7115 35.866 29.4268C37.6266 23.2004 40.1568 17.6736 43.2467 13.1368C46.3133 8.65937 49.9033 5.16139 53.8456 2.91102C56.0621 1.64112 58.3941 0.755097 60.796 0.322519C62.5994 -0.00654462 64.4397 -0.0849886 66.2645 0.0894097C70.532 0.49751 74.5312 2.25814 78.111 5.06818C81.6428 7.83273 84.7793 11.6222 87.3911 16.1567C89.9691 20.6365 92.0317 25.8695 93.4554 31.5945Z" fill="#2B2C33"/>
<path d="M60.5964 0.0440063H60.7364C60.5964 0.0556795 60.4693 0.0674234 60.3516 0.0674234C60.3857 0.0578638 60.4211 0.0539212 60.4565 0.0557502C60.5033 0.0552405 60.5501 0.0513392 60.5964 0.0440771" fill="#2B2C33"/>
<path d="M60.3528 0.067337C60.2519 0.0808924 60.1503 0.0886754 60.0486 0.0906479C59.9436 0.10126 59.8399 0.112792 59.7466 0.112792L59.2079 0.138437C59.5821 0.112827 59.968 0.0906479 60.3528 0.067337Z" fill="#2B2C33"/>
<path d="M59.2088 0.138497L59.7464 0.11409C58.929 0.172314 58.1594 0.231776 56.1772 0.358872C56.7381 0.311083 57.3211 0.265593 57.9262 0.231776C58.346 0.195625 58.7787 0.172314 59.2088 0.138497Z" fill="#2B2C33"/>
<path d="M57.7294 99.5392C57.8332 99.5625 57.9381 99.5847 58.0419 99.608C57.8215 99.5625 57.6117 99.5147 57.3901 99.4576C57.5079 99.4914 57.6117 99.5147 57.7294 99.5392Z" fill="#2B2C33"/>
<path d="M58.0428 99.6069L52.8774 99.2699C54.0691 99.2466 55.2444 99.2466 56.7147 99.292C56.8315 99.3153 56.9479 99.3515 57.0517 99.3748C57.1684 99.4086 57.2732 99.4319 57.3898 99.4564C57.6127 99.5135 57.8224 99.5613 58.0428 99.6068" fill="#2B2C33"/>
<path d="M52.1196 0.602512L57.9263 0.231766C57.3211 0.265582 56.7381 0.311037 56.1773 0.358862C56.084 0.358862 55.9907 0.370535 55.8858 0.370535C55.8521 0.380158 55.817 0.384103 55.782 0.382208C54.848 0.440467 53.6587 0.509233 52.1196 0.602512Z" fill="#6D7080"/>
<path d="M57.0518 0.626981C57.2382 0.579227 57.4365 0.533773 57.6231 0.485948C57.8097 0.440458 58.0079 0.404342 58.2061 0.369217C57.8213 0.452132 57.4249 0.533773 57.0518 0.626981Z" fill="#6D7080"/>
<path d="M56.4805 0.789124C56.2824 0.836913 56.0957 0.894076 55.9092 0.953538C56.0957 0.894076 56.294 0.836913 56.4805 0.789124Z" fill="#6D7080"/>
<path d="M53.3219 98.0339C53.1948 97.9744 53.0642 97.9171 52.9371 97.8589C52.7505 97.7657 52.5745 97.6829 52.3994 97.5779C52.5522 97.6607 52.7026 97.7424 52.8658 97.8135C53.0186 97.8951 53.169 97.9627 53.3217 98.0339" fill="#2B2C33"/>
<path d="M51.771 97.2411C51.9331 97.3343 52.0964 97.4276 52.2724 97.5209C52.0964 97.4275 51.9331 97.3459 51.771 97.2411Z" fill="#2B2C33"/>
<path d="M51.0249 96.8084C51.2686 96.9612 51.525 97.0999 51.7723 97.241C51.5136 97.114 51.2639 96.9695 51.0249 96.8084Z" fill="#2B2C33"/>
<path d="M49.4031 4.25328H49.4148C49.3448 4.29877 49.2865 4.34656 49.2167 4.39205C49.2761 4.34656 49.3449 4.29877 49.4032 4.25328" fill="#6D7080"/>
<path d="M47.1995 0.918533L45.5205 1.03512C45.7071 1.01181 45.8936 0.997805 46.0802 0.987334C46.4067 0.975555 46.8031 0.95235 47.1995 0.918533Z" fill="#2B2C33"/>
<path d="M46.2666 93.1822C46.4881 93.3921 46.733 93.6008 46.9662 93.813C46.733 93.6149 46.4998 93.4027 46.2666 93.1822" fill="#2B2C33"/>
<path d="M45.2402 1.61804C45.5667 1.51309 45.8932 1.43148 46.2197 1.3382C46.5345 1.25543 46.861 1.18546 47.1991 1.11666C47.5256 1.04669 47.8521 0.987231 48.1786 0.941777C48.505 0.882315 48.8432 0.848498 49.1708 0.814681C49.4262 0.789036 49.6827 0.766892 49.9404 0.743546C50.1946 0.731873 50.4639 0.707394 50.7216 0.695757C51.2218 0.66194 51.6894 0.638629 52.1196 0.602478C53.6587 0.509199 54.848 0.440398 55.7807 0.380936C51.5483 0.720235 48.3896 1.06887 45.2402 1.61804Z" fill="#2B2C33"/>
<path d="M44.8205 98.2542C44.4707 97.6375 46.313 96.7175 50.6843 96.6102C50.802 96.6802 50.9082 96.7513 51.0236 96.8083C51.2631 96.9685 51.5128 97.113 51.771 97.2409C51.9331 97.3458 52.0964 97.4274 52.2724 97.5207C52.3159 97.537 52.3583 97.5561 52.3995 97.5778C52.5743 97.6828 52.7504 97.7644 52.9371 97.8577C53.0642 97.9171 53.1948 97.9744 53.3219 98.0337C53.5435 98.1375 53.7522 98.2308 53.976 98.3252C54.3468 98.4885 54.7199 98.6272 55.0942 98.7683C52.4929 98.7205 49.9032 99.0831 47.3042 98.9083C47.0944 98.8733 46.8845 98.8255 46.6746 98.78C46.4765 98.7322 46.2665 98.675 46.0566 98.6273C45.8468 98.5701 45.6485 98.5118 45.4387 98.4524C45.2406 98.3836 45.0306 98.3253 44.8207 98.2543" fill="#2B2C33"/>
<path d="M45.9048 7.16817C45.5783 7.48299 45.2518 7.81061 44.937 8.14761C45.2518 7.81061 45.5783 7.48299 45.9048 7.16817Z" fill="#2B2C33"/>
<path d="M42.5119 97.3459C42.1971 97.2072 41.8823 97.0544 41.5791 96.89C41.2643 96.7396 40.9495 96.5646 40.6463 96.4003C40.3432 96.2254 40.04 96.0412 39.7369 95.8546C39.4337 95.668 39.1306 95.4698 38.8392 95.2716C38.6411 93.975 40.5301 92.4242 45.1356 92.0756C45.4621 92.4021 45.7886 92.7274 46.1151 93.0446C46.1629 93.0937 46.2135 93.14 46.2667 93.1833C46.4999 93.4037 46.7331 93.6159 46.9663 93.8141C47.0129 93.8596 47.0712 93.9074 47.1179 93.9529C47.4443 94.2444 47.7941 94.5242 48.1322 94.7936C48.4704 95.0734 48.8202 95.3288 49.1712 95.5853C43.8647 95.7951 42.7454 96.89 42.5122 97.3459" fill="#2B2C33"/>
<path d="M44.424 1.10626C44.2724 1.11794 44.1209 1.12957 43.9693 1.14008C43.9431 1.12947 43.9139 1.12947 43.8877 1.14008L44.424 1.10626Z" fill="#6D7080"/>
<path d="M42.8501 89.486C42.9434 89.6028 43.0482 89.7204 43.1416 89.837C43.0483 89.7203 42.9435 89.6027 42.8501 89.486Z" fill="#6D7080"/>
<path d="M42.582 89.1491C42.6258 89.2056 42.6725 89.2597 42.722 89.3112C42.6637 89.2541 42.6287 89.1945 42.582 89.1491Z" fill="#2B2C33"/>
<path d="M41.0896 87.1086C41.2178 87.2951 41.3461 87.4793 41.4744 87.6659C41.1362 87.1878 40.7981 86.6981 40.4833 86.1979C40.6698 86.5139 40.8797 86.8169 41.0896 87.1086" fill="#2B2C33"/>
<path d="M40.9027 13.1614C41.066 12.9154 41.2409 12.6717 41.4274 12.4256C41.2059 12.7288 40.9844 13.0321 40.7861 13.3479C40.8203 13.2829 40.8593 13.2205 40.9029 13.1614" fill="#6D7080"/>
<path d="M39.2241 4.47364C39.5273 4.28708 39.8305 4.08885 40.1336 3.91397C40.4368 3.72856 40.7399 3.55367 41.0431 3.38928C41.3579 3.22603 41.661 3.06384 41.9759 2.91121C42.279 2.7608 42.5938 2.6197 42.9087 2.48096C47.5376 1.24386 53.8118 0.650368 58.7673 0.265579C58.5807 0.299396 58.393 0.335547 58.2064 0.369364C58.0084 0.404348 57.81 0.440499 57.6235 0.486095C57.4369 0.533885 57.2387 0.579374 57.0521 0.627164C56.8656 0.672653 56.6673 0.732116 56.4808 0.789243C56.2942 0.837032 56.096 0.894195 55.9094 0.95249C55.7217 1.02363 55.5351 1.08075 55.3486 1.15058C54.9661 1.27884 54.593 1.41991 54.2187 1.57035C48.109 2.23487 43.3401 3.15723 39.2241 4.47364Z" fill="#2B2C33"/>
<path d="M40.3314 85.9881C40.3775 86.0611 40.4281 86.1312 40.483 86.198C40.7978 86.6982 41.136 87.1879 41.4741 87.6659C41.6373 87.8898 41.7889 88.0997 41.9522 88.3201C42.162 88.5999 42.3719 88.8797 42.5818 89.1491C42.6285 89.1946 42.6634 89.254 42.7217 89.3111C42.7604 89.3724 42.8032 89.4308 42.85 89.486C42.9433 89.6028 43.0481 89.7204 43.1415 89.837C43.3514 90.0924 43.5613 90.3372 43.7712 90.5809C38.5242 91.0601 37.0784 92.7158 36.6819 93.6486C36.4021 93.4166 36.1106 93.1706 35.8307 92.9129C35.5509 92.6692 35.271 92.4127 34.9912 92.1433C34.7113 91.8775 34.4432 91.6081 34.1635 91.3283C33.8951 91.0601 33.6269 90.7687 33.3588 90.4772C33.3238 88.6594 35.4576 86.444 40.2381 85.8493C40.2731 85.8948 40.2964 85.9426 40.3314 85.9881" fill="#2B2C33"/>
<path d="M40.0635 14.4322C40.2967 14.0591 40.5416 13.7081 40.7864 13.3479C40.4366 13.8608 40.0985 14.3843 39.7604 14.922C39.8653 14.7576 39.9585 14.5943 40.0635 14.4323" fill="#6D7080"/>
<path d="M39.259 15.7604C39.3989 15.5284 39.5388 15.2964 39.6788 15.0608C39.3639 15.5737 39.0491 16.1114 38.746 16.6594C38.9092 16.3552 39.0841 16.0519 39.2589 15.7604" fill="#6D7080"/>
<path d="M37.5681 81.1154C37.8012 81.6051 38.0578 82.0832 38.3026 82.5495C38.5242 82.9576 38.7574 83.3763 38.9906 83.7727C39.013 83.8297 39.0403 83.8847 39.0722 83.9371C33.9418 84.6472 32.0996 86.6655 31.4466 88.2279C31.2018 87.9014 30.9452 87.5737 30.7002 87.2368C30.4554 86.8975 30.2105 86.5605 29.9657 86.2095C29.7325 85.8726 29.4993 85.5111 29.2661 85.1483C29.0329 84.7997 28.7997 84.4267 28.5781 84.0535C28.8114 81.6867 31.2484 78.936 36.1805 78.1189C36.1922 78.141 36.2038 78.1667 36.2155 78.1888C36.3088 78.4325 36.4136 78.6564 36.5187 78.8884C36.6236 79.1461 36.7402 79.3898 36.8568 79.6348C37.09 80.1361 37.3232 80.6375 37.568 81.1156" fill="#2B2C33"/>
<path d="M37.4049 19.2012C37.2767 19.4694 37.1484 19.7481 37.0201 20.0279C36.9512 20.1608 36.8889 20.297 36.8336 20.436C36.7862 20.5191 36.7434 20.6048 36.7053 20.6925C36.4838 21.1939 36.2622 21.6953 36.0524 22.2095L36.0407 22.2212C35.8191 22.7447 35.6091 23.2705 35.411 23.7941C35.3528 23.934 35.3061 24.0634 35.2595 24.2022C35.0962 24.5986 34.9563 25.0079 34.8048 25.416C29.6045 26.582 25.3953 28.8207 21.9556 32.2592L22.3404 30.79C22.4686 30.3015 22.6085 29.8223 22.7485 29.3442C22.8884 28.8661 23.0283 28.3881 23.18 27.9229C23.3316 27.4565 23.4832 26.9901 23.6464 26.5342C26.7829 23.0595 31.9248 20.3194 37.4049 19.2012Z" fill="#2B2C33"/>
<path d="M36.7057 20.6925C36.7439 20.6044 36.7867 20.5184 36.8338 20.4348C36.5541 21.0178 36.2976 21.6147 36.0527 22.2096C36.2626 21.6942 36.4843 21.194 36.7057 20.6926" fill="#6D7080"/>
<path d="M37.0549 6.04765C40.8328 4.35812 46.3479 3.02774 52.6232 2.30598C52.2489 2.49254 51.8991 2.69077 51.5365 2.88897C51.1751 3.09884 50.8149 3.31921 50.4638 3.54309C50.1024 3.76346 49.7642 4.00715 49.4144 4.25317H49.4027C49.3444 4.29866 49.2757 4.34645 49.2162 4.39194C48.9247 4.59003 48.6448 4.80227 48.365 5.02275C42.6516 5.84942 37.8594 7.19031 33.7085 9.1492C33.9767 8.85769 34.2449 8.59186 34.5247 8.31086C34.7929 8.04269 35.0727 7.77319 35.3524 7.51914C35.6325 7.26144 35.9122 7.00375 36.2038 6.76024C36.4836 6.51422 36.7751 6.28217 37.0549 6.04783" fill="#2B2C33"/>
<path d="M36.2158 78.1888C36.3091 78.4208 36.4139 78.6551 36.519 78.8883C36.414 78.6551 36.3091 78.4324 36.2158 78.1888Z" fill="#2B2C33"/>
<path d="M36.0531 22.2095C36.0531 22.2111 36.0528 22.2127 36.0522 22.2142C36.0516 22.2157 36.0507 22.217 36.0496 22.2182C36.0485 22.2193 36.0472 22.2202 36.0457 22.2208C36.0442 22.2214 36.0426 22.2216 36.041 22.2216L36.0531 22.2095Z" fill="#6D7080"/>
<path d="M36.0409 22.2211C35.7727 22.8753 35.5162 23.5375 35.2596 24.202C35.3063 24.0633 35.3529 23.9339 35.4112 23.7952C35.6095 23.2705 35.8193 22.7458 36.0409 22.2211Z" fill="#6D7080"/>
<path d="M34.758 74.4226C34.9095 74.9006 35.0844 75.3682 35.2709 75.8346C35.1311 75.4953 35.0028 75.1326 34.8745 74.7852C34.8289 74.6666 34.7899 74.5455 34.7578 74.4226" fill="#2B2C33"/>
<path d="M34.012 27.8308C33.9537 28.015 33.8953 28.191 33.8488 28.3776C33.8021 28.5303 33.7555 28.6691 33.7205 28.8218C33.6389 29.0539 33.569 29.2999 33.499 29.5435C33.4174 29.8233 33.3474 30.1264 33.2658 30.418C33.2541 30.4658 33.2425 30.5112 33.2308 30.559C33.1608 30.8027 33.0909 31.0487 33.0327 31.2924C32.9627 31.5956 32.8928 31.8871 32.8228 32.1891C32.7412 32.4806 32.6713 32.786 32.613 33.0892C32.4731 33.6838 32.3448 34.2894 32.2282 34.9058C27.2377 36.0976 23.2033 38.58 20.2417 42.2867C20.3 41.7515 20.3584 41.2152 20.4283 40.68C20.4866 40.1423 20.5565 39.6178 20.6381 39.0917C20.7081 38.5565 20.7897 38.0322 20.883 37.5188C20.9646 36.9941 21.0579 36.4824 21.1511 35.9564C23.2616 32.9483 27.7507 29.2288 34.012 27.8308Z" fill="#2B2C33"/>
<path d="M33.7203 28.8206C33.5571 29.3442 33.4055 29.8818 33.2656 30.4169C33.3472 30.1254 33.4172 29.8222 33.4988 29.5424C33.5688 29.2987 33.6387 29.0527 33.7203 28.8208" fill="#6D7080"/>
<path d="M33.0323 31.2914C33.0906 31.0478 33.1605 30.8017 33.2304 30.5581C33.0904 31.0933 32.9505 31.6424 32.8223 32.1893C32.8922 31.8861 32.9622 31.5946 33.0321 31.2915" fill="#6D7080"/>
<path d="M32.6128 33.0882C32.4846 33.6829 32.3563 34.2888 32.228 34.906C32.3446 34.288 32.4729 33.6821 32.6128 33.0882Z" fill="#6D7080"/>
<path d="M32.4496 66.214C32.3796 65.8514 32.2981 65.4899 32.2397 65.1273C32.3214 65.5832 32.4146 66.0273 32.5079 66.4695C32.4846 66.3867 32.4729 66.2934 32.4496 66.2141" fill="#2B2C33"/>
<path d="M31.9593 63.6371C32.0176 63.9881 32.0761 64.3367 32.1459 64.6865C32.1692 64.8369 32.2042 64.9896 32.2392 65.1284C32.2975 65.491 32.3791 65.8525 32.449 66.2151C32.4724 66.2944 32.484 66.3877 32.5073 66.4705C32.5073 66.4811 32.519 66.5066 32.519 66.5183C28.1234 67.4603 25.0687 69.6081 23.4361 72.8718C23.2845 72.4055 23.1329 71.9401 22.993 71.4621C22.8415 70.9957 22.7015 70.5164 22.5615 70.0384C22.4332 69.5487 22.2933 69.0706 22.165 68.581C22.0368 68.0914 21.9204 67.6015 21.8037 67.1013C22.6665 64.1863 25.6631 60.3255 31.2832 59.021C31.3532 59.6612 31.4348 60.3035 31.5281 60.932C31.598 61.4697 31.6796 61.9932 31.7613 62.5189C31.7729 62.6239 31.7962 62.717 31.8079 62.8221C31.8545 63.1019 31.9012 63.3689 31.9595 63.6371" fill="#2B2C33"/>
<path d="M31.7616 62.519C31.8199 62.8898 31.8899 63.2641 31.9597 63.6372C31.9017 63.369 31.8549 63.102 31.8083 62.8222C31.7966 62.7172 31.7733 62.6241 31.7616 62.519Z" fill="#6D7080"/>
<path d="M31.7851 11.3646C35.423 9.0326 41.078 7.1192 46.908 6.24471C46.5699 6.53622 46.2317 6.85334 45.9052 7.16699C45.5788 7.48181 45.2523 7.80944 44.9375 8.14644C44.611 8.47293 44.2962 8.8227 43.9814 9.18535C43.6782 9.53398 43.3634 9.89543 43.0602 10.2697C37.545 11.2374 32.9045 12.927 28.8701 15.4689C29.1033 15.0969 29.3365 14.7459 29.5697 14.3845C29.8029 14.0359 30.0478 13.6849 30.2926 13.3481C30.5259 12.9971 30.7707 12.6586 31.0272 12.3325C31.2721 12.0071 31.5286 11.6795 31.7851 11.3647" fill="#2B2C33"/>
<path d="M31.47 39.4768C31.5516 38.8365 31.6448 38.2058 31.7498 37.5772C31.6331 38.3351 31.5283 39.0918 31.4233 39.8614C31.435 39.7343 31.4583 39.6061 31.47 39.4766" fill="#6D7080"/>
<path d="M31.2367 41.4006C31.295 40.8771 31.3534 40.3642 31.4232 39.8615C31.3418 40.4573 31.2717 41.0636 31.2134 41.6687C31.2154 41.5789 31.2231 41.4894 31.2367 41.4006" fill="#6D7080"/>
<path d="M30.9804 44.2106C30.9921 44.0241 31.0037 43.8375 31.027 43.651C31.0037 43.9075 30.9804 44.1651 30.9688 44.4228C30.9688 44.3517 30.9804 44.2818 30.9804 44.2106" fill="#2B2C33"/>
<path d="M30.9689 55.5114C30.9456 55.2432 30.934 54.9622 30.9106 54.6823V54.5553C30.9223 54.8689 30.9456 55.1955 30.9689 55.5114Z" fill="#6D7080"/>
<path d="M30.8403 53.1316C30.852 53.3998 30.852 53.6574 30.8753 53.9128C30.852 53.6574 30.852 53.3999 30.8403 53.1316Z" fill="#2B2C33"/>
<path d="M30.8057 52.0018C30.8057 52.2688 30.8174 52.537 30.829 52.8051C30.8194 52.736 30.8155 52.6662 30.8173 52.5964C30.8057 52.3984 30.8057 52.2 30.8057 52.0018" fill="#2B2C33"/>
<path d="M20.7659 61.8054C20.6843 61.2818 20.6143 60.756 20.5327 60.2313C20.4628 59.6961 20.4045 59.1585 20.3346 58.6234C20.2763 58.087 20.2297 57.5518 20.1714 57.0143C21.4422 53.844 24.9868 49.6336 30.7934 48.1866C30.7934 48.3393 30.7934 48.4897 30.7817 48.6425V50.0067C30.7817 50.5302 30.7817 51.0561 30.7934 51.5692C30.7934 51.7102 30.8051 51.8607 30.8051 52.0017C30.8051 52.1998 30.8051 52.3982 30.8168 52.5964C30.8149 52.6662 30.8188 52.736 30.8284 52.8051C30.8284 52.9218 30.8401 53.0266 30.8401 53.1316C30.8518 53.3998 30.8518 53.6574 30.8751 53.9116C30.8868 54.1215 30.8984 54.3454 30.9101 54.5541V54.6823C30.9334 54.9622 30.9451 55.242 30.9684 55.5114C30.98 55.7434 31.0034 55.9754 31.015 56.2098C26.4559 57.3163 23.0979 59.7194 21.0341 63.3678C20.9408 62.8549 20.8475 62.3314 20.7659 61.8054Z" fill="#2B2C33"/>
<path d="M41.4277 12.4268C41.2411 12.6728 41.0662 12.9165 40.903 13.1626C40.8594 13.2217 40.8204 13.2841 40.7863 13.3491C40.5414 13.7094 40.2966 14.0592 40.0633 14.4335C39.9584 14.5944 39.8653 14.7589 39.7602 14.9232C39.7369 14.9687 39.7019 15.0165 39.6786 15.062C39.5387 15.2963 39.3988 15.5284 39.2588 15.7604C39.0839 16.0519 38.909 16.3551 38.7459 16.6606C38.6526 16.8226 38.571 16.9742 38.4777 17.1386C33.1258 18.2113 28.6834 20.204 24.8939 23.246C25.0688 22.8041 25.2554 22.3715 25.4419 21.9529C25.6285 21.5227 25.8267 21.1004 26.0249 20.682C26.223 20.2739 26.4213 19.867 26.6196 19.4566C26.8295 19.0497 27.0393 18.6531 27.2492 18.2569C30.6889 15.3185 36.1224 12.9504 41.7658 11.9371C41.6491 12.1015 41.5326 12.2625 41.4277 12.4268Z" fill="#2B2C33"/>
<path d="M30.3744 2.01449C33.4643 1.81626 36.5541 1.61415 39.644 1.40816C39.6307 1.42256 39.6149 1.43442 39.5974 1.44314C39.2593 1.47696 38.9328 1.52475 38.5946 1.57024C38.2565 1.6297 37.93 1.68916 37.6035 1.7568C37.2654 1.82793 36.9389 1.90954 36.6125 2.00282C36.286 2.08559 35.9595 2.17887 35.6331 2.28265C35.2716 1.81626 33.9773 1.81626 29.9663 2.04813C30.0124 2.03938 30.0593 2.03582 30.1062 2.03752C30.1522 2.02785 30.1992 2.02393 30.2461 2.02584C30.2928 2.02584 30.3394 2.01417 30.3744 2.01417" fill="#2B2C33"/>
<path d="M35.2712 75.8334C31.0155 76.6146 28.2286 78.4207 26.9693 81.2308C26.7595 80.8343 26.5612 80.4262 26.363 80.0193C26.1649 79.609 25.9666 79.1903 25.7684 78.7717C25.5818 78.3519 25.3836 77.931 25.197 77.5008C25.0221 77.0682 24.8356 76.6368 24.6606 76.1937C25.1736 73.6063 27.7039 70.19 33.1374 69.0811C33.289 69.6641 33.4405 70.2471 33.6038 70.8301C33.7787 71.4015 33.9419 71.9727 34.1285 72.5336C34.3034 73.1049 34.49 73.6518 34.6766 74.2115C34.6985 74.2834 34.7258 74.3535 34.7582 74.4213C34.7903 74.5443 34.8292 74.6654 34.8749 74.784C35.0032 75.1314 35.1315 75.494 35.2714 75.8333" fill="#2B2C33"/>
<path d="M27.7506 97.6374H27.6689C27.578 97.6255 27.4882 97.6056 27.4008 97.5779C27.5161 97.6045 27.6329 97.6244 27.7506 97.6374Z" fill="#2B2C33"/>
<path d="M27.5173 2.39937C27.4006 2.42268 27.2841 2.44486 27.1675 2.4705C27.2842 2.44486 27.4007 2.42271 27.5173 2.39937Z" fill="#6D7080"/>
<path d="M26.6778 97.4158C28.2285 97.5429 30.0125 97.719 31.9014 97.9172C30.6538 97.8344 29.0097 97.7191 27.7505 97.6362C27.6328 97.6236 27.516 97.6041 27.4007 97.5779C27.3064 97.5639 27.213 97.5448 27.1208 97.5207C26.9692 97.4846 26.8177 97.4496 26.6777 97.4158" fill="#2B2C33"/>
<path d="M29.5928 5.17325C29.1148 4.04339 27.4124 3.61082 23.5063 3.61082C23.8795 3.46041 24.2643 3.31931 24.6374 3.19221C25.0221 3.05348 25.4069 2.93455 25.7917 2.818C26.1765 2.71421 26.5612 2.6093 26.946 2.51602C27.016 2.50434 27.0976 2.48103 27.1676 2.47053C27.2843 2.44488 27.4008 2.42274 27.5174 2.39939C27.7155 2.3516 27.9138 2.31779 28.1237 2.28266H28.2753C31.7616 2.13116 33.5921 2.22444 33.324 3.14676C33.0092 3.28552 32.6827 3.42426 32.3795 3.577C32.0531 3.74025 31.7499 3.89065 31.4351 4.06671C31.1202 4.22995 30.8171 4.41768 30.5023 4.59023C30.1991 4.77679 29.8959 4.97502 29.5928 5.17321" fill="#2B2C33"/>
<path d="M26.6777 97.4159C26.8177 97.4497 26.9692 97.4847 27.1208 97.5208C27.0264 97.5066 26.933 97.4868 26.841 97.4614C26.7852 97.4517 26.7305 97.4364 26.6777 97.4159Z" fill="#2B2C33"/>
<path d="M24.9522 96.9156H24.9055C24.7888 96.8795 24.684 96.834 24.5674 96.7862C24.6921 96.8392 24.8208 96.8825 24.9522 96.9156Z" fill="#2B2C33"/>
<path d="M24.0659 9.83717C23.3663 8.06497 21.4306 7.22769 17.583 7.02712C17.8162 6.85341 18.0377 6.67849 18.2709 6.52575C18.3877 6.43247 18.5158 6.3532 18.6324 6.27039C18.9822 6.02437 19.3437 5.79228 19.7051 5.56964C19.8334 5.48921 19.9616 5.40756 20.0899 5.3376C20.2765 5.22087 20.463 5.10438 20.6613 5.00063C20.7079 4.97499 20.7429 4.95284 20.7895 4.9295C21.1509 4.71963 21.5124 4.533 21.8855 4.34651H22.0372C24.4275 4.392 27.599 4.68348 27.4591 6.7123C27.1675 6.94665 26.8761 7.17987 26.5846 7.43639C26.3047 7.68008 26.0132 7.93777 25.7334 8.19313C25.4535 8.45081 25.1737 8.71938 24.8939 8.99882C24.614 9.26816 24.3342 9.54566 24.0661 9.83717" fill="#2B2C33"/>
<path d="M30.9105 45.3206C29.1383 45.7625 23.728 47.1151 19.9153 52.9928C19.9036 52.7468 19.9036 52.5031 19.892 52.2571C19.892 52.0017 19.8803 51.7569 19.8803 51.5132C19.8686 51.2555 19.8686 51.0095 19.8686 50.7541C19.8569 50.5081 19.8569 50.2527 19.8569 50.0077C19.8569 49.6929 19.8569 49.3781 19.8686 49.0621C19.8686 48.759 19.8803 48.4453 19.8803 48.1422C19.892 47.8273 19.9036 47.5231 19.9153 47.2083C19.9269 46.9052 19.9386 46.5915 19.9502 46.2884C21.6643 43.034 25.6752 39.0347 31.7501 37.5773C31.6451 38.2057 31.552 38.8365 31.4702 39.4768C31.4585 39.6074 31.4352 39.7345 31.4236 39.8616C31.3536 40.3653 31.2953 40.8771 31.237 41.4019C31.2235 41.4907 31.2157 41.5802 31.2137 41.67C31.1554 42.2192 31.097 42.7906 31.0505 43.3491C31.0369 43.4492 31.0291 43.55 31.0272 43.651C31.0039 43.8388 30.9922 44.0253 30.9805 44.2119C30.9805 44.2818 30.9688 44.353 30.9688 44.4229C30.9549 44.5312 30.9471 44.6402 30.9455 44.7494C30.9339 44.936 30.9222 45.1225 30.9105 45.3208" fill="#2B2C33"/>
<path d="M20.6265 94.8973C23.7163 95.3054 23.7163 95.3054 35.5511 97.7073C35.7377 97.7645 35.9359 97.8241 36.1225 97.8834C36.3206 97.9289 36.5189 97.9872 36.7055 98.0327C36.9035 98.0805 37.1019 98.1271 37.2884 98.1749C37.4865 98.2204 37.6849 98.2659 37.8831 98.302L35.7144 98.1609C32.1231 97.7412 28.5552 97.2631 24.9523 96.9144C24.8207 96.8819 24.692 96.8386 24.5675 96.785C24.2993 96.7034 24.0311 96.5985 23.763 96.4935C23.3898 96.3431 23.0166 96.1904 22.6436 96.0154C22.2588 95.8429 21.8972 95.6668 21.5243 95.4802C21.1511 95.2821 20.7897 95.0838 20.4282 94.874C20.4935 94.8875 20.5597 94.8953 20.6263 94.8973" fill="#2B2C33"/>
<path d="M20.6612 4.99947C20.4631 5.10442 20.2764 5.21984 20.0898 5.33643C20.2738 5.21343 20.4645 5.10093 20.6612 4.99947Z" fill="#2B2C33"/>
<path d="M38.8392 95.2705C39.1307 95.4686 39.4338 95.6669 39.737 95.8535C40.0401 96.04 40.3433 96.2242 40.6465 96.4003C40.9496 96.5635 41.2644 96.7396 41.5793 96.89C41.8824 97.0532 42.1972 97.206 42.512 97.3448C42.7452 96.89 43.8646 95.794 49.1698 95.5841C49.6595 95.9467 50.1726 96.2837 50.6844 96.609C46.3131 96.7162 44.4709 97.6362 44.8207 98.2542C45.0305 98.3242 45.2404 98.3836 45.4386 98.4523C45.6485 98.5106 45.8467 98.57 46.0566 98.6272C46.2665 98.675 46.4764 98.7321 46.6746 98.7799C46.8845 98.8254 47.0943 98.8732 47.3042 98.907C49.9032 99.0819 52.4929 98.7205 55.093 98.7682C55.6282 98.9663 56.1657 99.139 56.7149 99.2918C55.2434 99.2463 54.0693 99.2463 52.8777 99.2696L58.043 99.6066H58.0651C58.9458 99.7904 59.8385 99.9112 60.7364 99.968L45.6135 98.9781L45.6252 98.802C41.8707 98.0557 38.3144 96.2718 35.0613 93.6145C31.7732 90.9199 28.7999 87.3287 26.3047 83.0274C23.7861 78.6887 21.7574 73.64 20.3465 68.0677C18.9356 62.4698 18.1544 56.3845 18.1544 50.0065C18.1544 43.2426 19.0289 36.8063 20.603 30.9426C22.1771 25.1126 24.4391 19.8656 27.2258 15.457C29.9893 11.0965 33.2424 7.55185 36.8453 5.04496C40.355 2.60803 44.1561 1.16212 48.1321 0.85904C48.1916 0.85904 48.2476 0.847367 48.307 0.847367L49.9405 0.743582C49.6829 0.765726 49.426 0.789048 49.1698 0.81355C48.8434 0.847367 48.5052 0.882351 48.1788 0.941813C47.8523 0.987279 47.5258 1.04557 47.1993 1.1167C46.8612 1.1855 46.5347 1.25547 46.2199 1.33707C45.8934 1.43035 45.5669 1.51312 45.2405 1.61808C48.3887 1.06891 51.5473 0.720271 55.781 0.380972C55.8164 0.382932 55.8519 0.378987 55.886 0.369299C55.9909 0.369299 56.0841 0.358687 56.1775 0.358687C58.1584 0.230424 58.9293 0.170961 59.7467 0.112666C59.8477 0.110298 59.9485 0.102516 60.0486 0.0893555C59.8516 0.112666 59.6638 0.137145 59.4657 0.160491C59.257 0.194308 59.0471 0.216451 58.8348 0.25377C58.8127 0.25377 58.801 0.264382 58.7789 0.264382H58.7672C53.8117 0.650338 47.5375 1.24383 42.9085 2.48093C42.5937 2.6197 42.2789 2.76077 41.9757 2.91118C41.6609 3.06392 41.3577 3.226 41.0429 3.38925C40.7398 3.55366 40.4366 3.72817 40.1334 3.91277C39.8303 4.08882 39.5272 4.28705 39.224 4.47361C43.3399 3.15716 48.1088 2.23491 54.2185 1.57029C53.9503 1.68804 53.695 1.79314 53.4385 1.92009C53.1691 2.04836 52.9033 2.16378 52.6339 2.30488H52.6223C46.3482 3.0278 40.8331 4.35702 37.0552 6.04655C36.7754 6.28206 36.4839 6.51411 36.2041 6.76013C35.9126 7.00382 35.6327 7.26034 35.3529 7.51804C35.073 7.77339 34.7932 8.04156 34.5251 8.31092C34.2453 8.59076 33.9771 8.85776 33.7089 9.14927C37.8599 7.19041 42.6521 5.84952 48.3655 5.02281C48.2022 5.14991 48.039 5.29098 47.8757 5.41807C47.5493 5.6874 47.2228 5.95327 46.908 6.24474C41.0779 7.11924 35.4228 9.03264 31.7849 11.3646C31.5283 11.6794 31.2719 12.0071 31.027 12.3324C30.7704 12.6577 30.5256 12.9962 30.2924 13.348C30.0475 13.6849 29.8027 14.0359 29.5695 14.3844C29.3363 14.7458 29.1031 15.0968 28.8699 15.4688C32.9043 12.9272 37.545 11.2375 43.0601 10.2697C43.0368 10.2919 43.0135 10.3257 42.9901 10.3514C42.582 10.8632 42.1739 11.3878 41.7658 11.9361C36.1225 12.9492 30.6889 15.3185 27.2492 18.2556C27.0394 18.6521 26.8295 19.0485 26.6196 19.4554C26.4214 19.8658 26.2232 20.2743 26.0249 20.6809C25.8269 21.1007 25.6285 21.5216 25.442 21.9518C25.2554 22.3704 25.0688 22.8043 24.894 23.2449C28.6834 20.2028 33.1259 18.2102 38.4777 17.1375C38.571 16.9742 38.6526 16.8215 38.7459 16.6594C38.1396 17.7438 37.5566 18.862 37.0202 20.028C37.1485 19.747 37.2768 19.4695 37.405 19.2013C31.9249 20.3195 26.7828 23.0584 23.6463 26.5341C23.4831 26.9889 23.3315 27.4564 23.1799 27.9228C23.0283 28.3881 22.8884 28.8661 22.7484 29.3442C22.6083 29.8222 22.4685 30.3003 22.3403 30.79L21.9555 32.2591C25.3952 28.8206 29.6044 26.5819 34.8047 25.416C34.9563 25.0079 35.0962 24.5986 35.2594 24.2022C34.7465 25.5547 34.28 26.9411 33.8486 28.3764C33.8952 28.1899 33.9535 28.0138 34.0118 27.8296C27.7504 29.2276 23.2614 32.9471 21.1509 35.9554C21.0577 36.4812 20.9644 36.9931 20.8828 37.5178C20.7895 38.0319 20.7079 38.5562 20.6379 39.0907C20.5563 39.6166 20.4864 40.1413 20.4281 40.679C20.3581 41.2142 20.2998 41.7517 20.2415 42.2869C23.2031 38.579 27.2374 36.0966 32.2279 34.905C32.2162 34.9645 32.2046 35.0356 32.1929 35.0927C32.0413 35.8739 31.9014 36.668 31.7732 37.4608C31.7615 37.4947 31.7615 37.5424 31.7498 37.5763C25.675 39.0336 21.664 43.0331 19.95 46.2874C19.9384 46.5905 19.9267 46.9042 19.915 47.2073C19.9034 47.5222 19.8917 47.8277 19.8801 48.1412C19.8801 48.4443 19.8684 48.758 19.8684 49.0611C19.8567 49.3783 19.8567 49.692 19.8567 50.0068C19.8567 50.2528 19.8567 50.507 19.8684 50.7532C19.8684 51.0085 19.8684 51.2545 19.8801 51.5122C19.8801 51.7559 19.8917 52.0019 19.8917 52.2561C19.9034 52.5021 19.9034 52.7458 19.915 52.9919C23.7278 47.1141 29.138 45.7616 30.9103 45.3197C30.922 45.1216 30.9336 44.9349 30.9453 44.7483C30.9103 45.2042 30.887 45.6566 30.8753 46.1243C30.8404 46.7656 30.817 47.4058 30.8054 48.0482C30.7821 48.5496 30.7821 49.0498 30.7821 49.5512V48.6429C30.7937 48.4901 30.7937 48.3397 30.7937 48.187C24.9871 49.6328 21.4425 53.8443 20.1716 57.0135C20.2299 57.5512 20.2765 58.0863 20.3348 58.6238C20.4048 59.1589 20.4631 59.6965 20.5329 60.2316C20.6145 60.7552 20.6845 61.2822 20.7661 61.8057C20.8477 62.3316 20.941 62.8552 21.0343 63.3682C23.0981 59.7198 26.4561 57.3167 31.0151 56.2102C31.0268 56.3034 31.0268 56.4083 31.0385 56.5017C31.0851 57.1419 31.1552 57.7843 31.2133 58.4256L31.2833 59.0202C25.6632 60.325 22.6666 64.1855 21.8038 67.1005C21.9205 67.6007 22.037 68.0905 22.1652 68.5802C22.2935 69.0699 22.4334 69.548 22.5617 70.0376C22.7016 70.5156 22.8415 70.9948 22.9932 71.4612C23.1332 71.9393 23.2847 72.4045 23.4363 72.8709C25.0687 69.6073 28.1236 67.4596 32.5194 66.5174C32.6593 67.1577 32.8109 67.8105 32.9741 68.4413C33.0208 68.6512 33.0791 68.8716 33.1374 69.0816C27.704 70.19 25.1736 73.6063 24.6607 76.1937C24.8356 76.6368 25.0222 77.0682 25.1971 77.5008C25.3836 77.931 25.5819 78.352 25.7684 78.7717C25.9665 79.1903 26.1648 79.6089 26.3631 80.0193C26.5612 80.4261 26.7595 80.8343 26.9694 81.2308C28.2287 78.4207 31.0154 76.6146 35.2713 75.8334C35.5511 76.6146 35.8659 77.3702 36.1807 78.1176C31.2486 78.9349 28.8117 81.6867 28.5785 84.0525C28.8 84.4256 29.0332 84.7989 29.2664 85.1474C29.4996 85.51 29.7328 85.8714 29.966 86.2085C30.2109 86.5595 30.4557 86.8965 30.7006 87.2358C30.9455 87.5728 31.202 87.9016 31.447 88.2269C32.0999 86.6644 33.9422 84.6471 39.0725 83.9361C39.041 83.884 39.0137 83.8294 38.9909 83.7729C39.2125 84.1681 39.434 84.5541 39.6672 84.9272C39.8887 85.2887 40.1103 85.6396 40.3318 85.9884C40.2968 85.9429 40.2735 85.8951 40.2385 85.8496C35.458 86.4443 33.3242 88.6597 33.3592 90.4774C33.6274 90.7689 33.8956 91.0604 34.1637 91.3286C34.4436 91.6085 34.7117 91.8778 34.9915 92.1437C35.2713 92.413 35.5511 92.6699 35.831 92.9144C36.1108 93.1709 36.4023 93.4169 36.6822 93.6489C37.0786 92.7161 38.5244 91.0604 43.7714 90.5812C44.2145 91.1083 44.6809 91.598 45.1356 92.076C40.53 92.4246 38.6411 93.9755 38.8392 95.2708" fill="#6D7080"/>
<path d="M19.7053 5.5696C19.344 5.7923 18.9824 6.02548 18.6326 6.27151C18.5158 6.35311 18.3877 6.43242 18.2711 6.5257C18.3994 6.42074 18.5393 6.317 18.6792 6.22372C19.0173 5.99054 19.3555 5.7818 19.7053 5.5696Z" fill="#6D7080"/>
<path d="M19.2386 16.123C18.2475 13.7678 16.0788 12.5435 12.2427 12.1354C12.2665 12.0979 12.2938 12.0627 12.3243 12.0304C12.5924 11.705 12.884 11.388 13.1638 11.0743C13.2104 11.0172 13.2687 10.9694 13.3154 10.9099C13.5019 10.7118 13.6885 10.5135 13.8867 10.3269C14.1199 10.0611 14.3648 9.82657 14.6096 9.59353C14.6772 9.5176 14.7514 9.44777 14.8312 9.38483C15.2276 9.00004 15.6241 8.63743 16.0321 8.28646C16.0569 8.2611 16.0842 8.23843 16.1137 8.21883C16.1598 8.22757 16.2068 8.23113 16.2537 8.22944C20.0315 8.52095 22.0253 9.79187 22.1769 12.0084C21.9087 12.3221 21.664 12.6487 21.4074 12.9762C21.1508 13.3132 20.906 13.6525 20.661 13.9894C20.4161 14.3404 20.1713 14.689 19.9381 15.0388C19.7049 15.3898 19.46 15.7501 19.2385 16.1232" fill="#2B2C33"/>
<path d="M35.0615 93.6148C38.3147 96.2721 41.8709 98.0561 45.6254 98.8023L43.3984 98.6635C39.6439 97.9161 36.0759 96.1333 32.8228 93.4737C29.5347 90.7931 26.5614 87.2135 24.0662 82.9343C21.5477 78.6073 19.5072 73.5702 18.0964 68.0201C16.6855 62.4362 15.9043 56.3602 15.9043 50.0067C15.9043 43.265 16.7788 36.8415 18.3529 30.9999C19.927 25.1817 22.189 19.9593 24.9874 15.5624C27.7391 11.2143 31.0039 7.68013 34.6068 5.18607C37.9416 2.8656 41.5561 1.44207 45.3223 1.04565C45.3922 1.04565 45.4622 1.03503 45.5204 1.03503L47.1994 0.918303C47.5142 0.904154 47.8407 0.882152 48.1322 0.858841C44.1562 1.16199 40.355 2.60783 36.8454 5.04476C33.2425 7.55165 29.9894 11.0963 27.226 15.4571C24.4394 19.8659 22.1774 25.1129 20.6033 30.9426C19.0292 36.8064 18.1547 43.2427 18.1547 50.0066C18.1547 56.3846 18.9359 62.4699 20.3468 68.0678C21.7576 73.6401 23.7865 78.6888 26.305 83.0275C28.8002 87.3288 31.7735 90.9201 35.0616 93.6146" fill="#2B2C33"/>
<path d="M32.9392 5.27813C36.3672 2.91234 40.0867 1.46536 43.9696 1.14004C44.1212 1.12836 44.2728 1.11789 44.4243 1.10622L45.322 1.04683C41.5559 1.44319 37.9413 2.86688 34.6066 5.18719C31.0037 7.68124 27.7389 11.2154 24.9872 15.5621C22.1888 19.9603 19.9267 25.1815 18.3527 31.001C16.7786 36.8415 15.9041 43.2661 15.9041 50.0067C15.9041 56.3613 16.6853 62.4361 18.0962 68.0212C19.507 73.5702 21.5475 78.6084 24.066 82.9354C26.5613 87.2134 29.5345 90.7942 32.8226 93.4748C36.0758 96.1344 39.6437 97.9172 43.3982 98.6646L45.6252 98.8034L45.6136 98.9783L39.5154 98.5818L39.5271 98.4069L41.7309 98.5457C37.9764 97.8018 34.4084 96.0271 31.1553 93.3815C27.8556 90.7009 24.8823 87.1318 22.3871 82.8526C19.8568 78.5373 17.828 73.513 16.4172 67.9747C14.9946 62.4117 14.2134 56.3497 14.2134 50.0068C14.2134 43.2802 15.0879 36.8789 16.6736 31.049C18.2477 25.2411 20.5097 20.0281 23.2965 15.645C26.0715 11.2947 29.3363 7.77445 32.9392 5.27817" fill="#6D7080"/>
<path d="M17.6414 18.8503C17.4315 19.2467 17.2216 19.6432 17.0117 20.0524C16.8018 20.4488 16.6036 20.8674 16.4054 21.2755C16.2073 21.6941 16.009 22.1162 15.8224 22.5465C15.6358 22.9674 15.4493 23.3976 15.2744 23.8419C13.537 20.1329 10.2723 19.1896 7.62549 18.7932C7.67211 18.7232 7.70709 18.6404 7.75375 18.5703C7.94031 18.2438 8.12687 17.9185 8.31343 17.613C8.34841 17.5571 8.37172 17.5093 8.4067 17.4638C8.62825 17.1012 8.86143 16.728 9.08297 16.3794C9.39779 15.8898 9.72428 15.4118 10.0507 14.9442C10.3422 14.5489 10.6337 14.1525 10.9252 13.7677H10.9368C10.9835 13.7677 11.0301 13.7783 11.0884 13.7783C15.8924 14.4067 17.3032 16.8809 17.6414 18.8503Z" fill="#2B2C33"/>
<path d="M16.9536 92.4837C16.8926 92.4451 16.8342 92.4027 16.7787 92.3566C16.5455 92.1584 16.3123 91.9719 16.0791 91.762C16.3706 92.0174 16.6504 92.2518 16.9536 92.4837Z" fill="#2B2C33"/>
<path d="M16.115 8.21761C16.0852 8.23775 16.0576 8.261 16.0327 8.28697C16.0532 8.26094 16.0769 8.23763 16.1033 8.21761H16.115Z" fill="#2B2C33"/>
<path d="M16.032 8.28645C15.6239 8.63743 15.2275 8.99887 14.8311 9.38366C14.9148 9.2888 15.0043 9.19923 15.0992 9.11546C15.4023 8.83562 15.7172 8.55462 16.032 8.28645" fill="#2B2C33"/>
<path d="M15.3213 91.0858C15.4729 91.2245 15.6244 91.3633 15.7762 91.4939H15.7645C15.6129 91.3633 15.4614 91.2245 15.3214 91.0858" fill="#2B2C33"/>
<path d="M15.776 91.4927C15.6244 91.3632 15.4728 91.2245 15.3212 91.0846C15.2626 91.0471 15.2112 90.9993 15.1697 90.9435C15.039 90.8296 14.9145 90.709 14.7965 90.582C14.8539 90.5957 14.9125 90.6039 14.9714 90.6065C16.4755 90.8619 21.0579 91.6314 29.5113 94.7807C29.8145 94.9788 30.1176 95.1772 30.4208 95.3637C30.7356 95.5503 31.0388 95.724 31.3536 95.8989C31.6684 96.0633 31.9832 96.2254 32.298 96.3886C32.6129 96.5414 32.9277 96.6918 33.2425 96.8329C27.7274 95.5141 23.728 94.5697 18.8775 93.9062C18.516 93.6719 18.1662 93.4165 17.8163 93.1599C17.5248 92.95 17.2449 92.7273 16.9535 92.4836C16.6503 92.2504 16.3705 92.016 16.079 91.7607C15.9722 91.6779 15.871 91.5884 15.7758 91.4925" fill="#2B2C33"/>
<path d="M14.7965 90.582C14.9132 90.7114 15.0413 90.828 15.1696 90.9447C15.0353 90.8303 14.9069 90.7093 14.7848 90.582H14.7965Z" fill="#2B2C33"/>
<path d="M14.6096 9.59346C14.3648 9.82551 14.1198 10.0599 13.8867 10.3269C13.9582 10.2363 14.0361 10.151 14.1198 10.0715C14.2831 9.90828 14.4463 9.7439 14.6095 9.59346" fill="#2B2C33"/>
<path d="M31.1552 93.3804C34.4084 96.0272 37.9763 97.8007 41.7308 98.5457L39.527 98.407C35.7725 97.6596 32.2046 95.8873 28.9399 93.2531C25.6401 90.5702 22.6668 87.0151 20.16 82.7592C17.6414 78.4567 15.6009 73.442 14.1901 67.915C12.7676 62.365 11.9863 56.3262 11.9863 50.0066C11.9863 43.3021 12.8608 36.9114 14.4466 31.1047C16.0207 25.3225 18.2944 20.121 21.081 15.7486C23.8444 11.4239 27.1209 7.90032 30.7238 5.41907C34.2801 2.97068 38.1395 1.52502 42.1622 1.24384H42.2205C42.7219 1.21002 43.3398 1.16223 43.8879 1.14005C43.9007 1.13422 43.9146 1.13121 43.9287 1.13121C43.9428 1.13121 43.9567 1.13422 43.9695 1.14005C40.0868 1.46548 36.3672 2.91118 32.9392 5.27698C29.3363 7.77336 26.0715 11.2947 23.2965 15.6438C20.5098 20.028 18.2477 25.2411 16.6737 31.0477C15.0879 36.8777 14.2134 43.279 14.2134 50.0067C14.2134 56.3486 14.9946 62.4106 16.4172 67.9746C17.828 73.5131 19.8569 78.5373 22.387 82.8526C24.8822 87.1318 27.8555 90.6997 31.1553 93.3803" fill="#2B2C33"/>
<path d="M14.0501 27.0495C13.8869 27.5031 13.7353 27.9695 13.5837 28.4359C13.4321 28.9035 13.2922 29.3815 13.1406 29.8572C13.0007 30.3353 12.8725 30.8145 12.7325 31.3031C12.6043 31.7928 12.476 32.2825 12.3594 32.7722C10.0159 28.4254 6.44786 27.2816 3.95264 26.8037C4.13919 26.2918 4.33743 25.7764 4.53562 25.2646C4.74549 24.741 4.95539 24.2256 5.1769 23.7138C5.2352 23.5855 5.29363 23.4445 5.35179 23.3174C5.62002 22.711 5.89986 22.1057 6.19133 21.5227C6.30806 21.2767 6.42455 21.033 6.55278 20.7987C6.60405 20.7995 6.655 20.8069 6.70435 20.8208C11.9047 21.7547 13.5371 25.1257 14.0501 27.0495" fill="#2B2C33"/>
<path d="M13.8868 10.3269C13.6887 10.5134 13.502 10.7116 13.3154 10.9098C13.502 10.7 13.7003 10.5017 13.8868 10.3269Z" fill="#6D7080"/>
<path d="M13.3972 89.1606H13.3739C13.2339 89.0079 13.0941 88.8577 12.9658 88.7047C13.1057 88.8575 13.2457 89.0079 13.3974 89.1606" fill="#2B2C33"/>
<path d="M12.325 12.0303C12.294 12.0627 12.2664 12.0981 12.2427 12.1362H12.231C12.2662 12.1021 12.2897 12.0644 12.325 12.0303Z" fill="#2B2C33"/>
<path d="M12.4411 88.1113C12.1263 87.7603 11.8232 87.3897 11.52 87.0164C11.45 86.922 11.3684 86.8183 11.2985 86.7249C11.6716 87.203 12.0564 87.6552 12.441 88.1113" fill="#2B2C33"/>
<path d="M10.0508 14.9454C9.72429 15.4117 9.39783 15.891 9.08301 16.3796C9.12963 16.3096 9.16461 16.2501 9.21127 16.1825C9.49111 15.7604 9.77094 15.3535 10.0508 14.9454Z" fill="#2B2C33"/>
<path d="M27.3778 93.23C21.7343 91.0599 17.6882 89.8824 13.3974 89.1607C13.2458 89.0079 13.1059 88.8575 12.9659 88.7048C12.7793 88.5067 12.616 88.3084 12.4412 88.1101C12.0564 87.6554 11.6716 87.2018 11.2986 86.7238C11.0771 86.4439 10.8555 86.1524 10.634 85.8609C10.3658 85.4983 10.121 85.1473 9.86455 84.7765C9.83082 84.7418 9.80319 84.7016 9.78284 84.6576C9.85281 84.6718 9.9111 84.6833 9.98093 84.6949C15.7877 85.8493 21.2562 88.5777 23.9961 90.0923C24.2643 90.3838 24.5441 90.6637 24.8123 90.9318C25.0922 91.2117 25.372 91.481 25.6518 91.748C25.9433 92.0045 26.2232 92.2622 26.5147 92.5059C26.7945 92.7519 27.086 92.9957 27.3775 93.23" fill="#2B2C33"/>
<path d="M9.78267 84.6589C9.80328 84.7027 9.83084 84.7428 9.86427 84.7778C9.8299 84.7409 9.7987 84.7011 9.771 84.6589H9.78267Z" fill="#2B2C33"/>
<path d="M8.05705 18.0353C8.13866 17.8942 8.2203 17.7555 8.31358 17.6143C8.12709 17.9187 7.94046 18.2452 7.75391 18.5705C7.84719 18.3956 7.952 18.2102 8.05705 18.0353" fill="#6D7080"/>
<path d="M6.55297 20.7975C6.42464 21.0318 6.30812 21.2755 6.19153 21.5215C6.30826 21.2755 6.42474 21.0318 6.54133 20.7975H6.55297Z" fill="#2B2C33"/>
<path d="M6.30823 78.7484C6.33154 78.7939 6.35489 78.8277 6.3782 78.8755C6.35489 78.8277 6.33154 78.7939 6.30823 78.7484Z" fill="#2B2C33"/>
<path d="M6.19107 21.5216C5.89956 22.1045 5.61973 22.7109 5.35156 23.316C5.51481 22.9546 5.67806 22.5944 5.84127 22.2316C5.958 21.9856 6.07448 21.7536 6.19107 21.5216Z" fill="#2B2C33"/>
<path d="M22.1072 87.9131C15.7526 84.52 11.5434 83.4135 8.59341 82.8305H8.58173C8.31357 82.3979 8.04537 81.9665 7.78884 81.5118C7.53235 81.0676 7.2875 80.614 7.0308 80.1476C6.80926 79.7395 6.59925 79.2951 6.37785 78.8766C6.35453 78.8288 6.33122 78.795 6.30788 78.7495C6.07484 78.2703 5.84166 77.7806 5.62012 77.2921C5.68741 77.3011 5.75372 77.3163 5.81821 77.3376C11.7181 78.6668 16.7202 81.942 19.1688 83.7843C19.402 84.1574 19.6352 84.5197 19.8684 84.871C20.1133 85.2301 20.3465 85.5811 20.5913 85.9181C20.8362 86.269 21.0927 86.606 21.3377 86.9337C21.5942 87.2706 21.8391 87.5983 22.1073 87.9131" fill="#2B2C33"/>
<path d="M5.17686 23.7125C4.95531 24.2244 4.7453 24.7397 4.53558 25.2632C4.33749 25.7761 4.13915 26.2905 3.95259 26.8024H3.94092C4.13901 26.2788 4.33734 25.753 4.53558 25.2411C4.74544 24.7282 4.95535 24.2139 5.17686 23.7125Z" fill="#2B2C33"/>
<path d="M3.04346 70.5388C3.18339 71.0284 3.3466 71.4948 3.51003 71.9728C3.48672 71.9145 3.46341 71.8457 3.44006 71.7863C3.29998 71.3793 3.17172 70.9573 3.04346 70.5388Z" fill="#6D7080"/>
<path d="M3.16 29.1239C3.215 29.1267 3.26964 29.1345 3.32324 29.1472C8.66349 30.3236 10.7856 34.1843 11.5785 36.3774C11.4852 36.8893 11.3919 37.4023 11.2986 37.9259C11.217 38.4517 11.1354 38.9752 11.0538 39.5011C10.9838 40.0258 10.9138 40.5633 10.8557 41.0868C10.7857 41.6245 10.7274 42.1596 10.6691 42.6971C7.70736 37.8455 3.95289 36.5162 1.3877 35.9333C1.46941 35.5484 1.55077 35.152 1.63255 34.7673C1.71415 34.4163 1.78412 34.0793 1.86576 33.74C1.90075 33.5896 1.93573 33.4369 1.98249 33.2865C2.13407 32.6335 2.30899 31.9911 2.48387 31.3626C2.68196 30.663 2.8803 29.9646 3.10184 29.2743C3.11352 29.2288 3.13683 29.1693 3.1485 29.1239L3.16 29.1239Z" fill="#2B2C33"/>
<path d="M3.10137 29.2743C2.87983 29.9645 2.68163 30.663 2.4834 31.3626C2.53006 31.1645 2.58835 30.9661 2.64665 30.7679C2.79822 30.2665 2.93812 29.764 3.10137 29.2743Z" fill="#2B2C33"/>
<path d="M2.56531 68.9319C2.69357 69.3854 2.82183 69.8519 2.96173 70.2961C2.90344 70.1212 2.85678 69.9335 2.79849 69.7584C2.71688 69.4904 2.64691 69.2094 2.56531 68.9319Z" fill="#6D7080"/>
<path d="M15.7758 77.348C15.9623 77.769 16.1605 78.1992 16.3471 78.6073C16.5452 79.0259 16.7552 79.448 16.9534 79.8444C17.1633 80.2512 17.3732 80.6594 17.5831 81.0559C11.7764 76.9994 7.43887 75.7285 4.68719 75.121C4.60559 74.9344 4.53562 74.7478 4.45398 74.5496C4.32571 74.2232 4.19745 73.8978 4.08086 73.5702C3.88277 73.0466 3.69607 72.509 3.50951 71.9739C3.34627 71.4947 3.18302 71.0283 3.04312 70.5386C3.01981 70.4815 3.00813 70.4115 2.98482 70.352C2.97315 70.3287 2.97315 70.3182 2.96151 70.2949C2.82161 69.8507 2.69335 69.3843 2.56509 68.9307C2.54177 68.8491 2.51846 68.7675 2.49512 68.6847C2.55341 68.6964 2.62338 68.7197 2.68168 68.7325C8.76816 70.2355 13.4788 74.3514 15.2161 76.0549C15.4026 76.4852 15.5892 76.9178 15.7758 77.348Z" fill="#2B2C33"/>
<path d="M2.48331 31.3626C2.30843 31.991 2.13351 32.6334 1.98193 33.2864C2.04023 33.0065 2.1102 32.7384 2.18002 32.4574C2.2733 32.0843 2.37811 31.7251 2.48317 31.3625" fill="#2B2C33"/>
<path d="M1.76059 34.1844C1.79557 34.0315 1.83041 33.8811 1.86554 33.74C1.7839 34.0793 1.71393 34.4162 1.63232 34.7672C1.67898 34.569 1.71393 34.3825 1.76059 34.1844Z" fill="#2B2C33"/>
<path d="M1.80751 65.9913C1.76085 65.8409 1.72591 65.6881 1.69078 65.5377C1.62081 65.1879 1.53921 64.8253 1.46924 64.4765C1.57419 64.9779 1.67911 65.4897 1.80737 65.9911" fill="#6D7080"/>
<path d="M1.42268 35.7117C1.49265 35.3957 1.5626 35.0805 1.63255 34.7661C1.55077 35.152 1.46941 35.5472 1.3877 35.9321C1.39264 35.8577 1.40435 35.7839 1.42268 35.7117Z" fill="#6D7080"/>
<path d="M1.14258 62.8105C1.23586 63.369 1.35245 63.9287 1.46907 64.4779C1.41074 64.2202 1.36412 63.9765 1.30583 63.7188C1.24753 63.4168 1.18927 63.1137 1.14258 62.8105Z" fill="#6D7080"/>
<path d="M10.389 53.2727C6.64618 48.1306 2.92666 46.6475 0.10498 45.9491C0.128291 45.4477 0.163275 44.9463 0.209933 44.4566C0.233243 44.2001 0.244917 43.9424 0.268228 43.6987C0.314885 43.1868 0.361507 42.6831 0.419801 42.1818C0.443112 41.8798 0.48977 41.565 0.524754 41.2501C0.536427 41.1091 0.559738 40.9703 0.583049 40.8292C0.606359 40.6426 0.629706 40.4701 0.653017 40.294C0.734622 39.6889 0.816334 39.0919 0.92118 38.5089C0.979475 38.523 1.03791 38.5334 1.08443 38.545C6.58789 39.9326 9.28134 44.1884 10.4007 46.602C10.389 46.883 10.3774 47.1633 10.3657 47.4427C10.354 47.7342 10.3424 48.0141 10.3424 48.2927C10.3307 48.5842 10.3307 48.8641 10.3307 49.1439C10.319 49.4354 10.319 49.7153 10.319 50.0067C10.319 50.2761 10.319 50.5559 10.3307 50.8218C10.3307 51.1028 10.3307 51.3709 10.3424 51.6403C10.3424 51.9201 10.3541 52.186 10.3657 52.4553C10.3657 52.7352 10.3774 53.0045 10.389 53.2727Z" fill="#2B2C33"/>
<path d="M1.09612 62.5865C1.0495 62.3429 1.01437 62.1085 0.967858 61.8648C0.909563 61.55 0.862941 61.234 0.816284 60.9192C0.909563 61.4684 1.00284 62.0397 1.09612 62.5865Z" fill="#6D7080"/>
<path d="M0.92114 38.5089C0.816223 39.0919 0.734582 39.6888 0.652976 40.294C0.629665 40.4701 0.606319 40.6426 0.583008 40.8292C0.594681 40.6683 0.617992 40.4922 0.641303 40.329C0.722944 39.7227 0.816223 39.1057 0.909502 38.5089H0.92114Z" fill="#2B2C33"/>
<path d="M0.687757 59.9748C0.641135 59.6716 0.606151 59.3801 0.571167 59.077C0.630437 59.0891 0.688856 59.105 0.746052 59.1248C6.71584 60.6989 10.8319 65.2217 12.3244 67.1002C12.4411 67.5899 12.5692 68.0796 12.6975 68.5693C12.8257 69.059 12.9656 69.5371 13.1056 70.0152C13.2455 70.4932 13.3971 70.9724 13.5371 71.4365C13.6887 71.904 13.8519 72.3703 14.0035 72.8368C8.82652 68.2778 4.59398 66.8658 1.86554 66.2256H1.85387C1.83262 66.1487 1.81702 66.0704 1.80721 65.9912C1.67895 65.491 1.574 64.978 1.46908 64.4766C1.35235 63.9286 1.23586 63.3678 1.14258 62.8106C1.13091 62.7732 1.13091 62.7394 1.11927 62.7033C1.1076 62.6695 1.1076 62.6228 1.09596 62.5865C1.00268 62.0397 0.909405 61.4684 0.816126 60.9205V60.9088C0.769469 60.6057 0.722847 60.2908 0.687863 59.9749" fill="#2B2C33"/>
<path d="M0.571732 59.077C0.606716 59.3801 0.6417 59.6716 0.688463 59.9748C0.641664 59.6716 0.595043 59.3801 0.560059 59.077H0.571732Z" fill="#2B2C33"/>
<path d="M0.524874 41.2501C0.48989 41.5649 0.443233 41.8786 0.419922 42.1817C0.443233 41.8669 0.478217 41.5532 0.524874 41.2501Z" fill="#6D7080"/>
<path d="M38.5942 1.57032C38.9323 1.52483 39.2588 1.47704 39.597 1.44323C39.6145 1.4345 39.6303 1.42265 39.6436 1.40824H39.6553L42.1622 1.245C38.1395 1.52483 34.2801 2.97067 30.7238 5.41924C27.1209 7.90162 23.8444 11.4241 21.081 15.7488C18.2943 20.1212 16.0206 25.3227 14.4465 31.1049C12.8608 36.9127 11.9863 43.3023 11.9863 50.0067C11.9863 56.3264 12.7675 62.3661 14.1901 67.9152C15.6009 73.4432 17.6412 78.4569 20.1598 82.7594C22.6667 87.0153 25.6399 90.5704 28.9397 93.2533C32.2046 95.8886 35.7724 97.6596 39.5269 98.407L39.5152 98.5819L30.3738 97.9872C29.4919 97.9353 28.615 97.8184 27.7503 97.6374C29.0096 97.719 30.6536 97.8355 31.9013 97.9173C30.0123 97.7192 28.2284 97.5442 26.6776 97.4159C26.6543 97.4159 26.6426 97.4042 26.6193 97.4042C26.596 97.4042 26.5843 97.3914 26.5727 97.3914C26.0247 97.2527 25.4883 97.0999 24.952 96.9145C28.5549 97.2631 32.1228 97.7412 35.7141 98.1609L37.8828 98.3021C37.6847 98.2659 37.4864 98.2204 37.2882 98.175C37.1016 98.1271 36.9034 98.0805 36.7052 98.0327C36.5186 97.9872 36.3204 97.9289 36.1222 97.8835C35.9356 97.824 35.7374 97.7646 35.5508 97.7074C23.716 95.3056 23.716 95.3056 20.6262 94.8974C20.5596 94.8954 20.4933 94.8876 20.4281 94.8741C19.9034 94.5826 19.3903 94.2551 18.8773 93.9063C23.7278 94.5698 27.7272 95.5142 33.2424 96.8329C32.9275 96.6919 32.6127 96.5414 32.2979 96.3887C31.9831 96.2254 31.6682 96.0633 31.3534 95.899C31.0386 95.7241 30.7355 95.5515 30.4206 95.3638C30.1175 95.1772 29.8143 94.979 29.5112 94.7808C21.0577 91.6315 16.4754 90.8619 14.9712 90.6066C14.9122 90.6045 14.8536 90.5963 14.7964 90.582H14.7847C14.3066 90.1285 13.8402 89.6621 13.3971 89.1607C17.6879 89.8823 21.734 91.0603 27.3774 93.23C27.0859 92.9957 26.7944 92.7519 26.5146 92.5059C26.223 92.2622 25.9432 92.0057 25.6517 91.748C25.3719 91.481 25.0921 91.2128 24.8122 90.933C24.5441 90.6636 24.2642 90.3838 23.996 90.0923C21.256 88.5777 15.7874 85.8493 9.98083 84.6949C9.91086 84.6833 9.85256 84.6716 9.78274 84.6588C9.51457 84.274 9.25805 83.8915 9.00152 83.4928C8.86159 83.2712 8.72169 83.0508 8.59342 82.8293C11.5435 83.4123 15.7526 84.5201 22.1072 87.913C21.8391 87.5982 21.5943 87.2706 21.3377 86.9336C21.0928 86.606 20.8363 86.269 20.5913 85.918C20.3465 85.5811 20.1133 85.2301 19.8684 84.8698C19.6352 84.52 19.402 84.1582 19.1688 83.7843C16.7202 81.942 11.7181 78.6667 5.81819 77.3364C5.7534 77.3162 5.68718 77.301 5.6201 77.2909C5.212 76.4035 4.82721 75.4836 4.45409 74.5494C4.5357 74.7475 4.60566 74.9342 4.68731 75.1208C7.43905 75.7294 11.7765 76.9991 17.5832 81.0557C17.3733 80.6593 17.1634 80.2512 16.9535 79.8442C16.7554 79.4478 16.5454 79.0269 16.3472 78.6071C16.1606 78.2003 15.9624 77.7699 15.7758 77.3478C15.5893 76.9176 15.4027 76.485 15.2162 76.0547C13.4788 74.3512 8.76824 70.2365 2.68176 68.7335C2.62346 68.7194 2.55349 68.6962 2.4952 68.6857C2.40192 68.3475 2.30864 68.0082 2.21536 67.6713C2.0871 67.1932 1.97051 66.7152 1.86555 66.2254C4.59396 66.8657 8.82653 68.2776 14.0035 72.8367C13.852 72.3703 13.6887 71.9028 13.5371 71.4363C13.3972 70.9711 13.2456 70.493 13.1056 70.015C12.9655 69.537 12.8257 69.0589 12.6975 68.5692C12.5692 68.0794 12.441 67.5897 12.3244 67.1C10.8319 65.2217 6.71596 60.6987 0.746101 59.1246C0.688905 59.1049 0.630486 59.089 0.571216 59.0768C0.524559 58.7514 0.477937 58.4146 0.442953 58.0753C0.372985 57.4585 0.31469 56.8498 0.256395 56.233C0.233084 55.9415 0.209738 55.6616 0.1981 55.3702C0.221411 55.7095 0.244757 56.0464 0.279706 56.3857C2.94981 57.062 7.01914 58.5311 11.5548 63.4971C11.4499 62.9829 11.3683 62.4594 11.275 61.9464C11.1934 61.4205 11.1117 60.897 11.0418 60.3711C10.9602 59.8464 10.9019 59.3112 10.8319 58.7854C10.7736 58.2502 10.7152 57.7126 10.6571 57.1774C9.43276 55.1718 5.96976 50.3459 0.186604 48.7695C0.128309 48.7589 0.0583406 48.7357 0.0117188 48.724C0.0117188 48.5259 0.0117188 48.3287 0.0233919 48.1305C0.035065 47.5102 0.0583759 46.8934 0.09336 46.2882C0.09336 46.1715 0.105033 46.0644 0.105033 45.9489C2.92671 46.6474 6.64624 48.1305 10.3891 53.2725C10.3774 53.0032 10.3658 52.7349 10.3658 52.4552C10.3541 52.1858 10.3424 51.92 10.3424 51.639C10.3308 51.3708 10.3308 51.1013 10.3308 50.8216C10.3191 50.5558 10.3191 50.2747 10.3191 50.0066C10.3191 49.7151 10.3191 49.4352 10.3308 49.1437C10.3308 48.8639 10.3308 48.5829 10.3424 48.2913C10.3424 48.0137 10.3541 47.7339 10.3658 47.4423L10.4007 46.6016C9.28139 44.188 6.58794 39.931 1.08448 38.5446C1.03782 38.5329 0.979528 38.5213 0.921233 38.5084C0.944544 38.3347 0.967855 38.1598 1.00284 37.9838C1.11957 37.2853 1.24769 36.6091 1.38763 35.9328C3.95282 36.5158 7.70729 37.845 10.6689 42.6955C10.7272 42.1592 10.7856 41.624 10.8555 41.0865C10.9138 40.5618 10.9837 40.0243 11.0536 39.5007C11.1352 38.9749 11.2168 38.4514 11.2984 37.9255C11.3917 37.4008 11.485 36.8891 11.5782 36.3771C10.7854 34.1839 8.66328 30.3232 3.32303 29.1456C3.2693 29.1338 3.21471 29.1264 3.15979 29.1235C3.40464 28.3422 3.6727 27.561 3.95268 26.803C6.4479 27.281 10.0158 28.4237 12.3595 32.7717C12.4762 32.282 12.6043 31.7922 12.7326 31.3025C12.8725 30.8128 13.0007 30.3347 13.1407 29.8567C13.2923 29.3809 13.4322 28.9016 13.5838 28.4353C13.7353 27.9691 13.8869 27.5015 14.0502 27.049C13.5372 25.1239 11.9047 21.7542 6.70442 20.8202C6.65513 20.8059 6.60417 20.7981 6.55285 20.7969C6.89098 20.109 7.25246 19.4444 7.62558 18.7926C10.2724 19.189 13.5371 20.1323 15.2745 23.8425C15.4494 23.3982 15.6359 22.968 15.8225 22.5459C16.009 22.1157 16.2073 21.6947 16.4055 21.275C16.6036 20.8682 16.8019 20.4483 17.0118 20.053C17.2217 19.6427 17.4316 19.2462 17.6415 18.8498C17.3033 16.8804 15.8925 14.4073 11.0886 13.7789C11.0303 13.7789 10.9836 13.7672 10.937 13.7672C11.3451 13.2064 11.7882 12.6584 12.2312 12.1348H12.2429C16.079 12.5416 18.2477 13.7672 19.2389 16.1214C19.4604 15.7482 19.7053 15.3891 19.9385 15.0382C20.1717 14.6872 20.4165 14.3385 20.6614 13.9876C20.9063 13.6506 21.1511 13.3113 21.4078 12.9743C21.6643 12.6467 21.9091 12.3214 22.1773 12.0065C22.0257 9.79115 20.0319 8.52023 16.2541 8.22868C16.2071 8.2306 16.1601 8.22668 16.1141 8.21701C16.5106 7.86604 16.907 7.54074 17.3151 7.22709C17.4084 7.15596 17.49 7.08485 17.5833 7.02652C21.4311 7.22709 23.3666 8.06427 24.0662 9.83657C24.3344 9.54506 24.6142 9.26756 24.8939 8.99822C25.1737 8.71873 25.4535 8.45037 25.7333 8.19313C26.0132 7.93777 26.3047 7.68022 26.5845 7.43639C26.876 7.17987 27.1675 6.94669 27.459 6.71231C27.599 4.68348 24.4275 4.39183 22.0372 4.34651H21.8856C22.247 4.17046 22.6085 3.99554 22.97 3.84513C23.1448 3.76353 23.3198 3.69239 23.5063 3.61079C27.4124 3.61079 29.1147 4.04337 29.5928 5.17322C29.8959 4.97513 30.1991 4.77679 30.5023 4.59023C30.8171 4.41652 31.1202 4.22996 31.4351 4.06671C31.7499 3.89066 32.053 3.74022 32.3795 3.57701C32.6827 3.42426 33.0092 3.2855 33.324 3.14676C33.5922 2.22448 31.7616 2.13003 28.2753 2.28277H28.1353C28.2389 2.2566 28.3441 2.23712 28.4501 2.22448C28.6717 2.20117 28.8817 2.16502 29.0914 2.1417C29.313 2.10789 29.523 2.08458 29.7327 2.0601C29.8143 2.0601 29.8959 2.04843 29.9659 2.04843C33.9769 1.81638 35.2712 1.81638 35.6327 2.28277C35.9592 2.17783 36.2856 2.08455 36.6121 2.00294C36.9386 1.90966 37.2651 1.82805 37.6032 1.75692C37.9297 1.68928 38.2562 1.62982 38.5943 1.57036" fill="#6D7080"/>
<path d="M0.268256 43.6987C0.244945 43.9424 0.233272 44.2001 0.209961 44.4565C0.209961 44.3154 0.221634 44.1883 0.233272 44.0472L0.268256 43.6986" fill="#2B2C33"/>
<path d="M0.198386 55.3703C0.175075 55.1838 0.163437 54.9972 0.151729 54.8107C0.140091 54.6707 0.140091 54.5436 0.128418 54.4026C0.151729 54.7302 0.175075 55.0555 0.198386 55.3703Z" fill="#2B2C33"/>
<path d="M0.186558 48.7708C5.96986 50.3472 9.43285 55.1721 10.657 57.1788C10.7153 57.714 10.7737 58.2515 10.8319 58.7866C10.9019 59.3125 10.9602 59.8478 11.0418 60.3714C11.1117 60.8972 11.1933 61.4219 11.275 61.9478C11.3683 62.4597 11.4499 62.9832 11.5548 63.4985C7.01927 58.5311 2.95012 57.0621 0.279837 56.3859C0.244853 56.0466 0.221542 55.7096 0.198231 55.3703C0.17492 55.0566 0.151574 54.73 0.128263 54.4025C0.104952 54.0061 0.0816059 53.6096 0.0699681 53.2249V53.1095C0.0466572 52.6652 0.0233109 52.2233 0.0233109 51.779C0.0136304 51.7256 0.00971694 51.6713 0.0116378 51.617C0 51.0794 0 50.5443 0 50.0079V49.6814C0 49.3783 0 49.0739 0.0116731 48.7708V48.7253C0.0583303 48.737 0.128405 48.7591 0.186558 48.7708Z" fill="#2B2C33"/>
<path d="M0.0700947 53.1083C0.0467484 52.9101 0.0467484 52.7002 0.0351106 52.4915C0.0351106 52.2571 0.0234375 52.0239 0.0234375 51.7779C0.0234375 52.2221 0.0467484 52.664 0.0700947 53.1083Z" fill="#6D7080"/>
<path d="M0.0116731 48.7707C0 49.074 0 49.3782 0 49.6814V49.0389C0 48.9456 0.0116731 48.864 0.0116731 48.7707Z" fill="#2B2C33"/>
<path d="M65.3665 55.6408C65.4384 55.6392 65.5098 55.6523 65.5764 55.6793C65.6486 55.7115 65.7155 55.7548 65.7745 55.8075C65.8435 55.8702 65.9046 55.9411 65.9563 56.0186C66.0165 56.1138 66.0677 56.2145 66.1091 56.3193L72.7833 73.0351C72.8117 73.1069 72.8362 73.1801 72.8568 73.2544C72.8788 73.3299 72.8963 73.4066 72.9093 73.4841C72.9221 73.5611 72.9337 73.6416 72.9407 73.7232C72.9454 73.8024 72.9501 73.8852 72.9478 73.9668C72.9478 74.003 72.9455 74.0392 72.9431 74.0788C72.9408 74.115 72.9385 74.1511 72.9338 74.1872C72.9291 74.2245 72.9245 74.2607 72.921 74.2969C72.9163 74.333 72.9093 74.3703 72.9023 74.4065C72.8791 74.5161 72.8487 74.624 72.8114 74.7295C72.7747 74.8287 72.7299 74.9246 72.6773 75.0164C72.6302 75.1022 72.5734 75.1824 72.5082 75.2554C72.4498 75.3242 72.3833 75.3856 72.3101 75.4384C71.7783 75.8137 71.223 76.1544 70.6476 76.4587C70.0932 76.7518 69.5197 77.0073 68.9309 77.2233C68.3562 77.4327 67.767 77.5998 67.1679 77.7235C65.9784 77.9714 64.7581 78.0375 63.5487 77.9194C62.9443 77.8585 62.3453 77.7528 61.7566 77.6034C61.152 77.4487 60.5593 77.2508 59.9831 77.0111C59.3825 76.7611 58.7997 76.4705 58.2388 76.1412C58.161 76.0962 58.0896 76.0409 58.0265 75.9768C57.9602 75.9078 57.9008 75.8325 57.8493 75.7518C57.7943 75.6631 57.7479 75.5694 57.7106 75.4719C57.668 75.3679 57.6353 75.2601 57.6126 75.15C57.6033 75.1069 57.594 75.0638 57.587 75.0206C57.5799 74.9751 57.5753 74.9297 57.5707 74.8865C57.5671 74.841 57.5625 74.7956 57.5601 74.7501C57.5601 74.7046 57.5577 74.6591 57.5601 74.6113C57.5601 74.5355 57.5647 74.4586 57.5707 74.3828C57.5801 74.3059 57.5918 74.2301 57.6057 74.1554C57.6197 74.0802 57.638 74.0057 57.6605 73.9326C57.6797 73.8606 57.7031 73.7897 57.7304 73.7203L64.6238 56.3401C64.6553 56.2586 64.6927 56.1795 64.7357 56.1034C64.7718 56.0368 64.8143 55.9739 64.8628 55.9157C64.9052 55.8642 64.9533 55.8177 65.0062 55.777C65.0525 55.7407 65.103 55.7101 65.1566 55.686C65.1736 55.6781 65.1911 55.6714 65.2091 55.6662L65.2615 55.652C65.2958 55.6436 65.3311 55.6396 65.3665 55.6404L65.3665 55.6408ZM63.3446 55.0807C63.2853 55.0805 63.2263 55.0735 63.1686 55.0597C63.1095 55.0473 63.0523 55.0273 62.9983 55.0003C62.9395 54.9717 62.8836 54.9374 62.8316 54.8977C62.7747 54.8533 62.722 54.8037 62.6742 54.7496C62.5427 54.5979 62.4396 54.4237 62.37 54.2354C62.2905 54.0318 62.2407 53.8178 62.2219 53.5999C62.1984 53.3748 62.2035 53.1476 62.2371 52.9237C62.2715 52.7026 62.3358 52.4872 62.4283 52.2834C62.4807 52.1734 62.5444 52.0691 62.6184 51.9721C62.6831 51.8865 62.7588 51.8096 62.8434 51.7436C62.917 51.6838 63.0002 51.6369 63.0894 51.6049C63.173 51.5736 63.2614 51.5574 63.3506 51.557C63.4091 51.5551 63.4676 51.5614 63.5243 51.5757C63.5825 51.5891 63.6389 51.6094 63.6923 51.6363C63.7509 51.6653 63.8067 51.6996 63.859 51.7389C63.9146 51.7831 63.9665 51.8318 64.0141 51.8846C64.145 52.037 64.2477 52.2115 64.3172 52.4C64.3938 52.6046 64.4436 52.8182 64.4653 53.0355C64.4874 53.2607 64.4826 53.4877 64.4512 53.7118C64.4208 53.9306 64.3587 54.1439 64.2669 54.3449C64.2148 54.4564 64.1515 54.5622 64.078 54.6609C64.0137 54.7466 63.9384 54.8234 63.8542 54.8895C63.7787 54.9483 63.695 54.9959 63.6058 55.0306C63.5221 55.0614 63.4338 55.0784 63.3446 55.0807H63.3446ZM67.3684 55.0329C67.2813 55.0341 67.1947 55.0191 67.1131 54.9886C67.0247 54.9582 66.9423 54.9129 66.8694 54.8545C66.7861 54.7916 66.7119 54.7174 66.649 54.6341C66.5761 54.5378 66.5139 54.4338 66.4636 54.324C66.3728 54.1226 66.3107 53.9095 66.2794 53.6908C66.2479 53.4675 66.2432 53.2413 66.2653 53.0168C66.2874 52.8003 66.3371 52.5875 66.4133 52.3837C66.4838 52.1977 66.5847 52.0247 66.7118 51.8718C66.7596 51.817 66.8123 51.7666 66.8692 51.7214C66.9207 51.6815 66.9758 51.6464 67.0336 51.6165C67.0875 51.5881 67.1446 51.5665 67.2039 51.5524C67.2604 51.5368 67.3189 51.5294 67.3776 51.5302C67.4651 51.5304 67.5519 51.5458 67.6341 51.5757C67.7223 51.6085 67.8046 51.6553 67.8778 51.7145C67.9615 51.7791 68.0361 51.8548 68.0993 51.9395C68.1714 52.0366 68.2339 52.1405 68.2859 52.2497C68.3742 52.4508 68.4346 52.663 68.4655 52.8805C68.497 53.1014 68.5017 53.3253 68.4796 53.5474C68.4576 53.7617 68.4079 53.9721 68.3316 54.1735C68.2627 54.3604 68.1608 54.5333 68.0309 54.6842C67.9848 54.7406 67.9329 54.7918 67.8758 54.837C67.8255 54.8789 67.7707 54.9153 67.7126 54.9454C67.6588 54.9732 67.6021 54.9948 67.5435 55.0096C67.4865 55.0253 67.4277 55.0332 67.3686 55.0329L67.3684 55.0329ZM62.0865 49.0914C62.0569 49.0922 62.0273 49.0906 61.9979 49.0868C61.9687 49.0821 61.9373 49.0774 61.9069 49.0704C61.8761 49.0625 61.8457 49.0528 61.816 49.0413C61.7854 49.0309 61.7558 49.0181 61.7274 49.0028C61.5706 48.9221 61.4354 48.8049 61.3333 48.6612C61.2148 48.5002 61.1234 48.321 61.0628 48.1306C60.9939 47.9196 60.9531 47.7005 60.9415 47.4788C60.9274 47.2443 60.945 47.009 60.994 46.7792C61.0306 46.6033 61.0877 46.4323 61.1642 46.2698C61.2313 46.1304 61.3172 46.001 61.4196 45.885C61.5098 45.786 61.6173 45.7042 61.7368 45.6437C61.8452 45.5889 61.9651 45.5606 62.0866 45.5609C62.1169 45.5609 62.146 45.5632 62.174 45.5656C62.2032 45.5702 62.2323 45.5749 62.2626 45.5819C62.2918 45.5912 62.3221 45.5982 62.3489 45.6099C62.378 45.6205 62.4084 45.6343 62.4375 45.6483C62.5941 45.7329 62.729 45.8527 62.8316 45.9981C62.9488 46.1614 63.0397 46.342 63.1009 46.5333C63.169 46.7445 63.2094 46.9636 63.2212 47.1851C63.2361 47.4163 63.22 47.6485 63.1734 47.8754C63.1365 48.0491 63.0802 48.218 63.0054 48.3791C62.9389 48.5182 62.8538 48.6476 62.7524 48.7639C62.6631 48.8635 62.5565 48.9461 62.4376 49.0076C62.3285 49.0617 62.2085 49.0904 62.0866 49.0915L62.0865 49.0914ZM68.6115 49.0892C68.4916 49.0881 68.3737 49.0585 68.2676 49.0029C68.1514 48.9419 68.0474 48.8601 67.9609 48.7615C67.8592 48.6469 67.7747 48.5181 67.7102 48.3791C67.6344 48.2186 67.5784 48.0494 67.5435 47.8754C67.497 47.6508 67.4809 47.421 67.4956 47.1921C67.5064 46.9728 67.5464 46.756 67.6146 46.5473C67.6736 46.359 67.7626 46.1815 67.8781 46.0215C67.9789 45.8809 68.1115 45.7662 68.2652 45.6868C68.2935 45.6721 68.3227 45.6593 68.3526 45.6483C68.3805 45.6364 68.4094 45.627 68.4389 45.6204C68.4681 45.6133 68.496 45.6098 68.5252 45.6052C68.5543 45.6029 68.5823 45.6005 68.6115 45.6005C68.7296 45.6034 68.8456 45.6329 68.9508 45.6868C69.0666 45.7487 69.1701 45.8313 69.2562 45.9305C69.3571 46.0444 69.4407 46.1725 69.5046 46.3106C69.5784 46.47 69.6332 46.6375 69.6678 46.8096C69.7139 47.0359 69.7308 47.2671 69.718 47.4976C69.7063 47.7163 69.6667 47.9327 69.6002 48.1414C69.5398 48.3297 69.4505 48.5075 69.3355 48.6684C69.2362 48.8101 69.1042 48.9257 68.9507 49.0054C68.9234 49.0189 68.8954 49.031 68.8668 49.0415C68.8387 49.0526 68.8099 49.0616 68.7805 49.0684C68.7526 49.0753 68.7241 49.0801 68.6954 49.0825C68.6677 49.0871 68.6396 49.0895 68.6115 49.0896L68.6115 49.0892ZM47.4079 45.3474C47.4305 45.3478 47.4531 45.3494 47.4755 45.3521C47.499 45.354 47.5224 45.3571 47.5455 45.3614C47.5677 45.3661 47.591 45.3696 47.6143 45.3766C47.6376 45.3835 47.6609 45.3907 47.6843 45.3999L60.734 50.3052C60.8193 50.3355 60.8992 50.3792 60.9708 50.4347C61.0456 50.4905 61.1117 50.5572 61.1666 50.6327C61.2273 50.7112 61.2779 50.797 61.3171 50.8881C61.3599 50.9851 61.3912 51.0869 61.4103 51.1912C61.4174 51.2181 61.422 51.2449 61.4267 51.2729C61.4313 51.2997 61.4338 51.3276 61.4383 51.3545L61.4454 51.4396C61.4478 51.4664 61.4478 51.4932 61.4478 51.5212C61.4496 51.6065 61.4457 51.6918 61.4361 51.7765C61.4262 51.8606 61.411 51.9439 61.3906 52.026C61.3712 52.1105 61.3458 52.1935 61.3148 52.2744C61.2836 52.3563 61.2474 52.4361 61.2063 52.5134L52.6152 68.2253C52.5619 68.3214 52.5002 68.4127 52.431 68.4982C52.3692 68.5747 52.2992 68.6443 52.2223 68.7057C52.1526 68.76 52.0757 68.8044 51.9938 68.8375C51.9169 68.8685 51.8353 68.8863 51.7524 68.8899C51.6712 68.8923 51.5901 68.8817 51.5122 68.8584C51.4315 68.8341 51.3551 68.7971 51.286 68.7488C51.2101 68.6958 51.1408 68.634 51.0796 68.5646C51.0109 68.4849 50.9504 68.3986 50.8989 68.3069C50.1307 66.96 49.4631 65.5581 48.9016 64.1128C48.3096 62.5888 47.818 61.0277 47.4301 59.4395C47.0251 57.7872 46.7218 56.1117 46.5217 54.4223C46.3148 52.6872 46.2113 50.9414 46.2116 49.1941C46.2116 48.9982 46.2128 48.8047 46.2151 48.6135C46.2187 48.4222 46.2222 48.2333 46.228 48.0433C46.2338 47.8567 46.2408 47.6702 46.2489 47.4836C46.256 47.2971 46.2664 47.1105 46.2769 46.9216C46.2856 46.7199 46.3197 46.5201 46.3784 46.3269C46.4289 46.1561 46.504 45.9935 46.6012 45.8442C46.6852 45.714 46.7928 45.6005 46.9184 45.5096C47.0309 45.4276 47.1618 45.3744 47.2997 45.3545L47.3265 45.3522C47.3444 45.3506 47.3622 45.3491 47.3801 45.3475L47.4079 45.3474ZM82.1871 45.5911C82.2438 45.5909 82.3003 45.5983 82.355 45.6133C82.4104 45.6286 82.464 45.6501 82.5147 45.6774C82.5667 45.7073 82.6156 45.7425 82.6605 45.7823C82.7097 45.8231 82.7547 45.8688 82.7946 45.9188C82.8294 45.9605 82.8613 46.0045 82.8901 46.0505C82.9204 46.0991 82.9481 46.1493 82.9729 46.2009C82.9998 46.2553 83.0239 46.3109 83.0452 46.3677C83.0662 46.4272 83.086 46.488 83.1023 46.5496C83.1143 46.5902 83.1241 46.6315 83.1314 46.6732C83.1408 46.7163 83.1501 46.7594 83.1571 46.8026C83.164 46.8458 83.1687 46.8912 83.1722 46.9367C83.1769 46.9799 83.1815 47.0276 83.1839 47.0731C83.1932 47.2492 83.2026 47.4218 83.2095 47.5978C83.2166 47.7727 83.2224 47.9476 83.227 48.126C83.2317 48.3009 83.2341 48.4782 83.2364 48.6566C83.2387 48.8338 83.241 49.0111 83.241 49.1943C83.2415 50.8238 83.1512 52.4521 82.9705 54.0716C82.7935 55.6567 82.5273 57.2306 82.173 58.7857C81.8286 60.294 81.3937 61.7803 80.8706 63.2363C80.3672 64.6368 79.7701 66.0017 79.0831 67.3219C79.0373 67.4096 78.9838 67.493 78.9234 67.5714C78.8702 67.6422 78.8083 67.7061 78.7392 67.7615C78.6772 67.811 78.609 67.8522 78.5363 67.8839C78.466 67.9108 78.3921 67.9269 78.317 67.9317C78.2429 67.9336 78.169 67.9222 78.099 67.8979C78.024 67.8708 77.9533 67.8331 77.8891 67.786C77.8199 67.7321 77.7566 67.6712 77.7002 67.6041C77.6365 67.5265 77.581 67.4425 77.5346 67.3534L69.4636 52.4613C69.4228 52.3868 69.3877 52.3092 69.3587 52.2293C69.3287 52.1496 69.3034 52.0682 69.2829 51.9856C69.2654 51.904 69.2491 51.82 69.2397 51.7372C69.2304 51.6548 69.2269 51.5718 69.2291 51.4889C69.2291 51.4597 69.2303 51.4329 69.2326 51.4049C69.2327 51.3776 69.2351 51.3503 69.2397 51.3233C69.2421 51.2953 69.2444 51.2685 69.2491 51.2417C69.2537 51.2161 69.2584 51.1893 69.2654 51.1613C69.2848 51.0588 69.3153 50.9587 69.3563 50.8628C69.3938 50.7734 69.4419 50.6888 69.4997 50.611C69.5526 50.5366 69.6163 50.4706 69.6886 50.4151C69.7572 50.3612 69.8329 50.3172 69.9137 50.2845L81.9409 45.6345C81.9516 45.6312 81.9621 45.6273 81.9724 45.6228C81.9828 45.6208 81.9929 45.6176 82.0027 45.6135L82.0341 45.6076L82.0633 45.6006L82.0796 45.5982L82.0959 45.5959L82.1111 45.5935H82.1274L82.1415 45.5912H82.187L82.1871 45.5911ZM65.3595 45.4046C65.2032 45.4026 65.051 45.3543 64.9222 45.2658C64.7777 45.1656 64.6555 45.0365 64.5631 44.8868C64.4537 44.715 64.3723 44.5269 64.3218 44.3295C64.2619 44.1051 64.2317 43.8738 64.232 43.6416C64.2315 43.4108 64.2617 43.1811 64.3218 42.9583C64.3723 42.7602 64.4537 42.5713 64.5631 42.3986C64.6555 42.2496 64.7778 42.1213 64.9222 42.022C65.0525 41.9338 65.2068 41.8878 65.3641 41.8904C65.5214 41.8929 65.6741 41.9438 65.8014 42.0361C65.9467 42.1373 66.0693 42.2676 66.1617 42.4186C66.2696 42.5933 66.3509 42.7831 66.403 42.9818C66.4619 43.2048 66.4917 43.4344 66.4916 43.665C66.492 43.8953 66.4622 44.1246 66.403 44.3471C66.3518 44.5432 66.2704 44.73 66.1617 44.901C66.0695 45.0489 65.9466 45.1754 65.8014 45.2718C65.6708 45.3595 65.5168 45.4058 65.3595 45.4047V45.4046ZM69.4428 21.4061H69.4451C69.4593 21.4061 69.4743 21.4085 69.4883 21.4085L69.5314 21.4155C69.5456 21.4191 69.5594 21.4214 69.5746 21.4262C69.5893 21.4288 69.6037 21.4327 69.6177 21.4378L69.6364 21.4449L69.655 21.452L69.6701 21.4591L69.6888 21.4649C70.8361 21.9616 71.9462 22.6355 73.0049 23.4646C74.0997 24.3327 75.1002 25.3137 75.9898 26.3912C76.9563 27.5564 77.8182 28.8046 78.5655 30.1212C79.3715 31.5373 80.0669 33.0136 80.6456 34.5368C80.6724 34.6079 80.6969 34.6802 80.7179 34.7561C80.7365 34.8307 80.754 34.9065 80.7657 34.9835C80.7795 35.061 80.7892 35.1393 80.7949 35.2178C80.8019 35.2969 80.8043 35.3763 80.8019 35.4557C80.8019 35.4895 80.7996 35.5256 80.7973 35.5618C80.7949 35.5968 80.7926 35.6329 80.7914 35.6667L80.7773 35.7717C80.7726 35.8055 80.7656 35.8405 80.7609 35.8743C80.7372 35.9827 80.7052 36.0891 80.6654 36.1926C80.6298 36.2885 80.5857 36.381 80.5337 36.469C80.4838 36.5493 80.4264 36.6246 80.3623 36.694C80.303 36.7582 80.2356 36.8142 80.1617 36.8608L68.6464 44.1243C68.6114 44.1453 68.5799 44.1628 68.5461 44.1791C68.5139 44.1962 68.4804 44.2106 68.4458 44.2222C68.4133 44.2339 68.3797 44.2425 68.3456 44.2479C68.3124 44.2535 68.2789 44.2562 68.2453 44.2561C68.1901 44.2565 68.1353 44.2474 68.0832 44.2292C68.0285 44.2126 67.9768 44.187 67.9305 44.1534C67.8783 44.1198 67.8315 44.0786 67.7917 44.031C67.7456 43.9801 67.7052 43.9241 67.6715 43.8643C67.6337 43.8022 67.6021 43.7366 67.577 43.6684C67.5502 43.5961 67.528 43.5203 67.507 43.441C67.4683 43.2691 67.4484 43.0936 67.4476 42.9175C67.4464 42.9039 67.4464 42.8902 67.4476 42.8766V42.7939C67.4476 42.7811 67.4499 42.7671 67.4499 42.7531L68.4002 22.8881C68.4088 22.6239 68.4641 22.3634 68.5635 22.1185C68.6056 22.013 68.66 21.9128 68.7255 21.82C68.7831 21.7358 68.8521 21.6601 68.9307 21.595C69.0026 21.5317 69.0851 21.4816 69.1744 21.4469C69.2169 21.4308 69.2611 21.4194 69.3062 21.4131C69.3513 21.4061 69.397 21.4037 69.4426 21.406L69.4428 21.4061ZM61.2375 20.9712C61.2551 20.9717 61.2726 20.9733 61.29 20.9759C61.3069 20.9775 61.3236 20.9802 61.3401 20.9841C61.3571 20.9868 61.3738 20.9907 61.3902 20.9957C61.4073 20.9999 61.4241 21.0054 61.4404 21.012C61.5437 21.0508 61.6392 21.1077 61.7225 21.18C61.8143 21.2618 61.8946 21.3555 61.9616 21.4586C62.0368 21.574 62.0986 21.6977 62.1458 21.8271C62.2005 21.9699 62.2403 22.118 62.2647 22.269L62.2788 22.3483C62.2812 22.3762 62.2847 22.4031 62.287 22.431L62.2941 22.5126L62.3012 22.5966L63.2598 42.7029C63.2617 42.7164 63.2625 42.7301 63.2621 42.7437C63.2621 42.7579 63.2645 42.7717 63.2645 42.7857V42.8673C63.2621 42.9606 63.2574 43.0516 63.2493 43.1378C63.2397 43.223 63.2249 43.3075 63.205 43.3909C63.1879 43.4678 63.1652 43.5435 63.1371 43.6171C63.1116 43.6861 63.0804 43.7528 63.0438 43.8165C63.0075 43.8763 62.9662 43.9329 62.9202 43.9856C62.8772 44.0302 62.83 44.0705 62.7791 44.1058C62.7304 44.1378 62.6774 44.1625 62.6217 44.1793C62.5687 44.1949 62.5137 44.2023 62.4584 44.2014C62.4241 44.201 62.3898 44.1983 62.3559 44.1933C62.3208 44.1864 62.2864 44.1763 62.2533 44.163C62.2181 44.1511 62.1838 44.1366 62.1507 44.1198C62.1154 44.1019 62.0812 44.0821 62.0481 44.0603L49.6932 36.1339C49.6108 36.0813 49.5355 36.0182 49.4693 35.9461C49.3984 35.8705 49.3355 35.7876 49.2816 35.6989C49.2243 35.603 49.1752 35.5024 49.1347 35.3983C49.093 35.2871 49.0599 35.1729 49.0357 35.0566C49.0246 35.0129 49.016 34.9685 49.01 34.9237C49.0019 34.8805 48.9959 34.8351 48.9902 34.7896C48.9856 34.7441 48.982 34.701 48.9796 34.6555C48.9772 34.61 48.9761 34.5646 48.9773 34.5191C48.9771 34.4435 48.981 34.368 48.9889 34.2929C48.9971 34.2182 49.0076 34.1448 49.0216 34.07C49.0368 33.9977 49.0542 33.9243 49.0752 33.8531C49.0974 33.7832 49.1207 33.712 49.1499 33.6444C49.7954 32.0758 50.572 30.5644 51.4714 29.1262C52.3354 27.755 53.281 26.5202 54.2941 25.4439C55.3051 24.3688 56.3776 23.4512 57.5006 22.7038C58.6188 21.961 59.7801 21.3897 60.9729 21.0073L60.9916 21.0002C60.9983 20.9975 61.0054 20.996 61.0126 20.9955C61.0179 20.9926 61.0239 20.991 61.0301 20.9909C61.036 20.9882 61.0423 20.9866 61.0487 20.9862L61.0802 20.9791C61.0904 20.9785 61.1005 20.9773 61.1105 20.9756L61.142 20.9709H61.1711L61.1874 20.9686H61.2038L61.2213 20.9709L61.2375 20.9712ZM65.3665 15.1727C62.3302 14.9768 59.4071 15.7534 56.7195 17.3345C54.0051 18.9331 51.5355 21.3514 49.4449 24.4144C47.3391 27.4996 45.6216 31.2319 44.4299 35.4225C43.2325 39.6319 42.5679 44.2864 42.5679 49.1824C42.5679 54.0807 43.2325 58.7376 44.4299 62.9492C45.6216 67.1409 47.3391 70.8756 49.4449 73.962C51.5354 77.0251 54.0051 79.4433 56.7195 81.0419C59.4071 82.6253 62.3302 83.3996 65.3665 83.206C68.3678 83.0148 71.1965 81.8919 73.7429 80.038C76.2637 78.2051 78.5129 75.6492 80.3902 72.564C82.2499 69.4986 83.7471 65.9004 84.7755 61.9442C85.8004 58.0043 86.3659 53.696 86.3659 49.1824C86.3659 44.6736 85.8004 40.3639 84.7755 36.4277C83.7471 32.4738 82.2498 28.8755 80.3902 25.8125C78.5129 22.7273 76.2637 20.1714 73.7429 18.3385C71.1964 16.4869 68.3676 15.364 65.3665 15.1729" fill="white"/>
<path d="M65.3595 41.8902C65.2038 41.8896 65.0515 41.9355 64.9221 42.022C64.7773 42.1213 64.6547 42.2495 64.5619 42.3986C64.4534 42.5718 64.3721 42.7605 64.3205 42.9583C64.2614 43.1812 64.2316 43.4109 64.2319 43.6415C64.2318 43.8737 64.2616 44.1049 64.3205 44.3295C64.3723 44.5264 64.4537 44.7143 64.5619 44.8868C64.6549 45.0363 64.7775 45.1653 64.9221 45.2658C65.0511 45.3552 65.204 45.4035 65.3608 45.4046C65.5177 45.4056 65.6712 45.3593 65.8013 45.2716C65.9464 45.1755 66.069 45.049 66.1604 44.9008C66.2695 44.7299 66.3513 44.5431 66.4029 44.347C66.4621 44.1241 66.4919 43.8944 66.4915 43.6637C66.4916 43.4335 66.4618 43.2042 66.4029 42.9816C66.3504 42.7829 66.2687 42.5931 66.1604 42.4185C66.0692 42.267 65.9468 42.1366 65.8014 42.036C65.6721 41.9441 65.5181 41.8933 65.3595 41.8903" fill="#CDCED0"/>
<path d="M68.6128 45.6004C68.5825 45.6004 68.5545 45.6027 68.5266 45.6051C68.4951 45.6097 68.4694 45.6144 68.4391 45.6214C68.4092 45.6275 68.3799 45.6364 68.3517 45.6482C68.3237 45.6599 68.2934 45.6727 68.2666 45.6867C68.1126 45.7661 67.9796 45.8808 67.8783 46.0213C67.7626 46.1814 67.6732 46.3589 67.6136 46.5472C67.5461 46.7559 67.5069 46.9728 67.4968 47.1919C67.4815 47.4208 67.4976 47.6507 67.5446 47.8752C67.5786 48.0494 67.6342 48.2186 67.7102 48.3789C67.7745 48.5178 67.8585 48.6466 67.9597 48.7614C68.0463 48.8603 68.1507 48.9422 68.2675 49.0027C68.3739 49.0589 68.4923 49.0885 68.6126 49.089C68.6407 49.0888 68.6688 49.0865 68.6966 49.0819C68.7244 49.0794 68.752 49.0751 68.7793 49.0691C68.8091 49.0619 68.8383 49.0525 68.8668 49.0411C68.8956 49.031 68.9236 49.019 68.9507 49.005C69.1042 48.9252 69.2362 48.8097 69.3355 48.668C69.4504 48.5073 69.5401 48.33 69.6013 48.1421C69.6658 47.9326 69.705 47.7162 69.7181 47.4974C69.732 47.2668 69.7152 47.0355 69.6679 46.8094C69.6331 46.6374 69.5788 46.47 69.5059 46.3104C69.4412 46.1725 69.3572 46.0445 69.2563 45.9303C69.1705 45.8308 69.0669 45.7482 68.9509 45.6866C68.8461 45.6327 68.7305 45.6032 68.6127 45.6003" fill="#CDCED0"/>
<path d="M67.3776 51.5309C67.3193 51.5303 67.2612 51.5382 67.2051 51.5542C67.1455 51.5679 67.088 51.589 67.0337 51.6171C66.9761 51.6474 66.9211 51.6825 66.8692 51.7219C66.8129 51.7674 66.7607 51.8177 66.713 51.8723C66.585 52.0246 66.4841 52.1977 66.4145 52.3841C66.3372 52.5877 66.2874 52.8006 66.2665 53.0173C66.2432 53.2421 66.2479 53.4688 66.2806 53.6924C66.3119 53.9107 66.3739 54.1235 66.4648 54.3244C66.5147 54.4342 66.5765 54.5382 66.6491 54.6345C66.7122 54.7179 66.7864 54.7925 66.8694 54.8561C66.9431 54.9134 67.0253 54.9586 67.1131 54.9902C67.195 55.0197 67.2815 55.0343 67.3685 55.0333C67.4279 55.0336 67.4872 55.0258 67.5445 55.01C67.6027 54.9954 67.659 54.9743 67.7124 54.9471C67.7708 54.9161 67.8259 54.8794 67.8769 54.8374C67.9342 54.7926 67.9862 54.7413 68.0319 54.6847C68.1611 54.5339 68.2626 54.3615 68.3316 54.1753C68.409 53.9738 68.4588 53.7627 68.4796 53.5478C68.5016 53.3258 68.4973 53.1019 68.4668 52.8809C68.4354 52.6634 68.3746 52.4512 68.2861 52.2501C68.2342 52.1412 68.1717 52.0377 68.0994 51.9412C68.0369 51.8559 67.9627 51.7797 67.879 51.715C67.8055 51.6563 67.7233 51.6095 67.6353 51.5762C67.5525 51.547 67.4654 51.5316 67.3776 51.5309Z" fill="#CDCED0"/>
<path d="M62.0877 45.562C61.9659 45.5607 61.8455 45.5887 61.7368 45.6436C61.6178 45.7045 61.5108 45.7862 61.4208 45.885C61.3183 46.0008 61.2323 46.1303 61.1654 46.2698C61.0884 46.4325 61.0312 46.604 60.9952 46.7805C60.9461 47.0102 60.9285 47.2455 60.9428 47.4799C60.9534 47.7012 60.9939 47.9201 61.0631 48.1306C61.1243 48.321 61.2161 48.5001 61.3347 48.6612C61.4361 48.8052 61.571 48.9224 61.7276 49.0028C61.756 49.019 61.7861 49.0319 61.8174 49.0413C61.8471 49.0533 61.8774 49.0634 61.9084 49.0716C61.9384 49.0784 61.9687 49.0835 61.9993 49.0867C62.0287 49.0906 62.0583 49.0922 62.0879 49.0914C62.2098 49.0908 62.3299 49.062 62.4389 49.0075C62.5574 48.9461 62.6638 48.8635 62.7525 48.7638C62.8545 48.648 62.9397 48.5185 63.0056 48.379C63.0809 48.218 63.1376 48.049 63.1746 47.8753C63.2206 47.6487 63.2366 47.4171 63.2223 47.1863C63.2108 46.9647 63.17 46.7455 63.101 46.5346C63.0399 46.3433 62.9495 46.1628 62.8328 45.9994C62.7303 45.8535 62.5954 45.7333 62.4387 45.6483C62.4084 45.6341 62.3792 45.6215 62.3501 45.6098C62.3216 45.5989 62.2924 45.59 62.2627 45.583C62.2335 45.5759 62.2044 45.5713 62.1741 45.5667C62.1472 45.5643 62.1169 45.562 62.0878 45.562" fill="#CDCED0"/>
<path d="M68.2453 43.1087L68.2127 43.0981C68.2066 43.09 68.2029 43.0803 68.2021 43.0702C68.1963 43.0539 68.1924 43.0371 68.1904 43.02C68.1881 42.9979 68.1857 42.9745 68.1833 42.9454C68.1833 42.9151 68.1833 42.8836 68.1857 42.8474L69.0369 24.9111C70.0852 25.3462 71.0891 25.943 72.0371 26.6776C72.9838 27.411 73.8747 28.2855 74.7014 29.2789C75.5544 30.3138 76.3134 31.4228 76.9692 32.5927C77.6751 33.8494 78.2829 35.1589 78.787 36.5092L68.3724 43.0679L68.2453 43.1087ZM69.4428 21.4062C69.3972 21.4039 69.3515 21.4062 69.3063 21.4132C69.2614 21.4201 69.2173 21.4314 69.1746 21.447C69.1305 21.4631 69.0883 21.4839 69.0487 21.5088C69.0065 21.5333 68.967 21.5622 68.9308 21.595C68.8523 21.6601 68.7832 21.7359 68.7257 21.8201C68.6606 21.9132 68.6062 22.0133 68.5636 22.1186C68.5155 22.2351 68.4781 22.3556 68.4516 22.4788C68.4212 22.6133 68.4037 22.7503 68.3992 22.8881L67.4501 42.7544C67.4501 42.7673 67.4478 42.7813 67.4478 42.7953V42.8769C67.4466 42.8905 67.4466 42.9041 67.4478 42.9177C67.4484 43.0085 67.4538 43.0992 67.4641 43.1894C67.4758 43.278 67.4886 43.3619 67.5072 43.4412C67.5264 43.5186 67.5497 43.5949 67.5772 43.6698C67.6029 43.7375 67.6341 43.803 67.6705 43.8657C67.7053 43.9248 67.7459 43.9802 67.7917 44.0312C67.8319 44.0788 67.8786 44.1205 67.9305 44.1548C67.9769 44.188 68.0285 44.2132 68.0832 44.2295C68.1352 44.248 68.1901 44.2575 68.2453 44.2575C68.279 44.2578 68.3126 44.2546 68.3456 44.2481C68.3797 44.2427 68.4133 44.2341 68.4459 44.2225C68.4803 44.2115 68.5135 44.1971 68.5449 44.1793C68.5796 44.1636 68.6132 44.1452 68.6452 44.1245L80.1618 36.8602C80.2357 36.8136 80.3031 36.7576 80.3624 36.6934C80.4268 36.6243 80.4842 36.5489 80.5338 36.4684C80.586 36.3809 80.6301 36.2888 80.6656 36.1932C80.7054 36.0893 80.7373 35.9825 80.7611 35.8737C80.7657 35.8399 80.7727 35.8061 80.7774 35.7712C80.7821 35.7373 80.7867 35.7012 80.7902 35.6662L80.7973 35.5624C80.7997 35.5251 80.802 35.4889 80.802 35.4552C80.8043 35.3762 80.802 35.2972 80.7949 35.2185C80.7878 35.138 80.7797 35.0611 80.7658 34.9841C80.7541 34.906 80.7366 34.8314 80.7179 34.7556C80.6973 34.6817 80.6728 34.6089 80.6445 34.5375C80.0669 33.014 79.3719 31.5377 78.5655 30.122C77.8182 28.805 76.9563 27.5565 75.9898 26.3908C75.0999 25.314 74.0995 24.3335 73.0049 23.4655C71.945 22.6365 70.8362 21.9625 69.6888 21.4658L69.6701 21.4587L69.655 21.4516L69.6363 21.4446L69.6177 21.4375C69.6036 21.4327 69.5892 21.4292 69.5745 21.4269C69.5594 21.4222 69.5454 21.4198 69.5314 21.4152L69.4882 21.4081C69.4741 21.4081 69.4591 21.4058 69.4451 21.4058L69.4428 21.4062Z" fill="#CDCED0"/>
<path d="M62.4587 43.0458L62.4354 43.0435C62.4255 43.0409 62.4158 43.0378 62.4062 43.0341L62.3748 43.02C62.3606 43.0129 62.3491 43.0058 62.3351 42.9979L51.2337 35.8469C51.7885 34.4586 52.4574 33.1186 53.2334 31.8406C53.9436 30.6688 54.7664 29.5691 55.6901 28.557C56.5763 27.5962 57.523 26.7718 58.5211 26.0991C59.5157 25.4321 60.5616 24.9156 61.646 24.5716L62.5135 42.7904C62.5165 42.8229 62.5173 42.8557 62.5158 42.8883C62.5163 42.9117 62.5156 42.935 62.5135 42.9583C62.5108 42.9745 62.5069 42.9905 62.5018 43.0061C62.5003 43.0156 62.4963 43.0244 62.4901 43.0318L62.4855 43.0389L62.4784 43.0412L62.4702 43.0435L62.4586 43.0459L62.4587 43.0458ZM61.2379 20.9712H61.2216L61.2041 20.9689H61.1877L61.1714 20.9712H61.1422L61.1108 20.9759L61.0805 20.9805L61.049 20.9876C61.0425 20.9881 61.0362 20.9896 61.0303 20.9923L61.0128 20.9958C61.0056 20.9963 60.9985 20.9978 60.9918 21.0005L60.9732 21.0076C59.7804 21.39 58.619 21.9626 57.5009 22.7041C56.378 23.4515 55.3053 24.3692 54.2944 25.4442C53.2812 26.5215 52.3355 27.7552 51.4716 29.1265C50.5728 30.5649 49.7962 32.0761 49.1502 33.6443C49.1211 33.7131 49.0978 33.7831 49.0756 33.8542C49.0546 33.9242 49.0371 33.9976 49.022 34.07C49.0078 34.1458 48.9975 34.2181 48.9893 34.2939C48.9813 34.3686 48.9774 34.4437 48.9776 34.5189C48.9765 34.5644 48.9776 34.6099 48.98 34.6553C48.9823 34.7008 48.9858 34.7451 48.9906 34.7906C48.9964 34.8361 49.0023 34.8816 49.0104 34.9247C49.0165 34.9691 49.025 35.0131 49.036 35.0565C49.0601 35.1728 49.0932 35.287 49.1351 35.3981C49.1751 35.5025 49.2242 35.6031 49.282 35.6988C49.3361 35.7876 49.399 35.8708 49.4697 35.9471C49.5362 36.0185 49.6114 36.0812 49.6936 36.1337L62.0483 44.0613C62.0832 44.0835 62.1171 44.1021 62.1508 44.1208C62.1847 44.136 62.2196 44.1523 62.2534 44.1639C62.2868 44.1763 62.3211 44.1861 62.356 44.1931C62.39 44.1985 62.4242 44.2016 62.4586 44.2024C62.5139 44.2029 62.5689 44.1951 62.6218 44.1791C62.6775 44.1628 62.7306 44.1384 62.7792 44.1068C62.8299 44.0707 62.8771 44.0302 62.9204 43.9855C62.9661 43.933 63.0074 43.8769 63.0439 43.8176C63.0804 43.7534 63.1115 43.6863 63.1372 43.6171C63.1651 43.5438 63.1877 43.4686 63.2049 43.392C63.2246 43.3086 63.2394 43.2241 63.2492 43.139C63.2573 43.0516 63.262 42.9606 63.2644 42.8673V42.7857C63.2644 42.7716 63.262 42.7589 63.262 42.7449C63.2624 42.7313 63.2617 42.7176 63.2597 42.7041L62.3011 22.5977L62.294 22.5126L62.2869 22.431C62.2846 22.4042 62.2811 22.3762 62.2788 22.3494L62.2646 22.269C62.2401 22.1181 62.2005 21.97 62.1463 21.827C62.0989 21.6977 62.0371 21.5741 61.9621 21.4586C61.8955 21.3556 61.8151 21.2622 61.7231 21.1811C61.6401 21.108 61.5445 21.0507 61.4409 21.012C61.4246 21.0053 61.4079 20.9999 61.3908 20.9957C61.3744 20.9921 61.357 20.9875 61.3407 20.9851C61.3242 20.9808 61.3074 20.9777 61.2905 20.9757C61.2732 20.9731 61.2556 20.9716 61.2381 20.9711" fill="#CDCED0"/>
<path d="M52.928 65.8292C52.2676 64.6802 51.6901 63.4856 51.2 62.2543C50.6755 60.9395 50.2388 59.5914 49.8929 58.2188C49.525 56.7648 49.2489 55.2892 49.0662 53.8007C48.8737 52.2359 48.7775 50.6608 48.7782 49.0842C48.7782 48.914 48.7794 48.7426 48.7818 48.5748C48.7853 48.4035 48.7876 48.2332 48.7924 48.0641C48.797 47.8939 48.804 47.7248 48.811 47.5569C48.8181 47.3855 48.8262 47.2188 48.8355 47.0509L60.5547 51.428C60.579 51.4365 60.6021 51.4478 60.6235 51.4619C60.639 51.4725 60.6535 51.4846 60.6666 51.498C60.6762 51.5075 60.684 51.5186 60.69 51.5307C60.694 51.5378 60.6976 51.5452 60.7006 51.5528V51.5761C60.6982 51.5855 60.6959 51.6006 60.6912 51.6193C60.6855 51.6419 60.6781 51.6641 60.6691 51.6857C60.6584 51.7132 60.6456 51.7397 60.6306 51.765L52.928 65.8292ZM47.4082 45.3474H47.3814C47.372 45.347 47.3626 45.3478 47.3534 45.3497C47.3448 45.3493 47.3361 45.3501 47.3278 45.3521L47.2998 45.3544C47.162 45.3745 47.0311 45.4277 46.9185 45.5095C46.7937 45.6013 46.6863 45.7146 46.6013 45.8441C46.5043 45.9935 46.4292 46.1561 46.3785 46.3268C46.3198 46.52 46.2857 46.7198 46.277 46.9215C46.2664 47.1104 46.2572 47.2969 46.249 47.4835C46.2409 47.67 46.2339 47.8566 46.2281 48.0443C46.2222 48.2332 46.2187 48.4221 46.2152 48.6133C46.2129 48.8046 46.2129 48.9981 46.2129 49.194C46.2121 50.9413 46.3153 52.6871 46.5219 54.4221C46.7223 56.1116 47.0261 57.7872 47.4315 59.4396C47.8184 61.0279 48.3096 62.5891 48.9018 64.1129C49.4638 65.558 50.1314 66.9598 50.8992 68.3069C50.951 68.3984 51.0116 68.4847 51.0799 68.5646C51.1414 68.6338 51.2106 68.6956 51.2863 68.7488C51.3552 68.7974 51.4316 68.8344 51.5125 68.8585C51.5907 68.8818 51.6722 68.8925 51.7538 68.89C51.8363 68.8862 51.9175 68.8685 51.994 68.8375C52.0759 68.8044 52.1529 68.7601 52.2225 68.7057C52.2995 68.6444 52.3695 68.5748 52.4312 68.4982C52.5005 68.4125 52.5625 68.3213 52.6166 68.2254L61.2065 52.5136C61.2475 52.436 61.2841 52.3562 61.3162 52.2746C61.3467 52.194 61.3716 52.1114 61.3908 52.0274C61.4117 51.945 61.4269 51.8612 61.4363 51.7767C61.4459 51.6919 61.4498 51.6066 61.4479 51.5213C61.4479 51.4933 61.4479 51.4665 61.4456 51.4397L61.4385 51.3546C61.4339 51.3278 61.4315 51.2998 61.4269 51.273C61.4235 51.2455 61.4184 51.2183 61.4117 51.1914C61.392 51.0872 61.3608 50.9855 61.3184 50.8883C61.2792 50.7971 61.2287 50.7113 61.168 50.6329C61.1124 50.5579 61.0464 50.4912 60.9721 50.4348C60.9003 50.3798 60.8205 50.3362 60.7354 50.3054L47.6845 45.3999C47.6624 45.3905 47.6379 45.3836 47.6157 45.3765C47.5912 45.3707 47.5691 45.3659 47.5458 45.3614C47.5226 45.357 47.4993 45.3539 47.4758 45.3521C47.4533 45.3493 47.4308 45.3478 47.4082 45.3474" fill="#CDCED0"/>
<path d="M77.2503 65.0876L70.0211 51.7219C70.0059 51.6916 69.9943 51.6647 69.985 51.6414C69.9756 51.6212 69.9682 51.6001 69.9628 51.5785C69.9582 51.5598 69.9558 51.5435 69.9535 51.533L69.9558 51.512C69.9579 51.5042 69.9611 51.4968 69.9652 51.4899C69.972 51.478 69.9802 51.4671 69.9896 51.4572C70.0013 51.4455 70.0153 51.4351 70.0305 51.4211C70.0508 51.4079 70.0722 51.3966 70.0946 51.3872L80.9325 47.1758C80.9395 47.3332 80.9466 47.4929 80.9523 47.6527C80.9594 47.8089 80.964 47.9687 80.9686 48.1308C80.9733 48.2893 80.978 48.4491 80.9803 48.6088C80.9826 48.7709 80.9826 48.9295 80.9826 49.0916C80.984 50.5761 80.8988 52.0594 80.7273 53.534C80.5642 54.9432 80.3185 56.3417 79.9915 57.7221C79.6804 59.0358 79.2887 60.329 78.8185 61.5944C78.3735 62.7922 77.8496 63.9592 77.2503 65.0877V65.0876ZM82.1869 45.5911H82.1415L82.1273 45.5934H82.1121L82.0958 45.5957L82.0795 45.5981L82.0643 45.6004L82.034 45.6075L82.0025 45.6146C81.9926 45.6178 81.9825 45.6205 81.9722 45.6227C81.9621 45.6275 81.9515 45.6314 81.9407 45.6344L69.915 50.2842C69.8338 50.3167 69.7576 50.3607 69.6888 50.4148C69.617 50.4709 69.5534 50.5368 69.4999 50.6105C69.4421 50.6884 69.394 50.7729 69.3565 50.8624C69.3163 50.9586 69.2859 51.0586 69.2656 51.1609C69.2585 51.1888 69.2539 51.2156 69.2492 51.2413C69.2446 51.2681 69.2422 51.2961 69.2399 51.3229C69.2362 51.3499 69.2343 51.3772 69.2341 51.4045C69.2317 51.4325 69.2294 51.4593 69.2294 51.4896C69.2277 51.5722 69.2313 51.6547 69.24 51.7368C69.2502 51.8203 69.2649 51.9033 69.2843 51.9852C69.3044 52.0678 69.3294 52.1491 69.359 52.2288C69.3882 52.309 69.4233 52.387 69.4639 52.462L77.5348 67.3532C77.5816 67.4419 77.6371 67.5259 77.7004 67.6038C77.7568 67.6709 77.8201 67.7319 77.8892 67.7857C77.9536 67.8326 78.0243 67.8703 78.0991 67.8977C78.1696 67.922 78.2439 67.9334 78.3184 67.9315C78.3932 67.9272 78.4668 67.9111 78.5365 67.8837C78.6095 67.8526 78.6778 67.8114 78.7393 67.7612C78.8084 67.7062 78.8703 67.6428 78.9236 67.5723C78.9837 67.4934 79.0371 67.4095 79.0833 67.3216C79.7702 66.0015 80.3674 64.6365 80.8708 63.236C81.3949 61.7804 81.8299 60.2941 82.1732 58.7855C82.528 57.2304 82.7942 55.6565 82.9707 54.0714C83.1513 52.4519 83.2416 50.8235 83.2411 49.194C83.2411 49.0121 83.2387 48.8337 83.2364 48.6563C83.2341 48.4789 83.2317 48.3007 83.2282 48.1257C83.2236 47.9473 83.2166 47.7724 83.2096 47.5975C83.2025 47.4215 83.1932 47.2489 83.1839 47.0729C83.1828 47.0274 83.1781 46.9796 83.1733 46.9364C83.1687 46.8909 83.164 46.8455 83.157 46.8023C83.15 46.7592 83.1407 46.716 83.1325 46.6729C83.1246 46.6312 83.1145 46.5899 83.1022 46.5493C83.0859 46.4887 83.0661 46.4269 83.0451 46.3674C83.0238 46.3106 82.9997 46.255 82.9728 46.2007C82.9472 46.1494 82.9203 46.0992 82.8912 46.0514C82.8619 46.005 82.8296 45.9606 82.7944 45.9185C82.7546 45.8685 82.7096 45.8228 82.6603 45.782C82.6152 45.7426 82.5664 45.7074 82.5146 45.6771C82.4644 45.6499 82.4112 45.6288 82.356 45.6141C82.3011 45.5982 82.2441 45.5904 82.1869 45.5908" fill="#CDCED0"/>
<path d="M65.3666 74.1171C64.8239 74.1437 64.28 74.127 63.74 74.067C63.2027 74.0055 62.6707 73.9042 62.1484 73.7638C61.6216 73.6209 61.1057 73.4404 60.6047 73.2239C60.092 73.0012 59.5946 72.7449 59.1157 72.4566L65.2593 56.9278C65.2734 56.8928 65.2873 56.866 65.2978 56.8427C65.3076 56.8253 65.3185 56.8086 65.3304 56.7926C65.3378 56.783 65.346 56.774 65.3549 56.7658L65.3666 56.7587L65.3807 56.7658C65.3887 56.7742 65.3961 56.7831 65.4029 56.7926C65.4122 56.8043 65.4239 56.8229 65.4379 56.8451C65.4485 56.8707 65.4623 56.8999 65.474 56.936L71.474 71.9216C71.0168 72.2449 70.5393 72.5386 70.0445 72.8007C69.5599 73.0574 69.0586 73.281 68.5438 73.47C68.0349 73.6571 67.5126 73.8056 66.9814 73.9142C66.4492 74.0242 65.9093 74.0921 65.3665 74.1171L65.3666 74.1171ZM65.3665 55.6408C65.3311 55.6401 65.2958 55.644 65.2615 55.6525C65.2441 55.6572 65.2277 55.6619 65.2091 55.6654C65.1916 55.6724 65.1753 55.677 65.1566 55.6863C65.103 55.7105 65.0525 55.741 65.0062 55.7773C64.9533 55.818 64.9052 55.8645 64.8628 55.916C64.8146 55.974 64.7721 56.0365 64.7357 56.1026C64.6929 56.1792 64.6555 56.2586 64.6238 56.3404L57.7305 73.7207C57.7031 73.79 57.6798 73.8609 57.6605 73.9329C57.638 74.0061 57.6197 74.0805 57.6057 74.1558C57.5917 74.2304 57.5801 74.3062 57.5707 74.3831C57.5649 74.4589 57.5601 74.5359 57.5601 74.6117C57.5578 74.6595 57.5601 74.705 57.5601 74.7504C57.5625 74.7959 57.5672 74.8414 57.5707 74.8869C57.5754 74.93 57.5801 74.9755 57.587 75.021C57.5941 75.0641 57.6034 75.1072 57.6127 75.1504C57.6353 75.2605 57.6681 75.3682 57.7106 75.4723C57.7479 75.5697 57.7944 75.6634 57.8494 75.7521C57.9009 75.8328 57.9602 75.9082 58.0266 75.9772C58.0896 76.0413 58.161 76.0966 58.2388 76.1416C58.7998 76.4709 59.3826 76.7615 59.9831 77.0114C60.5593 77.2511 61.152 77.449 61.7566 77.6037C62.3454 77.7531 62.9444 77.8588 63.5488 77.9197C64.7581 78.0378 65.9784 77.9717 67.168 77.7238C67.767 77.6001 68.3562 77.433 68.931 77.2236C69.5196 77.0075 70.093 76.7519 70.6473 76.4587C71.2227 76.1545 71.778 75.8137 72.3098 75.4385C72.383 75.3856 72.4495 75.3242 72.5079 75.2554C72.5732 75.1824 72.6299 75.1022 72.677 75.0164C72.7296 74.9247 72.7744 74.8287 72.8111 74.7295C72.8484 74.624 72.8788 74.5161 72.9021 74.4066C72.9091 74.3692 72.9162 74.3331 72.9207 74.2969C72.9242 74.2607 72.9289 74.2246 72.9335 74.1872C72.9382 74.1511 72.9406 74.1149 72.9429 74.0788C72.9452 74.0392 72.9475 74.003 72.9475 73.9669C72.9499 73.8841 72.9452 73.8025 72.9405 73.7232C72.9334 73.6416 72.9218 73.5611 72.909 73.4842C72.8959 73.4063 72.8784 73.3292 72.8565 73.2533C72.8357 73.1795 72.8112 73.1067 72.7831 73.0353L66.1093 56.3194C66.0678 56.2147 66.0167 56.114 65.9565 56.0187C65.9047 55.9412 65.8437 55.8704 65.7747 55.8077C65.7157 55.755 65.6488 55.7117 65.5766 55.6794C65.51 55.6524 65.4385 55.6393 65.3667 55.641" fill="#CDCED0"/>
<path d="M63.3517 51.5575C63.2621 51.5579 63.1733 51.5741 63.0893 51.6053C63.0001 51.6375 62.9169 51.6843 62.8431 51.7439C62.759 51.8101 62.6834 51.8865 62.6181 51.9713C62.5449 52.0689 62.4817 52.1736 62.4292 52.2837C62.336 52.4872 62.2716 52.7027 62.2379 52.924C62.2046 53.1479 62.1991 53.375 62.2216 53.6003C62.2415 53.8179 62.2913 54.0317 62.3697 54.2357C62.4402 54.4239 62.5437 54.598 62.6752 54.7499C62.7229 54.8041 62.7756 54.8536 62.8326 54.898C62.8842 54.9377 62.9397 54.9721 62.9982 55.0006C63.0526 55.0276 63.1102 55.0476 63.1696 55.06C63.2269 55.0734 63.2856 55.0801 63.3445 55.0799C63.4341 55.0785 63.5228 55.062 63.6068 55.0309C63.6961 54.996 63.7798 54.9481 63.8552 54.8887C63.9394 54.8233 64.0143 54.7468 64.078 54.6613C64.1519 54.5629 64.2152 54.457 64.2669 54.3453C64.3587 54.1443 64.4207 53.931 64.4511 53.7121C64.4838 53.4881 64.4885 53.261 64.4653 53.0359C64.4447 52.8183 64.3949 52.6046 64.3172 52.4004C64.2486 52.2115 64.1458 52.0368 64.0141 51.885C63.9666 51.8325 63.9151 51.7838 63.8601 51.7393C63.8079 51.7 63.752 51.6656 63.6934 51.6367C63.6396 51.61 63.5828 51.5896 63.5243 51.5761C63.468 51.5618 63.4099 51.5555 63.3518 51.5574" fill="#CDCED0"/>
<path fill-rule="evenodd" clip-rule="evenodd" d="M66.8153 8.78796C54.3578 8.18162 46.8886 16.7648 44.891 21.9998L44.8562 21.9865C46.8581 16.74 54.34 8.14343 66.8171 8.75072C73.0591 9.05454 78.0651 13.2624 81.8084 18.5027C85.5518 23.7434 88.0349 30.0201 89.2306 34.4694L89.1946 34.4791C87.9997 30.0329 85.5183 23.7606 81.778 18.5244C78.0375 13.2879 73.0406 9.09096 66.8153 8.78796Z" fill="#2B2C33"/>
<path d="M46.5153 22.7421L46.9179 21.9348L46.4131 21.419L47.1225 19.9968L47.8382 20.0897L48.2408 19.2825L44.2469 18.7245L43.6717 19.8777L46.5153 22.7421ZM45.9132 20.9537L44.6296 19.6654L44.6536 19.6174L46.45 19.8773L45.9132 20.9537Z" fill="#16DB93"/>
<path d="M48.8368 18.5052L49.6364 17.3674L47.2062 14.1764L46.6783 14.9276L48.7145 17.5399L48.6837 17.5838L45.536 16.5531L45.0111 17.2999L48.8368 18.5052Z" fill="#16DB93"/>
<path d="M50.1703 16.589L50.7885 15.932L50.4538 15.2927L51.543 14.1352L52.2015 14.4305L52.8197 13.7735L49.1561 12.0881L48.2729 13.0266L50.1703 16.589ZM50.1092 14.703L49.2514 13.0994L49.2882 13.0603L50.9335 13.827L50.1092 14.703Z" fill="#16DB93"/>
<path d="M52.7695 13.8516L53.4407 13.3326L51.8114 11.2258L51.8539 11.193L54.63 12.4129L55.4455 11.7822L53.1068 8.75795L52.4357 9.27694L54.0682 11.388L54.0257 11.4208L51.2463 10.1967L50.4308 10.8273L52.7695 13.8516Z" fill="#16DB93"/>
<path d="M56.4855 11.2334L57.2712 10.8124L55.8156 8.09567L56.89 7.52003L56.54 6.86688L53.6056 8.43912L53.9555 9.09227L55.0299 8.51662L56.4855 11.2334Z" fill="#16DB93"/>
</g>
<defs>
<clipPath id="clip0_595_10029">
<rect width="95.6357" height="100" fill="white"/>
</clipPath>
</defs>
</svg>
