<svg width="96" height="100" viewBox="0 0 96 100" fill="none" xmlns="http://www.w3.org/2000/svg">
<g clip-path="url(#clip0_595_10031)">
<path d="M63.8412 100.143L29.6177 97.9045L31.7523 96.2653L57.8511 98.5956C61.139 98.8798 67.3617 99.5211 65.9491 99.8134C64.5366 100.106 63.9374 100.159 63.8412 100.143Z" fill="#6D7080"/>
<path d="M40.3277 85.9649C40.1061 85.6163 39.8846 85.2653 39.6631 84.9037C39.4299 84.5306 39.2083 84.1447 38.9868 83.7494C38.7536 83.3529 38.5204 82.9332 38.2989 82.5262C38.054 82.0587 37.7975 81.5806 37.5643 81.0909C37.3195 80.6128 37.0862 80.1115 36.8531 79.6112C36.7363 79.3652 36.6198 79.1215 36.5149 78.8638C36.41 78.6318 36.3051 78.3974 36.2118 78.1654L36.1768 78.0943C35.862 77.3469 35.5472 76.5913 35.2673 75.8101C35.0808 75.3437 34.9059 74.8763 34.7544 74.3981C34.722 74.3303 34.6947 74.2601 34.6728 74.1882C34.4862 73.6285 34.2997 73.0817 34.1248 72.5104C33.9382 71.9495 33.775 71.3782 33.6001 70.8069C33.4369 70.2239 33.2853 69.6409 33.1337 69.0579C33.0754 68.848 33.017 68.6276 32.9705 68.4176C32.8072 67.7868 32.6556 67.1339 32.5157 66.4938C32.5157 66.4821 32.5041 66.4576 32.5041 66.4459C32.4108 66.004 32.3175 65.5598 32.2359 65.1039C32.2009 64.9651 32.1659 64.8124 32.1426 64.6619C32.0727 64.3121 32.0144 63.9635 31.9561 63.6126C31.8861 63.2395 31.8161 62.8652 31.758 62.4944C31.6764 61.9685 31.5947 61.445 31.5248 60.9075C31.4315 60.279 31.3499 59.6366 31.2799 58.9964L31.2098 58.402C31.1515 57.7607 31.0815 57.1183 31.0349 56.4782C31.0232 56.3849 31.0232 56.2801 31.0116 56.1866C30.9999 55.9523 30.9766 55.7203 30.9649 55.487C30.9416 55.1711 30.9183 54.8457 30.9066 54.5309C30.8949 54.3211 30.8833 54.0984 30.8716 53.8885C30.8483 53.6331 30.8483 53.3766 30.8367 53.1073C30.8367 53.0023 30.825 52.8986 30.825 52.7818C30.8133 52.5137 30.8017 52.2442 30.8017 51.9785C30.8017 51.8362 30.79 51.687 30.79 51.5447C30.7783 51.0329 30.7783 50.507 30.7783 49.9835V49.5278C30.7783 49.0264 30.7783 48.5262 30.8016 48.0248C30.8133 47.3824 30.8366 46.7422 30.8716 46.101C30.8833 45.6334 30.9066 45.1798 30.9416 44.7249C30.9431 44.6161 30.9508 44.5074 30.9649 44.3995C30.9766 44.1418 30.9999 43.8842 31.0232 43.6265C31.0252 43.5254 31.033 43.4246 31.0465 43.3245C31.0931 42.766 31.1514 42.1946 31.2097 41.6455C31.268 41.0403 31.338 40.434 31.4196 39.837C31.5246 39.0675 31.6295 38.3119 31.7461 37.5528C31.7578 37.519 31.7578 37.4712 31.7694 37.4374C31.8977 36.6445 32.0376 35.8505 32.1891 35.0693C32.2008 35.0121 32.2125 34.941 32.2241 34.8815C32.3523 34.2649 32.4805 33.6594 32.6088 33.0651C32.6671 32.762 32.7371 32.4565 32.8187 32.165C32.9469 31.6193 33.0868 31.0701 33.2268 30.5349L33.2618 30.3939C33.4017 29.8587 33.5533 29.3211 33.7165 28.7976C33.7515 28.6449 33.7981 28.5061 33.8447 28.3534C34.2763 26.918 34.7426 25.5317 35.2556 24.1791C35.5121 23.5133 35.7685 22.8511 36.0368 22.1982C36.0384 22.1983 36.0399 22.198 36.0413 22.1974C36.0428 22.1968 36.0441 22.196 36.0452 22.1949C36.0462 22.1938 36.0471 22.1925 36.0477 22.1911C36.0483 22.1896 36.0485 22.1881 36.0485 22.1866C36.2933 21.5919 36.5499 20.9949 36.8297 20.4119C36.888 20.2732 36.9464 20.1344 37.0163 20.0051C37.5526 18.8391 38.1356 17.7209 38.7419 16.6366C39.0451 16.0874 39.3599 15.5499 39.6747 15.038C39.698 14.9925 39.733 14.9447 39.7563 14.8992C40.0945 14.3616 40.4326 13.838 40.7824 13.3251C40.9805 13.0091 41.2022 12.7061 41.4237 12.4028C41.5286 12.2396 41.6452 12.0774 41.7618 11.9131C42.1699 11.3651 42.578 10.8404 42.9861 10.3284C43.0094 10.3028 43.0328 10.269 43.0561 10.2468C43.3592 9.87252 43.6741 9.51105 43.9772 9.16244C44.292 8.79983 44.6069 8.45003 44.9333 8.12353C45.2481 7.78657 45.5746 7.45891 45.9011 7.14409C46.2276 6.83043 46.5657 6.51328 46.9038 6.2218C47.2187 5.93029 47.5451 5.66446 47.8716 5.39513C48.0349 5.26804 48.1993 5.12697 48.3613 4.99987C48.64 4.77833 48.921 4.56613 49.2125 4.36906C49.2825 4.32241 49.3408 4.27462 49.4106 4.22913C49.7604 3.98311 50.0974 3.73942 50.46 3.51905C50.8109 3.2962 51.1712 3.0748 51.5327 2.86493C51.8941 2.66786 52.2451 2.46967 52.6194 2.28194H52.63C52.8994 2.14087 53.1652 2.02542 53.4345 1.89715C53.6911 1.77006 53.9464 1.6651 54.2158 1.54735C54.5889 1.39694 54.9621 1.25584 55.3444 1.12757C55.5322 1.05761 55.7187 1.00048 55.9053 0.929485C56.0918 0.87119 56.2784 0.814062 56.4766 0.766237C56.6632 0.70911 56.8614 0.649506 57.048 0.604158C57.4223 0.510879 57.8187 0.429273 58.2035 0.346464C58.39 0.312648 58.5766 0.276496 58.7632 0.241512H58.7748C58.797 0.241512 58.8086 0.2309 58.832 0.2309C59.043 0.193582 59.2529 0.171438 59.4628 0.137621C59.6609 0.11431 59.8476 0.0898322 60.0457 0.066486C60.1467 0.0643589 60.2475 0.0569558 60.3477 0.044307C60.4645 0.044307 60.5914 0.0326339 60.7337 0.0209961L60.792 0.298498C58.3901 0.731077 56.0581 1.61724 53.8415 2.88817C49.9005 5.13843 46.3092 8.63644 43.2427 13.1138C40.1528 17.6495 37.6226 23.1763 35.8619 29.4027C34.0897 35.6885 33.1102 42.6483 33.1102 49.9836C33.1102 57.3188 34.0896 64.2774 35.8619 70.5493C37.6226 76.7897 40.1527 82.3165 43.2427 86.8393C46.3092 91.3284 49.9004 94.8147 53.8415 97.0756C56.0581 98.3489 58.39 99.2234 60.792 99.6536L60.7337 99.9451C59.8358 99.8878 58.9432 99.7671 58.0624 99.5836H58.0391C57.9341 99.5603 57.8292 99.5381 57.7243 99.5148C57.6089 99.4903 57.5039 99.467 57.385 99.4332C57.2696 99.4076 57.1646 99.3854 57.048 99.3504C56.9442 99.3283 56.8276 99.2921 56.711 99.2688C56.163 99.1161 55.6255 98.9434 55.0903 98.7453C54.716 98.6042 54.3429 98.4654 53.9721 98.301C53.7483 98.2077 53.5396 98.1145 53.318 98.0096C53.1653 97.9396 53.0149 97.8708 52.8633 97.7892C52.6989 97.7181 52.5485 97.6364 52.3957 97.5537C52.3546 97.5323 52.3122 97.5136 52.2686 97.4977C52.0926 97.4044 51.9293 97.31 51.7673 97.2167C51.5212 97.0756 51.2635 96.9369 51.0199 96.7841C50.9044 96.727 50.7983 96.657 50.6806 96.586C50.1687 96.2606 49.6568 95.9237 49.1671 95.5611C48.8162 95.3046 48.4663 95.0493 48.1282 94.7694C47.7901 94.5001 47.4403 94.2202 47.1138 93.9287C47.0672 93.8832 47.0089 93.8355 46.9622 93.79C46.7291 93.5777 46.4842 93.369 46.2626 93.1592C46.2095 93.1158 46.1589 93.0695 46.1111 93.0204C45.7846 92.7032 45.4581 92.3779 45.1316 92.0526C44.6769 91.5745 44.2105 91.0848 43.7674 90.5578C43.5576 90.3141 43.3477 90.0693 43.1378 89.8139C43.0445 89.6972 42.9397 89.5796 42.8463 89.463C42.7995 89.4077 42.7567 89.3493 42.718 89.2881C42.6685 89.2366 42.6218 89.1825 42.5781 89.126C42.3682 88.8566 42.1583 88.5768 41.9485 88.2969C41.7852 88.0766 41.6336 87.8667 41.4704 87.6428C41.3421 87.4563 41.2139 87.272 41.0856 87.0855C40.8757 86.794 40.6658 86.4908 40.4793 86.1748C40.4244 86.1081 40.3738 86.038 40.3277 85.965" fill="#6D7080"/>
<path d="M49.4687 71.1812C49.3404 70.9352 49.2227 70.6798 49.0956 70.4338C49.2472 70.154 49.4104 69.8986 49.562 69.6188C49.6203 69.5021 49.6669 69.3844 49.7252 69.2678C50.0517 68.616 50.3782 67.9514 50.6697 67.253C50.7864 66.9836 50.8912 66.7038 50.9962 66.4345C51.2177 65.8748 51.4509 65.3163 51.648 64.7449C51.7669 64.4173 51.8602 64.0803 51.9651 63.755C52.1377 63.2173 52.3138 62.6683 52.4665 62.1214C52.5703 61.7367 52.6646 61.3402 52.758 60.9554C52.9096 60.3608 53.0491 59.7545 53.1766 59.1365C53.2026 59.0407 53.2225 58.9433 53.2361 58.845C53.411 57.9588 53.5497 57.0728 53.6803 56.1644C53.691 56.0711 53.7025 55.9883 53.7142 55.895C53.8412 54.9389 53.9345 53.9711 53.994 52.9917C54.0037 52.9375 54.0076 52.8824 54.0056 52.8273C54.0756 51.8257 54.1106 50.7985 54.1106 49.7736C54.1106 48.7463 54.0756 47.7226 54.0056 46.7175C54.0056 46.6499 53.994 46.5671 53.994 46.4971C53.924 45.5177 53.8307 44.5383 53.7142 43.5822C53.7025 43.5472 53.7025 43.4994 53.6908 43.4654C53.5614 42.521 53.4099 41.5882 53.2361 40.6671C53.2245 40.6193 53.2128 40.5621 53.2011 40.5027C53.0146 39.571 52.8059 38.6382 52.5599 37.7404C52.5599 37.7288 52.5482 37.7171 52.5482 37.7043C52.3022 36.8065 52.034 35.9321 51.7425 35.069C51.6959 34.9419 51.648 34.8253 51.6026 34.6959C51.3694 34.0219 51.1129 33.3561 50.8447 32.7137C50.763 32.5166 50.6802 32.3184 50.5998 32.1202C50.2733 31.3728 49.9363 30.6511 49.5737 29.9515C49.5621 29.9409 49.5621 29.927 49.5516 29.9153C49.3988 29.6238 49.2356 29.3685 49.084 29.0887C47.9482 31.3821 47.0345 33.779 46.3556 36.2467C45.2131 40.3754 44.5834 44.9461 44.5834 49.7395C44.5834 54.5422 45.2131 59.1129 46.3556 63.2393C47.1485 66.1322 48.2095 68.7894 49.4688 71.1809L49.4687 71.1812ZM93.451 31.5714C94.8607 37.2742 95.6303 43.4773 95.6303 49.9835C95.6303 56.478 94.8607 62.6928 93.451 68.3817C92.0274 74.1067 89.9647 79.3431 87.3867 83.831C84.7749 88.3679 81.6384 92.1457 78.1066 94.9196C74.527 97.718 70.5277 99.4786 66.2601 99.8867C64.4353 100.061 62.5952 99.9828 60.7917 99.6547C58.3898 99.2231 56.0577 98.3488 53.8412 97.0767C49.899 94.8147 46.3089 91.3283 43.2423 86.8393C40.1524 82.3164 37.6222 76.7898 35.8616 70.5504C34.0893 64.2785 33.1099 57.3188 33.1099 49.9834C33.1099 42.648 34.0893 35.6884 35.8616 29.4037C37.6222 23.1773 40.1524 17.6505 43.2423 13.1136C46.3089 8.63622 49.899 5.13824 53.8412 2.88787C56.0577 1.61798 58.3897 0.731949 60.7917 0.299371C62.5951 -0.0296922 64.4353 -0.108136 66.2601 0.0662621C70.5277 0.474362 74.5268 2.23499 78.1066 5.04503C81.6384 7.80959 84.7749 11.5991 87.3867 16.1336C89.9647 20.6133 92.0273 25.8463 93.451 31.5714Z" fill="#2B2C33"/>
<path d="M60.592 0.020752H60.732C60.592 0.0324251 60.4649 0.044169 60.3472 0.044169C60.3813 0.0346094 60.4167 0.0306668 60.4521 0.0324958C60.499 0.0319861 60.5457 0.0280848 60.592 0.0208227" fill="#2B2C33"/>
<path d="M60.3485 0.0441208C60.2476 0.0576762 60.1461 0.0654591 60.0443 0.0674317C59.9393 0.0780436 59.8356 0.0895753 59.7423 0.0895753L59.2036 0.115221C59.5778 0.0896107 59.9637 0.0674317 60.3485 0.0441208Z" fill="#2B2C33"/>
<path d="M59.2044 0.115228L59.742 0.0908203C58.9246 0.149045 58.155 0.208507 56.1729 0.335602C56.7337 0.287813 57.3167 0.242323 57.9218 0.208507C58.3416 0.172355 58.7743 0.149045 59.2044 0.115228Z" fill="#2B2C33"/>
<path d="M57.7249 99.516C57.8287 99.5393 57.9336 99.5614 58.0374 99.5848C57.817 99.5393 57.6072 99.4915 57.3856 99.4344C57.5034 99.4682 57.6072 99.4915 57.7249 99.516Z" fill="#2B2C33"/>
<path d="M58.0389 99.5836L52.8735 99.2466C54.0652 99.2233 55.2405 99.2233 56.7108 99.2687C56.8275 99.2921 56.944 99.3282 57.0478 99.3515C57.1645 99.3853 57.2693 99.4086 57.3859 99.4331C57.6088 99.4902 57.8185 99.5381 58.0389 99.5835" fill="#2B2C33"/>
<path d="M52.1157 0.579364L57.9224 0.208618C57.3172 0.242435 56.7342 0.287889 56.1734 0.335714C56.0801 0.335714 55.9868 0.347387 55.8819 0.347387C55.8482 0.35701 55.8131 0.360955 55.7781 0.35906C54.8441 0.41732 53.6548 0.486085 52.1157 0.579364Z" fill="#6D7080"/>
<path d="M57.0474 0.603711C57.2338 0.555958 57.4322 0.510503 57.6187 0.462679C57.8053 0.417189 58.0035 0.381073 58.2017 0.345947C57.8169 0.428862 57.4205 0.510503 57.0474 0.603711Z" fill="#6D7080"/>
<path d="M56.4762 0.765915C56.2781 0.813704 56.0915 0.870867 55.9049 0.930329C56.0915 0.870867 56.2897 0.813704 56.4762 0.765915Z" fill="#6D7080"/>
<path d="M53.3176 98.0106C53.1905 97.9512 53.0599 97.8939 52.9328 97.8357C52.7463 97.7424 52.5702 97.6597 52.3951 97.5547C52.5479 97.6375 52.6983 97.7191 52.8615 97.7903C53.0143 97.8719 53.1647 97.9395 53.3174 98.0106" fill="#2B2C33"/>
<path d="M51.7666 97.2178C51.9287 97.3111 52.092 97.4043 52.268 97.4976C52.092 97.4043 51.9287 97.3226 51.7666 97.2178Z" fill="#2B2C33"/>
<path d="M51.0206 96.7852C51.2643 96.938 51.5208 97.0767 51.768 97.2178C51.5093 97.0908 51.2596 96.9462 51.0206 96.7852Z" fill="#2B2C33"/>
<path d="M49.3988 4.23006H49.4105C49.3405 4.27555 49.2822 4.32334 49.2124 4.36883C49.2719 4.32334 49.3407 4.27555 49.399 4.23006" fill="#6D7080"/>
<path d="M47.1951 0.895306L45.5161 1.0119C45.7027 0.988585 45.8892 0.974577 46.0758 0.964106C46.4023 0.952327 46.7987 0.929122 47.1951 0.895306Z" fill="#2B2C33"/>
<path d="M46.2622 93.1589C46.4837 93.3688 46.7286 93.5775 46.9618 93.7897C46.7286 93.5916 46.4954 93.3794 46.2622 93.1589" fill="#2B2C33"/>
<path d="M45.2363 1.59489C45.5628 1.48994 45.8893 1.40834 46.2158 1.31506C46.5306 1.23228 46.8571 1.16231 47.1952 1.09351C47.5217 1.02355 47.8482 0.964084 48.1747 0.918629C48.5011 0.859167 48.8393 0.82535 49.1669 0.791534C49.4223 0.765888 49.6788 0.743745 49.9365 0.720398C50.1907 0.708725 50.46 0.684247 50.7177 0.672609C51.2179 0.638792 51.6855 0.615481 52.1157 0.57933C53.6548 0.486051 54.8441 0.41725 55.7768 0.357788C51.5444 0.697087 48.3857 1.04573 45.2363 1.59489Z" fill="#2B2C33"/>
<path d="M44.8166 98.231C44.4668 97.6143 46.3091 96.6942 50.6804 96.587C50.7981 96.657 50.9042 96.7281 51.0197 96.7851C51.2592 96.9452 51.5089 97.0897 51.7671 97.2177C51.9291 97.3226 52.0925 97.4042 52.2684 97.4975C52.312 97.5138 52.3544 97.5329 52.3955 97.5546C52.5704 97.6596 52.7465 97.7412 52.9332 97.8345C53.0603 97.8939 53.1909 97.9512 53.318 98.0105C53.5395 98.1143 53.7482 98.2076 53.9721 98.302C54.3429 98.4653 54.716 98.604 55.0903 98.7451C52.489 98.6973 49.8993 99.0599 47.3003 98.885C47.0905 98.8501 46.8806 98.8023 46.6707 98.7568C46.4726 98.709 46.2626 98.6518 46.0527 98.604C45.8428 98.5469 45.6446 98.4886 45.4347 98.4292C45.2367 98.3604 45.0266 98.3021 44.8168 98.2311" fill="#2B2C33"/>
<path d="M45.9004 7.14502C45.5739 7.45984 45.2474 7.78747 44.9326 8.12447C45.2474 7.78747 45.5739 7.45984 45.9004 7.14502Z" fill="#2B2C33"/>
<path d="M42.5075 97.3228C42.1927 97.184 41.8779 97.0313 41.5747 96.8669C41.2599 96.7165 40.9451 96.5415 40.6419 96.3772C40.3388 96.2023 40.0356 96.0181 39.7325 95.8315C39.4293 95.6449 39.1262 95.4467 38.8348 95.2485C38.6367 93.9519 40.5257 92.4011 45.1313 92.0525C45.4577 92.3789 45.7842 92.7043 46.1107 93.0214C46.1585 93.0705 46.2091 93.1169 46.2623 93.1602C46.4955 93.3805 46.7287 93.5927 46.9619 93.791C47.0085 93.8364 47.0668 93.8843 47.1135 93.9297C47.4399 94.2213 47.7897 94.5011 48.1279 94.7704C48.466 95.0503 48.8158 95.3056 49.1668 95.5621C43.8603 95.772 42.741 96.8669 42.5078 97.3228" fill="#2B2C33"/>
<path d="M44.4196 1.08301C44.2681 1.09468 44.1165 1.10632 43.9649 1.11682C43.9387 1.10622 43.9095 1.10622 43.8833 1.11682L44.4196 1.08301Z" fill="#6D7080"/>
<path d="M42.8462 89.4628C42.9395 89.5795 43.0443 89.6971 43.1377 89.8137C43.0444 89.697 42.9396 89.5794 42.8462 89.4628Z" fill="#6D7080"/>
<path d="M42.5776 89.1259C42.6214 89.1823 42.6681 89.2364 42.7176 89.2879C42.6593 89.2308 42.6243 89.1712 42.5776 89.1259Z" fill="#2B2C33"/>
<path d="M41.0853 87.0854C41.2136 87.2719 41.3418 87.4561 41.4701 87.6427C41.132 87.1646 40.7938 86.6749 40.479 86.1747C40.6656 86.4907 40.8754 86.7937 41.0853 87.0854" fill="#2B2C33"/>
<path d="M40.8988 13.1382C41.0621 12.8922 41.237 12.6485 41.4235 12.4025C41.202 12.7056 40.9805 13.0089 40.7822 13.3248C40.8164 13.2597 40.8554 13.1974 40.899 13.1382" fill="#6D7080"/>
<path d="M39.2197 4.45037C39.5229 4.26381 39.8261 4.06558 40.1292 3.8907C40.4324 3.70529 40.7355 3.5304 41.0387 3.36601C41.3535 3.20276 41.6567 3.04057 41.9715 2.88794C42.2746 2.73753 42.5894 2.59643 42.9043 2.45769C47.5332 1.22059 53.8074 0.627099 58.7629 0.24231C58.5763 0.276126 58.3886 0.312278 58.2021 0.346094C58.004 0.381078 57.8056 0.41723 57.6191 0.462826C57.4325 0.510615 57.2343 0.556105 57.0477 0.603894C56.8612 0.649384 56.6629 0.708846 56.4764 0.765974C56.2898 0.813763 56.0916 0.870926 55.905 0.929221C55.7173 1.00036 55.5307 1.05748 55.3442 1.12731C54.9617 1.25557 54.5886 1.39664 54.2143 1.54708C48.1046 2.2116 43.3357 3.13396 39.2197 4.45037Z" fill="#2B2C33"/>
<path d="M40.327 85.9649C40.3731 86.038 40.4238 86.1081 40.4786 86.1748C40.7934 86.675 41.1316 87.1647 41.4697 87.6428C41.6329 87.8667 41.7845 88.0765 41.9478 88.2969C42.1576 88.5768 42.3675 88.8566 42.5774 89.1259C42.6241 89.1714 42.659 89.2309 42.7173 89.288C42.756 89.3492 42.7988 89.4077 42.8456 89.4629C42.9389 89.5796 43.0437 89.6972 43.1371 89.8139C43.347 90.0692 43.5569 90.3141 43.7668 90.5578C38.5198 91.037 37.074 92.6927 36.6775 93.6255C36.3977 93.3935 36.1062 93.1474 35.8263 92.8897C35.5465 92.6461 35.2666 92.3896 34.9868 92.1202C34.707 91.8543 34.4388 91.585 34.1591 91.3052C33.8908 91.037 33.6225 90.7456 33.3544 90.454C33.3194 88.6362 35.4532 86.4208 40.2337 85.8262C40.2687 85.8717 40.292 85.9195 40.327 85.9649" fill="#2B2C33"/>
<path d="M40.059 14.4091C40.2922 14.036 40.5371 13.685 40.7819 13.3247C40.4321 13.8376 40.094 14.3611 39.7559 14.8988C39.8608 14.7344 39.9539 14.5712 40.059 14.4091" fill="#6D7080"/>
<path d="M39.2547 15.7372C39.3947 15.5051 39.5346 15.2731 39.6745 15.0376C39.3597 15.5505 39.0448 16.0882 38.7417 16.6362C38.9049 16.332 39.0798 16.0287 39.2546 15.7372" fill="#6D7080"/>
<path d="M37.5637 81.0922C37.7969 81.5819 38.0534 82.06 38.2982 82.5264C38.5198 82.9345 38.753 83.3531 38.9862 83.7495C39.0086 83.8066 39.0359 83.8616 39.0678 83.9139C33.9374 84.624 32.0952 86.6424 31.4422 88.2047C31.1974 87.8782 30.9408 87.5506 30.6958 87.2136C30.451 86.8743 30.2061 86.5374 29.9613 86.1864C29.7281 85.8494 29.4949 85.4879 29.2617 85.1252C29.0285 84.7766 28.7953 84.4036 28.5737 84.0303C28.807 81.6636 31.244 78.9128 36.1761 78.0957C36.1878 78.1178 36.1994 78.1435 36.2111 78.1657C36.3044 78.4094 36.4092 78.6332 36.5143 78.8652C36.6192 79.1229 36.7358 79.3666 36.8524 79.6116C37.0856 80.113 37.3188 80.6144 37.5636 81.0924" fill="#2B2C33"/>
<path d="M37.401 19.178C37.2728 19.4461 37.1445 19.7248 37.0162 20.0046C36.9473 20.1375 36.885 20.2737 36.8297 20.4127C36.7823 20.4959 36.7395 20.5815 36.7014 20.6693C36.4799 21.1707 36.2583 21.672 36.0485 22.1862L36.0368 22.1979C35.8152 22.7214 35.6052 23.2473 35.4071 23.7708C35.3489 23.9107 35.3022 24.0401 35.2556 24.1789C35.0923 24.5753 34.9524 24.9846 34.8008 25.3927C29.6006 26.5587 25.3913 28.7974 21.9517 32.2359L22.3364 30.7668C22.4647 30.2782 22.6046 29.799 22.7445 29.3209C22.8845 28.8428 23.0244 28.3648 23.1761 27.8996C23.3277 27.4332 23.4792 26.9668 23.6425 26.5109C26.779 23.0362 31.9209 20.2962 37.401 19.178Z" fill="#2B2C33"/>
<path d="M36.7012 20.6694C36.7394 20.5813 36.7821 20.4953 36.8293 20.4117C36.5496 20.9947 36.2931 21.5917 36.0482 22.1865C36.2581 21.6711 36.4798 21.1709 36.7012 20.6696" fill="#6D7080"/>
<path d="M37.0505 6.0245C40.8284 4.33498 46.3435 3.00459 52.6188 2.28284C52.2446 2.46939 51.8947 2.66763 51.5321 2.86582C51.1707 3.07569 50.8105 3.29607 50.4594 3.51994C50.098 3.74032 49.7598 3.984 49.41 4.23002H49.3984C49.3401 4.27551 49.2713 4.3233 49.2118 4.36879C48.9203 4.56688 48.6405 4.77912 48.3606 4.9996C42.6472 5.82627 37.855 7.16716 33.7041 9.12606C33.9723 8.83455 34.2405 8.56872 34.5203 8.28771C34.7885 8.01955 35.0683 7.75004 35.348 7.49599C35.6281 7.2383 35.9078 6.9806 36.1994 6.73709C36.4792 6.49107 36.7707 6.25903 37.0505 6.02468" fill="#2B2C33"/>
<path d="M36.2114 78.1655C36.3047 78.3976 36.4095 78.6319 36.5146 78.8651C36.4096 78.6319 36.3047 78.4092 36.2114 78.1655Z" fill="#2B2C33"/>
<path d="M36.0487 22.1863C36.0487 22.1879 36.0484 22.1895 36.0478 22.191C36.0472 22.1924 36.0464 22.1938 36.0452 22.1949C36.0441 22.196 36.0428 22.1969 36.0413 22.1975C36.0398 22.1981 36.0382 22.1984 36.0366 22.1984L36.0487 22.1863Z" fill="#6D7080"/>
<path d="M36.0366 22.1979C35.7684 22.852 35.5119 23.5143 35.2554 24.1788C35.302 24.0401 35.3487 23.9107 35.4069 23.772C35.6052 23.2473 35.8151 22.7226 36.0366 22.1979Z" fill="#6D7080"/>
<path d="M34.754 74.3994C34.9056 74.8775 35.0805 75.345 35.267 75.8114C35.1272 75.4721 34.9989 75.1094 34.8706 74.762C34.8249 74.6434 34.786 74.5224 34.7539 74.3994" fill="#2B2C33"/>
<path d="M34.0076 27.8075C33.9494 27.9917 33.8909 28.1678 33.8444 28.3543C33.7977 28.5071 33.7511 28.6458 33.7161 28.7986C33.6345 29.0306 33.5646 29.2766 33.4946 29.5202C33.413 29.8 33.343 30.1032 33.2614 30.3947C33.2497 30.4425 33.2381 30.488 33.2264 30.5358C33.1564 30.7794 33.0865 31.0255 33.0283 31.2691C32.9583 31.5723 32.8884 31.8638 32.8184 32.1658C32.7368 32.4573 32.6669 32.7628 32.6086 33.0659C32.4687 33.6606 32.3404 34.2661 32.2238 34.8825C27.2333 36.0744 23.1989 38.5568 20.2373 42.2634C20.2956 41.7282 20.354 41.1919 20.4239 40.6567C20.4822 40.1191 20.5521 39.5945 20.6337 39.0685C20.7037 38.5333 20.7853 38.009 20.8786 37.4956C20.9602 36.9709 21.0535 36.4591 21.1467 35.9331C23.2572 32.925 27.7463 29.2055 34.0076 27.8075Z" fill="#2B2C33"/>
<path d="M33.7164 28.7975C33.5532 29.321 33.4016 29.8587 33.2617 30.3937C33.3433 30.1022 33.4133 29.7991 33.4949 29.5192C33.5649 29.2756 33.6348 29.0295 33.7164 28.7976" fill="#6D7080"/>
<path d="M33.0279 31.2682C33.0862 31.0245 33.1561 30.7785 33.226 30.5348C33.086 31.07 32.9461 31.6192 32.8179 32.166C32.8878 31.8629 32.9578 31.5714 33.0277 31.2682" fill="#6D7080"/>
<path d="M32.6084 33.0651C32.4802 33.6597 32.3519 34.2656 32.2236 34.8829C32.3402 34.2649 32.4685 33.659 32.6084 33.0651Z" fill="#6D7080"/>
<path d="M32.4452 66.1908C32.3753 65.8282 32.2937 65.4667 32.2354 65.1041C32.317 65.56 32.4102 66.0042 32.5035 66.4463C32.4802 66.3636 32.4685 66.2703 32.4452 66.191" fill="#2B2C33"/>
<path d="M31.9554 63.614C32.0137 63.9649 32.0722 64.3136 32.142 64.6633C32.1653 64.8137 32.2003 64.9665 32.2353 65.1053C32.2936 65.4679 32.3752 65.8293 32.4451 66.192C32.4685 66.2712 32.4801 66.3645 32.5034 66.4473C32.5034 66.4579 32.5151 66.4835 32.5151 66.4951C28.1195 67.4372 25.0647 69.585 23.4322 72.8486C23.2806 72.3823 23.129 71.917 22.9891 71.4389C22.8375 70.9725 22.6976 70.4933 22.5576 70.0153C22.4293 69.5256 22.2894 69.0475 22.1611 68.5579C22.0329 68.0683 21.9165 67.5783 21.7998 67.0781C22.6626 64.1631 25.6592 60.3024 31.2793 58.9978C31.3493 59.6381 31.4309 60.2804 31.5242 60.9089C31.5941 61.4465 31.6757 61.9701 31.7573 62.4958C31.769 62.6007 31.7923 62.6939 31.804 62.7989C31.8506 63.0788 31.8973 63.3458 31.9556 63.614" fill="#2B2C33"/>
<path d="M31.7573 62.4958C31.8156 62.8666 31.8856 63.2409 31.9554 63.614C31.8974 63.3458 31.8506 63.0788 31.804 62.7989C31.7923 62.694 31.769 62.6008 31.7573 62.4958Z" fill="#6D7080"/>
<path d="M31.7807 11.3414C35.4186 9.00946 41.0736 7.09605 46.9036 6.22156C46.5655 6.51307 46.2273 6.83019 45.9008 7.14384C45.5744 7.45866 45.2479 7.78629 44.9331 8.12329C44.6066 8.44978 44.2918 8.79955 43.977 9.1622C43.6738 9.51084 43.359 9.87228 43.0558 10.2466C37.5406 11.2143 32.9001 12.9039 28.8657 15.4457C29.0989 15.0738 29.3321 14.7228 29.5653 14.3613C29.7985 14.0127 30.0434 13.6618 30.2883 13.3249C30.5215 12.9739 30.7663 12.6354 31.0228 12.3093C31.2677 11.9839 31.5242 11.6564 31.7807 11.3416" fill="#2B2C33"/>
<path d="M31.4661 39.4535C31.5477 38.8132 31.6409 38.1826 31.7459 37.554C31.6292 38.3119 31.5244 39.0686 31.4194 39.8381C31.4311 39.711 31.4544 39.5828 31.4661 39.4533" fill="#6D7080"/>
<path d="M31.2323 41.3775C31.2906 40.854 31.349 40.3411 31.4189 39.8384C31.3374 40.4341 31.2673 41.0404 31.209 41.6456C31.211 41.5558 31.2187 41.4662 31.2323 41.3774" fill="#6D7080"/>
<path d="M30.976 44.1874C30.9877 44.0009 30.9993 43.8143 31.0226 43.6277C30.9993 43.8843 30.976 44.1419 30.9644 44.3996C30.9644 44.3285 30.976 44.2585 30.976 44.1874" fill="#2B2C33"/>
<path d="M30.9646 55.4882C30.9412 55.22 30.9296 54.939 30.9062 54.6591V54.5321C30.9179 54.8457 30.9412 55.1723 30.9646 55.4882Z" fill="#6D7080"/>
<path d="M30.8364 53.1084C30.8481 53.3766 30.8481 53.6343 30.8714 53.8896C30.8481 53.6343 30.8481 53.3767 30.8364 53.1084Z" fill="#2B2C33"/>
<path d="M30.8013 51.9786C30.8013 52.2456 30.813 52.5138 30.8246 52.7819C30.815 52.7128 30.8111 52.643 30.8129 52.5732C30.8013 52.3752 30.8013 52.1768 30.8013 51.9786" fill="#2B2C33"/>
<path d="M20.762 61.7822C20.6804 61.2587 20.6104 60.7328 20.5288 60.2081C20.4588 59.6729 20.4006 59.1354 20.3307 58.6002C20.2724 58.0639 20.2258 57.5287 20.1675 56.9912C21.4383 53.8209 24.9829 49.6105 30.7895 48.1635C30.7895 48.3162 30.7895 48.4666 30.7778 48.6193V49.9836C30.7778 50.5071 30.7778 51.033 30.7895 51.546C30.7895 51.6871 30.8012 51.8375 30.8012 51.9786C30.8012 52.1767 30.8012 52.375 30.8128 52.5732C30.811 52.643 30.8149 52.7128 30.8245 52.7819C30.8245 52.8987 30.8362 53.0035 30.8362 53.1084C30.8479 53.3766 30.8479 53.6343 30.8712 53.8885C30.8829 54.0984 30.8945 54.3222 30.9062 54.5309V54.6592C30.9295 54.939 30.9411 55.2189 30.9645 55.4882C30.9761 55.7203 30.9994 55.9523 31.0111 56.1867C26.452 57.2932 23.094 59.6963 21.0302 63.3447C20.9369 62.8317 20.8436 62.3082 20.762 61.7822Z" fill="#2B2C33"/>
<path d="M41.4234 12.4036C41.2369 12.6496 41.062 12.8933 40.8987 13.1394C40.8551 13.1985 40.8161 13.2609 40.782 13.3259C40.5371 13.6862 40.2923 14.036 40.0591 14.4103C39.9541 14.5712 39.861 14.7357 39.7559 14.9C39.7326 14.9455 39.6976 14.9933 39.6743 15.0388C39.5344 15.2731 39.3945 15.5052 39.2545 15.7372C39.0797 16.0287 38.9047 16.3319 38.7416 16.6373C38.6484 16.7994 38.5667 16.951 38.4735 17.1154C33.1215 18.1881 28.6791 20.1808 24.8896 23.2228C25.0645 22.7809 25.2511 22.3483 25.4376 21.9297C25.6242 21.4995 25.8224 21.0772 26.0206 20.6588C26.2187 20.2507 26.4171 19.8438 26.6153 19.4333C26.8252 19.0264 27.035 18.6299 27.2449 18.2337C30.6846 15.2953 36.1181 12.9272 41.7615 11.9139C41.6448 12.0783 41.5284 12.2393 41.4234 12.4036Z" fill="#2B2C33"/>
<path d="M30.37 1.99134C33.4599 1.79311 36.5497 1.591 39.6396 1.38501C39.6263 1.39941 39.6105 1.41127 39.593 1.41999C39.2549 1.45381 38.9284 1.5016 38.5902 1.54709C38.2521 1.60655 37.9256 1.66601 37.5992 1.73365C37.261 1.80478 36.9345 1.88639 36.6081 1.97967C36.2816 2.06244 35.9551 2.15572 35.6287 2.2595C35.2672 1.79311 33.9729 1.79311 29.9619 2.02498C30.008 2.01624 30.055 2.01268 30.1019 2.01437C30.1478 2.0047 30.1948 2.00078 30.2418 2.0027C30.2884 2.0027 30.335 1.99102 30.37 1.99102" fill="#2B2C33"/>
<path d="M35.2673 75.8102C31.0116 76.5914 28.2247 78.3976 26.9654 81.2076C26.7556 80.8112 26.5573 80.4031 26.3591 79.9961C26.161 79.5858 25.9627 79.1671 25.7644 78.7485C25.5779 78.3288 25.3797 77.9079 25.1931 77.4776C25.0182 77.045 24.8317 76.6136 24.6567 76.1705C25.1696 73.5832 27.7 70.1669 33.1335 69.058C33.2851 69.641 33.4366 70.224 33.5999 70.807C33.7748 71.3783 33.938 71.9495 34.1246 72.5105C34.2995 73.0818 34.4861 73.6287 34.6727 74.1883C34.6946 74.2602 34.7219 74.3304 34.7543 74.3982C34.7864 74.5212 34.8253 74.6422 34.871 74.7608C34.9993 75.1083 35.1275 75.4709 35.2675 75.8102" fill="#2B2C33"/>
<path d="M27.7463 97.6142H27.6647C27.5737 97.6023 27.4839 97.5824 27.3965 97.5547C27.5118 97.5813 27.6286 97.6012 27.7463 97.6142Z" fill="#2B2C33"/>
<path d="M27.5134 2.3761C27.3966 2.39941 27.2802 2.42159 27.1636 2.44723C27.2803 2.42159 27.3968 2.39944 27.5134 2.3761Z" fill="#6D7080"/>
<path d="M26.6734 97.3927C28.2241 97.5198 30.0081 97.6959 31.897 97.8941C30.6494 97.8113 29.0053 97.696 27.7461 97.6131C27.6284 97.6005 27.5116 97.581 27.3963 97.5548C27.302 97.5408 27.2086 97.5217 27.1164 97.4977C26.9648 97.4615 26.8133 97.4266 26.6733 97.3927" fill="#2B2C33"/>
<path d="M29.5884 5.14998C29.1104 4.02012 27.408 3.58755 23.502 3.58755C23.8751 3.43714 24.2599 3.29604 24.633 3.16894C25.0177 3.03021 25.4025 2.91128 25.7873 2.79473C26.1721 2.69094 26.5568 2.58603 26.9416 2.49275C27.0116 2.48107 27.0932 2.45776 27.1632 2.44726C27.2799 2.42161 27.3964 2.39947 27.513 2.37612C27.7111 2.32833 27.9094 2.29452 28.1193 2.25939H28.2709C31.7572 2.10789 33.5878 2.20117 33.3196 3.12349C33.0048 3.26226 32.6783 3.40099 32.3751 3.55373C32.0487 3.71698 31.7455 3.86738 31.4307 4.04344C31.1158 4.20668 30.8127 4.39441 30.4979 4.56696C30.1947 4.75352 29.8915 4.95175 29.5884 5.14994" fill="#2B2C33"/>
<path d="M26.6733 97.3927C26.8133 97.4265 26.9648 97.4615 27.1164 97.4977C27.022 97.4834 26.9286 97.4636 26.8366 97.4382C26.7808 97.4285 26.7261 97.4132 26.6733 97.3927Z" fill="#2B2C33"/>
<path d="M24.9483 96.8925H24.9016C24.7849 96.8563 24.6801 96.8109 24.5635 96.7631C24.6882 96.8161 24.8168 96.8594 24.9483 96.8925Z" fill="#2B2C33"/>
<path d="M24.062 9.8139C23.3624 8.0417 21.4267 7.20442 17.5791 7.00385C17.8123 6.83014 18.0338 6.65522 18.267 6.50248C18.3838 6.4092 18.5119 6.32993 18.6285 6.24712C18.9783 6.0011 19.3398 5.76901 19.7012 5.54637C19.8295 5.46594 19.9577 5.3843 20.086 5.31433C20.2726 5.1976 20.4591 5.08111 20.6573 4.97736C20.704 4.95172 20.7389 4.92957 20.7856 4.90623C21.147 4.69636 21.5085 4.50973 21.8816 4.32324H22.0333C24.4236 4.36873 27.5951 4.66021 27.4551 6.68903C27.1636 6.92338 26.8722 7.1566 26.5806 7.41312C26.3008 7.65681 26.0093 7.9145 25.7295 8.16986C25.4496 8.42754 25.1698 8.69611 24.89 8.97555C24.6101 9.24488 24.3303 9.52239 24.0622 9.8139" fill="#2B2C33"/>
<path d="M30.9061 45.2974C29.134 45.7393 23.7236 47.0918 19.9109 52.9696C19.8992 52.7236 19.8992 52.4799 19.8876 52.2339C19.8876 51.9785 19.8759 51.7336 19.8759 51.49C19.8642 51.2323 19.8642 50.9862 19.8642 50.7309C19.8525 50.4849 19.8525 50.2295 19.8525 49.9845C19.8525 49.6697 19.8525 49.3549 19.8642 49.0389C19.8642 48.7357 19.8759 48.4221 19.8759 48.1189C19.8876 47.8041 19.8992 47.4999 19.9109 47.1851C19.9225 46.8819 19.9342 46.5683 19.9459 46.2651C21.6599 43.0108 25.6709 39.0115 31.7457 37.554C31.6407 38.1825 31.5476 38.8133 31.4658 39.4536C31.4542 39.5842 31.4308 39.7113 31.4192 39.8384C31.3492 40.3421 31.2909 40.8539 31.2326 41.3787C31.2191 41.4674 31.2113 41.557 31.2093 41.6468C31.151 42.196 31.0926 42.7673 31.0461 43.3258C31.0325 43.426 31.0247 43.5268 31.0228 43.6278C30.9995 43.8155 30.9878 44.0021 30.9761 44.1887C30.9761 44.2586 30.9644 44.3298 30.9644 44.3997C30.9505 44.508 30.9427 44.617 30.9411 44.7262C30.9295 44.9127 30.9178 45.0993 30.9061 45.2975" fill="#2B2C33"/>
<path d="M20.6221 94.8741C23.7119 95.2822 23.7119 95.2822 35.5467 97.6842C35.7333 97.7413 35.9315 97.8009 36.1181 97.8602C36.3162 97.9057 36.5145 97.964 36.7011 98.0095C36.8992 98.0573 37.0975 98.1039 37.284 98.1517C37.4821 98.1972 37.6805 98.2427 37.8787 98.2788L35.71 98.1377C32.1187 97.718 28.5508 97.2399 24.9479 96.8913C24.8163 96.8587 24.6876 96.8154 24.5631 96.7618C24.2949 96.6802 24.0267 96.5753 23.7586 96.4703C23.3854 96.3199 23.0122 96.1672 22.6392 95.9923C22.2544 95.8197 21.8928 95.6436 21.5199 95.4571C21.1467 95.2589 20.7853 95.0606 20.4238 94.8508C20.4891 94.8643 20.5553 94.8721 20.6219 94.8741" fill="#2B2C33"/>
<path d="M20.6573 4.9762C20.4592 5.08115 20.2725 5.19657 20.0859 5.31316C20.2699 5.19016 20.4606 5.07766 20.6573 4.9762Z" fill="#2B2C33"/>
<path d="M38.8347 95.2473C39.1262 95.4454 39.4293 95.6437 39.7325 95.8303C40.0356 96.0168 40.3388 96.201 40.642 96.3771C40.9451 96.5403 41.2599 96.7164 41.5747 96.8668C41.8779 97.0301 42.1927 97.1828 42.5075 97.3216C42.7407 96.8668 43.8601 95.7708 49.1653 95.5609C49.655 95.9235 50.1681 96.2605 50.6799 96.5858C46.3086 96.6931 44.4664 97.613 44.8162 98.231C45.026 98.301 45.2359 98.3604 45.4341 98.4291C45.644 98.4874 45.8422 98.5469 46.0521 98.604C46.262 98.6518 46.4719 98.7089 46.6701 98.7567C46.8799 98.8022 47.0898 98.85 47.2997 98.8838C49.8987 99.0587 52.4884 98.6973 55.0885 98.745C55.6237 98.9431 56.1612 99.1158 56.7104 99.2686C55.2389 99.2231 54.0648 99.2231 52.8731 99.2464L58.0385 99.5834H58.0606C58.9413 99.7672 59.834 99.888 60.7319 99.9448L45.609 98.9549L45.6207 98.7788C41.8661 98.0325 38.3099 96.2486 35.0568 93.5914C31.7687 90.8967 28.7954 87.3055 26.3002 83.0042C23.7816 78.6655 21.7528 73.6168 20.342 68.0445C18.9311 62.4466 18.1499 56.3613 18.1499 49.9833C18.1499 43.2194 19.0244 36.7831 20.5985 30.9194C22.1726 25.0894 24.4346 19.8424 27.2213 15.4339C29.9848 11.0733 33.2379 7.52866 36.8408 5.02176C40.3505 2.58484 44.1516 1.13892 48.1276 0.835847C48.1871 0.835847 48.243 0.824173 48.3025 0.824173L49.936 0.720389C49.6784 0.742532 49.4214 0.765855 49.1653 0.790357C48.8389 0.824173 48.5007 0.859157 48.1742 0.91862C47.8478 0.964086 47.5213 1.02238 47.1948 1.0935C46.8567 1.16231 46.5302 1.23227 46.2154 1.31388C45.8889 1.40716 45.5624 1.48993 45.236 1.59488C48.3842 1.04572 51.5428 0.697078 55.7765 0.357778C55.8119 0.359739 55.8474 0.355794 55.8815 0.346105C55.9864 0.346105 56.0796 0.335493 56.173 0.335493C58.1539 0.20723 58.9247 0.147768 59.7421 0.089473C59.8431 0.0871045 59.9439 0.079323 60.0441 0.0661621C59.8471 0.089473 59.6593 0.113951 59.4611 0.137298C59.2524 0.171114 59.0426 0.193258 58.8303 0.230577C58.8082 0.230577 58.7965 0.241188 58.7744 0.241188H58.7627C53.8072 0.627145 47.533 1.22064 42.904 2.45774C42.5892 2.59651 42.2743 2.73758 41.9712 2.88798C41.6564 3.04073 41.3532 3.20281 41.0384 3.36605C40.7352 3.53047 40.4321 3.70497 40.1289 3.88958C39.8258 4.06563 39.5226 4.26386 39.2195 4.45042C43.3354 3.13397 48.1043 2.21172 54.214 1.54709C53.9458 1.66485 53.6905 1.76995 53.4339 1.8969C53.1646 2.02516 52.8987 2.14059 52.6294 2.28169H52.6177C46.3437 3.00461 40.8285 4.33383 37.0507 6.02335C36.7709 6.25887 36.4794 6.49092 36.1995 6.73694C35.908 6.98062 35.6282 7.23715 35.3484 7.49484C35.0685 7.7502 34.7887 8.01836 34.5206 8.28773C34.2408 8.56757 33.9726 8.83457 33.7044 9.12607C37.8554 7.16722 42.6476 5.82633 48.3609 4.99962C48.1977 5.12672 48.0345 5.26778 47.8712 5.39488C47.5448 5.66421 47.2183 5.93008 46.9035 6.22155C41.0734 7.09605 35.4183 9.00945 31.7803 11.3414C31.5238 11.6562 31.2674 11.9839 31.0224 12.3092C30.7659 12.6345 30.5211 12.973 30.2879 13.3248C30.043 13.6617 29.7982 14.0127 29.565 14.3612C29.3317 14.7226 29.0986 15.0736 28.8653 15.4456C32.8998 12.904 37.5404 11.2143 43.0556 10.2466C43.0323 10.2687 43.0089 10.3025 42.9856 10.3282C42.5775 10.84 42.1694 11.3646 41.7613 11.9129C36.1179 12.926 30.6844 15.2953 27.2447 18.2324C27.0349 18.6289 26.825 19.0253 26.6151 19.4323C26.4169 19.8426 26.2187 20.2511 26.0204 20.6577C25.8223 21.0775 25.624 21.4984 25.4374 21.9286C25.2509 22.3472 25.0643 22.7811 24.8894 23.2217C28.6789 20.1797 33.1213 18.187 38.4732 17.1143C38.5665 16.951 38.6481 16.7983 38.7414 16.6362C38.1351 17.7206 37.5521 18.8388 37.0157 20.0048C37.144 19.7238 37.2722 19.4463 37.4005 19.1781C31.9203 20.2963 26.7783 23.0352 23.6418 26.511C23.4785 26.9657 23.327 27.4332 23.1754 27.8996C23.0238 28.3649 22.8839 28.8429 22.7438 29.321C22.6038 29.799 22.464 30.2771 22.3357 30.7668L21.951 32.236C25.3906 28.7974 29.5999 26.5587 34.8002 25.3928C34.9518 24.9847 35.0917 24.5754 35.2549 24.179C34.742 25.5315 34.2755 26.9179 33.844 28.3532C33.8907 28.1667 33.949 27.9906 34.0073 27.8064C27.7459 29.2044 23.2569 32.9239 21.1464 35.9322C21.0532 36.458 20.9599 36.9699 20.8783 37.4946C20.785 38.0087 20.7034 38.533 20.6334 39.0675C20.5518 39.5934 20.4818 40.1181 20.4235 40.6558C20.3536 41.191 20.2953 41.7285 20.237 42.2637C23.1986 38.5558 27.2329 36.0734 32.2234 34.8818C32.2117 34.9413 32.2 35.0124 32.1884 35.0695C32.0368 35.8507 31.8969 36.6448 31.7686 37.4376C31.757 37.4715 31.757 37.5193 31.7453 37.5531C25.6705 39.0104 21.6595 43.0099 19.9455 46.2642C19.9338 46.5674 19.9222 46.881 19.9105 47.1842C19.8989 47.499 19.8872 47.8045 19.8755 48.118C19.8755 48.4212 19.8639 48.7348 19.8639 49.038C19.8522 49.3551 19.8522 49.6688 19.8522 49.9836C19.8522 50.2296 19.8522 50.4838 19.8639 50.73C19.8639 50.9853 19.8639 51.2313 19.8755 51.489C19.8755 51.7327 19.8872 51.9787 19.8872 52.2329C19.8989 52.479 19.8989 52.7226 19.9105 52.9687C23.7233 47.0909 29.1335 45.7384 30.9058 45.2965C30.9175 45.0984 30.9291 44.9117 30.9408 44.7251C30.9058 45.181 30.8825 45.6334 30.8708 46.1011C30.8358 46.7425 30.8125 47.3826 30.8009 48.025C30.7775 48.5264 30.7775 49.0266 30.7775 49.528V48.6197C30.7892 48.4669 30.7892 48.3165 30.7892 48.1638C24.9826 49.6096 21.438 53.8212 20.1671 56.9903C20.2254 57.528 20.272 58.0631 20.3303 58.6006C20.4003 59.1358 20.4586 59.6733 20.5284 60.2084C20.61 60.732 20.68 61.259 20.7616 61.7825C20.8432 62.3084 20.9365 62.832 21.0297 63.345C23.0935 59.6966 26.4516 57.2935 31.0106 56.187C31.0223 56.2803 31.0223 56.3851 31.0339 56.4785C31.0806 57.1187 31.1507 57.7611 31.2088 58.4024L31.2788 58.997C25.6587 60.3018 22.6621 64.1623 21.7993 67.0773C21.916 67.5776 22.0325 68.0673 22.1607 68.557C22.289 69.0467 22.4289 69.5248 22.5571 70.0144C22.697 70.4924 22.837 70.9716 22.9887 71.438C23.1286 71.9161 23.2802 72.3813 23.4318 72.8477C25.0642 69.5841 28.1191 67.4364 32.5149 66.4942C32.6548 67.1345 32.8064 67.7874 32.9696 68.4181C33.0162 68.628 33.0745 68.8484 33.1328 69.0584C27.6995 70.1668 25.1691 73.5831 24.6562 76.1705C24.8311 76.6136 25.0176 77.045 25.1926 77.4776C25.3791 77.9078 25.5773 78.3288 25.7639 78.7485C25.962 79.1671 26.1603 79.5857 26.3586 79.9961C26.5566 80.4029 26.755 80.8111 26.9649 81.2076C28.2242 78.3975 31.0109 76.5914 35.2668 75.8102C35.5466 76.5914 35.8614 77.347 36.1762 78.0944C31.2441 78.9118 28.8072 81.6635 28.574 84.0293C28.7955 84.4024 29.0287 84.7757 29.2619 85.1242C29.4951 85.4868 29.7283 85.8483 29.9615 86.1854C30.2064 86.5363 30.4512 86.8733 30.6961 87.2126C30.9409 87.5496 31.1975 87.8784 31.4425 88.2037C32.0954 86.6412 33.9377 84.6239 39.068 83.9129C39.0364 83.8608 39.0091 83.8062 38.9864 83.7497C39.208 84.1449 39.4295 84.5309 39.6627 84.904C39.8842 85.2655 40.1058 85.6164 40.3273 85.9652C40.2923 85.9197 40.269 85.8719 40.234 85.8264C35.4535 86.4211 33.3197 88.6365 33.3547 90.4543C33.6229 90.7457 33.8911 91.0372 34.1592 91.3054C34.4391 91.5853 34.7072 91.8546 34.987 92.1205C35.2668 92.3898 35.5466 92.6467 35.8265 92.8912C36.1063 93.1477 36.3978 93.3937 36.6776 93.6257C37.0741 92.6929 38.5199 91.0372 43.7669 90.558C44.21 91.0851 44.6764 91.5748 45.1311 92.0528C40.5255 92.4014 38.6366 93.9523 38.8347 95.2476" fill="#6D7080"/>
<path d="M19.7008 5.54651C19.3395 5.76922 18.9778 6.0024 18.628 6.24842C18.5113 6.33002 18.3832 6.40933 18.2666 6.50261C18.3949 6.39766 18.5348 6.29391 18.6747 6.20063C19.0128 5.96745 19.351 5.75871 19.7008 5.54651Z" fill="#6D7080"/>
<path d="M19.2342 16.0997C18.2431 13.7445 16.0744 12.5202 12.2383 12.1121C12.2621 12.0746 12.2894 12.0394 12.3199 12.0072C12.5881 11.6817 12.8796 11.3647 13.1594 11.0511C13.206 10.9939 13.2644 10.9461 13.311 10.8866C13.4975 10.6885 13.6841 10.4902 13.8823 10.3037C14.1155 10.0378 14.3604 9.8033 14.6052 9.57026C14.6728 9.49433 14.747 9.4245 14.8268 9.36156C15.2232 8.97677 15.6197 8.61416 16.0277 8.26319C16.0525 8.23783 16.0798 8.21516 16.1093 8.19556C16.1554 8.2043 16.2024 8.20786 16.2493 8.20617C20.0271 8.49768 22.0209 9.7686 22.1725 11.9852C21.9043 12.2988 21.6596 12.6254 21.403 12.9529C21.1464 13.2899 20.9016 13.6292 20.6566 13.9662C20.4117 14.3171 20.1669 14.6658 19.9337 15.0155C19.7005 15.3665 19.4556 15.7268 19.2341 16.0999" fill="#2B2C33"/>
<path d="M35.0571 93.5917C38.3103 96.249 41.8665 98.0329 45.621 98.7791L43.394 98.6404C39.6395 97.893 36.0715 96.1102 32.8184 93.4506C29.5303 90.7699 26.5571 87.1904 24.0618 82.9112C21.5433 78.5842 19.5028 73.5471 18.092 67.997C16.6811 62.413 15.8999 56.337 15.8999 49.9836C15.8999 43.2418 16.7744 36.8184 18.3485 30.9768C19.9226 25.1585 22.1846 19.9361 24.983 15.5392C27.7347 11.1911 30.9995 7.65698 34.6024 5.16293C37.9372 2.84245 41.5517 1.41893 45.3179 1.0225C45.3878 1.0225 45.4578 1.01189 45.516 1.01189L47.195 0.895156C47.5098 0.881006 47.8363 0.859004 48.1278 0.835693C44.1518 1.13884 40.3506 2.58468 36.841 5.02161C33.2381 7.52851 29.985 11.0731 27.2216 15.4339C24.435 19.8427 22.173 25.0897 20.5989 30.9195C19.0248 36.7833 18.1503 43.2195 18.1503 49.9834C18.1503 56.3614 18.9315 62.4467 20.3424 68.0446C21.7532 73.6169 23.7821 78.6656 26.3006 83.0043C28.7958 87.3057 31.7691 90.8969 35.0572 93.5915" fill="#2B2C33"/>
<path d="M32.9353 5.25498C36.3633 2.88919 40.0828 1.44222 43.9657 1.11689C44.1173 1.10522 44.2689 1.09475 44.4204 1.08307L45.3181 1.02368C41.552 1.42004 37.9374 2.84374 34.6027 5.16404C30.9998 7.65809 27.735 11.1922 24.9832 15.539C22.1849 19.9371 19.9228 25.1584 18.3488 30.9779C16.7747 36.8183 15.9002 43.2429 15.9002 49.9835C15.9002 56.3382 16.6814 62.413 18.0923 67.9981C19.5031 73.547 21.5436 78.5853 24.0621 82.9123C26.5574 87.1903 29.5306 90.771 32.8187 93.4516C36.0718 96.1113 39.6398 97.8941 43.3943 98.6415L45.6213 98.7802L45.6096 98.9551L39.5115 98.5587L39.5232 98.3838L41.727 98.5225C37.9724 97.7786 34.4045 96.004 31.1514 93.3584C27.8517 90.6778 24.8784 87.1086 22.3831 82.8295C19.8529 78.5142 17.8241 73.4899 16.4133 67.9515C14.9907 62.3885 14.2095 56.3266 14.2095 49.9837C14.2095 43.2571 15.084 36.8558 16.6697 31.0258C18.2438 25.2179 20.5058 20.0049 23.2926 15.6218C26.0676 11.2715 29.3324 7.7513 32.9353 5.25502" fill="#6D7080"/>
<path d="M17.6371 18.8271C17.4272 19.2235 17.2173 19.62 17.0074 20.0292C16.7976 20.4256 16.5993 20.8442 16.4011 21.2523C16.203 21.6709 16.0047 22.093 15.8181 22.5232C15.6316 22.9442 15.445 23.3744 15.2701 23.8186C13.5328 20.1097 10.268 19.1664 7.62122 18.7699C7.66784 18.7 7.70282 18.6172 7.74948 18.5471C7.93604 18.2206 8.12259 17.8953 8.30915 17.5898C8.34414 17.5339 8.36745 17.486 8.40243 17.4406C8.62397 17.078 8.85715 16.7048 9.0787 16.3562C9.39352 15.8666 9.72001 15.3886 10.0464 14.921C10.3379 14.5257 10.6294 14.1293 10.9209 13.7445H10.9326C10.9792 13.7445 11.0258 13.7551 11.0841 13.7551C15.8881 14.3835 17.299 16.8577 17.6371 18.8271Z" fill="#2B2C33"/>
<path d="M16.9492 92.4604C16.8882 92.4219 16.8298 92.3795 16.7743 92.3333C16.5411 92.1352 16.3079 91.9486 16.0747 91.7388C16.3662 91.9942 16.6461 92.2286 16.9492 92.4604Z" fill="#2B2C33"/>
<path d="M16.1106 8.19446C16.0808 8.21461 16.0532 8.23786 16.0283 8.26382C16.0488 8.23779 16.0725 8.21448 16.0989 8.19446H16.1106Z" fill="#2B2C33"/>
<path d="M16.0281 8.26318C15.62 8.61416 15.2236 8.9756 14.8271 9.36039C14.9109 9.26553 15.0004 9.17596 15.0953 9.09219C15.3984 8.81235 15.7132 8.53135 16.0281 8.26318" fill="#2B2C33"/>
<path d="M15.3169 91.0625C15.4685 91.2013 15.62 91.34 15.7718 91.4706H15.7601C15.6085 91.34 15.457 91.2013 15.317 91.0625" fill="#2B2C33"/>
<path d="M15.7714 91.4695C15.6199 91.3401 15.4683 91.2013 15.3167 91.0614C15.2581 91.0239 15.2067 90.9761 15.1651 90.9203C15.0345 90.8064 14.91 90.6858 14.792 90.5588C14.8494 90.5725 14.9079 90.5807 14.9669 90.5833C16.471 90.8387 21.0534 91.6082 29.5068 94.7576C29.8099 94.9556 30.1131 95.154 30.4163 95.3405C30.7311 95.5271 31.0342 95.7008 31.3491 95.8757C31.6639 96.0402 31.9787 96.2022 32.2935 96.3654C32.6084 96.5182 32.9232 96.6686 33.238 96.8097C27.7229 95.4909 23.7235 94.5465 18.873 93.8831C18.5115 93.6487 18.1617 93.3934 17.8118 93.1367C17.5203 92.9268 17.2404 92.7041 16.9489 92.4604C16.6458 92.2272 16.366 91.9929 16.0744 91.7375C15.9677 91.6548 15.8665 91.5652 15.7713 91.4693" fill="#2B2C33"/>
<path d="M14.7919 90.5588C14.9087 90.6883 15.0368 90.8049 15.1651 90.9215C15.0308 90.8072 14.9023 90.6861 14.7803 90.5588H14.7919Z" fill="#2B2C33"/>
<path d="M14.6052 9.57031C14.3604 9.80236 14.1154 10.0367 13.8823 10.3037C13.9538 10.2132 14.0318 10.1278 14.1154 10.0484C14.2787 9.88513 14.4419 9.72075 14.6051 9.57031" fill="#2B2C33"/>
<path d="M31.151 93.3572C34.4041 96.004 37.972 97.7775 41.7265 98.5225L39.5228 98.3838C35.7683 97.6364 32.2004 95.8641 28.9356 93.2299C25.6358 90.547 22.6626 86.9919 20.1557 82.736C17.6371 78.4335 15.5967 73.4187 14.1858 67.8918C12.7633 62.3417 11.9821 56.303 11.9821 49.9834C11.9821 43.2789 12.8566 36.8882 14.4423 31.0815C16.0164 25.2993 18.2901 20.0978 21.0768 15.7254C23.8402 11.4007 27.1166 7.87711 30.7195 5.39586C34.2758 2.94747 38.1353 1.5018 42.1579 1.22062H42.2162C42.7176 1.18681 43.3356 1.13902 43.8836 1.11684C43.8964 1.11101 43.9103 1.108 43.9244 1.108C43.9385 1.108 43.9524 1.11101 43.9652 1.11684C40.0825 1.44227 36.363 2.88797 32.9349 5.25376C29.3321 7.75015 26.0673 11.2714 23.2922 15.6206C20.5055 20.0048 18.2435 25.2179 16.6694 31.0245C15.0836 36.8545 14.2091 43.2558 14.2091 49.9835C14.2091 56.3253 14.9904 62.3873 16.4129 67.9514C17.8238 73.4899 19.8526 78.5141 22.3828 82.8294C24.878 87.1086 27.8512 90.6765 31.151 93.3571" fill="#2B2C33"/>
<path d="M14.0462 27.0264C13.883 27.4799 13.7314 27.9464 13.5798 28.4128C13.4282 28.8803 13.2883 29.3584 13.1367 29.8341C12.9968 30.3122 12.8686 30.7914 12.7286 31.2799C12.6004 31.7696 12.4721 32.2594 12.3555 32.7491C10.012 28.4022 6.44395 27.2584 3.94873 26.7805C4.13529 26.2686 4.33352 25.7533 4.53172 25.2414C4.74158 24.7179 4.95149 24.2025 5.173 23.6906C5.23129 23.5624 5.28973 23.4213 5.34788 23.2942C5.61611 22.6879 5.89595 22.0826 6.18743 21.4996C6.30416 21.2536 6.42064 21.0099 6.54887 20.7755C6.60014 20.7763 6.65109 20.7837 6.70044 20.7977C11.9008 21.7315 13.5332 25.1026 14.0462 27.0264" fill="#2B2C33"/>
<path d="M13.8829 10.3037C13.6848 10.4903 13.4981 10.6885 13.3115 10.8867C13.4981 10.6768 13.6964 10.4786 13.8829 10.3037Z" fill="#6D7080"/>
<path d="M13.393 89.1375H13.3696C13.2297 88.9848 13.0898 88.8345 12.9615 88.6816C13.1014 88.8344 13.2414 88.9848 13.3931 89.1375" fill="#2B2C33"/>
<path d="M12.3212 12.0072C12.2902 12.0395 12.2626 12.075 12.2389 12.113H12.2272C12.2624 12.0789 12.2859 12.0413 12.3212 12.0072Z" fill="#2B2C33"/>
<path d="M12.4366 88.088C12.1218 87.7371 11.8186 87.3664 11.5155 86.9932C11.4455 86.8987 11.3639 86.7951 11.2939 86.7017C11.6671 87.1797 12.0519 87.632 12.4365 88.088" fill="#2B2C33"/>
<path d="M10.0469 14.9221C9.72038 15.3884 9.39392 15.8677 9.0791 16.3563C9.12572 16.2863 9.16071 16.2269 9.20736 16.1592C9.4872 15.7372 9.76704 15.3302 10.0469 14.9221Z" fill="#2B2C33"/>
<path d="M27.3733 93.2068C21.7297 91.0367 17.6837 89.8592 13.3929 89.1375C13.2413 88.9847 13.1014 88.8343 12.9613 88.6816C12.7748 88.4835 12.6115 88.2852 12.4366 88.0869C12.0519 87.6322 11.6671 87.1786 11.2941 86.7005C11.0726 86.4207 10.851 86.1292 10.6295 85.8377C10.3613 85.4751 10.1165 85.1241 9.86003 84.7533C9.8263 84.7186 9.79868 84.6784 9.77832 84.6344C9.84829 84.6485 9.90658 84.66 9.97641 84.6717C15.7832 85.8261 21.2517 88.5545 23.9916 90.0691C24.2598 90.3606 24.5396 90.6404 24.8078 90.9086C25.0876 91.1885 25.3675 91.4578 25.6473 91.7248C25.9388 91.9813 26.2187 92.239 26.5101 92.4827C26.79 92.7287 27.0815 92.9725 27.373 93.2068" fill="#2B2C33"/>
<path d="M9.77827 84.6356C9.79889 84.6794 9.82645 84.7196 9.85988 84.7545C9.82551 84.7176 9.79431 84.6778 9.7666 84.6356H9.77827Z" fill="#2B2C33"/>
<path d="M8.05266 18.0121C8.13427 17.871 8.21591 17.7322 8.30919 17.5911C8.1227 17.8955 7.93607 18.2219 7.74951 18.5472C7.84279 18.3724 7.9476 18.187 8.05266 18.012" fill="#6D7080"/>
<path d="M6.54845 20.7743C6.42012 21.0087 6.3036 21.2524 6.18701 21.4984C6.30374 21.2524 6.42023 21.0087 6.53682 20.7743H6.54845Z" fill="#2B2C33"/>
<path d="M6.30371 78.7252C6.32702 78.7707 6.35037 78.8045 6.37368 78.8523C6.35037 78.8045 6.32702 78.7707 6.30371 78.7252Z" fill="#2B2C33"/>
<path d="M6.18729 21.4984C5.89578 22.0814 5.61594 22.6877 5.34778 23.2928C5.51103 22.9314 5.67427 22.5712 5.83748 22.2085C5.95422 21.9625 6.0707 21.7304 6.18729 21.4984Z" fill="#2B2C33"/>
<path d="M22.1028 87.8898C15.7482 84.4968 11.539 83.3903 8.58901 82.8073H8.57734C8.30918 82.3747 8.04098 81.9432 7.78445 81.4885C7.52796 81.0443 7.28311 80.5907 7.0264 80.1243C6.80486 79.7162 6.59485 79.2718 6.37345 78.8534C6.35014 78.8056 6.32683 78.7718 6.30348 78.7263C6.07044 78.2471 5.83726 77.7573 5.61572 77.2688C5.68301 77.2778 5.74932 77.2931 5.81381 77.3143C11.7137 78.6435 16.7158 81.9188 19.1644 83.7611C19.3976 84.1342 19.6308 84.4964 19.864 84.8478C20.1089 85.2069 20.3421 85.5578 20.5869 85.8948C20.8318 86.2458 21.0883 86.5827 21.3333 86.9104C21.5898 87.2474 21.8347 87.575 22.1029 87.8898" fill="#2B2C33"/>
<path d="M5.17295 23.6892C4.95141 24.2011 4.7414 24.7164 4.53167 25.24C4.33358 25.7529 4.13524 26.2672 3.94868 26.7791H3.93701C4.1351 26.2556 4.33344 25.7297 4.53167 25.2178C4.74154 24.7049 4.95144 24.1906 5.17295 23.6892Z" fill="#2B2C33"/>
<path d="M3.03906 70.5155C3.179 71.0051 3.34221 71.4715 3.50563 71.9496C3.48232 71.8913 3.45901 71.8225 3.43567 71.763C3.29559 71.3561 3.16733 70.934 3.03906 70.5155Z" fill="#6D7080"/>
<path d="M3.1556 29.1006C3.21061 29.1034 3.26525 29.1112 3.31885 29.1239C8.6591 30.3004 10.7812 34.161 11.5741 36.3542C11.4808 36.8661 11.3875 37.3791 11.2942 37.9026C11.2126 38.4284 11.131 38.952 11.0494 39.4778C10.9794 40.0025 10.9094 40.54 10.8513 41.0636C10.7813 41.6012 10.723 42.1363 10.6647 42.6738C7.70296 37.8222 3.94849 36.493 1.3833 35.91C1.46501 35.5251 1.54637 35.1288 1.62815 34.744C1.70976 34.393 1.77973 34.056 1.86137 33.7167C1.89635 33.5663 1.93134 33.4136 1.9781 33.2632C2.12967 32.6102 2.30459 31.9678 2.47948 31.3393C2.67757 30.6397 2.87591 29.9413 3.09745 29.251C3.10912 29.2055 3.13243 29.1461 3.14411 29.1006L3.1556 29.1006Z" fill="#2B2C33"/>
<path d="M3.0971 29.2511C2.87555 29.9413 2.67736 30.6397 2.47913 31.3394C2.52578 31.1413 2.58408 30.9429 2.64237 30.7447C2.79395 30.2433 2.93385 29.7408 3.0971 29.2511Z" fill="#2B2C33"/>
<path d="M2.56104 68.9086C2.6893 69.3622 2.81756 69.8286 2.95746 70.2729C2.89917 70.098 2.85251 69.9102 2.79421 69.7352C2.71261 69.4672 2.64264 69.1861 2.56104 68.9086Z" fill="#6D7080"/>
<path d="M15.7715 77.3248C15.958 77.7457 16.1563 78.176 16.3428 78.5841C16.5409 79.0027 16.7509 79.4248 16.9492 79.8212C17.159 80.228 17.3689 80.6362 17.5788 81.0327C11.7721 76.9762 7.4346 75.7052 4.68292 75.0977C4.60131 74.9112 4.53134 74.7246 4.4497 74.5264C4.32144 74.1999 4.19318 73.8746 4.07659 73.5469C3.8785 73.0234 3.6918 72.4858 3.50524 71.9507C3.34199 71.4715 3.17875 71.0051 3.03885 70.5154C3.01553 70.4582 3.00386 70.3883 2.98055 70.3288C2.96888 70.3055 2.96888 70.295 2.95724 70.2717C2.81734 69.8275 2.68908 69.3611 2.56081 68.9075C2.5375 68.8259 2.51419 68.7443 2.49084 68.6615C2.54914 68.6732 2.61911 68.6965 2.6774 68.7093C8.76388 70.2123 13.4745 74.3282 15.2118 76.0317C15.3984 76.4619 15.5849 76.8946 15.7715 77.3248Z" fill="#2B2C33"/>
<path d="M2.47941 31.3394C2.30452 31.9678 2.1296 32.6103 1.97803 33.2632C2.03632 32.9834 2.10629 32.7152 2.17612 32.4342C2.2694 32.0611 2.37421 31.702 2.47926 31.3394" fill="#2B2C33"/>
<path d="M1.75631 34.1612C1.7913 34.0083 1.82614 33.8579 1.86127 33.7168C1.77963 34.0561 1.70966 34.3931 1.62805 34.7441C1.67471 34.5458 1.70966 34.3593 1.75631 34.1612Z" fill="#2B2C33"/>
<path d="M1.80312 65.968C1.75646 65.8176 1.72151 65.6649 1.68639 65.5145C1.61642 65.1647 1.53481 64.8021 1.46484 64.4533C1.5698 64.9547 1.67471 65.4665 1.80298 65.9679" fill="#6D7080"/>
<path d="M1.41828 35.6884C1.48825 35.3724 1.55821 35.0572 1.62815 34.7428C1.54637 35.1288 1.46501 35.5239 1.3833 35.9088C1.38825 35.8344 1.39996 35.7607 1.41828 35.6884Z" fill="#6D7080"/>
<path d="M1.13818 62.7872C1.23146 63.3457 1.34805 63.9054 1.46468 64.4546C1.40635 64.1969 1.35973 63.9532 1.30143 63.6955C1.24314 63.3936 1.18488 63.0904 1.13818 62.7872Z" fill="#6D7080"/>
<path d="M10.3846 53.2495C6.64179 48.1075 2.92227 46.6243 0.100586 45.9259C0.123897 45.4245 0.158881 44.9231 0.205538 44.4334C0.228849 44.1769 0.240522 43.9192 0.263833 43.6755C0.31049 43.1636 0.357112 42.6599 0.415407 42.1586C0.438718 41.8566 0.485375 41.5418 0.520359 41.227C0.532032 41.0859 0.555343 40.9471 0.578654 40.806C0.601965 40.6195 0.625311 40.4469 0.648622 40.2708C0.730228 39.6657 0.81194 39.0687 0.916786 38.4857C0.975081 38.4999 1.03352 38.5102 1.08003 38.5219C6.58349 39.9094 9.27695 44.1653 10.3963 46.5788C10.3846 46.8599 10.373 47.1401 10.3613 47.4195C10.3496 47.711 10.338 47.9909 10.338 48.2695C10.3263 48.5611 10.3263 48.8409 10.3263 49.1207C10.3147 49.4122 10.3147 49.6921 10.3147 49.9836C10.3147 50.2529 10.3147 50.5327 10.3263 50.7986C10.3263 51.0796 10.3263 51.3478 10.338 51.6171C10.338 51.897 10.3497 52.1628 10.3613 52.4322C10.3613 52.712 10.373 52.9813 10.3846 53.2495Z" fill="#2B2C33"/>
<path d="M1.09185 62.5633C1.04523 62.3197 1.0101 62.0853 0.963586 61.8416C0.905291 61.5268 0.858669 61.2108 0.812012 60.896C0.905291 61.4452 0.99857 62.0165 1.09185 62.5633Z" fill="#6D7080"/>
<path d="M0.916745 38.4857C0.811828 39.0687 0.730187 39.6657 0.648581 40.2708C0.62527 40.4469 0.601924 40.6194 0.578613 40.806C0.590286 40.6451 0.613597 40.469 0.636908 40.3058C0.718549 39.6995 0.811828 39.0825 0.905107 38.4857H0.916745Z" fill="#2B2C33"/>
<path d="M0.683973 59.9515C0.637351 59.6484 0.602367 59.3569 0.567383 59.0537C0.626653 59.0658 0.685072 59.0818 0.742268 59.1015C6.71205 60.6756 10.8281 65.1985 12.3206 67.0769C12.4373 67.5666 12.5654 68.0564 12.6937 68.5461C12.8219 69.0358 12.9619 69.5138 13.1018 69.9919C13.2417 70.47 13.3933 70.9492 13.5333 71.4132C13.6849 71.8808 13.8482 72.3471 13.9997 72.8136C8.82273 68.2546 4.59019 66.8426 1.86176 66.2023H1.85008C1.82883 66.1255 1.81324 66.0471 1.80343 65.968C1.67516 65.4678 1.57021 64.9548 1.46529 64.4534C1.34856 63.9054 1.23208 63.3445 1.1388 62.7873C1.12713 62.75 1.12713 62.7162 1.11549 62.68C1.10382 62.6462 1.10382 62.5996 1.09218 62.5633C0.9989 62.0165 0.905621 61.4451 0.812342 60.8972V60.8855C0.765685 60.5824 0.719063 60.2676 0.684079 59.9517" fill="#2B2C33"/>
<path d="M0.567337 59.0537C0.602321 59.3569 0.637305 59.6484 0.684069 59.9515C0.63727 59.6484 0.590648 59.3569 0.555664 59.0537H0.567337Z" fill="#2B2C33"/>
<path d="M0.520479 41.2269C0.485495 41.5418 0.438838 41.8554 0.415527 42.1586C0.438838 41.8437 0.473822 41.5301 0.520479 41.2269Z" fill="#6D7080"/>
<path d="M38.5899 1.54711C38.9281 1.50162 39.2546 1.45383 39.5927 1.42001C39.6102 1.41129 39.626 1.39943 39.6393 1.38503H39.651L42.1579 1.22178C38.1352 1.50162 34.2758 2.94746 30.7195 5.39603C27.1166 7.87841 23.8401 11.4009 21.0768 15.7256C18.29 20.098 16.0163 25.2995 14.4423 31.0816C12.8565 36.8895 11.982 43.2791 11.982 49.9835C11.982 56.3032 12.7633 62.3429 14.1858 67.892C15.5966 73.4199 17.6369 78.4337 20.1555 82.7362C22.6624 86.992 25.6356 90.5472 28.9354 93.2301C32.2003 95.8654 35.7681 97.6364 39.5226 98.3838L39.5109 98.5587L30.3695 97.964C29.4876 97.9121 28.6107 97.7952 27.746 97.6142C29.0053 97.6958 30.6494 97.8123 31.897 97.8941C30.0081 97.696 28.2241 97.5209 26.6734 97.3927C26.65 97.3927 26.6384 97.381 26.6151 97.381C26.5917 97.381 26.5801 97.3682 26.5684 97.3682C26.0204 97.2295 25.4841 97.0767 24.9477 96.8913C28.5506 97.2399 32.1186 97.718 35.7098 98.1377L37.8785 98.2788C37.6805 98.2427 37.4821 98.1972 37.2839 98.1517C37.0973 98.1039 36.8991 98.0573 36.7009 98.0095C36.5143 97.964 36.3161 97.9057 36.1179 97.8603C35.9314 97.8008 35.7331 97.7413 35.5466 97.6842C23.7118 95.2823 23.7118 95.2824 20.6219 94.8742C20.5553 94.8722 20.489 94.8644 20.4238 94.8509C19.8991 94.5594 19.3861 94.2318 18.873 93.8831C23.7236 94.5466 27.7229 95.491 33.2381 96.8097C32.9233 96.6687 32.6084 96.5182 32.2936 96.3655C31.9788 96.2022 31.664 96.04 31.3492 95.8758C31.0343 95.7008 30.7312 95.5283 30.4164 95.3406C30.1132 95.154 29.81 94.9558 29.5069 94.7576C21.0534 91.6082 16.4711 90.8387 14.967 90.5833C14.908 90.5813 14.8494 90.5731 14.7921 90.5588H14.7804C14.3023 90.1053 13.8359 89.6389 13.3929 89.1375C17.6836 89.8591 21.7297 91.037 27.3731 93.2068C27.0816 92.9724 26.7901 92.7287 26.5103 92.4827C26.2188 92.239 25.9389 91.9825 25.6475 91.7248C25.3676 91.4578 25.0878 91.1896 24.808 90.9098C24.5398 90.6404 24.26 90.3606 23.9918 90.0691C21.2517 88.5545 15.7832 85.826 9.97655 84.6717C9.90659 84.66 9.84829 84.6484 9.77847 84.6356C9.5103 84.2508 9.25378 83.8683 8.99725 83.4696C8.85731 83.248 8.71741 83.0276 8.58915 82.8061C11.5393 83.3891 15.7483 84.4969 22.103 87.8898C21.8348 87.575 21.5901 87.2474 21.3334 86.9104C21.0886 86.5828 20.832 86.2457 20.5871 85.8948C20.3422 85.5578 20.109 85.2069 19.8641 84.8466C19.6309 84.4968 19.3977 84.135 19.1645 83.7611C16.716 81.9188 11.7138 78.6435 5.81391 77.3131C5.74912 77.293 5.6829 77.2778 5.61582 77.2677C5.20772 76.3803 4.82293 75.4604 4.44982 74.5262C4.53142 74.7243 4.60139 74.911 4.68303 75.0976C7.43478 75.7062 11.7723 76.9759 17.5789 81.0325C17.369 80.6361 17.1591 80.228 16.9492 79.821C16.7512 79.4246 16.5411 79.0037 16.3429 78.5839C16.1564 78.1771 15.9581 77.7467 15.7716 77.3246C15.585 76.8944 15.3984 76.4618 15.2119 76.0315C13.4746 74.328 8.76396 70.2133 2.67748 68.7103C2.61919 68.6961 2.54922 68.673 2.49092 68.6625C2.39765 68.3243 2.30437 67.985 2.21109 67.6481C2.08282 67.17 1.96623 66.692 1.86128 66.2022C4.58968 66.8425 8.82226 68.2544 13.9993 72.8135C13.8477 72.3471 13.6844 71.8796 13.5329 71.4131C13.3929 70.9479 13.2414 70.4698 13.1013 69.9918C12.9613 69.5138 12.8215 69.0357 12.6932 68.5459C12.5649 68.0562 12.4367 67.5665 12.3201 67.0768C10.8276 65.1985 6.71168 60.6755 0.741828 59.1014C0.684633 59.0817 0.626214 59.0657 0.566943 59.0536C0.520286 58.7282 0.473664 58.3913 0.43868 58.052C0.368712 57.4352 0.310417 56.8266 0.252122 56.2098C0.228811 55.9183 0.205465 55.6384 0.193827 55.347C0.217138 55.6862 0.240485 56.0232 0.275433 56.3625C2.94554 57.0388 7.01487 58.5079 11.5506 63.4739C11.4456 62.9597 11.364 62.4362 11.2707 61.9231C11.1891 61.3973 11.1075 60.8738 11.0375 60.3479C10.9559 59.8232 10.8976 59.288 10.8277 58.7622C10.7694 58.227 10.7109 57.6894 10.6528 57.1542C9.42848 55.1486 5.96549 50.3227 0.182331 48.7463C0.124036 48.7357 0.0540681 48.7125 0.00744629 48.7008C0.00744629 48.5027 0.00744629 48.3055 0.0191194 48.1073C0.0307926 47.487 0.0541035 46.8702 0.0890875 46.265C0.0890875 46.1483 0.100761 46.0412 0.100761 45.9257C2.92244 46.6242 6.64196 48.1073 10.3848 53.2493C10.3731 52.98 10.3615 52.7117 10.3615 52.432C10.3498 52.1626 10.3382 51.8968 10.3382 51.6158C10.3265 51.3476 10.3265 51.0781 10.3265 50.7984C10.3148 50.5326 10.3148 50.2515 10.3148 49.9834C10.3148 49.6918 10.3148 49.412 10.3265 49.1205C10.3265 48.8407 10.3265 48.5597 10.3382 48.268C10.3382 47.9905 10.3498 47.7107 10.3615 47.4191L10.3965 46.5784C9.27712 44.1648 6.58367 39.9078 1.08021 38.5214C1.03355 38.5097 0.975256 38.4981 0.916961 38.4852C0.940272 38.3115 0.963583 38.1366 0.998567 37.9605C1.1153 37.2621 1.24342 36.5858 1.38336 35.9096C3.94855 36.4926 7.70302 37.8218 10.6646 42.6723C10.7229 42.136 10.7814 41.6008 10.8512 41.0633C10.9095 40.5386 10.9795 40.001 11.0493 39.4775C11.1309 38.9517 11.2125 38.4281 11.2941 37.9023C11.3874 37.3776 11.4807 36.8659 11.574 36.3539C10.7811 34.1607 8.65901 30.3 3.31876 29.1224C3.26503 29.1106 3.21044 29.1032 3.15552 29.1002C3.40037 28.319 3.66843 27.5378 3.9484 26.7798C6.44363 27.2578 10.0115 28.4005 12.3552 32.7485C12.4719 32.2588 12.6 31.769 12.7283 31.2793C12.8682 30.7896 12.9965 30.3115 13.1364 29.8335C13.288 29.3577 13.4279 28.8784 13.5795 28.4121C13.7311 27.9459 13.8826 27.4783 14.0459 27.0258C13.533 25.1007 11.9005 21.731 6.70015 20.797C6.65086 20.7827 6.5999 20.7749 6.54858 20.7737C6.88671 20.0858 7.24819 19.4212 7.6213 18.7694C10.2681 19.1658 13.5329 20.1091 15.2702 23.8193C15.4451 23.375 15.6317 22.9448 15.8182 22.5227C16.0048 22.0925 16.203 21.6715 16.4012 21.2518C16.5993 20.845 16.7976 20.4251 17.0075 20.0298C17.2174 19.6195 17.4273 19.223 17.6372 18.8265C17.299 16.8572 15.8882 14.3841 11.0843 13.7557C11.026 13.7557 10.9793 13.744 10.9327 13.744C11.3408 13.1831 11.7839 12.6351 12.227 12.1116H12.2386C16.0747 12.5184 18.2435 13.744 19.2346 16.0981C19.4561 15.725 19.701 15.3659 19.9342 15.0149C20.1674 14.664 20.4123 14.3153 20.6571 13.9644C20.902 13.6274 21.1468 13.2881 21.4035 12.9511C21.66 12.6235 21.9049 12.2981 22.173 11.9833C22.0215 9.76794 20.0276 8.49701 16.2498 8.20547C16.2029 8.20738 16.1559 8.20346 16.1099 8.1938C16.5063 7.84282 16.9028 7.51753 17.3109 7.20388C17.4041 7.13274 17.4857 7.06164 17.579 7.00331C21.4268 7.20388 23.3624 8.04105 24.0619 9.81336C24.3301 9.52184 24.61 9.24434 24.8897 8.97501C25.1695 8.69552 25.4493 8.42715 25.7291 8.16992C26.0089 7.91456 26.3004 7.65701 26.5803 7.41318C26.8718 7.15665 27.1632 6.92347 27.4547 6.68909C27.5947 4.66027 24.4233 4.36861 22.0329 4.3233H21.8813C22.2428 4.14725 22.6042 3.97233 22.9657 3.82192C23.1406 3.74032 23.3155 3.66918 23.502 3.58757C27.4081 3.58757 29.1105 4.02015 29.5885 5.15001C29.8917 4.95192 30.1949 4.75358 30.498 4.56702C30.8128 4.3933 31.116 4.20675 31.4308 4.0435C31.7456 3.86745 32.0488 3.717 32.3753 3.55379C32.6784 3.40105 33.0049 3.26228 33.3197 3.12355C33.5879 2.20127 31.7573 2.10682 28.271 2.25956H28.131C28.2346 2.23338 28.3398 2.21391 28.4459 2.20127C28.6674 2.17795 28.8774 2.1418 29.0871 2.11849C29.3087 2.08468 29.5187 2.06136 29.7284 2.03689C29.81 2.03689 29.8917 2.02521 29.9616 2.02521C33.9726 1.79317 35.2669 1.79317 35.6284 2.25956C35.9549 2.15462 36.2814 2.06134 36.6079 1.97972C36.9344 1.88644 37.2608 1.80484 37.599 1.7337C37.9254 1.66607 38.2519 1.60661 38.59 1.54714" fill="#6D7080"/>
<path d="M0.263861 43.6756C0.24055 43.9192 0.228877 44.1769 0.205566 44.4333C0.205566 44.2922 0.21724 44.1652 0.228877 44.0241L0.263861 43.6754" fill="#2B2C33"/>
<path d="M0.194114 55.347C0.170803 55.1605 0.159165 54.9739 0.147456 54.7874C0.135819 54.6474 0.135819 54.5203 0.124146 54.3793C0.147456 54.7069 0.170803 55.0322 0.194114 55.347Z" fill="#2B2C33"/>
<path d="M0.182286 48.7476C5.96558 50.324 9.42858 55.1489 10.6527 57.1555C10.711 57.6907 10.7695 58.2283 10.8276 58.7634C10.8976 59.2893 10.9559 59.8246 11.0375 60.3481C11.1075 60.874 11.1891 61.3987 11.2707 61.9245C11.364 62.4364 11.4456 62.9599 11.5505 63.4753C7.015 58.5079 2.94585 57.0389 0.275565 56.3626C0.24058 56.0233 0.21727 55.6864 0.193959 55.3471C0.170648 55.0334 0.147301 54.7068 0.123991 54.3793C0.10068 53.9829 0.0773334 53.5864 0.0656956 53.2017V53.0862C0.0423847 52.642 0.0190384 52.2001 0.0190384 51.7558C0.00935795 51.7024 0.00544448 51.648 0.00736531 51.5937C-0.00427246 51.0562 -0.00427246 50.5211 -0.00427246 49.9847V49.6582C-0.00427246 49.355 -0.00427246 49.0507 0.00740068 48.7475V48.7021C0.0540579 48.7138 0.124132 48.7359 0.182286 48.7476Z" fill="#2B2C33"/>
<path d="M0.0657001 53.0851C0.0423539 52.8869 0.0423539 52.677 0.0307161 52.4683C0.0307161 52.2339 0.019043 52.0007 0.019043 51.7547C0.019043 52.1989 0.0423539 52.6408 0.0657001 53.0851Z" fill="#6D7080"/>
<path d="M0.00740068 48.7475C-0.00427246 49.0507 -0.00427246 49.355 -0.00427246 49.6582V49.0157C-0.00427246 48.9224 0.00740068 48.8408 0.00740068 48.7475Z" fill="#2B2C33"/>
<path d="M65.3626 55.6176C65.4344 55.616 65.5059 55.6291 65.5725 55.6561C65.6447 55.6883 65.7116 55.7316 65.7706 55.7843C65.8396 55.847 65.9006 55.9179 65.9524 55.9954C66.0126 56.0906 66.0637 56.1913 66.1052 56.296L72.7794 73.0119C72.8077 73.0837 72.8323 73.1569 72.8529 73.2312C72.8749 73.3067 72.8924 73.3834 72.9054 73.4609C72.9182 73.5379 72.9298 73.6183 72.9368 73.6999C72.9415 73.7792 72.9462 73.862 72.9439 73.9436C72.9439 73.9798 72.9416 74.0159 72.9392 74.0556C72.9369 74.0917 72.9346 74.1279 72.9299 74.164C72.9252 74.2013 72.9206 74.2375 72.9171 74.2737C72.9124 74.3098 72.9054 74.3471 72.8984 74.3833C72.8751 74.4928 72.8448 74.6007 72.8075 74.7063C72.7708 74.8055 72.7259 74.9014 72.6734 74.9931C72.6263 75.079 72.5695 75.1591 72.5043 75.2322C72.4459 75.3009 72.3794 75.3624 72.3062 75.4152C71.7744 75.7904 71.2191 76.1312 70.6437 76.4354C70.0893 76.7286 69.5157 76.984 68.927 77.2001C68.3523 77.4094 67.7631 77.5766 67.164 77.7003C65.9745 77.9482 64.7542 78.0142 63.5448 77.8962C62.9404 77.8352 62.3414 77.7296 61.7527 77.5802C61.1481 77.4255 60.5554 77.2275 59.9792 76.9878C59.3786 76.7379 58.7958 76.4473 58.2349 76.118C58.1571 76.073 58.0857 76.0177 58.0226 75.9536C57.9563 75.8846 57.8969 75.8092 57.8454 75.7285C57.7904 75.6399 57.744 75.5462 57.7067 75.4487C57.6641 75.3447 57.6313 75.2369 57.6087 75.1268C57.5994 75.0837 57.5901 75.0405 57.5831 74.9974C57.576 74.9519 57.5714 74.9064 57.5668 74.8633C57.5632 74.8178 57.5586 74.7723 57.5562 74.7269C57.5562 74.6814 57.5538 74.6359 57.5562 74.5881C57.5562 74.5123 57.5608 74.4354 57.5668 74.3596C57.5762 74.2826 57.5879 74.2068 57.6018 74.1322C57.6158 74.0569 57.634 73.9825 57.6566 73.9093C57.6758 73.8373 57.6992 73.7665 57.7265 73.6971L64.6199 56.3169C64.6514 56.2353 64.6888 56.1562 64.7318 56.0802C64.7679 56.0136 64.8104 55.9507 64.8589 55.8925C64.9013 55.841 64.9494 55.7944 65.0023 55.7537C65.0486 55.7174 65.0991 55.6869 65.1527 55.6628C65.1696 55.6548 65.1872 55.6482 65.2052 55.643L65.2576 55.6288C65.2919 55.6203 65.3272 55.6164 65.3626 55.6171L65.3626 55.6176ZM63.3407 55.0575C63.2814 55.0573 63.2224 55.0502 63.1647 55.0365C63.1056 55.024 63.0484 55.0041 62.9944 54.977C62.9356 54.9485 62.8797 54.9142 62.8277 54.8745C62.7708 54.8301 62.7181 54.7805 62.6703 54.7264C62.5388 54.5747 62.4357 54.4005 62.3661 54.2122C62.2866 54.0085 62.2368 53.7945 62.218 53.5767C62.1945 53.3516 62.1996 53.1243 62.2332 52.9004C62.2676 52.6793 62.3319 52.4639 62.4244 52.2602C62.4768 52.1502 62.5405 52.0458 62.6145 51.9489C62.6792 51.8633 62.7548 51.7864 62.8395 51.7204C62.9131 51.6606 62.9963 51.6137 63.0855 51.5816C63.1691 51.5504 63.2575 51.5342 63.3467 51.5338C63.4052 51.5319 63.4637 51.5382 63.5204 51.5525C63.5786 51.5658 63.635 51.5862 63.6883 51.6131C63.747 51.642 63.8028 51.6764 63.8551 51.7157C63.9107 51.7599 63.9626 51.8086 64.0102 51.8614C64.1411 52.0138 64.2438 52.1883 64.3133 52.3768C64.3899 52.5813 64.4397 52.7949 64.4614 53.0123C64.4835 53.2374 64.4787 53.4645 64.4472 53.6885C64.4169 53.9074 64.3548 54.1207 64.263 54.3217C64.2109 54.4331 64.1476 54.539 64.0741 54.6377C64.0098 54.7233 63.9345 54.8002 63.8503 54.8662C63.7748 54.9251 63.6911 54.9726 63.6019 55.0073C63.5182 55.0382 63.43 55.0551 63.3407 55.0575ZM67.3645 55.0097C67.2774 55.0109 67.1908 54.9959 67.1092 54.9654C67.0208 54.935 66.9384 54.8896 66.8655 54.8313C66.7822 54.7684 66.708 54.6942 66.6451 54.6109C66.5722 54.5146 66.51 54.4106 66.4597 54.3007C66.3688 54.0994 66.3068 53.8862 66.2755 53.6676C66.244 53.4443 66.2393 53.218 66.2614 52.9936C66.2835 52.7771 66.3332 52.5643 66.4094 52.3604C66.4799 52.1745 66.5808 52.0015 66.7079 51.8486C66.7557 51.7937 66.8083 51.7434 66.8653 51.6982C66.9168 51.6583 66.9719 51.6232 67.0297 51.5933C67.0835 51.5648 67.1407 51.5433 67.1999 51.5291C67.2565 51.5136 67.315 51.5062 67.3737 51.507C67.4612 51.5071 67.548 51.5225 67.6302 51.5525C67.7184 51.5852 67.8007 51.6321 67.8739 51.6913C67.9576 51.7558 68.0322 51.8315 68.0954 51.9163C68.1675 52.0134 68.23 52.1173 68.282 52.2265C68.3703 52.4276 68.4307 52.6398 68.4616 52.8573C68.4931 53.0782 68.4978 53.3021 68.4757 53.5242C68.4537 53.7384 68.404 53.9489 68.3276 54.1503C68.2588 54.3371 68.1569 54.5101 68.027 54.661C67.9809 54.7174 67.9289 54.7686 67.8719 54.8137C67.8216 54.8557 67.7668 54.8921 67.7086 54.9222C67.6549 54.95 67.5982 54.9715 67.5396 54.9863C67.4826 55.0021 67.4238 55.0099 67.3647 55.0096L67.3645 55.0097ZM62.0826 49.0682C62.053 49.0689 62.0233 49.0674 61.994 49.0635C61.9648 49.0589 61.9333 49.0542 61.903 49.0472C61.8722 49.0393 61.8418 49.0296 61.8121 49.0181C61.7815 49.0077 61.7519 48.9948 61.7235 48.9796C61.5667 48.8989 61.4315 48.7817 61.3294 48.638C61.2109 48.477 61.1195 48.2978 61.0589 48.1074C60.99 47.8964 60.9492 47.6772 60.9376 47.4556C60.9235 47.2211 60.9411 46.9857 60.9901 46.756C61.0267 46.5801 61.0838 46.4091 61.1603 46.2466C61.2274 46.1072 61.3133 45.9777 61.4157 45.8618C61.5059 45.7627 61.6133 45.681 61.7329 45.6204C61.8413 45.5657 61.9612 45.5373 62.0827 45.5377C62.113 45.5377 62.1421 45.54 62.1701 45.5423C62.1992 45.547 62.2284 45.5517 62.2587 45.5586C62.2879 45.568 62.3182 45.575 62.345 45.5866C62.3741 45.5972 62.4044 45.6111 62.4336 45.6251C62.5902 45.7097 62.7251 45.8294 62.8277 45.9749C62.9449 46.1381 63.0358 46.3187 63.097 46.5101C63.1651 46.7213 63.2055 46.9404 63.2173 47.1619C63.2322 47.3931 63.2161 47.6252 63.1695 47.8522C63.1326 48.0259 63.0763 48.1948 63.0015 48.3559C62.935 48.495 62.8499 48.6244 62.7485 48.7406C62.6592 48.8403 62.5526 48.9229 62.4337 48.9843C62.3246 49.0385 62.2046 49.0672 62.0827 49.0683L62.0826 49.0682ZM68.6076 49.0659C68.4877 49.0649 68.3698 49.0353 68.2637 48.9797C68.1475 48.9187 68.0435 48.8369 67.957 48.7383C67.8553 48.6237 67.7708 48.4949 67.7063 48.3559C67.6305 48.1954 67.5745 48.0262 67.5396 47.8521C67.4931 47.6276 67.477 47.3977 67.4917 47.1689C67.5025 46.9496 67.5425 46.7328 67.6107 46.5241C67.6697 46.3358 67.7587 46.1582 67.8742 45.9982C67.975 45.8577 68.1076 45.743 68.2613 45.6636C68.2896 45.6489 68.3188 45.636 68.3487 45.6251C68.3766 45.6132 68.4055 45.6038 68.435 45.5971C68.4641 45.5901 68.4921 45.5865 68.5213 45.582C68.5504 45.5796 68.5784 45.5773 68.6075 45.5773C68.7257 45.5802 68.8417 45.6097 68.9469 45.6636C69.0627 45.7255 69.1662 45.8081 69.2523 45.9073C69.3532 46.0212 69.4368 46.1493 69.5007 46.2874C69.5745 46.4467 69.6293 46.6142 69.6639 46.7864C69.71 47.0126 69.7269 47.2438 69.7141 47.4744C69.7024 47.6931 69.6628 47.9094 69.5963 48.1181C69.5359 48.3065 69.4466 48.4843 69.3316 48.6452C69.2323 48.7869 69.1003 48.9025 68.9468 48.9822C68.9195 48.9957 68.8915 49.0078 68.8629 49.0183C68.8348 49.0294 68.806 49.0383 68.7766 49.0451C68.7487 49.0521 68.7202 49.0568 68.6915 49.0593C68.6637 49.0639 68.6357 49.0663 68.6075 49.0664L68.6076 49.0659ZM47.404 45.3242C47.4266 45.3246 47.4492 45.3261 47.4716 45.3289C47.4951 45.3308 47.5185 45.3339 47.5416 45.3382C47.5637 45.3429 47.5871 45.3464 47.6104 45.3533C47.6337 45.3603 47.657 45.3675 47.6804 45.3767L60.7301 50.282C60.8154 50.3123 60.8953 50.356 60.9668 50.4114C61.0417 50.4672 61.1078 50.534 61.1627 50.6095C61.2234 50.688 61.274 50.7738 61.3131 50.8649C61.356 50.9619 61.3873 51.0637 61.4064 51.168C61.4135 51.1948 61.4181 51.2216 61.4228 51.2496C61.4274 51.2764 61.4298 51.3044 61.4344 51.3312L61.4415 51.4163C61.4439 51.4431 61.4439 51.47 61.4439 51.4979C61.4457 51.5832 61.4418 51.6685 61.4322 51.7533C61.4223 51.8374 61.4071 51.9207 61.3867 52.0028C61.3673 52.0873 61.3419 52.1703 61.3109 52.2512C61.2797 52.333 61.2435 52.4128 61.2024 52.4902L52.6113 68.2021C52.558 68.2982 52.4963 68.3895 52.4271 68.4749C52.3653 68.5515 52.2953 68.6211 52.2184 68.6825C52.1487 68.7368 52.0718 68.7812 51.9898 68.8142C51.913 68.8453 51.8313 68.8631 51.7485 68.8667C51.6673 68.8691 51.5862 68.8585 51.5083 68.8352C51.4276 68.8109 51.3512 68.7739 51.2821 68.7255C51.2062 68.6726 51.1369 68.6107 51.0757 68.5413C51.007 68.4617 50.9465 68.3754 50.895 68.2836C50.1268 66.9367 49.4592 65.5349 48.8977 64.0896C48.3057 62.5656 47.8141 61.0045 47.4261 59.4163C47.0212 57.764 46.7179 56.0884 46.5178 54.399C46.3109 52.664 46.2074 50.9182 46.2077 49.1709C46.2077 48.975 46.2089 48.7814 46.2112 48.5902C46.2148 48.399 46.2183 48.2101 46.2241 48.0201C46.2299 47.8335 46.2369 47.6469 46.245 47.4604C46.2521 47.2738 46.2625 47.0873 46.273 46.8984C46.2817 46.6967 46.3158 46.4969 46.3745 46.3037C46.425 46.1329 46.5001 45.9703 46.5973 45.821C46.6813 45.6907 46.7889 45.5773 46.9145 45.4864C47.027 45.4044 47.1579 45.3512 47.2958 45.3313L47.3226 45.329C47.3404 45.3274 47.3583 45.3259 47.3762 45.3243L47.404 45.3242ZM82.1832 45.5679C82.2399 45.5676 82.2964 45.5751 82.3511 45.59C82.4065 45.6054 82.4601 45.6269 82.5108 45.6542C82.5628 45.6841 82.6117 45.7193 82.6566 45.7591C82.7058 45.7999 82.7508 45.8456 82.7907 45.8955C82.8255 45.9372 82.8574 45.9813 82.8862 46.0273C82.9165 46.0759 82.9442 46.1261 82.969 46.1777C82.9959 46.232 83.02 46.2877 83.0412 46.3445C83.0623 46.4039 83.0821 46.4647 83.0984 46.5264C83.1104 46.567 83.1201 46.6082 83.1275 46.6499C83.1369 46.6931 83.1462 46.7362 83.1532 46.7794C83.1601 46.8225 83.1648 46.868 83.1683 46.9135C83.173 46.9566 83.1776 47.0044 83.18 47.0499C83.1893 47.226 83.1987 47.3985 83.2056 47.5746C83.2127 47.7495 83.2185 47.9244 83.2231 48.1028C83.2278 48.2777 83.2302 48.4549 83.2325 48.6334C83.2348 48.8106 83.2371 48.9879 83.2371 49.1711C83.2376 50.8006 83.1473 52.4289 82.9666 54.0484C82.7896 55.6335 82.5234 57.2074 82.1691 58.7625C81.8247 60.2708 81.3898 61.757 80.8667 63.2131C80.3633 64.6135 79.7661 65.9785 79.0792 67.2987C79.0333 67.3863 78.9799 67.4698 78.9195 67.5482C78.8663 67.619 78.8044 67.6828 78.7353 67.7383C78.6733 67.7878 78.6051 67.8289 78.5324 67.8607C78.4621 67.8876 78.3882 67.9037 78.3131 67.9085C78.239 67.9104 78.1651 67.899 78.0951 67.8747C78.0201 67.8476 77.9494 67.8099 77.8852 67.7628C77.816 67.7089 77.7527 67.6479 77.6963 67.5809C77.6326 67.5032 77.5771 67.4192 77.5307 67.3302L69.4597 52.4381C69.4189 52.3635 69.3838 52.286 69.3548 52.206C69.3248 52.1264 69.2995 52.045 69.279 51.9624C69.2615 51.8808 69.2452 51.7968 69.2358 51.714C69.2265 51.6316 69.2229 51.5486 69.2252 51.4656C69.2252 51.4365 69.2264 51.4097 69.2287 51.3817C69.2288 51.3544 69.2311 51.3271 69.2358 51.3001C69.2381 51.2721 69.2405 51.2453 69.2452 51.2185C69.2498 51.1928 69.2545 51.166 69.2615 51.1381C69.2809 51.0356 69.3114 50.9355 69.3524 50.8396C69.3899 50.7501 69.438 50.6656 69.4958 50.5877C69.5487 50.5134 69.6124 50.4473 69.6847 50.3918C69.7532 50.3379 69.829 50.294 69.9098 50.2612L81.937 45.6112C81.9477 45.608 81.9582 45.6041 81.9684 45.5996C81.9789 45.5975 81.989 45.5944 81.9988 45.5902L82.0302 45.5844L82.0594 45.5773L82.0757 45.575L82.092 45.5727L82.1072 45.5703H82.1235L82.1376 45.568H82.1831L82.1832 45.5679ZM65.3556 45.3813C65.1993 45.3794 65.0471 45.3311 64.9183 45.2426C64.7738 45.1423 64.6516 45.0133 64.5592 44.8636C64.4498 44.6917 64.3684 44.5036 64.3179 44.3063C64.258 44.0819 64.2278 43.8506 64.2281 43.6183C64.2276 43.3876 64.2578 43.1578 64.3179 42.9351C64.3684 42.737 64.4498 42.5481 64.5592 42.3754C64.6516 42.2263 64.7739 42.0981 64.9183 41.9988C65.0486 41.9106 65.2029 41.8646 65.3602 41.8671C65.5175 41.8697 65.6702 41.9206 65.7975 42.0129C65.9428 42.1141 66.0654 42.2443 66.1578 42.3954C66.2657 42.5701 66.347 42.7599 66.3991 42.9585C66.458 43.1815 66.4878 43.4112 66.4877 43.6418C66.4881 43.8721 66.4583 44.1014 66.3991 44.3239C66.3479 44.5199 66.2665 44.7068 66.1578 44.8778C66.0656 45.0257 65.9427 45.1521 65.7975 45.2485C65.6669 45.3362 65.5129 45.3825 65.3556 45.3815V45.3813ZM69.4389 21.3829H69.4412C69.4554 21.3829 69.4704 21.3852 69.4844 21.3852L69.5275 21.3923C69.5417 21.3959 69.5555 21.3982 69.5707 21.4029C69.5853 21.4056 69.5998 21.4095 69.6138 21.4146L69.6325 21.4217L69.6511 21.4288L69.6662 21.4358L69.6849 21.4417C70.8322 21.9384 71.9422 22.6123 73.001 23.4413C74.0958 24.3095 75.0963 25.2905 75.9859 26.368C76.9524 27.5332 77.8143 28.7814 78.5616 30.098C79.3676 31.5141 80.063 32.9903 80.6417 34.5136C80.6685 34.5847 80.693 34.657 80.714 34.7329C80.7326 34.8075 80.7501 34.8833 80.7618 34.9603C80.7756 35.0378 80.7853 35.116 80.7909 35.1946C80.798 35.2737 80.8004 35.3531 80.798 35.4325C80.798 35.4663 80.7957 35.5024 80.7934 35.5386C80.791 35.5736 80.7887 35.6097 80.7875 35.6435L80.7734 35.7485C80.7687 35.7823 80.7617 35.8173 80.757 35.8511C80.7333 35.9594 80.7013 36.0659 80.6615 36.1694C80.6259 36.2652 80.5818 36.3577 80.5298 36.4457C80.4799 36.5261 80.4225 36.6014 80.3584 36.6708C80.2991 36.7349 80.2317 36.791 80.1578 36.8375L68.6425 44.1011C68.6075 44.122 68.576 44.1395 68.5422 44.1559C68.51 44.173 68.4765 44.1874 68.4419 44.199C68.4094 44.2107 68.3758 44.2193 68.3417 44.2247C68.3085 44.2302 68.275 44.233 68.2414 44.2328C68.1862 44.2332 68.1314 44.2242 68.0793 44.206C68.0245 44.1893 67.9729 44.1637 67.9265 44.1302C67.8744 44.0966 67.8276 44.0553 67.7878 44.0078C67.7417 43.9568 67.7013 43.9009 67.6675 43.841C67.6298 43.7789 67.5982 43.7133 67.5731 43.6451C67.5463 43.5728 67.5241 43.4971 67.5031 43.4178C67.4644 43.2459 67.4445 43.0704 67.4437 42.8942C67.4425 42.8807 67.4425 42.867 67.4437 42.8534V42.7706C67.4437 42.7578 67.446 42.7438 67.446 42.7298L68.3963 22.8648C68.4049 22.6007 68.4602 22.3402 68.5595 22.0953C68.6017 21.9898 68.6561 21.8896 68.7216 21.7968C68.7792 21.7126 68.8482 21.6368 68.9268 21.5718C68.9987 21.5085 69.0812 21.4583 69.1705 21.4237C69.213 21.4075 69.2572 21.3962 69.3022 21.3899C69.3474 21.3829 69.3931 21.3805 69.4387 21.3828L69.4389 21.3829ZM61.2336 20.948C61.2512 20.9485 61.2687 20.9501 61.2861 20.9527C61.303 20.9543 61.3197 20.957 61.3362 20.9608C61.3532 20.9636 61.3699 20.9675 61.3863 20.9725C61.4034 20.9767 61.4202 20.9822 61.4365 20.9888C61.5398 21.0276 61.6353 21.0844 61.7186 21.1567C61.8103 21.2386 61.8907 21.3323 61.9576 21.4354C62.0329 21.5508 62.0947 21.6744 62.1419 21.8038C62.1966 21.9467 62.2364 22.0948 62.2608 22.2458L62.2749 22.325C62.2773 22.353 62.2808 22.3798 62.2831 22.4078L62.2902 22.4894L62.2973 22.5734L63.2559 42.6797C63.2578 42.6932 63.2586 42.7069 63.2582 42.7205C63.2582 42.7347 63.2605 42.7485 63.2605 42.7625V42.8441C63.2582 42.9374 63.2535 43.0283 63.2454 43.1146C63.2358 43.1998 63.221 43.2843 63.201 43.3676C63.184 43.4446 63.1613 43.5202 63.1332 43.5939C63.1077 43.6628 63.0765 43.7295 63.0399 43.7932C63.0036 43.8531 62.9623 43.9096 62.9163 43.9623C62.8733 44.007 62.8261 44.0472 62.7752 44.0826C62.7265 44.1146 62.6735 44.1393 62.6178 44.1561C62.5648 44.1717 62.5098 44.1791 62.4545 44.1782C62.4202 44.1778 62.3859 44.1751 62.3519 44.17C62.3169 44.1632 62.2825 44.153 62.2494 44.1397C62.2142 44.1278 62.1799 44.1134 62.1468 44.0966C62.1115 44.0787 62.0773 44.0588 62.0442 44.0371L49.6893 36.1106C49.6069 36.058 49.5316 35.9949 49.4654 35.9229C49.3945 35.8472 49.3316 35.7644 49.2777 35.6757C49.2204 35.5798 49.1713 35.4792 49.1308 35.375C49.0891 35.2639 49.056 35.1496 49.0318 35.0334C49.0206 34.9896 49.0121 34.9452 49.0061 34.9005C48.998 34.8573 48.992 34.8119 48.9863 34.7664C48.9816 34.7209 48.9781 34.6778 48.9757 34.6323C48.9733 34.5868 48.9722 34.5413 48.9734 34.4958C48.9732 34.4203 48.9771 34.3448 48.985 34.2696C48.9932 34.195 49.0037 34.1216 49.0177 34.0468C49.0329 33.9745 49.0503 33.901 49.0713 33.8299C49.0935 33.7599 49.1168 33.6888 49.146 33.6212C49.7915 32.0526 50.5681 30.5412 51.4675 29.103C52.3314 27.7318 53.2771 26.497 54.2902 25.4206C55.3012 24.3456 56.3737 23.428 57.4967 22.6806C58.6149 21.9377 59.7762 21.3665 60.969 20.984L60.9877 20.977C60.9944 20.9743 61.0015 20.9727 61.0087 20.9723C61.014 20.9694 61.02 20.9678 61.0262 20.9676C61.0321 20.965 61.0384 20.9634 61.0448 20.963L61.0763 20.9559C61.0865 20.9553 61.0966 20.9541 61.1066 20.9523L61.1381 20.9477H61.1672L61.1835 20.9453H61.1999L61.2174 20.9477L61.2336 20.948ZM65.3626 15.1495C62.3263 14.9536 59.4032 15.7302 56.7156 17.3113C54.0012 18.9098 51.5316 21.3282 49.441 24.3911C47.3352 27.4764 45.6177 31.2087 44.426 35.3993C43.2286 39.6087 42.564 44.2631 42.564 49.1591C42.564 54.0575 43.2286 58.7144 44.426 62.926C45.6177 67.1177 47.3352 70.8524 49.441 73.9388C51.5315 77.0018 54.0012 79.4201 56.7156 81.0187C59.4032 82.6021 62.3263 83.3763 65.3626 83.1828C68.3639 82.9915 71.1925 81.8687 73.739 80.0148C76.2598 78.1819 78.509 75.626 80.3863 72.5408C82.246 69.4754 83.7432 65.8772 84.7716 61.921C85.7965 57.9811 86.362 53.6728 86.362 49.1592C86.362 44.6503 85.7965 40.3407 84.7716 36.4044C83.7432 32.4506 82.2459 28.8523 80.3863 25.7893C78.509 22.7041 76.2598 20.1482 73.739 18.3153C71.1924 16.4637 68.3637 15.3408 65.3626 15.1496" fill="white"/>
<path d="M65.3551 41.8671C65.1994 41.8665 65.0471 41.9124 64.9177 41.9988C64.7729 42.0981 64.6503 42.2263 64.5575 42.3754C64.449 42.5486 64.3677 42.7373 64.3162 42.9351C64.257 43.158 64.2273 43.3877 64.2275 43.6184C64.2274 43.8505 64.2572 44.0817 64.3162 44.3063C64.3679 44.5032 64.4493 44.6912 64.5575 44.8636C64.6505 45.0132 64.7731 45.1421 64.9177 45.2426C65.0467 45.332 65.1996 45.3804 65.3564 45.3814C65.5133 45.3824 65.6668 45.3361 65.7969 45.2485C65.942 45.1523 66.0645 45.0258 66.156 44.8777C66.2651 44.7068 66.3469 44.5199 66.3985 44.3238C66.4577 44.1009 66.4875 43.8712 66.4871 43.6406C66.4872 43.4103 66.4574 43.1811 66.3985 42.9585C66.346 42.7598 66.2643 42.57 66.156 42.3953C66.0648 42.2438 65.9424 42.1135 65.797 42.0128C65.6677 41.9209 65.5137 41.8701 65.3551 41.8671" fill="#CDCED0"/>
<path d="M68.6084 45.5772C68.5781 45.5772 68.5501 45.5795 68.5222 45.5819C68.4907 45.5865 68.465 45.5912 68.4347 45.5982C68.4048 45.6043 68.3755 45.6132 68.3473 45.625C68.3193 45.6367 68.289 45.6495 68.2622 45.6635C68.1082 45.7429 67.9752 45.8576 67.8739 45.9981C67.7582 46.1582 67.6688 46.3357 67.6092 46.524C67.5418 46.7327 67.5025 46.9496 67.4924 47.1687C67.4771 47.3976 67.4932 47.6275 67.5402 47.852C67.5742 48.0262 67.6298 48.1954 67.7058 48.3557C67.7701 48.4946 67.8541 48.6234 67.9553 48.7382C68.0419 48.8372 68.1463 48.919 68.2631 48.9795C68.3695 49.0357 68.4879 49.0653 68.6082 49.0658C68.6363 49.0656 68.6644 49.0633 68.6922 49.0587C68.72 49.0562 68.7476 49.0519 68.7749 49.0459C68.8047 49.0387 68.8339 49.0293 68.8624 49.0179C68.8912 49.0078 68.9192 48.9958 68.9463 48.9818C69.0998 48.902 69.2318 48.7865 69.3311 48.6448C69.446 48.4841 69.5357 48.3068 69.5969 48.1189C69.6614 47.9094 69.7006 47.693 69.7137 47.4742C69.7276 47.2436 69.7108 47.0123 69.6635 46.7862C69.6287 46.6142 69.5744 46.4468 69.5015 46.2872C69.4368 46.1493 69.3528 46.0213 69.2519 45.9071C69.1661 45.8076 69.0625 45.725 68.9465 45.6634C68.8417 45.6095 68.7261 45.58 68.6083 45.5771" fill="#CDCED0"/>
<path d="M67.3737 51.5076C67.3154 51.5071 67.2573 51.5149 67.2012 51.5309C67.1416 51.5446 67.0841 51.5658 67.0298 51.5939C66.9722 51.6242 66.9172 51.6592 66.8653 51.6986C66.809 51.7441 66.7567 51.7945 66.7091 51.849C66.5811 52.0014 66.4802 52.1745 66.4106 52.3609C66.3333 52.5644 66.2835 52.7773 66.2625 52.994C66.2393 53.2188 66.244 53.4456 66.2767 53.6691C66.308 53.8874 66.37 54.1002 66.4609 54.3011C66.5108 54.4109 66.5726 54.5149 66.6451 54.6113C66.7083 54.6947 66.7825 54.7692 66.8655 54.8328C66.9392 54.8901 67.0214 54.9354 67.1092 54.9669C67.1911 54.9964 67.2776 55.011 67.3646 55.0101C67.424 55.0103 67.4833 55.0025 67.5406 54.9868C67.5988 54.9722 67.6551 54.951 67.7085 54.9238C67.7669 54.8928 67.822 54.8561 67.873 54.8141C67.9303 54.7693 67.9823 54.718 68.028 54.6614C68.1572 54.5106 68.2587 54.3382 68.3277 54.152C68.4051 53.9505 68.4549 53.7394 68.4757 53.5246C68.4977 53.3025 68.4934 53.0786 68.4629 52.8576C68.4315 52.6401 68.3707 52.4279 68.2822 52.2268C68.2303 52.1179 68.1678 52.0145 68.0955 51.9179C68.033 51.8326 67.9588 51.7564 67.8751 51.6917C67.8016 51.633 67.7194 51.5862 67.6314 51.5529C67.5486 51.5237 67.4615 51.5084 67.3737 51.5076Z" fill="#CDCED0"/>
<path d="M62.0833 45.5387C61.9615 45.5374 61.8411 45.5654 61.7324 45.6203C61.6134 45.6812 61.5064 45.7629 61.4164 45.8617C61.3139 45.9775 61.228 46.107 61.161 46.2465C61.084 46.4093 61.0268 46.5808 60.9908 46.7572C60.9417 46.9869 60.9241 47.2222 60.9384 47.4567C60.949 47.678 60.9895 47.8968 61.0587 48.1073C61.1199 48.2977 61.2117 48.4769 61.3303 48.6379C61.4317 48.7819 61.5666 48.8991 61.7232 48.9795C61.7516 48.9958 61.7817 49.0087 61.813 49.018C61.8427 49.03 61.873 49.0402 61.904 49.0483C61.934 49.0552 61.9643 49.0602 61.9949 49.0635C62.0243 49.0673 62.0539 49.0689 62.0835 49.0681C62.2054 49.0675 62.3255 49.0388 62.4345 48.9842C62.5531 48.9228 62.6594 48.8402 62.7482 48.7405C62.8501 48.6248 62.9353 48.4952 63.0012 48.3557C63.0765 48.1948 63.1332 48.0258 63.1703 47.852C63.2162 47.6254 63.2322 47.3938 63.2179 47.1631C63.2064 46.9414 63.1657 46.7222 63.0966 46.5113C63.0355 46.3201 62.9451 46.1395 62.8284 45.9761C62.7259 45.8302 62.591 45.7101 62.4343 45.625C62.404 45.6109 62.3749 45.5982 62.3457 45.5865C62.3172 45.5757 62.288 45.5667 62.2583 45.5597C62.2291 45.5526 62.2 45.548 62.1697 45.5434C62.1428 45.5411 62.1125 45.5387 62.0834 45.5387" fill="#CDCED0"/>
<path d="M68.2413 43.0855L68.2087 43.0749C68.2025 43.0668 68.1989 43.0571 68.198 43.0469C68.1923 43.0307 68.1884 43.0139 68.1864 42.9968C68.184 42.9747 68.1817 42.9513 68.1793 42.9222C68.1793 42.8919 68.1793 42.8604 68.1816 42.8242L69.0329 24.8879C70.0811 25.323 71.0851 25.9198 72.033 26.6544C72.9798 27.3878 73.8706 28.2623 74.6973 29.2557C75.5504 30.2906 76.3094 31.3996 76.9652 32.5695C77.6711 33.8262 78.2788 35.1356 78.783 36.486L68.3684 43.0447L68.2413 43.0855ZM69.4388 21.3829C69.3932 21.3806 69.3474 21.383 69.3023 21.39C69.2574 21.3969 69.2132 21.4082 69.1706 21.4238C69.1265 21.4399 69.0843 21.4606 69.0446 21.4856C69.0024 21.5101 68.9629 21.539 68.9268 21.5718C68.8482 21.6369 68.7792 21.7127 68.7216 21.7969C68.6566 21.89 68.6022 21.9901 68.5596 22.0954C68.5115 22.2119 68.4741 22.3324 68.4476 22.4556C68.4172 22.5901 68.3997 22.7271 68.3951 22.8649L67.4461 42.7312C67.4461 42.7441 67.4437 42.7581 67.4437 42.7721V42.8537C67.4426 42.8673 67.4426 42.8809 67.4437 42.8945C67.4444 42.9853 67.4498 43.076 67.4601 43.1662C67.4718 43.2548 67.4846 43.3387 67.5032 43.418C67.5223 43.4954 67.5457 43.5717 67.5732 43.6466C67.5989 43.7143 67.63 43.7798 67.6665 43.8425C67.7013 43.9016 67.7419 43.957 67.7877 44.008C67.8278 44.0556 67.8745 44.0973 67.9264 44.1316C67.9729 44.1648 68.0245 44.19 68.0792 44.2063C68.1312 44.2248 68.186 44.2342 68.2413 44.2342C68.2749 44.2346 68.3085 44.2314 68.3416 44.2249C68.3757 44.2195 68.4093 44.2109 68.4418 44.1993C68.4763 44.1883 68.5094 44.1739 68.5409 44.1561C68.5756 44.1404 68.6091 44.122 68.6412 44.1013L80.1578 36.837C80.2316 36.7904 80.2991 36.7344 80.3583 36.6702C80.4228 36.6011 80.4802 36.5257 80.5298 36.4452C80.582 36.3577 80.6261 36.2656 80.6615 36.17C80.7013 36.0661 80.7333 35.9593 80.757 35.8505C80.7617 35.8167 80.7687 35.7829 80.7734 35.7479C80.778 35.7141 80.7827 35.678 80.7862 35.643L80.7933 35.5392C80.7956 35.5019 80.798 35.4657 80.798 35.432C80.8003 35.353 80.7979 35.274 80.7909 35.1953C80.7838 35.1148 80.7757 35.0379 80.7617 34.9609C80.7501 34.8828 80.7326 34.8082 80.7139 34.7324C80.6933 34.6585 80.6688 34.5857 80.6404 34.5143C80.0629 32.9908 79.3678 31.5145 78.5615 30.0987C77.8142 28.7818 76.9523 27.5333 75.9858 26.3676C75.0959 25.2908 74.0954 24.3103 73.0009 23.4423C71.941 22.6133 70.8321 21.9393 69.6848 21.4426L69.6661 21.4355L69.6509 21.4284L69.6323 21.4214L69.6136 21.4143C69.5996 21.4095 69.5851 21.406 69.5705 21.4037C69.5553 21.399 69.5413 21.3966 69.5273 21.392L69.4842 21.3849C69.4701 21.3849 69.4551 21.3826 69.4411 21.3826L69.4388 21.3829Z" fill="#CDCED0"/>
<path d="M62.4542 43.0226L62.4309 43.0203C62.421 43.0177 62.4113 43.0146 62.4017 43.011L62.3702 42.9968C62.3561 42.9897 62.3446 42.9827 62.3306 42.9747L51.2292 35.8237C51.784 34.4354 52.4529 33.0954 53.2289 31.8174C53.9391 30.6456 54.7619 29.5459 55.6856 28.5338C56.5718 27.573 57.5185 26.7486 58.5166 26.0759C59.5112 25.4089 60.5571 24.8924 61.6415 24.5484L62.509 42.7672C62.512 42.7998 62.5128 42.8325 62.5113 42.8651C62.5118 42.8885 62.511 42.9119 62.509 42.9351C62.5063 42.9513 62.5024 42.9673 62.4973 42.9829C62.4958 42.9924 62.4918 43.0013 62.4856 43.0086L62.481 43.0157L62.4739 43.018L62.4657 43.0203L62.454 43.0227L62.4542 43.0226ZM61.2334 20.948H61.2171L61.1996 20.9457H61.1832L61.1669 20.948H61.1377L61.1062 20.9527L61.0759 20.9574L61.0445 20.9644C61.038 20.9649 61.0317 20.9665 61.0258 20.9691L61.0083 20.9726C61.0011 20.9731 60.994 20.9746 60.9873 20.9773L60.9687 20.9844C59.7759 21.3668 58.6145 21.9395 57.4963 22.6809C56.3735 23.4283 55.3008 24.346 54.2899 25.421C53.2766 26.4983 52.331 27.732 51.4671 29.1033C50.5682 30.5417 49.7917 32.0529 49.1457 33.6212C49.1166 33.69 49.0932 33.7599 49.0711 33.831C49.0501 33.901 49.0326 33.9744 49.0174 34.0468C49.0033 34.1226 48.993 34.1949 48.9848 34.2707C48.9768 34.3454 48.9729 34.4205 48.9731 34.4957C48.9719 34.5412 48.9731 34.5867 48.9754 34.6322C48.9778 34.6776 48.9813 34.7219 48.9861 34.7674C48.9919 34.8129 48.9977 34.8584 49.0059 34.9015C49.0119 34.9459 49.0205 34.9899 49.0315 35.0333C49.0556 35.1496 49.0887 35.2638 49.1306 35.3749C49.1706 35.4793 49.2197 35.5799 49.2775 35.6756C49.3316 35.7644 49.3945 35.8476 49.4652 35.9239C49.5317 35.9953 49.6069 36.058 49.6891 36.1105L62.0437 44.0381C62.0787 44.0603 62.1125 44.0789 62.1463 44.0976C62.1801 44.1128 62.2151 44.1291 62.2489 44.1407C62.2823 44.1531 62.3166 44.1629 62.3515 44.1699C62.3854 44.1753 62.4197 44.1784 62.4541 44.1792C62.5094 44.1797 62.5644 44.1719 62.6173 44.1559C62.673 44.1396 62.726 44.1152 62.7747 44.0836C62.8253 44.0475 62.8726 44.007 62.9158 43.9624C62.9615 43.9098 63.0029 43.8537 63.0394 43.7944C63.0758 43.7302 63.107 43.6631 63.1327 43.5939C63.1606 43.5206 63.1832 43.4454 63.2003 43.3688C63.2201 43.2854 63.2349 43.2009 63.2447 43.1158C63.2528 43.0284 63.2575 42.9374 63.2598 42.8441V42.7625C63.2598 42.7484 63.2575 42.7357 63.2575 42.7217C63.2579 42.7081 63.2571 42.6944 63.2552 42.6809L62.2966 22.5745L62.2895 22.4894L62.2824 22.4078C62.2801 22.381 62.2766 22.353 62.2742 22.3262L62.2601 22.2458C62.2356 22.0949 62.196 21.9468 62.1418 21.8038C62.0944 21.6745 62.0326 21.5509 61.9576 21.4354C61.891 21.3324 61.8105 21.239 61.7186 21.1579C61.6356 21.0848 61.5399 21.0275 61.4364 20.9888C61.4201 20.9821 61.4033 20.9767 61.3863 20.9725C61.3699 20.969 61.3524 20.9643 61.3361 20.9619C61.3197 20.9576 61.3029 20.9545 61.286 20.9525C61.2686 20.9499 61.2511 20.9484 61.2336 20.9479" fill="#CDCED0"/>
<path d="M52.9236 65.806C52.2632 64.657 51.6857 63.4623 51.1956 62.2311C50.6711 60.9163 50.2344 59.5682 49.8885 58.1956C49.5206 56.7416 49.2445 55.266 49.0618 53.7774C48.8693 52.2127 48.7731 50.6376 48.7738 49.061C48.7738 48.8908 48.775 48.7194 48.7774 48.5516C48.7809 48.3803 48.7832 48.21 48.788 48.0409C48.7927 47.8707 48.7997 47.7016 48.8066 47.5337C48.8137 47.3623 48.8218 47.1956 48.8311 47.0277L60.5503 51.4048C60.5746 51.4133 60.5977 51.4246 60.6191 51.4386C60.6346 51.4493 60.6491 51.4614 60.6623 51.4748C60.6718 51.4843 60.6796 51.4954 60.6856 51.5074C60.6896 51.5146 60.6932 51.522 60.6962 51.5296V51.5529C60.6938 51.5622 60.6915 51.5774 60.6868 51.5961C60.6811 51.6187 60.6737 51.6409 60.6647 51.6625C60.654 51.69 60.6412 51.7165 60.6262 51.7418L52.9236 65.806ZM47.4038 45.3242H47.377C47.3676 45.3238 47.3582 45.3246 47.349 45.3265C47.3404 45.3261 47.3318 45.3269 47.3234 45.3289L47.2954 45.3312C47.1576 45.3513 47.0268 45.4045 46.9141 45.4863C46.7893 45.5781 46.6819 45.6914 46.5969 45.8209C46.4999 45.9703 46.4248 46.1329 46.3741 46.3036C46.3154 46.4968 46.2813 46.6966 46.2726 46.8983C46.262 47.0871 46.2528 47.2737 46.2447 47.4603C46.2365 47.6468 46.2295 47.8334 46.2237 48.0211C46.2178 48.21 46.2143 48.3989 46.2108 48.5901C46.2085 48.7813 46.2085 48.9749 46.2085 49.1708C46.2077 50.9181 46.3109 52.6639 46.5175 54.3989C46.7179 56.0884 47.0217 57.764 47.4271 59.4164C47.814 61.0047 48.3052 62.5659 48.8974 64.0896C49.4594 65.5348 50.127 66.9366 50.8948 68.2837C50.9466 68.3752 51.0072 68.4615 51.0755 68.5414C51.137 68.6105 51.2062 68.6723 51.2819 68.7256C51.3508 68.7742 51.4272 68.8112 51.5081 68.8353C51.5863 68.8586 51.6678 68.8692 51.7494 68.8667C51.8319 68.863 51.9131 68.8453 51.9896 68.8143C52.0716 68.7812 52.1485 68.7369 52.2182 68.6825C52.2951 68.6212 52.3651 68.5516 52.4269 68.475C52.4961 68.3893 52.5581 68.2981 52.6122 68.2022L61.2021 52.4904C61.2431 52.4128 61.2797 52.333 61.3118 52.2513C61.3423 52.1708 61.3672 52.0882 61.3864 52.0042C61.4073 51.9217 61.4225 51.838 61.4319 51.7535C61.4415 51.6687 61.4454 51.5834 61.4435 51.4981C61.4435 51.4701 61.4435 51.4433 61.4412 51.4165L61.4341 51.3314C61.4295 51.3046 61.4271 51.2766 61.4225 51.2498C61.4191 51.2223 61.414 51.195 61.4073 51.1682C61.3876 51.064 61.3564 50.9623 61.314 50.865C61.2748 50.7739 61.2243 50.6881 61.1636 50.6097C61.108 50.5347 61.042 50.468 60.9677 50.4116C60.8959 50.3566 60.8161 50.313 60.731 50.2822L47.6801 45.3766C47.658 45.3673 47.6335 45.3603 47.6113 45.3533C47.5869 45.3475 47.5647 45.3427 47.5414 45.3382C47.5182 45.3338 47.4949 45.3307 47.4714 45.3289C47.4489 45.3261 47.4264 45.3245 47.4038 45.3242" fill="#CDCED0"/>
<path d="M77.2459 65.0644L70.0167 51.6987C70.0015 51.6684 69.9899 51.6416 69.9806 51.6183C69.9712 51.598 69.9638 51.5769 69.9584 51.5553C69.9538 51.5367 69.9514 51.5203 69.9491 51.5098L69.9514 51.4888C69.9535 51.4811 69.9567 51.4736 69.9608 51.4667C69.9676 51.4549 69.9758 51.4439 69.9852 51.434C69.9969 51.4224 70.0109 51.4119 70.0261 51.3979C70.0464 51.3847 70.0679 51.3734 70.0902 51.3641L80.9281 47.1526C80.9351 47.31 80.9422 47.4698 80.9479 47.6295C80.9549 47.7858 80.9595 47.9455 80.9642 48.1076C80.9689 48.2662 80.9736 48.4259 80.9759 48.5856C80.9782 48.7477 80.9782 48.9063 80.9782 49.0684C80.9796 50.5529 80.8943 52.0362 80.7229 53.5108C80.5598 54.9201 80.3141 56.3185 79.9871 57.699C79.676 59.0126 79.2843 60.3058 78.8141 61.5712C78.3691 62.769 77.8452 63.936 77.2459 65.0645V65.0644ZM82.1825 45.5679H82.137L82.1229 45.5702H82.1077L82.0914 45.5726L82.0751 45.5749L82.0599 45.5772L82.0296 45.5843L81.9981 45.5914C81.9882 45.5946 81.9781 45.5974 81.9678 45.5996C81.9577 45.6043 81.9471 45.6082 81.9363 45.6112L69.9106 50.261C69.8294 50.2935 69.7532 50.3375 69.6844 50.3916C69.6126 50.4477 69.549 50.5136 69.4955 50.5873C69.4377 50.6652 69.3896 50.7498 69.3521 50.8392C69.3119 50.9354 69.2815 51.0354 69.2612 51.1377C69.2541 51.1657 69.2495 51.1925 69.2448 51.2181C69.2402 51.2449 69.2378 51.2729 69.2355 51.2997C69.2318 51.3268 69.2299 51.354 69.2297 51.3813C69.2273 51.4093 69.225 51.4361 69.225 51.4664C69.2234 51.549 69.2269 51.6315 69.2356 51.7136C69.2458 51.7972 69.2606 51.8801 69.2799 51.962C69.3 52.0446 69.325 52.126 69.3546 52.2057C69.3838 52.2859 69.4189 52.3638 69.4595 52.4388L77.5304 67.33C77.5772 67.4188 77.6327 67.5027 77.6959 67.5807C77.7524 67.6477 77.8157 67.7087 77.8848 67.7626C77.9492 67.8095 78.0199 67.8471 78.0947 67.8745C78.1652 67.8988 78.2395 67.9102 78.314 67.9083C78.3888 67.9041 78.4624 67.8879 78.5321 67.8605C78.6051 67.8295 78.6734 67.7882 78.7349 67.7381C78.804 67.6831 78.8659 67.6196 78.9192 67.5492C78.9793 67.4702 79.0327 67.3863 79.0789 67.2985C79.7658 65.9783 80.363 64.6133 80.8664 63.2129C81.3905 61.7572 81.8254 60.2709 82.1688 58.7623C82.5236 57.2073 82.7898 55.6334 82.9663 54.0482C83.1469 52.4287 83.2372 50.8004 83.2367 49.1708C83.2367 48.9889 83.2343 48.8105 83.232 48.6332C83.2297 48.4558 83.2273 48.2775 83.2238 48.1026C83.2191 47.9242 83.2122 47.7492 83.2052 47.5744C83.1981 47.3983 83.1888 47.2257 83.1795 47.0497C83.1784 47.0042 83.1737 46.9564 83.1689 46.9132C83.1642 46.8677 83.1596 46.8223 83.1526 46.7791C83.1456 46.736 83.1363 46.6929 83.1281 46.6497C83.1202 46.608 83.1101 46.5667 83.0978 46.5261C83.0815 46.4655 83.0617 46.4037 83.0407 46.3442C83.0194 46.2875 82.9953 46.2318 82.9684 46.1775C82.9428 46.1262 82.9159 46.076 82.8868 46.0282C82.8575 45.9819 82.8252 45.9375 82.79 45.8953C82.7501 45.8453 82.7052 45.7996 82.6559 45.7589C82.6107 45.7194 82.562 45.6843 82.5102 45.6539C82.46 45.6268 82.4068 45.6056 82.3516 45.591C82.2967 45.5751 82.2397 45.5672 82.1825 45.5676" fill="#CDCED0"/>
<path d="M65.3622 74.0939C64.8195 74.1205 64.2756 74.1038 63.7356 74.0438C63.1983 73.9823 62.6663 73.881 62.144 73.7406C61.6172 73.5977 61.1013 73.4172 60.6003 73.2006C60.0876 72.978 59.5902 72.7217 59.1113 72.4334L65.2549 56.9046C65.2691 56.8696 65.2829 56.8428 65.2934 56.8195C65.3032 56.8021 65.3141 56.7854 65.326 56.7694C65.3334 56.7598 65.3416 56.7508 65.3505 56.7426L65.3622 56.7355L65.3763 56.7426C65.3844 56.751 65.3918 56.7599 65.3985 56.7694C65.4078 56.7811 65.4195 56.7997 65.4335 56.8218C65.4441 56.8475 65.4579 56.8766 65.4696 56.9128L71.4696 71.8983C71.0124 72.2217 70.5349 72.5153 70.0401 72.7775C69.5555 73.0342 69.0542 73.2578 68.5394 73.4468C68.0305 73.6339 67.5082 73.7824 66.977 73.891C66.4449 74.001 65.9049 74.0689 65.3621 74.0939L65.3622 74.0939ZM65.3621 55.6176C65.3267 55.6169 65.2915 55.6208 65.2571 55.6293C65.2397 55.634 65.2233 55.6387 65.2047 55.6422C65.1872 55.6492 65.1709 55.6538 65.1522 55.6631C65.0986 55.6873 65.0481 55.7178 65.0018 55.7541C64.9489 55.7948 64.9008 55.8413 64.8584 55.8928C64.8102 55.9508 64.7677 56.0133 64.7313 56.0794C64.6885 56.1559 64.6511 56.2354 64.6194 56.3172L57.7261 73.6975C57.6988 73.7668 57.6754 73.8377 57.6561 73.9097C57.6336 73.9829 57.6153 74.0573 57.6013 74.1325C57.5873 74.2072 57.5757 74.283 57.5663 74.3599C57.5605 74.4357 57.5557 74.5127 57.5557 74.5885C57.5534 74.6363 57.5557 74.6818 57.5557 74.7272C57.5581 74.7727 57.5628 74.8181 57.5663 74.8636C57.571 74.9068 57.5757 74.9522 57.5826 74.9977C57.5897 75.0409 57.599 75.084 57.6083 75.1272C57.6309 75.2373 57.6637 75.345 57.7062 75.4491C57.7435 75.5465 57.79 75.6402 57.845 75.7289C57.8965 75.8096 57.9558 75.885 58.0222 75.9539C58.0852 76.0181 58.1566 76.0734 58.2344 76.1184C58.7954 76.4477 59.3782 76.7383 59.9788 76.9882C60.5549 77.2279 61.1476 77.4258 61.7522 77.5805C62.341 77.7299 62.94 77.8355 63.5444 77.8965C64.7537 78.0146 65.974 77.9485 67.1636 77.7006C67.7626 77.5769 68.3519 77.4097 68.9266 77.2004C69.5152 76.9843 70.0886 76.7287 70.6429 76.4355C71.2183 76.1313 71.7736 75.7905 72.3054 75.4152C72.3786 75.3624 72.4451 75.301 72.5035 75.2322C72.5688 75.1592 72.6255 75.079 72.6726 74.9932C72.7252 74.9014 72.77 74.8055 72.8067 74.7063C72.844 74.6008 72.8744 74.4929 72.8977 74.3833C72.9047 74.346 72.9118 74.3099 72.9163 74.2737C72.9198 74.2375 72.9245 74.2014 72.9291 74.164C72.9338 74.1279 72.9362 74.0917 72.9385 74.0556C72.9408 74.016 72.9432 73.9798 72.9432 73.9437C72.9455 73.8609 72.9408 73.7792 72.9361 73.7C72.929 73.6184 72.9174 73.5379 72.9046 73.461C72.8915 73.3831 72.874 73.306 72.8521 73.2301C72.8313 73.1562 72.8068 73.0835 72.7787 73.0121L66.1049 56.2962C66.0634 56.1914 66.0123 56.0908 65.9521 55.9955C65.9004 55.918 65.8393 55.8472 65.7703 55.7845C65.7113 55.7317 65.6444 55.6885 65.5722 55.6562C65.5056 55.6292 65.4341 55.6161 65.3623 55.6177" fill="#CDCED0"/>
<path d="M63.3477 51.5343C63.2582 51.5348 63.1694 51.551 63.0854 51.5821C62.9962 51.6144 62.913 51.6612 62.8392 51.7207C62.7551 51.787 62.6795 51.8633 62.6141 51.9481C62.541 52.0458 62.4777 52.1505 62.4253 52.2606C62.3321 52.4641 62.2677 52.6796 62.234 52.9009C62.2006 53.1247 62.1952 53.3519 62.2177 53.5771C62.2376 53.7947 62.2874 54.0086 62.3658 54.2126C62.4363 54.4008 62.5398 54.5749 62.6713 54.7268C62.719 54.7809 62.7717 54.8305 62.8287 54.8749C62.8803 54.9145 62.9358 54.9489 62.9943 54.9774C63.0486 55.0045 63.1062 55.0244 63.1657 55.0369C63.223 55.0503 63.2817 55.0569 63.3406 55.0567C63.4302 55.0554 63.5189 55.0388 63.6029 55.0077C63.6922 54.9728 63.7759 54.9249 63.8512 54.8655C63.9355 54.8001 64.0104 54.7236 64.0741 54.6381C64.148 54.5397 64.2113 54.4338 64.263 54.3221C64.3548 54.1211 64.4168 53.9078 64.4472 53.689C64.4799 53.465 64.4846 53.2378 64.4614 53.0127C64.4408 52.7952 64.391 52.5814 64.3133 52.3772C64.2447 52.1883 64.1419 52.0136 64.0101 51.8619C63.9627 51.8094 63.9112 51.7607 63.8562 51.7161C63.804 51.6768 63.7481 51.6425 63.6895 51.6136C63.6357 51.5868 63.5789 51.5665 63.5204 51.5529C63.4641 51.5386 63.406 51.5323 63.3479 51.5343" fill="#CDCED0"/>
<path fill-rule="evenodd" clip-rule="evenodd" d="M51.7478 12.3093C48.1628 15.4687 45.8854 19.3587 44.8865 21.9765L44.8517 21.9632C45.8525 19.3404 48.1331 15.4452 51.7231 12.2813C55.3134 9.11715 60.2139 6.68402 66.4533 6.98771C72.6961 7.29156 77.7919 11.9352 81.6245 17.61C85.4576 23.2855 88.0304 29.997 89.226 34.4461L89.19 34.4558C87.9952 30.0096 85.4238 23.3022 81.5936 17.6309C77.7629 11.9589 72.6761 7.32793 66.4515 7.02496C60.2237 6.72183 55.3324 9.15013 51.7478 12.3093Z" fill="#2B2C33"/>
<path d="M46.5584 22.6864L46.9471 21.8724L46.4335 21.3653L47.1183 19.9311L47.8355 20.0117L48.2242 19.1976L44.2212 18.7084L43.666 19.8713L46.5584 22.6864ZM45.9256 20.9086L44.6201 19.6426L44.6432 19.5942L46.4439 19.8232L45.9256 20.9086Z" fill="#16DB93"/>
<path d="M48.2953 19.2873L48.7951 18.5492L47.6836 17.7965L47.9245 17.4408L49.6502 17.2866L50.2222 16.4418L48.3709 16.6667L48.3905 16.6281C48.6715 16.0791 48.548 15.4572 48.0278 15.1049C47.4009 14.6804 46.6563 14.8894 46.1534 15.6319L45.1298 17.1435L48.2953 19.2873ZM47.1634 17.4442L46.1898 16.7849L46.6474 16.1091C46.8853 15.7579 47.2331 15.6368 47.5355 15.8415C47.8378 16.0462 47.8619 16.4128 47.6211 16.7685L47.1634 17.4442Z" fill="#16DB93"/>
<path d="M50.3509 16.409L50.9487 15.7478L49.9529 14.8476L50.2409 14.5289L51.9713 14.6166L52.6554 13.8598L50.7909 13.8245L50.8157 13.7891C51.1704 13.2846 51.1347 12.6515 50.6687 12.2302C50.107 11.7225 49.3405 11.8258 48.7392 12.4909L47.5149 13.8452L50.3509 16.409ZM49.4868 14.4263L48.6145 13.6377L49.1618 13.0323C49.4463 12.7176 49.8077 12.6462 50.0785 12.891C50.3494 13.1359 50.3222 13.5022 50.0342 13.8209L49.4868 14.4263Z" fill="#16DB93"/>
<path d="M52.7867 13.8906L53.4554 13.3013L50.9276 10.4331L50.2589 11.0224L52.7867 13.8906Z" fill="#16DB93"/>
<path d="M52.8737 8.49103L52.0147 8.30929L51.3744 8.7708L52.3249 8.8866L52.8737 8.49103ZM53.8739 12.9461L56.2044 11.2664L55.7837 10.6827L54.1589 11.8537L53.6252 11.1132L55.0888 10.0583L54.7215 9.54868L53.2579 10.6036L52.765 9.91966L54.3462 8.78002L53.9255 8.19631L51.6386 9.84455L53.8739 12.9461Z" fill="#16DB93"/>
<path d="M56.3035 11.2774L57.1008 10.8789L56.5006 9.67814L56.8849 9.48609L58.4648 10.1971L59.3774 9.74099L57.6534 9.02995L57.6894 9.00594C58.2033 8.66503 58.4003 8.06233 58.1194 7.50038C57.7809 6.82316 57.0294 6.64055 56.2273 7.04145L54.5942 7.85766L56.3035 11.2774ZM56.2197 9.11619L55.694 8.06434L56.4241 7.69944C56.8035 7.50979 57.1661 7.57468 57.3293 7.90128C57.4926 8.22789 57.334 8.55925 56.9498 8.7513L56.2197 9.11619Z" fill="#16DB93"/>
<path d="M59.3556 9.8729L62.1117 9.06286L61.9089 8.37254L59.9873 8.9373L59.7299 8.06153L61.4608 7.55279L61.2837 6.95005L59.5528 7.45879L59.315 6.64998L61.1851 6.10036L60.9822 5.41005L58.2776 6.20495L59.3556 9.8729Z" fill="#16DB93"/>
</g>
<defs>
<clipPath id="clip0_595_10031">
<rect width="95.6357" height="100" fill="white"/>
</clipPath>
</defs>
</svg>
