<svg width="97" height="104" viewBox="0 0 97 104" fill="none" xmlns="http://www.w3.org/2000/svg">
<g clip-path="url(#clip0_1562_11573)">
<path d="M15.1783 47.2001L16.1783 91.6701C16.1821 91.9581 16.2565 92.2408 16.3951 92.4934C16.5337 92.7459 16.7321 92.9606 16.973 93.1186C17.2139 93.2766 17.4899 93.373 17.7768 93.3994C18.0636 93.4258 18.3526 93.3814 18.6183 93.2701L61.5283 75.6101C61.8584 75.4758 62.1396 75.244 62.3344 74.9455C62.5292 74.6471 62.6282 74.2963 62.6183 73.9401L60.9083 11.0001C60.9017 10.7316 60.8338 10.4683 60.7097 10.2301C60.5857 9.99199 60.4088 9.78539 60.1926 9.62615C59.9764 9.4669 59.7267 9.35923 59.4624 9.31138C59.1982 9.26353 58.9266 9.27676 58.6683 9.35007L39.1783 14.8001C32.1592 16.7883 25.9968 21.0463 21.6545 26.9084C17.3122 32.7705 15.0348 39.9063 15.1783 47.2001Z" fill="#6D7080"/>
<path d="M17.7383 93.4101L36.4183 96.4901L56.7583 19.1501L78.3483 13.2701L59.7583 9.3501L28.2383 24.6301L22.4083 42.8001L17.7383 93.4101Z" fill="#6D7080"/>
<path d="M33.7978 50.2899L34.7978 94.7599C34.8053 95.0405 34.8798 95.3152 35.015 95.5611C35.1502 95.807 35.3423 96.017 35.5752 96.1736C35.8082 96.3302 36.0751 96.4288 36.3539 96.4612C36.6327 96.4936 36.9152 96.4589 37.1778 96.3599L80.1778 78.6999C80.5047 78.5557 80.7806 78.3164 80.9697 78.0132C81.1587 77.71 81.2521 77.3569 81.2378 76.9999L79.5278 14.9999C79.5212 14.7302 79.453 14.4656 79.3284 14.2263C79.2039 13.987 79.0263 13.7793 78.8092 13.6191C78.5921 13.459 78.3412 13.3505 78.0758 13.3021C77.8104 13.2538 77.5374 13.2667 77.2778 13.3399L57.8378 18.8299C43.3878 22.9099 33.5178 35.2799 33.7978 50.2899Z" fill="#2B2C33"/>
<path d="M19.5582 36.44C19.5582 35.24 22.3882 34.27 25.8882 34.27C29.3882 34.27 32.2182 35.27 32.2182 36.44C32.2182 37.61 29.7882 39.44 26.9282 42.71C26.0782 43.66 21.9782 47.93 20.9782 47.71C19.2582 47.32 19.5582 37.19 19.5582 36.44Z" fill="#848899"/>
<path d="M32.2286 25.0801H19.5586V36.4301H32.2286V25.0801Z" fill="#848899"/>
<path d="M25.8886 28.14C29.8208 28.14 33.0086 27.0476 33.0086 25.7C33.0086 24.3524 29.8208 23.26 25.8886 23.26C21.9563 23.26 18.7686 24.3524 18.7686 25.7C18.7686 27.0476 21.9563 28.14 25.8886 28.14Z" fill="#9499AA"/>
<path d="M31.2581 25.16C31.2581 26.16 28.8481 26.99 25.8881 26.99C22.9281 26.99 20.5281 26.16 20.5281 25.16C20.5232 25.1336 20.5232 25.1065 20.5281 25.08V13.8H31.2481V25.08C31.2563 25.1059 31.2597 25.133 31.2581 25.16Z" fill="#36373F"/>
<path d="M25.8887 16.98C30.1468 16.98 33.5987 15.798 33.5987 14.34C33.5987 12.8819 30.1468 11.7 25.8887 11.7C21.6306 11.7 18.1787 12.8819 18.1787 14.34C18.1787 15.798 21.6306 16.98 25.8887 16.98Z" fill="#2B2C33"/>
<path d="M33.5987 10.6399H18.1787V14.3499H33.5987V10.6399Z" fill="#2B2C33"/>
<path d="M25.8887 13.28C30.1468 13.28 33.5987 12.098 33.5987 10.64C33.5987 9.18197 30.1468 8 25.8887 8C21.6306 8 18.1787 9.18197 18.1787 10.64C18.1787 12.098 21.6306 13.28 25.8887 13.28Z" fill="#36373F"/>
<path d="M75.5378 33.6899C75.5406 33.8676 75.4896 34.042 75.3915 34.1902C75.2933 34.3383 75.1525 34.4533 74.9878 34.5199L74.8478 34.5899L66.7378 37.9199C66.6048 37.9731 66.461 37.9934 66.3185 37.9791C66.176 37.9648 66.0391 37.9163 65.9193 37.8378C65.7996 37.7593 65.7006 37.653 65.6307 37.528C65.5608 37.4031 65.522 37.2631 65.5178 37.1199L65.4078 31.3499L65.2278 22.1699C65.2232 21.9731 65.2847 21.7804 65.4026 21.6227C65.5204 21.465 65.6877 21.3513 65.8778 21.2999L69.6978 20.2199C70.3439 20.0386 71.0228 20.0071 71.6829 20.1279C72.343 20.2486 72.9668 20.5184 73.5068 20.9167C74.0469 21.315 74.4889 21.8313 74.7993 22.4262C75.1096 23.0212 75.2801 23.6791 75.2978 24.3499L75.5378 33.6899Z" fill="#36373F"/>
<path d="M75.4482 34.0701L74.8482 34.5901L66.7382 37.9201C66.6052 37.9733 66.4614 37.9935 66.3189 37.9792C66.1765 37.9649 66.0395 37.9165 65.9198 37.838C65.8 37.7594 65.701 37.6532 65.6311 37.5282C65.5612 37.4032 65.5225 37.2632 65.5182 37.1201L65.4082 31.3501L75.4482 34.0701Z" fill="#42434C"/>
</g>
<defs>
<clipPath id="clip0_1562_11573">
<rect width="66.06" height="88.49" fill="white" transform="translate(15.1787 8)"/>
</clipPath>
</defs>
</svg>
