<svg width="152" height="54" viewBox="0 0 152 54" fill="none" xmlns="http://www.w3.org/2000/svg">
<path fill-rule="evenodd" clip-rule="evenodd" d="M11.2698 10.8438C13.7455 10.2093 17.0141 9.16108 21.2423 7.5C35.2423 2 44.7423 0 61.2423 0C77.7423 0 89.7423 2 114.242 15C126.409 15.8333 150.842 19.8 151.242 29C151.742 40.5 146.242 44.5 139.242 44.5H130.641C129.909 49.8655 125.309 54 119.742 54C114.176 54 109.575 49.8655 108.844 44.5H41.6409C40.9093 49.8655 36.3086 54 30.7423 54C25.1748 54 20.5733 49.8637 19.8433 44.4965C10.9543 44.2885 -3.43053 40.5359 0.742293 26.5L3.03164 17.915C3.88838 14.7022 8.04885 11.6693 11.2698 10.8438ZM32.8202 7.45588C48.6816 3.23961 80.7441 -0.428617 101.258 14.4703C101.989 15.0012 101.654 16.0972 100.752 16.1244C86.3745 16.5569 54.2398 13.4144 32.8988 9.2473C31.8941 9.05112 31.8309 7.71887 32.8202 7.45588ZM30.7423 50C34.6083 50 37.7423 46.866 37.7423 43C37.7423 39.134 34.6083 36 30.7423 36C26.8763 36 23.7423 39.134 23.7423 43C23.7423 46.866 26.8763 50 30.7423 50ZM126.742 43C126.742 46.866 123.608 50 119.742 50C115.876 50 112.742 46.866 112.742 43C112.742 39.134 115.876 36 119.742 36C123.608 36 126.742 39.134 126.742 43Z" fill="black"/>
</svg>
