<svg width="22" height="13" viewBox="0 0 22 13" fill="none" xmlns="http://www.w3.org/2000/svg">
<path d="M21.1836 0.0498047H4.20938C3.73003 0.0498047 3.31945 0.429563 3.31945 0.872897V1.63241H0.992466C0.513123 1.63241 0.102539 2.01217 0.102539 2.45551V11.1916C0.102539 12.141 1.06074 12.9641 2.15599 12.9641H19.6778C20.9095 12.9641 21.9364 12.0779 21.9364 11.0018V0.872897C22.0735 0.365965 21.6624 0.0498047 21.1835 0.0498047H21.1836ZM3.3196 11.0645C3.3196 11.1277 3.18258 11.2544 2.97728 11.2544H2.29264H2.15562C1.95032 11.2544 1.88205 11.1277 1.88205 11.0645V3.15149H3.31962L3.3196 11.0645ZM20.3623 10.9382C20.3623 11.1281 20.0887 11.318 19.8147 11.318H5.03065V11.1281V1.63247H20.3622L20.3623 10.9382Z" fill="#2F3348"/>
<path d="M8.17923 9.10224H17.2141C17.6935 9.10224 18.1041 8.72248 18.1041 8.27915C18.1041 7.83581 17.6935 7.45605 17.2141 7.45605L8.17923 7.4565C7.69989 7.4565 7.28931 7.83625 7.28931 8.27959C7.28931 8.72249 7.6999 9.10224 8.17923 9.10224V9.10224Z" fill="#2F3348"/>
<path d="M8.17923 5.36738H17.2141C17.6935 5.36738 18.1041 4.98762 18.1041 4.54428C18.1041 4.10095 17.6935 3.72119 17.2141 3.72119L8.17923 3.72163C7.69989 3.72163 7.28931 4.10139 7.28931 4.54472C7.28931 4.98763 7.6999 5.36738 8.17923 5.36738Z" fill="#2F3348"/>
</svg>
