<svg width="32" height="22" viewBox="0 0 32 22" fill="none" xmlns="http://www.w3.org/2000/svg">
<path d="M26.411 7.51579C20.1532 1.13021 16.1409 -0.146907 14.917 0.0127326H5.6579C2.59282 0.0127326 1.82655 6.18546 1.82655 9.27182C0.294012 9.27182 0.0173033 10.9746 0.0705162 11.8261C0.017303 12.1453 -0.0571954 13.4544 0.0705162 16.1363C0.198228 18.8183 1.82655 19.063 2.62475 18.8502C10.5535 18.9034 26.9857 18.9779 29.2845 18.8502C32.158 18.6905 31.9984 17.2538 31.9984 13.5821C31.9984 10.6447 28.2735 8.31398 26.411 7.51579Z" fill="#2F3348"/>
<path d="M14.6619 1.44971H10.4599C10.1698 1.44971 9.91621 1.64523 9.84238 1.92576L9.39982 3.60751C9.24988 4.17728 9.25882 4.81905 9.72338 5.18139C11.8524 6.84192 18.954 7.14275 23.2657 7.06115C23.5675 7.05544 23.6874 6.67358 23.4453 6.4933L18.2851 2.65057C17.2381 1.87085 15.9674 1.44971 14.6619 1.44971Z" fill="white"/>
<path d="M9.80831 18.2118C9.80831 20.1514 8.23591 21.7238 6.29625 21.7238C4.35659 21.7238 2.78418 20.1514 2.78418 18.2118C2.78418 16.2721 4.35659 14.6997 6.29625 14.6997C8.23591 14.6997 9.80831 16.2721 9.80831 18.2118Z" fill="white"/>
<path fill-rule="evenodd" clip-rule="evenodd" d="M6.29625 20.4467C7.53058 20.4467 8.5312 19.4461 8.5312 18.2118C8.5312 16.9774 7.53058 15.9768 6.29625 15.9768C5.06192 15.9768 4.0613 16.9774 4.0613 18.2118C4.0613 19.4461 5.06192 20.4467 6.29625 20.4467ZM6.29625 21.7238C8.23591 21.7238 9.80831 20.1514 9.80831 18.2118C9.80831 16.2721 8.23591 14.6997 6.29625 14.6997C4.35659 14.6997 2.78418 16.2721 2.78418 18.2118C2.78418 20.1514 4.35659 21.7238 6.29625 21.7238Z" fill="#2F3348"/>
<path d="M28.6462 18.2118C28.6462 20.1514 27.0738 21.7238 25.1341 21.7238C23.1945 21.7238 21.6221 20.1514 21.6221 18.2118C21.6221 16.2721 23.1945 14.6997 25.1341 14.6997C27.0738 14.6997 28.6462 16.2721 28.6462 18.2118Z" fill="white"/>
<path fill-rule="evenodd" clip-rule="evenodd" d="M25.1341 20.4467C26.3685 20.4467 27.3691 19.4461 27.3691 18.2118C27.3691 16.9774 26.3685 15.9768 25.1341 15.9768C23.8998 15.9768 22.8992 16.9774 22.8992 18.2118C22.8992 19.4461 23.8998 20.4467 25.1341 20.4467ZM25.1341 21.7238C27.0738 21.7238 28.6462 20.1514 28.6462 18.2118C28.6462 16.2721 27.0738 14.6997 25.1341 14.6997C23.1945 14.6997 21.6221 16.2721 21.6221 18.2118C21.6221 20.1514 23.1945 21.7238 25.1341 21.7238Z" fill="#2F3348"/>
</svg>
