<svg width="101" height="69" viewBox="0 0 101 69" fill="none" xmlns="http://www.w3.org/2000/svg">
<path fill-rule="evenodd" clip-rule="evenodd" d="M46.7209 0.0398791C50.5542 -0.460121 63.1209 3.53988 82.7209 23.5399C88.5542 26.0399 100.221 33.3399 100.221 42.5399C100.221 43.1331 100.222 43.7077 100.223 44.2641C100.247 54.4935 100.257 58.5657 91.7209 59.0399C91.2067 59.0685 90.4658 59.0961 89.5239 59.1228C88.5505 64.202 84.0839 68.0399 78.7209 68.0399C73.4595 68.0399 69.0609 64.346 67.9769 59.4101C56.615 59.4971 42.9035 59.549 30.4321 59.5547C29.2947 64.418 24.9308 68.0399 19.7209 68.0399C14.4938 68.0399 10.1182 64.394 8.9985 59.5064L8 59.5C5.72086 59.5 0.620861 58.9399 0.220861 50.5399C-0.179139 42.1399 0.054194 38.0399 0.220861 37.0399C0.0541949 34.3732 0.920863 29.0399 5.72086 29.0399C5.72086 19.3732 8.12086 0.0398791 17.7209 0.0398791H46.7209ZM32.7627 4.53989H45.9236C50.0124 4.53989 53.9922 5.85893 57.2716 8.30107L73.4338 20.3367C74.192 20.9013 73.8164 22.0974 72.8712 22.1152C59.3667 22.3708 37.1239 21.4286 30.4558 16.2277C29.0008 15.0929 28.9728 13.0828 29.4424 11.2983L30.8285 6.0309C31.0597 5.15227 31.8541 4.53989 32.7627 4.53989ZM19.7209 64.0399C23.5869 64.0399 26.7209 60.9059 26.7209 57.0399C26.7209 53.1739 23.5869 50.0399 19.7209 50.0399C15.8549 50.0399 12.7209 53.1739 12.7209 57.0399C12.7209 60.9059 15.8549 64.0399 19.7209 64.0399ZM85.7209 57.0399C85.7209 60.9059 82.5869 64.0399 78.7209 64.0399C74.8549 64.0399 71.7209 60.9059 71.7209 57.0399C71.7209 53.1739 74.8549 50.0399 78.7209 50.0399C82.5869 50.0399 85.7209 53.1739 85.7209 57.0399Z" fill="black"/>
</svg>
