<svg width="144" height="48" viewBox="0 0 144 48" fill="none" xmlns="http://www.w3.org/2000/svg">
<path fill-rule="evenodd" clip-rule="evenodd" d="M140.218 19.4C123.638 10.4244 105.5 9.36924 95.9715 10.1593C93.9928 10.3233 92.0202 10.3488 90.1826 9.59727C87.4209 8.46789 83.1798 6.43199 79.0725 4.38112C73.4222 1.55971 67.2151 0 60.8995 0H45.0139C40.3814 0 32.7022 2.78182 25.249 5.48175C18.2221 8.02727 11.3961 10.5 7.51388 10.5C1.11388 10.5 -0.152788 13.5 0.0138791 15C0.723233 26.7043 8.561 33.2458 13.6976 35.7398C14.8733 36.3107 16.1805 36.5041 17.4875 36.5117C17.9907 36.5146 18.503 36.5175 19.0241 36.5205C19.0173 36.6795 19.0139 36.8393 19.0139 37C19.0139 43.0751 23.9387 48 30.0139 48C36.089 48 41.0139 43.0751 41.0139 37C41.0139 36.8748 41.0118 36.7501 41.0076 36.6259C62.0886 36.71 87.2389 36.7632 105.019 36.6766C105.015 36.784 105.014 36.8918 105.014 37C105.014 43.0751 109.939 48 116.014 48C122.089 48 127.014 43.0751 127.014 37C127.014 36.7081 127.002 36.4189 126.98 36.1327C138.417 34.6088 142.281 28.7953 143.004 24.2047C143.322 22.186 142.015 20.3728 140.218 19.4ZM52.9248 11.3664L48.3248 4.46641C48.1919 4.26704 48.3348 4 48.5744 4H66.3361C68.0904 4 69.8138 4.46149 71.3333 5.33814L81.0434 10.9401C81.3093 11.0935 81.2005 11.5 80.8935 11.5H53.1744C53.0741 11.5 52.9804 11.4499 52.9248 11.3664ZM30.0139 44C33.8798 44 37.0139 40.866 37.0139 37C37.0139 33.134 33.8798 30 30.0139 30C26.1479 30 23.0139 33.134 23.0139 37C23.0139 40.866 26.1479 44 30.0139 44ZM116.014 44C119.88 44 123.014 40.866 123.014 37C123.014 33.134 119.88 30 116.014 30C112.148 30 109.014 33.134 109.014 37C109.014 40.866 112.148 44 116.014 44Z" fill="black"/>
</svg>
