<svg width="50" height="17" viewBox="0 0 50 17" fill="none" xmlns="http://www.w3.org/2000/svg">
<path d="M49.0094 6.78076C43.2143 3.64357 36.8747 3.27478 33.5443 3.55091C32.8528 3.60825 32.1633 3.61715 31.521 3.35448C30.5557 2.95973 29.0733 2.24814 27.6378 1.53131C25.6628 0.545157 23.4933 0 21.2858 0H15.7334C12.5877 0 5.42247 3.67 2.62628 3.67C0.389328 3.67 -0.0534029 4.71857 0.00485108 5.24286C0.252787 9.3338 2.99228 11.6202 4.78763 12.4919C5.19858 12.6915 5.6493 12.759 6.10613 12.7617C16.0486 12.8195 36.2266 12.8942 42.6468 12.7576C48.0019 12.6437 49.697 10.278 49.9833 8.46046C50.0944 7.75491 49.6375 7.12079 49.0094 6.78076Z" fill="#2F3348"/>
<path d="M14.335 12.9327C14.335 15.0561 12.6137 16.7774 10.4903 16.7774C8.36687 16.7774 6.64551 15.0561 6.64551 12.9327C6.64551 10.8093 8.36687 9.08789 10.4903 9.08789C12.6137 9.08789 14.335 10.8093 14.335 12.9327Z" fill="white"/>
<path fill-rule="evenodd" clip-rule="evenodd" d="M10.4903 15.3793C11.8415 15.3793 12.9369 14.2839 12.9369 12.9327C12.9369 11.5814 11.8415 10.486 10.4903 10.486C9.13901 10.486 8.0436 11.5814 8.0436 12.9327C8.0436 14.2839 9.13901 15.3793 10.4903 15.3793ZM10.4903 16.7774C12.6137 16.7774 14.335 15.0561 14.335 12.9327C14.335 10.8093 12.6137 9.08789 10.4903 9.08789C8.36687 9.08789 6.64551 10.8093 6.64551 12.9327C6.64551 15.0561 8.36687 16.7774 10.4903 16.7774Z" fill="#2F3348"/>
<path d="M44.3946 12.9327C44.3946 15.0561 42.6732 16.7774 40.5498 16.7774C38.4264 16.7774 36.7051 15.0561 36.7051 12.9327C36.7051 10.8093 38.4264 9.08789 40.5498 9.08789C42.6732 9.08789 44.3946 10.8093 44.3946 12.9327Z" fill="white"/>
<path fill-rule="evenodd" clip-rule="evenodd" d="M40.5498 15.3793C41.9011 15.3793 42.9965 14.2839 42.9965 12.9327C42.9965 11.5814 41.9011 10.486 40.5498 10.486C39.1986 10.486 38.1032 11.5814 38.1032 12.9327C38.1032 14.2839 39.1986 15.3793 40.5498 15.3793ZM40.5498 16.7774C42.6732 16.7774 44.3946 15.0561 44.3946 12.9327C44.3946 10.8093 42.6732 9.08789 40.5498 9.08789C38.4264 9.08789 36.7051 10.8093 36.7051 12.9327C36.7051 15.0561 38.4264 16.7774 40.5498 16.7774Z" fill="#2F3348"/>
<path d="M18.4986 3.97269L16.8908 1.56097C16.8444 1.49129 16.8943 1.39795 16.9781 1.39795H23.1862C23.7994 1.39795 24.4017 1.55925 24.9329 1.86566L28.3268 3.8237C28.4197 3.87732 28.3817 4.01938 28.2744 4.01938H18.5859C18.5508 4.01938 18.5181 4.00186 18.4986 3.97269Z" fill="white"/>
</svg>
