<svg width="16" height="18" viewBox="0 0 16 18" fill="none" xmlns="http://www.w3.org/2000/svg">
<g clip-path="url(#clip0_1226_3561)">
<path fill-rule="evenodd" clip-rule="evenodd" d="M11.6001 1.20012C11.6001 0.868751 11.3314 0.600122 11.0001 0.600122C10.6687 0.600122 10.4001 0.868751 10.4001 1.20012V1.80012H5.60006V1.20012C5.60006 0.868751 5.33143 0.600122 5.00006 0.600122C4.66869 0.600122 4.40006 0.868751 4.40006 1.20012V1.80012H2.54006C1.24771 1.80012 0.200061 2.84778 0.200061 4.14012V6.90012V15.0601C0.200061 16.3525 1.24771 17.4001 2.54006 17.4001H13.4601C14.7524 17.4001 15.8001 16.3525 15.8001 15.0601V6.90012V4.14012C15.8001 2.84778 14.7524 1.80012 13.4601 1.80012H11.6001V1.20012ZM14.2401 6.00012V4.14012C14.2401 3.70934 13.8908 3.36012 13.4601 3.36012H11.6001V3.60012C11.6001 3.93149 11.3314 4.20012 11.0001 4.20012C10.6687 4.20012 10.4001 3.93149 10.4001 3.60012V3.36012H5.60006V3.60012C5.60006 3.93149 5.33143 4.20012 5.00006 4.20012C4.66869 4.20012 4.40006 3.93149 4.40006 3.60012V3.36012H2.54006C2.10928 3.36012 1.76006 3.70934 1.76006 4.14012V6.00012H14.2401ZM1.76006 7.80012H14.2401V15.0601C14.2401 15.4909 13.8908 15.8401 13.4601 15.8401H2.54006C2.10928 15.8401 1.76006 15.4909 1.76006 15.0601V7.80012Z" fill="#6A729E"/>
</g>
<defs>
<clipPath id="clip0_1226_3561">
<rect width="15.6" height="16.8" fill="white" transform="translate(0.200012 0.600098)"/>
</clipPath>
</defs>
</svg>
