<svg width="18" height="22" viewBox="0 0 18 22" fill="none" xmlns="http://www.w3.org/2000/svg">
<path d="M10.6849 2.65088V6.05002H14.7468L10.6849 2.65088ZM16.3119 7.69995H8.99687V1.65002H3.40313C2.47185 1.65002 1.71657 2.38702 1.71507 3.29712L1.68775 18.6975C1.68625 19.6087 2.44058 20.3488 3.37296 20.3503H14.6236C15.5558 20.3503 16.3117 19.6117 16.3117 18.7003L16.3119 7.69995ZM8.65965 0C9.59818 0 10.5068 0.330017 11.2266 0.932309L16.567 5.40096C17.4752 6.16097 18 7.28437 18 8.46866V18.6999C18 20.5225 16.4885 22 14.6239 22H3.37612C1.5057 21.9969 -0.00317817 20.5168 5.02728e-06 18.6942L0.0273229 3.29434C0.0305257 1.47399 1.54112 0 3.40344 0H8.65965Z" fill="#2F3348"/>
</svg>
