<svg width="24" height="24" viewBox="0 0 24 24" fill="none" xmlns="http://www.w3.org/2000/svg">
<g opacity="0.8">
<path fill-rule="evenodd" clip-rule="evenodd" d="M11 21C11 20.4477 11.4477 20 12 20H21C21.5523 20 22 20.4477 22 21C22 21.5523 21.5523 22 21 22H12C11.4477 22 11 21.5523 11 21Z" fill="#6A729E"/>
<path fill-rule="evenodd" clip-rule="evenodd" d="M18 4.87891C17.7026 4.87891 17.4174 4.99705 17.2071 5.20733L4.90299 17.5115L4.37439 19.6259L6.48877 19.0973L18.7929 6.79312C18.897 6.689 18.9796 6.56538 19.036 6.42934C19.0923 6.29329 19.1213 6.14748 19.1213 6.00023C19.1213 5.85297 19.0923 5.70716 19.036 5.57112C18.9796 5.43507 18.897 5.31146 18.7929 5.20733C18.6888 5.10321 18.5652 5.02061 18.4291 4.96426C18.2931 4.90791 18.1473 4.87891 18 4.87891ZM15.7929 3.79312C16.3783 3.20776 17.1722 2.87891 18 2.87891C18.4099 2.87891 18.8158 2.95964 19.1945 3.1165C19.5732 3.27336 19.9173 3.50328 20.2071 3.79312C20.497 4.08296 20.7269 4.42705 20.8837 4.80575C21.0406 5.18444 21.1213 5.59033 21.1213 6.00023C21.1213 6.41012 21.0406 6.81601 20.8837 7.1947C20.7269 7.5734 20.497 7.91749 20.2071 8.20733L7.70713 20.7073C7.57897 20.8355 7.41839 20.9264 7.24256 20.9704L3.24256 21.9704C2.90178 22.0556 2.54129 21.9557 2.29291 21.7073C2.04453 21.459 1.94468 21.0985 2.02988 20.7577L3.02988 16.7577C3.07384 16.5819 3.16476 16.4213 3.29291 16.2931L15.7929 3.79312Z" fill="#6A729E"/>
</g>
</svg>
