<svg width="16" height="18" viewBox="0 0 16 18" fill="none" xmlns="http://www.w3.org/2000/svg">
<path fill-rule="evenodd" clip-rule="evenodd" d="M3.09101 0C2.44003 0 1.81571 0.258602 1.35539 0.718916C0.895076 1.17923 0.636475 1.80355 0.636475 2.45453V15.5454C0.636475 16.8972 1.73915 17.9999 3.09101 17.9999H12.9091C13.5601 17.9999 14.1844 17.7413 14.6448 17.281C15.1051 16.8207 15.3637 16.1964 15.3637 15.5454V5.72724C15.3637 5.51025 15.2775 5.30214 15.124 5.1487L10.215 0.239639C10.0615 0.0862006 9.85342 0 9.63643 0H3.09101ZM2.51247 1.87599C2.66591 1.72256 2.87401 1.63636 3.09101 1.63636H8.81833V5.72723C8.81833 6.1791 9.18464 6.54541 9.63651 6.54541H13.7273V15.5454C13.7273 15.7624 13.6411 15.9705 13.4877 16.1239C13.3342 16.2774 13.1261 16.3636 12.9091 16.3636H3.09101C2.64288 16.3636 2.27283 15.9935 2.27283 15.5454V2.45453C2.27283 2.23754 2.35903 2.02943 2.51247 1.87599ZM10.4547 4.90905V3.6116L11.7521 4.90905H10.4547ZM8.81833 8.99994C8.81833 8.54807 8.45202 8.18176 8.00015 8.18176C7.54829 8.18176 7.18198 8.54807 7.18198 8.99994V10.6363H5.54562C5.09375 10.6363 4.72744 11.0026 4.72744 11.4545C4.72744 11.9063 5.09375 12.2727 5.54562 12.2727H7.18198V13.909C7.18198 14.3609 7.54829 14.7272 8.00015 14.7272C8.45202 14.7272 8.81833 14.3609 8.81833 13.909V12.2727H10.4547C10.9066 12.2727 11.2729 11.9063 11.2729 11.4545C11.2729 11.0026 10.9066 10.6363 10.4547 10.6363H8.81833V8.99994Z" fill="#16DB93"/>
</svg>
