<svg width="222" height="53" viewBox="0 0 222 53" fill="none" xmlns="http://www.w3.org/2000/svg">
<path d="M76.2507 36.7087C76.888 38.5726 78.7208 39.8351 80.7892 39.8351C82.8626 39.8351 84.6986 38.5666 85.3318 36.6965L88.24 28.1083C89.0276 25.6913 89.5432 24.0147 89.897 22.7834C90.0378 22.2933 90.9156 22.3103 91.0405 22.8042C91.387 24.1743 91.8864 25.9197 92.5614 27.9977L95.5127 36.7955C96.12 38.6056 97.8944 39.8351 99.8996 39.8351C101.867 39.8351 103.618 38.6501 104.255 36.8864L111.486 16.8649C112.257 14.7296 110.582 12.5094 108.199 12.5094C106.678 12.5094 105.334 13.4464 104.882 14.8217L101.788 24.2362C101.431 25.4026 100.884 27.2854 100.424 29.0145C100.294 29.502 99.4588 29.4956 99.333 29.0071C98.852 27.1394 98.2316 24.9916 97.9924 24.2362L95.2192 15.7987C94.5762 13.8422 92.6645 12.5094 90.5012 12.5094C88.3536 12.5094 86.452 13.8234 85.796 15.7604L82.9259 24.2362C82.2937 26.0701 81.8487 27.4481 81.4641 28.97C81.3397 29.4625 80.5416 29.4625 80.4274 28.9678C80.0419 27.2985 79.6289 25.7154 79.1884 24.2362L76.1528 14.858C75.7011 13.4623 74.3404 12.5094 72.7993 12.5094C70.4177 12.5094 68.7285 14.7095 69.4623 16.8557L76.2507 36.7087Z" fill="#16DB93"/>
<path d="M128.97 40.5542C136.036 40.5542 141.098 37.391 142.711 32.0687C142.879 31.5132 142.418 30.9847 141.808 30.9847H137.11C136.68 30.9847 136.31 31.2559 136.137 31.6279C135.118 33.8207 132.664 35.0227 129.087 35.0227C124.356 35.0227 121.67 32.5888 121.145 27.7764L141.901 27.7236C142.436 27.7222 142.868 27.3111 142.868 26.8046V25.6744C142.868 17.1559 137.379 11.6797 128.736 11.6797C120.269 11.6797 114.371 17.5984 114.371 26.1723C114.371 34.6355 120.385 40.5542 128.97 40.5542ZM128.795 17.2112C133.058 17.2112 135.802 19.7004 135.802 23.4618H121.32C122.021 19.3685 124.59 17.2112 128.795 17.2112Z" fill="#16DB93"/>
<path d="M161.476 40.5542C168.542 40.5542 173.604 37.391 175.217 32.0687C175.385 31.5132 174.925 30.9847 174.314 30.9847H169.616C169.187 30.9847 168.817 31.2559 168.644 31.6279C167.624 33.8207 165.17 35.0227 161.593 35.0227C156.863 35.0227 154.176 32.5888 153.651 27.7764L174.407 27.7236C174.942 27.7222 175.375 27.3111 175.375 26.8046V25.6744C175.375 17.1559 169.885 11.6797 161.243 11.6797C152.775 11.6797 146.877 17.5984 146.877 26.1723C146.877 34.6355 152.892 40.5542 161.476 40.5542ZM161.301 17.2112C165.564 17.2112 168.309 19.7004 168.309 23.4618H153.826C154.527 19.3685 157.096 17.2112 161.301 17.2112Z" fill="#16DB93"/>
<path d="M186.086 15.6359C186.724 13.772 188.556 12.5094 190.625 12.5094C192.698 12.5094 194.534 13.778 195.167 15.6481L198.076 24.2362C198.977 27.003 199.522 28.7994 199.876 30.0685C199.984 30.4537 200.656 30.4398 200.75 30.0514C201.097 28.6147 201.635 26.6927 202.397 24.3469L205.348 15.5491C205.956 13.7389 207.73 12.5094 209.735 12.5094C211.703 12.5094 213.453 13.6944 214.09 15.4581L221.321 35.4797C222.093 37.615 220.417 39.8351 218.035 39.8351C216.514 39.8351 215.17 38.8982 214.718 37.5228L211.624 28.1083C211.233 26.8323 210.615 24.6986 210.132 22.8469C210.033 22.464 209.388 22.4693 209.292 22.853C208.799 24.8172 208.088 27.2866 207.828 28.1083L205.055 36.5459C204.412 38.5023 202.5 39.8351 200.337 39.8351C198.189 39.8351 196.288 38.5212 195.632 36.5842L192.761 28.1083C192.06 26.0745 191.589 24.6013 191.176 22.8707C191.083 22.4833 190.466 22.4828 190.378 22.8713C189.96 24.7271 189.509 26.4807 189.024 28.1083L185.988 37.4866C185.537 38.8823 184.176 39.8351 182.635 39.8351C180.253 39.8351 178.564 37.635 179.298 35.4889L186.086 15.6359Z" fill="#16DB93"/>
<path fill-rule="evenodd" clip-rule="evenodd" d="M2.55579e-06 34.9219L5.43668e-06 22.8028C5.39663e-06 21.4079 1.19103 20.277 2.66023 20.277C4.12942 20.277 5.32045 21.4079 5.32045 22.8028L5.32045 34.7429C5.32045 38.4945 5.3261 41.0541 5.59776 42.9727C5.85914 44.8185 6.3221 45.6884 6.9496 46.2842C7.5771 46.88 8.49326 47.3195 10.4374 47.5677C12.458 47.8256 15.1539 47.831 19.1052 47.831L27.8114 47.831C31.7627 47.831 34.4586 47.8256 36.4792 47.5677C38.4234 47.3195 39.3395 46.88 39.967 46.2842C40.5945 45.6884 41.0575 44.8185 41.3189 42.9727C41.5905 41.0541 41.5962 38.4945 41.5962 34.7429L41.5962 22.8028C41.5962 21.4079 42.7872 20.277 44.2564 20.277C45.7256 20.277 46.9166 21.4079 46.9166 22.8028L46.9166 34.9219C46.9167 38.4497 46.9168 41.3511 46.5919 43.6458C46.2512 46.0518 45.51 48.1654 43.7291 49.8562C41.9483 51.547 39.7223 52.2507 37.1882 52.5742C34.7714 52.8827 31.7156 52.8827 27.9999 52.8826L18.9167 52.8826C15.2011 52.8827 12.1452 52.8827 9.72844 52.5742C7.19435 52.2507 4.96829 51.547 3.18748 49.8562C1.40667 48.1654 0.665467 46.0518 0.324767 43.6458C-0.000164457 41.3511 -8.91356e-05 38.4497 2.55579e-06 34.9219Z" fill="#16DB93"/>
<path fill-rule="evenodd" clip-rule="evenodd" d="M2.55579e-06 17.9607L5.43668e-06 30.0797C5.39663e-06 31.4747 1.19103 32.6055 2.66023 32.6055C4.12942 32.6055 5.32045 31.4747 5.32045 30.0797L5.32045 18.1397C5.32045 14.3881 5.3261 11.8284 5.59776 9.9099C5.85914 8.06404 6.3221 7.19418 6.9496 6.59839C7.5771 6.00259 8.49326 5.56304 10.4374 5.31487C12.458 5.05693 15.1539 5.05157 19.1052 5.05157L27.8114 5.05157C31.7627 5.05157 34.4586 5.05693 36.4792 5.31487C38.4234 5.56304 39.3395 6.0026 39.967 6.59839C40.5945 7.19418 41.0575 8.06404 41.3189 9.9099C41.5905 11.8284 41.5962 14.3881 41.5962 18.1397L41.5962 30.0797C41.5962 31.4747 42.7872 32.6055 44.2564 32.6055C45.7256 32.6055 46.9166 31.4747 46.9166 30.0797L46.9166 17.9607C46.9167 14.4328 46.9168 11.5315 46.5919 9.23679C46.2512 6.83077 45.51 4.71721 43.7291 3.0264C41.9483 1.33558 39.7223 0.631838 37.1882 0.308357C34.7714 -0.000153517 31.7156 -8.21271e-05 27.9999 4.77941e-06L18.9167 4.17502e-06C15.2011 -8.32259e-05 12.1452 -0.000155023 9.72844 0.308355C7.19435 0.631836 4.96829 1.33558 3.18748 3.02639C1.40667 4.71721 0.665467 6.83077 0.324767 9.23679C-0.000164457 11.5315 -8.91356e-05 14.4328 2.55579e-06 17.9607Z" fill="#16DB93"/>
<path fill-rule="evenodd" clip-rule="evenodd" d="M23.2014 15.4106C24.6672 15.4106 25.8555 16.5395 25.8555 17.9321L25.8555 33.9774C25.8555 35.3699 24.6672 36.4988 23.2014 36.4988C21.7356 36.4988 20.5474 35.3699 20.5474 33.9774L20.5474 17.9321C20.5474 16.5395 21.7356 15.4106 23.2014 15.4106Z" fill="#16DB93"/>
</svg>
