<svg width="16" height="16" viewBox="0 0 16 16" fill="none" xmlns="http://www.w3.org/2000/svg">
<g clip-path="url(#clip0_750_9770)">
<path fill-rule="evenodd" clip-rule="evenodd" d="M7 1.55556C3.99312 1.55556 1.55556 3.99312 1.55556 7C1.55556 10.0069 3.99312 12.4444 7 12.4444C10.0069 12.4444 12.4444 10.0069 12.4444 7C12.4444 3.99312 10.0069 1.55556 7 1.55556ZM0 7C0 3.13401 3.13401 0 7 0C10.866 0 14 3.13401 14 7C14 10.866 10.866 14 7 14C3.13401 14 0 10.866 0 7Z" fill="#F5F7FF"/>
<path fill-rule="evenodd" clip-rule="evenodd" d="M11.5 11.4998C11.8075 11.1923 12.0368 10.9229 12.3443 11.2304L15.7695 14.6556C16.077 14.9631 16.077 15.4617 15.7695 15.7692C15.462 16.0767 14.9634 16.0767 14.6559 15.7692L11.2307 12.344C10.9232 12.0365 11.1925 11.8073 11.5 11.4998Z" fill="#F5F7FF"/>
</g>
<defs>
<clipPath id="clip0_750_9770">
<rect width="16" height="16" fill="white"/>
</clipPath>
</defs>
</svg>
