<svg width="20" height="16" viewBox="0 0 20 16" fill="none" xmlns="http://www.w3.org/2000/svg">
<path fill-rule="evenodd" clip-rule="evenodd" d="M10.0498 0.408011C10.2049 0.683243 10.1838 1.02392 9.99604 1.27798C9.31136 2.20427 8.98189 3.34555 9.06755 4.49423C9.15321 5.64291 9.64831 6.72269 10.4628 7.53719C11.2773 8.35169 12.3571 8.84679 13.5058 8.93245C14.6545 9.01811 15.7957 8.68864 16.722 8.00396C16.9761 7.81616 17.3168 7.79513 17.592 7.95025C17.8672 8.10536 18.0257 8.40768 17.9966 8.72227C17.8565 10.2382 17.2876 11.683 16.3563 12.8874C15.4251 14.0918 14.1702 15.0061 12.7383 15.5233C11.3064 16.0405 9.75685 16.1392 8.27092 15.8079C6.78498 15.4766 5.42414 14.7289 4.34763 13.6524C3.27111 12.5759 2.52345 11.215 2.19212 9.72908C1.86079 8.24315 1.95951 6.69359 2.47671 5.26171C2.99391 3.82984 3.90822 2.57487 5.11263 1.64366C6.31705 0.712447 7.76176 0.143509 9.27773 0.0034143C9.59232 -0.025658 9.89464 0.13278 10.0498 0.408011ZM7.8337 1.95499C7.21042 2.1805 6.62275 2.50241 6.09317 2.91187C5.12963 3.65684 4.39819 4.66081 3.98443 5.80631C3.57066 6.95181 3.49169 8.19146 3.75676 9.38021C4.02182 10.569 4.61995 11.6576 5.48116 12.5188C6.34237 13.3801 7.43105 13.9782 8.61979 14.2432C9.80854 14.5083 11.0482 14.4293 12.1937 14.0156C13.3392 13.6018 14.3432 12.8704 15.0881 11.9068C15.4976 11.3772 15.8195 10.7896 16.045 10.1663C15.2009 10.4717 14.2955 10.5988 13.3866 10.5311C11.855 10.4169 10.4153 9.75672 9.32928 8.67072C8.24328 7.58473 7.58314 6.14502 7.46893 4.61344C7.40115 3.70453 7.52831 2.7991 7.8337 1.95499Z" fill="#2F3348"/>
</svg>
