<svg width="18" height="20" viewBox="0 0 18 20" fill="none" xmlns="http://www.w3.org/2000/svg">
<path fill-rule="evenodd" clip-rule="evenodd" d="M6.319 0.786622L10.3727 0.786624C10.8393 0.786624 11.2176 1.25412 11.2176 1.83081C11.2176 2.4075 10.8393 2.875 10.3727 2.875L6.37887 2.875C5.12398 2.875 4.2678 2.87722 3.62607 2.98385C3.00864 3.08645 2.71768 3.26817 2.51839 3.51447C2.3191 3.76078 2.17207 4.12039 2.08906 4.88349C2.00279 5.67663 2.00099 6.73482 2.00099 8.28579L2.00099 11.7031C2.00099 13.2541 2.00279 14.3123 2.08906 15.1054C2.17207 15.8685 2.3191 16.2281 2.51839 16.4745C2.71768 16.7208 3.00864 16.9025 3.62607 17.0051C4.2678 17.1117 5.12398 17.1139 6.37887 17.1139L10.3727 17.1139C10.8393 17.1139 11.2176 17.5814 11.2176 18.1581C11.2176 18.7348 10.8393 19.2023 10.3727 19.2023L6.319 19.2023C5.13896 19.2023 4.16847 19.2024 3.40092 19.0748C2.59612 18.9411 1.88915 18.6502 1.32359 17.9512C0.758022 17.2522 0.522624 16.3784 0.414422 15.3837C0.311227 14.4351 0.311251 13.2356 0.311281 11.7771L0.31128 8.21179C0.311251 6.75334 0.311227 5.55387 0.414422 4.60522C0.522624 3.61054 0.758021 2.73677 1.32359 2.03777C1.88915 1.33877 2.59612 1.04783 3.40092 0.914099C4.16847 0.786557 5.13896 0.786586 6.319 0.786622Z" fill="#2F3348"/>
<path fill-rule="evenodd" clip-rule="evenodd" d="M11.9923 0.786622L7.93855 0.786623C7.47195 0.786623 7.09369 1.25412 7.09369 1.83081C7.09369 2.4075 7.47195 2.875 7.93855 2.875L11.9324 2.875C13.1873 2.875 14.0435 2.87722 14.6852 2.98385C15.3026 3.08645 15.5936 3.26817 15.7929 3.51447C15.9922 3.76078 16.1392 4.12039 16.2222 4.88349C16.3085 5.67663 16.3103 6.73482 16.3103 8.28579L16.3103 11.7031C16.3103 13.2541 16.3085 14.3123 16.2222 15.1054C16.1392 15.8685 15.9922 16.2281 15.7929 16.4745C15.5936 16.7208 15.3026 16.9025 14.6852 17.0051C14.0435 17.1117 13.1873 17.1139 11.9324 17.1139L7.93855 17.1139C7.47195 17.1139 7.09369 17.5814 7.09369 18.1581C7.09369 18.7348 7.47195 19.2023 7.93855 19.2023L11.9923 19.2023C13.1723 19.2023 14.1428 19.2024 14.9104 19.0748C15.7152 18.9411 16.4221 18.6502 16.9877 17.9512C17.5533 17.2522 17.7887 16.3784 17.8969 15.3837C18.0001 14.4351 18 13.2356 18 11.7771L18 8.21179C18 6.75334 18.0001 5.55387 17.8969 4.60522C17.7887 3.61054 17.5533 2.73677 16.9877 2.03777C16.4221 1.33877 15.7152 1.04783 14.9104 0.914098C14.1428 0.786556 13.1723 0.786586 11.9923 0.786622Z" fill="#2F3348"/>
<path fill-rule="evenodd" clip-rule="evenodd" d="M9.39638 0.786621C9.87173 0.786621 10.2571 1.76317 10.2571 2.9678L10.2571 16.848C10.2571 18.0527 9.87173 19.0292 9.39638 19.0292C8.92102 19.0292 8.53568 18.0527 8.53568 16.848L8.53568 2.9678C8.53568 1.76317 8.92102 0.786621 9.39638 0.786621Z" fill="#2F3348"/>
</svg>
