<svg width="48" height="48" viewBox="0 0 48 48" fill="none" xmlns="http://www.w3.org/2000/svg">
<g clip-path="url(#clip0_645_15585)">
<path d="M32.0444 48.0794L14.8674 47.0051L15.9388 46.2183L29.0379 47.3368C30.6881 47.4732 33.8113 47.7811 33.1024 47.9214C32.3934 48.0616 32.0926 48.0872 32.0444 48.0794Z" fill="#6D7080"/>
<path d="M20.2426 41.2741C20.1314 41.1067 20.0202 40.9383 19.909 40.7647C19.7919 40.5856 19.6808 40.4004 19.5696 40.2106C19.4525 40.0203 19.3355 39.8188 19.2243 39.6235C19.1014 39.3991 18.9727 39.1696 18.8556 38.9346C18.7327 38.7051 18.6157 38.4644 18.4986 38.2243C18.4401 38.1062 18.3816 37.9893 18.3289 37.8656C18.2763 37.7542 18.2236 37.6417 18.1768 37.5303L18.1592 37.4962C18.0012 37.1374 17.8432 36.7748 17.7028 36.3998C17.6091 36.1759 17.5213 35.9515 17.4453 35.722C17.429 35.6895 17.4154 35.6558 17.4044 35.6213C17.3107 35.3526 17.2171 35.0901 17.1293 34.8159C17.0357 34.5467 16.9538 34.2724 16.866 33.9982C16.784 33.7184 16.708 33.4385 16.6319 33.1587C16.6026 33.058 16.5733 32.9522 16.55 32.8514C16.468 32.5486 16.3919 32.2352 16.3217 31.9279C16.3217 31.9223 16.3159 31.9106 16.3159 31.905C16.2691 31.6928 16.2222 31.4796 16.1813 31.2608C16.1637 31.1942 16.1462 31.1209 16.1345 31.0487C16.0993 30.8808 16.0701 30.7134 16.0408 30.545C16.0057 30.3659 15.9706 30.1862 15.9414 30.0082C15.9004 29.7558 15.8595 29.5045 15.8244 29.2465C15.7776 28.9448 15.7366 28.6365 15.7015 28.3292L15.6663 28.0439C15.637 27.7361 15.6019 27.4277 15.5785 27.1204C15.5726 27.0757 15.5726 27.0254 15.5668 26.9805C15.5609 26.868 15.5492 26.7566 15.5434 26.6447C15.5317 26.493 15.52 26.3369 15.5141 26.1858C15.5082 26.085 15.5024 25.9781 15.4965 25.8774C15.4848 25.7548 15.4848 25.6317 15.479 25.5024C15.479 25.452 15.4731 25.4022 15.4731 25.3462C15.4673 25.2175 15.4614 25.0881 15.4614 24.9606C15.4614 24.8923 15.4556 24.8207 15.4556 24.7524C15.4497 24.5067 15.4497 24.2543 15.4497 24.003V23.7843C15.4497 23.5436 15.4497 23.3035 15.4614 23.0628C15.4673 22.7545 15.479 22.4472 15.4965 22.1394C15.5024 21.9149 15.5141 21.6972 15.5316 21.4789C15.5324 21.4266 15.5363 21.3745 15.5433 21.3227C15.5492 21.199 15.5609 21.0753 15.5726 20.9516C15.5736 20.9031 15.5775 20.8547 15.5843 20.8067C15.6077 20.5386 15.637 20.2643 15.6662 20.0007C15.6955 19.7103 15.7306 19.4192 15.7716 19.1327C15.8242 18.7633 15.8769 18.4006 15.9354 18.0363C15.9413 18.02 15.9413 17.9971 15.9471 17.9809C16.0115 17.6003 16.0817 17.2192 16.1578 16.8442C16.1637 16.8167 16.1695 16.7826 16.1754 16.7541C16.2397 16.4581 16.3041 16.1674 16.3684 15.8822C16.3977 15.7367 16.4328 15.59 16.4738 15.4501C16.5381 15.1882 16.6084 14.9246 16.6786 14.6677L16.6962 14.6C16.7664 14.3431 16.8425 14.0851 16.9244 13.8338C16.9419 13.7605 16.9653 13.6938 16.9888 13.6205C17.2054 12.9316 17.4394 12.2661 17.6969 11.6169C17.8256 11.2973 17.9543 10.9794 18.089 10.6661C18.0897 10.6661 18.0905 10.6659 18.0912 10.6657C18.092 10.6654 18.0926 10.665 18.0932 10.6645C18.0937 10.6639 18.0941 10.6633 18.0944 10.6626C18.0947 10.6619 18.0948 10.6612 18.0948 10.6605C18.2177 10.375 18.3465 10.0885 18.4869 9.80864C18.5162 9.74205 18.5455 9.67544 18.5806 9.61338C18.8498 9.0537 19.1424 8.51697 19.4467 7.99648C19.5988 7.73287 19.7568 7.47486 19.9149 7.22916C19.9266 7.20732 19.9441 7.18438 19.9558 7.16255C20.1255 6.90446 20.2952 6.65317 20.4708 6.40698C20.5702 6.2553 20.6815 6.10984 20.7927 5.96428C20.8453 5.88592 20.9039 5.80807 20.9624 5.72922C21.1672 5.46618 21.372 5.21431 21.5769 4.96856C21.5886 4.95625 21.6003 4.94001 21.612 4.92939C21.7641 4.74973 21.9221 4.57622 22.0743 4.40889C22.2323 4.23484 22.3903 4.06693 22.5542 3.91021C22.7122 3.74847 22.876 3.59119 23.0399 3.44008C23.2038 3.28953 23.3735 3.13729 23.5432 2.99738C23.7012 2.85746 23.865 2.72986 24.0289 2.60058C24.1108 2.53958 24.1934 2.47186 24.2747 2.41086C24.4146 2.30452 24.5556 2.20266 24.7019 2.10807C24.737 2.08567 24.7663 2.06273 24.8013 2.0409C24.9769 1.92281 25.146 1.80584 25.328 1.70006C25.5042 1.59309 25.685 1.48682 25.8664 1.38608C26.0478 1.29149 26.224 1.19636 26.4118 1.10625H26.4172C26.5524 1.03854 26.6858 0.983117 26.821 0.921551C26.9497 0.860545 27.0779 0.810168 27.2131 0.753645C27.4003 0.68145 27.5877 0.61372 27.7796 0.552154C27.8738 0.518569 27.9674 0.491148 28.061 0.457071C28.1547 0.429089 28.2483 0.401668 28.3478 0.378712C28.4414 0.351291 28.5409 0.322681 28.6346 0.300914C28.8224 0.25614 29.0214 0.216969 29.2145 0.177221C29.3082 0.160989 29.4018 0.143636 29.4954 0.126844H29.5013C29.5124 0.126844 29.5183 0.12175 29.53 0.12175C29.6359 0.103837 29.7412 0.0932083 29.8466 0.0769762C29.946 0.065787 30.0397 0.0540374 30.1392 0.0428312C30.1898 0.0418102 30.2404 0.0382568 30.2907 0.0321853C30.3493 0.0321853 30.413 0.0265822 30.4844 0.0209961L30.5137 0.154197C29.3082 0.361835 28.1377 0.787195 27.0252 1.39724C25.0472 2.47736 23.2447 4.15641 21.7056 6.30554C20.1548 8.48269 18.8849 11.1355 18.0012 14.1242C17.1117 17.1414 16.6201 20.4821 16.6201 24.003C16.6201 27.524 17.1117 30.8641 18.0012 33.8746C18.8849 36.87 20.1548 39.5228 21.7056 41.6938C23.2447 43.8486 25.0472 45.522 27.0252 46.6072C28.1377 47.2184 29.3082 47.6381 30.5137 47.8447L30.4844 47.9846C30.0338 47.9571 29.5858 47.8991 29.1437 47.8111H29.132C29.0793 47.7999 29.0267 47.7892 28.974 47.778C28.9161 47.7663 28.8634 47.7551 28.8037 47.7389C28.7458 47.7266 28.6931 47.7159 28.6346 47.6991C28.5825 47.6885 28.524 47.6711 28.4655 47.66C28.1904 47.5866 27.9206 47.5037 27.652 47.4087C27.4642 47.3409 27.2769 47.2743 27.0908 47.1954C26.9784 47.1506 26.8737 47.1059 26.7625 47.0555C26.6858 47.0219 26.6103 46.9889 26.5343 46.9497C26.4517 46.9156 26.3762 46.8764 26.2996 46.8367C26.279 46.8264 26.2576 46.8174 26.2358 46.8098C26.1474 46.765 26.0655 46.7197 25.9842 46.6749C25.8607 46.6072 25.7313 46.5406 25.609 46.4673C25.5511 46.4399 25.4978 46.4063 25.4387 46.3722C25.1818 46.216 24.9249 46.0543 24.6791 45.8803C24.503 45.7571 24.3274 45.6346 24.1577 45.5002C23.988 45.371 23.8124 45.2366 23.6486 45.0967C23.6251 45.0749 23.5959 45.0519 23.5725 45.0301C23.4555 44.9282 23.3325 44.8281 23.2214 44.7273C23.1947 44.7065 23.1693 44.6843 23.1453 44.6607C22.9814 44.5085 22.8176 44.3523 22.6537 44.1962C22.4255 43.9667 22.1914 43.7316 21.969 43.4787C21.8637 43.3617 21.7583 43.2442 21.653 43.1216C21.6062 43.0656 21.5536 43.0091 21.5067 42.9531C21.4832 42.9266 21.4617 42.8986 21.4423 42.8692C21.4175 42.8445 21.394 42.8185 21.3721 42.7914C21.2667 42.6621 21.1614 42.5278 21.056 42.3935C20.9741 42.2877 20.898 42.1869 20.8161 42.0795C20.7517 41.9899 20.6874 41.9015 20.623 41.812C20.5176 41.672 20.4123 41.5265 20.3187 41.3748C20.2911 41.3428 20.2657 41.3092 20.2426 41.2741" fill="#6D7080"/>
<path d="M24.8308 34.178C24.7664 34.0599 24.7073 33.9374 24.6435 33.8193C24.7196 33.685 24.8016 33.5624 24.8776 33.4281C24.9069 33.372 24.9303 33.3156 24.9596 33.2596C25.1234 32.9467 25.2873 32.6277 25.4336 32.2925C25.4922 32.1632 25.5448 32.0289 25.5975 31.8996C25.7087 31.6309 25.8257 31.3629 25.9246 31.0886C25.9843 30.9313 26.0311 30.7696 26.0838 30.6135C26.1704 30.3554 26.2588 30.0918 26.3354 29.8293C26.3875 29.6446 26.4348 29.4544 26.4817 29.2697C26.5578 28.9842 26.6279 28.6932 26.6918 28.3966C26.7049 28.3506 26.7148 28.3038 26.7217 28.2566C26.8095 27.8313 26.8791 27.406 26.9447 26.9699C26.95 26.9252 26.9558 26.8854 26.9616 26.8407C27.0254 26.3817 27.0722 25.9172 27.1021 25.4471C27.1069 25.421 27.1089 25.3946 27.1079 25.3682C27.143 24.8874 27.1606 24.3943 27.1606 23.9024C27.1606 23.4093 27.143 22.9179 27.1079 22.4355C27.1079 22.403 27.1021 22.3633 27.1021 22.3297C27.067 21.8595 27.0201 21.3894 26.9616 20.9305C26.9558 20.9137 26.9558 20.8908 26.9499 20.8745C26.885 20.4211 26.8089 19.9734 26.7217 19.5312C26.7159 19.5083 26.71 19.4809 26.7041 19.4523C26.6105 19.0051 26.5058 18.5574 26.3823 18.1265C26.3823 18.1209 26.3764 18.1153 26.3764 18.1091C26.2529 17.6782 26.1183 17.2585 25.972 16.8442C25.9486 16.7832 25.9246 16.7272 25.9018 16.6651C25.7848 16.3416 25.656 16.022 25.5214 15.7136C25.4804 15.619 25.4389 15.5239 25.3985 15.4288C25.2347 15.07 25.0655 14.7236 24.8835 14.3878C24.8777 14.3827 24.8777 14.376 24.8724 14.3704C24.7958 14.2305 24.7138 14.1079 24.6377 13.9736C24.0677 15.0745 23.6091 16.225 23.2683 17.4095C22.6949 19.3913 22.3789 21.5852 22.3789 23.886C22.3789 26.1913 22.6949 28.3852 23.2683 30.3659C23.6663 31.7545 24.1988 33.03 24.8309 34.1779L24.8308 34.178ZM46.9057 15.1653C47.6133 17.9027 47.9995 20.8801 47.9995 24.0031C47.9995 27.1205 47.6133 30.1036 46.9057 32.8343C46.1912 35.5823 45.156 38.0958 43.862 40.25C42.5511 42.4276 40.9769 44.241 39.2043 45.5725C37.4077 46.9157 35.4004 47.7608 33.2585 47.9567C32.3426 48.0403 31.419 48.0028 30.5139 47.8453C29.3084 47.6382 28.1379 47.2185 27.0254 46.6079C25.0468 45.5221 23.2449 43.8487 21.7058 41.6939C20.1549 39.5229 18.885 36.8701 18.0014 33.8752C17.1118 30.8647 16.6202 27.5241 16.6202 24.0031C16.6202 20.4821 17.1118 17.1415 18.0014 14.1248C18.885 11.1361 20.1549 8.48328 21.7058 6.30559C23.2449 4.15644 25.0468 2.47741 27.0254 1.39723C28.1379 0.787683 29.3083 0.36239 30.5139 0.154753C31.419 -0.00319757 32.3426 -0.0408507 33.2585 0.0428605C35.4004 0.238748 37.4076 1.08385 39.2043 2.43267C40.9769 3.75966 42.5511 5.57861 43.862 7.75518C45.1559 9.90545 46.1912 12.4173 46.9057 15.1653Z" fill="#2F3348"/>
<path d="M30.4137 0.0209961H30.4839C30.4137 0.0265992 30.3499 0.0322363 30.2908 0.0322363C30.3079 0.0276477 30.3257 0.0257552 30.3434 0.0266332C30.367 0.0263885 30.3904 0.0245159 30.4137 0.0210301" fill="#2F3348"/>
<path d="M30.2913 0.0322266C30.2407 0.0387331 30.1897 0.042469 30.1386 0.0434158C30.0859 0.0485095 30.0339 0.0540447 29.987 0.0540447L29.7167 0.0663546C29.9045 0.0540617 30.0982 0.0434158 30.2913 0.0322266Z" fill="#2F3348"/>
<path d="M29.7171 0.0664031L29.9869 0.0546875C29.5767 0.0826351 29.1904 0.111177 28.1956 0.172183C28.477 0.149244 28.7696 0.127409 29.0734 0.111177C29.2841 0.0938244 29.5013 0.0826351 29.7171 0.0664031Z" fill="#2F3348"/>
<path d="M28.9746 47.7789C29.0267 47.7901 29.0794 47.8007 29.1315 47.8119C29.0209 47.7901 28.9155 47.7672 28.8043 47.7397C28.8634 47.756 28.9155 47.7672 28.9746 47.7789Z" fill="#2F3348"/>
<path d="M29.1319 47.8112L26.5394 47.6495C27.1375 47.6383 27.7274 47.6383 28.4654 47.6601C28.524 47.6713 28.5824 47.6887 28.6345 47.6998C28.6931 47.7161 28.7457 47.7273 28.8042 47.739C28.9161 47.7664 29.0213 47.7894 29.1319 47.8112" fill="#2F3348"/>
<path d="M26.1591 0.289286L29.0734 0.111328C28.7697 0.12756 28.4771 0.149378 28.1956 0.172334C28.1488 0.172334 28.102 0.177937 28.0493 0.177937C28.0324 0.182556 28.0148 0.18445 27.9972 0.18354C27.5285 0.211505 26.9315 0.244512 26.1591 0.289286Z" fill="#6D7080"/>
<path d="M28.6345 0.300973C28.7281 0.278051 28.8276 0.256233 28.9213 0.233277C29.0149 0.211442 29.1144 0.194106 29.2139 0.177246C29.0208 0.217045 28.8218 0.256233 28.6345 0.300973Z" fill="#6D7080"/>
<path d="M28.3478 0.378906C28.2483 0.401845 28.1547 0.429283 28.061 0.457825C28.1547 0.429283 28.2542 0.401845 28.3478 0.378906Z" fill="#6D7080"/>
<path d="M26.7625 47.0563C26.6988 47.0277 26.6332 47.0002 26.5694 46.9723C26.4758 46.9275 26.3874 46.8878 26.2996 46.8374C26.3762 46.8772 26.4517 46.9163 26.5336 46.9505C26.6103 46.9896 26.6858 47.0221 26.7625 47.0563" fill="#2F3348"/>
<path d="M25.9841 46.6758C26.0655 46.7206 26.1475 46.7653 26.2358 46.8101C26.1475 46.7653 26.0655 46.7261 25.9841 46.6758Z" fill="#2F3348"/>
<path d="M25.6096 46.4678C25.7319 46.5411 25.8606 46.6077 25.9847 46.6754C25.8549 46.6144 25.7296 46.5451 25.6096 46.4678Z" fill="#2F3348"/>
<path d="M24.7957 2.0415H24.8016C24.7665 2.06334 24.7372 2.08628 24.7021 2.10811C24.732 2.08628 24.7665 2.06334 24.7958 2.0415" fill="#6D7080"/>
<path d="M23.6896 0.440918L22.8469 0.496881C22.9406 0.485692 23.0342 0.478968 23.1278 0.473942C23.2917 0.468288 23.4907 0.45715 23.6896 0.440918Z" fill="#2F3348"/>
<path d="M23.2214 44.7275C23.3326 44.8283 23.4555 44.9285 23.5726 45.0303C23.4555 44.9352 23.3385 44.8334 23.2215 44.7275" fill="#2F3348"/>
<path d="M22.7063 0.776916C22.8702 0.726539 23.034 0.687368 23.1979 0.642594C23.3559 0.602863 23.5197 0.569278 23.6895 0.536254C23.8533 0.502669 24.0172 0.474127 24.1811 0.452309C24.3449 0.423767 24.5146 0.407535 24.6791 0.391303C24.8072 0.378993 24.936 0.368365 25.0653 0.357158C25.1929 0.351555 25.3281 0.339806 25.4574 0.33422C25.7085 0.317988 25.9431 0.306798 26.1591 0.289446C26.9316 0.244672 27.5285 0.211647 27.9966 0.183105C25.8723 0.345969 24.287 0.513315 22.7063 0.776916Z" fill="#2F3348"/>
<path d="M22.4957 47.1622C22.3201 46.8662 23.2447 46.4245 25.4387 46.373C25.4978 46.4066 25.5511 46.4408 25.609 46.4681C25.7292 46.545 25.8545 46.6144 25.9841 46.6758C26.0655 46.7261 26.1475 46.7653 26.2358 46.8101C26.2576 46.8179 26.2789 46.8271 26.2996 46.8375C26.3873 46.8879 26.4757 46.9271 26.5694 46.9718C26.6332 47.0004 26.6988 47.0279 26.7626 47.0563C26.8737 47.1062 26.9785 47.1509 27.0909 47.1963C27.277 47.2746 27.4642 47.3412 27.6521 47.4089C26.3465 47.386 25.0467 47.5601 23.7423 47.4761C23.6369 47.4593 23.5316 47.4364 23.4262 47.4145C23.3268 47.3916 23.2214 47.3642 23.1161 47.3412C23.0107 47.3138 22.9112 47.2858 22.8059 47.2573C22.7065 47.2243 22.6011 47.1963 22.4957 47.1622" fill="#2F3348"/>
<path d="M23.0398 3.44092C22.8759 3.59203 22.7121 3.74929 22.5541 3.91105C22.7121 3.74929 22.8759 3.59203 23.0398 3.44092Z" fill="#2F3348"/>
<path d="M21.337 46.726C21.1789 46.6594 21.0209 46.5861 20.8688 46.5072C20.7108 46.435 20.5528 46.351 20.4006 46.2721C20.2485 46.1882 20.0963 46.0998 19.9441 46.0102C19.792 45.9206 19.6398 45.8255 19.4936 45.7304C19.3942 45.108 20.3423 44.3636 22.6538 44.1963C22.8177 44.353 22.9815 44.5091 23.1454 44.6614C23.1694 44.685 23.1948 44.7072 23.2215 44.728C23.3385 44.8338 23.4556 44.9356 23.5726 45.0308C23.596 45.0526 23.6253 45.0755 23.6487 45.0974C23.8125 45.2373 23.9881 45.3716 24.1578 45.5009C24.3275 45.6352 24.5031 45.7578 24.6793 45.8809C22.0159 45.9816 21.4541 46.5072 21.3371 46.726" fill="#2F3348"/>
<path d="M22.2967 0.53125C22.2206 0.536853 22.1445 0.542439 22.0684 0.547482C22.0553 0.54239 22.0406 0.54239 22.0275 0.547482L22.2967 0.53125Z" fill="#6D7080"/>
<path d="M21.5066 42.9531C21.5534 43.0092 21.606 43.0656 21.6529 43.1216C21.6061 43.0656 21.5535 43.0091 21.5066 42.9531Z" fill="#6D7080"/>
<path d="M21.3721 42.7915C21.394 42.8186 21.4175 42.8446 21.4423 42.8693C21.413 42.8419 21.3955 42.8133 21.3721 42.7915Z" fill="#2F3348"/>
<path d="M20.623 41.8121C20.6874 41.9017 20.7518 41.9901 20.8162 42.0796C20.6464 41.8502 20.4767 41.6151 20.3187 41.375C20.4124 41.5267 20.5177 41.6721 20.623 41.8121" fill="#2F3348"/>
<path d="M20.5292 6.31752C20.6112 6.19943 20.6989 6.08246 20.7926 5.96436C20.6814 6.10988 20.5702 6.25545 20.4707 6.40707C20.4878 6.37585 20.5074 6.34591 20.5293 6.31752" fill="#6D7080"/>
<path d="M19.6868 2.14731C19.8389 2.05776 19.9911 1.96261 20.1432 1.87867C20.2954 1.78967 20.4476 1.70572 20.5997 1.62682C20.7577 1.54846 20.9099 1.47061 21.0679 1.39734C21.22 1.32515 21.378 1.25742 21.5361 1.19083C23.8594 0.597016 27.0084 0.31214 29.4956 0.127441C29.4019 0.143673 29.3077 0.161026 29.2141 0.177258C29.1147 0.19405 29.0151 0.211403 28.9215 0.233289C28.8278 0.256228 28.7284 0.278063 28.6347 0.301002C28.5411 0.322837 28.4416 0.351379 28.348 0.3788C28.2543 0.401739 28.1548 0.429177 28.0612 0.457159C27.967 0.491304 27.8733 0.518725 27.7797 0.552242C27.5877 0.613808 27.4005 0.681521 27.2126 0.753733C24.1461 1.0727 21.7526 1.51543 19.6868 2.14731Z" fill="#2F3348"/>
<path d="M20.2426 41.2741C20.2657 41.3092 20.2911 41.3428 20.3187 41.3749C20.4767 41.615 20.6464 41.85 20.8161 42.0795C20.898 42.187 20.9741 42.2877 21.056 42.3935C21.1614 42.5278 21.2667 42.6621 21.3721 42.7914C21.3955 42.8132 21.413 42.8418 21.4423 42.8692C21.4617 42.8986 21.4832 42.9266 21.5067 42.9531C21.5535 43.0092 21.6061 43.0656 21.653 43.1216C21.7583 43.2442 21.8637 43.3617 21.969 43.4787C19.3355 43.7087 18.6099 44.5034 18.4109 44.9512C18.2704 44.8398 18.1241 44.7217 17.9837 44.598C17.8432 44.4811 17.7028 44.3579 17.5623 44.2286C17.4218 44.101 17.2873 43.9718 17.1469 43.8374C17.0122 43.7087 16.8775 43.5688 16.743 43.4289C16.7255 42.5563 17.7964 41.493 20.1958 41.2075C20.2133 41.2294 20.225 41.2523 20.2426 41.2741" fill="#2F3348"/>
<path d="M20.1081 6.92772C20.2251 6.74863 20.348 6.58016 20.4709 6.40723C20.2954 6.65342 20.1256 6.90472 19.9559 7.1628C20.0086 7.08388 20.0554 7.00552 20.1081 6.92774" fill="#6D7080"/>
<path d="M19.7043 7.56482C19.7745 7.45343 19.8447 7.34207 19.915 7.229C19.7569 7.4752 19.5989 7.73328 19.4468 7.99632C19.5287 7.8503 19.6165 7.70472 19.7042 7.56482" fill="#6D7080"/>
<path d="M18.8556 38.9354C18.9726 39.1705 19.1014 39.3999 19.2243 39.6238C19.3355 39.8197 19.4525 40.0206 19.5696 40.2109C19.5808 40.2383 19.5945 40.2647 19.6105 40.2898C17.0356 40.6307 16.1109 41.5995 15.7832 42.3494C15.6603 42.1927 15.5316 42.0354 15.4086 41.8737C15.2857 41.7108 15.1628 41.5491 15.0399 41.3806C14.9229 41.2189 14.8058 41.0454 14.6888 40.8712C14.5718 40.7039 14.4547 40.5249 14.3435 40.3457C14.4606 39.2097 15.6837 37.8893 18.1592 37.4971C18.165 37.5077 18.1709 37.52 18.1767 37.5307C18.2236 37.6476 18.2762 37.7551 18.3289 37.8665C18.3816 37.9901 18.4401 38.1071 18.4986 38.2247C18.6156 38.4654 18.7327 38.706 18.8556 38.9355" fill="#2F3348"/>
<path d="M18.7736 9.2168C18.7093 9.34552 18.6449 9.47928 18.5805 9.6136C18.5459 9.67736 18.5146 9.74274 18.4869 9.80949C18.4631 9.84938 18.4416 9.89049 18.4225 9.93262C18.3113 10.1733 18.2001 10.4139 18.0948 10.6608L18.0889 10.6664C17.9777 10.9176 17.8723 11.1701 17.7729 11.4213C17.7436 11.4885 17.7202 11.5506 17.6968 11.6172C17.6149 11.8075 17.5447 12.004 17.4686 12.1999C14.8586 12.7595 12.7459 13.8341 11.0195 15.4846L11.2127 14.7794C11.277 14.5449 11.3473 14.3149 11.4175 14.0854C11.4877 13.8559 11.5579 13.6265 11.6341 13.4032C11.7102 13.1793 11.7862 12.9554 11.8682 12.7366C13.4424 11.0688 16.0231 9.75352 18.7736 9.2168Z" fill="#2F3348"/>
<path d="M18.4228 9.93229C18.442 9.89002 18.4635 9.84874 18.4871 9.80859C18.3467 10.0884 18.218 10.375 18.0951 10.6605C18.2004 10.4131 18.3117 10.173 18.4228 9.93237" fill="#6D7080"/>
<path d="M18.5981 2.90293C20.4942 2.09196 23.2622 1.45338 26.4118 1.10693C26.224 1.19648 26.0484 1.29163 25.8664 1.38677C25.685 1.4875 25.5042 1.59328 25.328 1.70074C25.1466 1.80652 24.9769 1.92349 24.8013 2.04158H24.7955C24.7662 2.06342 24.7317 2.08636 24.7018 2.10819C24.5555 2.20327 24.4151 2.30515 24.2746 2.41098C21.4071 2.80778 19.0018 3.45141 16.9185 4.39168C17.053 4.25175 17.1877 4.12416 17.3281 3.98927C17.4627 3.86055 17.6032 3.73119 17.7436 3.60925C17.8841 3.48555 18.0245 3.36186 18.1708 3.24498C18.3113 3.12689 18.4576 3.0155 18.5981 2.90302" fill="#2F3348"/>
<path d="M18.1769 37.5308C18.2237 37.6421 18.2763 37.7546 18.329 37.8666C18.2764 37.7546 18.2237 37.6477 18.1769 37.5308Z" fill="#2F3348"/>
<path d="M18.0952 10.6606C18.0952 10.6614 18.095 10.6622 18.0947 10.6629C18.0944 10.6636 18.094 10.6642 18.0934 10.6648C18.0929 10.6653 18.0922 10.6657 18.0914 10.666C18.0907 10.6663 18.0899 10.6665 18.0891 10.6664L18.0952 10.6606Z" fill="#6D7080"/>
<path d="M18.0891 10.666C17.9545 10.98 17.8258 11.2979 17.697 11.6168C17.7204 11.5503 17.7438 11.4881 17.7731 11.4216C17.8726 11.1697 17.9779 10.9179 18.0891 10.666Z" fill="#6D7080"/>
<path d="M17.4451 35.7227C17.5212 35.9521 17.609 36.1766 17.7026 36.4004C17.6324 36.2376 17.568 36.0635 17.5037 35.8967C17.4807 35.8398 17.4612 35.7817 17.4451 35.7227" fill="#2F3348"/>
<path d="M17.0708 13.3589C17.0416 13.4473 17.0122 13.5318 16.9889 13.6214C16.9655 13.6947 16.9421 13.7613 16.9245 13.8346C16.8836 13.946 16.8484 14.0641 16.8133 14.181C16.7724 14.3153 16.7372 14.4608 16.6963 14.6007C16.6904 14.6237 16.6846 14.6455 16.6787 14.6685C16.6436 14.7854 16.6085 14.9035 16.5793 15.0205C16.5442 15.166 16.509 15.3059 16.4739 15.4509C16.433 15.5908 16.3979 15.7374 16.3686 15.8829C16.2984 16.1684 16.234 16.459 16.1755 16.7549C13.6707 17.327 11.6459 18.5185 10.1594 20.2977C10.1887 20.0408 10.218 19.7834 10.2531 19.5265C10.2823 19.2684 10.3174 19.0167 10.3584 18.7642C10.3935 18.5073 10.4345 18.2556 10.4813 18.0092C10.5222 17.7573 10.5691 17.5117 10.6159 17.2592C11.6751 15.8153 13.9282 14.0299 17.0708 13.3589Z" fill="#2F3348"/>
<path d="M16.9244 13.834C16.8425 14.0853 16.7664 14.3434 16.6962 14.6002C16.7371 14.4603 16.7722 14.3147 16.8132 14.1804C16.8483 14.0635 16.8834 13.9454 16.9244 13.8341" fill="#6D7080"/>
<path d="M16.579 15.02C16.6083 14.903 16.6434 14.7849 16.6785 14.668C16.6082 14.9249 16.538 15.1885 16.4736 15.451C16.5088 15.3054 16.5439 15.1655 16.579 15.02" fill="#6D7080"/>
<path d="M16.3685 15.8823C16.3042 16.1678 16.2398 16.4586 16.1754 16.7549C16.2339 16.4582 16.2983 16.1674 16.3685 15.8823Z" fill="#6D7080"/>
<path d="M16.2866 31.7829C16.2515 31.6088 16.2106 31.4353 16.1813 31.2612C16.2222 31.4801 16.269 31.6933 16.3159 31.9055C16.3042 31.8658 16.2983 31.821 16.2866 31.7829" fill="#2F3348"/>
<path d="M16.0405 30.5458C16.0698 30.7143 16.0991 30.8816 16.1341 31.0495C16.1458 31.1217 16.1634 31.195 16.181 31.2617C16.2102 31.4357 16.2512 31.6092 16.2863 31.7833C16.298 31.8213 16.3039 31.8661 16.3156 31.9058C16.3156 31.9109 16.3214 31.9232 16.3214 31.9288C14.1152 32.381 12.582 33.4119 11.7627 34.9785C11.6866 34.7547 11.6105 34.5313 11.5403 34.3018C11.4642 34.0779 11.394 33.8479 11.3237 33.6185C11.2593 33.3834 11.1891 33.1539 11.1247 32.9189C11.0603 32.6839 11.0019 32.4487 10.9434 32.2086C11.3764 30.8094 12.8804 28.9563 15.7012 28.3301C15.7363 28.6374 15.7772 28.9457 15.8241 29.2474C15.8592 29.5055 15.9001 29.7568 15.9411 30.0091C15.947 30.0595 15.9587 30.1042 15.9645 30.1546C15.9879 30.2889 16.0113 30.4171 16.0406 30.5458" fill="#2F3348"/>
<path d="M15.9413 30.0093C15.9705 30.1873 16.0057 30.3669 16.0407 30.546C16.0116 30.4173 15.9881 30.2891 15.9647 30.1548C15.9588 30.1044 15.9471 30.0597 15.9413 30.0093Z" fill="#6D7080"/>
<path d="M15.953 5.4551C17.7789 4.33575 20.6172 3.41732 23.5433 2.99756C23.3736 3.13748 23.2039 3.2897 23.04 3.44025C22.8761 3.59137 22.7123 3.74863 22.5543 3.91039C22.3904 4.06711 22.2324 4.235 22.0744 4.40907C21.9222 4.57641 21.7642 4.7499 21.6121 4.92956C18.844 5.39406 16.5148 6.20507 14.49 7.42515C14.607 7.24661 14.7241 7.07815 14.8411 6.90466C14.9582 6.73731 15.0811 6.56886 15.204 6.40717C15.321 6.2387 15.4439 6.07621 15.5726 5.9197C15.6955 5.76349 15.8243 5.60628 15.953 5.45517" fill="#2F3348"/>
<path d="M15.7949 18.9489C15.8358 18.6416 15.8827 18.3388 15.9353 18.0371C15.8767 18.4009 15.8241 18.7641 15.7715 19.1335C15.7773 19.0725 15.789 19.0109 15.7949 18.9488" fill="#6D7080"/>
<path d="M15.6778 19.8726C15.7071 19.6213 15.7364 19.3751 15.7715 19.1338C15.7306 19.4198 15.6954 19.7108 15.6661 20.0013C15.6671 19.9581 15.671 19.9152 15.6778 19.8725" fill="#6D7080"/>
<path d="M15.5492 21.2213C15.555 21.1317 15.5609 21.0422 15.5726 20.9526C15.5609 21.0758 15.5492 21.1994 15.5433 21.3231C15.5433 21.289 15.5492 21.2554 15.5492 21.2213" fill="#2F3348"/>
<path d="M15.5434 26.6455C15.5317 26.5167 15.5259 26.3819 15.5142 26.2475V26.1865C15.52 26.3371 15.5317 26.4938 15.5434 26.6455Z" fill="#6D7080"/>
<path d="M15.4789 25.5034C15.4847 25.6321 15.4847 25.7558 15.4964 25.8784C15.4847 25.7558 15.4847 25.6322 15.4789 25.5034Z" fill="#2F3348"/>
<path d="M15.4616 24.9609C15.4616 25.0891 15.4674 25.2178 15.4733 25.3465C15.4684 25.3134 15.4665 25.2799 15.4674 25.2464C15.4615 25.1513 15.4615 25.0561 15.4615 24.9609" fill="#2F3348"/>
<path d="M10.4225 29.6664C10.3816 29.4151 10.3465 29.1627 10.3055 28.9108C10.2704 28.6539 10.2411 28.3959 10.2061 28.139C10.1768 27.8816 10.1534 27.6247 10.1241 27.3667C10.762 25.8449 12.541 23.824 15.4554 23.1294C15.4554 23.2027 15.4554 23.2749 15.4495 23.3482V24.0031C15.4495 24.2543 15.4495 24.5068 15.4554 24.753C15.4554 24.8207 15.4612 24.8929 15.4612 24.9607C15.4612 25.0557 15.4612 25.1509 15.4671 25.2461C15.4662 25.2796 15.4681 25.3131 15.473 25.3463C15.473 25.4023 15.4788 25.4526 15.4788 25.503C15.4847 25.6317 15.4847 25.7554 15.4964 25.8774C15.5022 25.9781 15.5081 26.0856 15.5139 26.1858V26.2474C15.5256 26.3817 15.5315 26.516 15.5432 26.6453C15.5491 26.7567 15.5608 26.868 15.5666 26.9805C13.2784 27.5117 11.593 28.6651 10.5571 30.4164C10.5103 30.1702 10.4635 29.9189 10.4225 29.6664Z" fill="#2F3348"/>
<path d="M20.7928 5.96504C20.6991 6.08313 20.6113 6.2001 20.5294 6.3182C20.5075 6.34659 20.488 6.37653 20.4708 6.40775C20.3479 6.58068 20.225 6.74859 20.108 6.92825C20.0553 7.00549 20.0086 7.08446 19.9558 7.16331C19.9441 7.18514 19.9266 7.20808 19.9149 7.22992C19.8446 7.34242 19.7744 7.45378 19.7042 7.56517C19.6164 7.70509 19.5286 7.8506 19.4468 7.99724C19.3999 8.07503 19.359 8.14779 19.3122 8.22671C16.626 8.7416 14.3963 9.69808 12.4944 11.1583C12.5822 10.9461 12.6758 10.7385 12.7694 10.5376C12.8631 10.3311 12.9626 10.1284 13.062 9.92754C13.1615 9.73165 13.261 9.53632 13.3605 9.33931C13.4658 9.144 13.5712 8.95367 13.6765 8.7635C15.4029 7.35305 18.13 6.21635 20.9625 5.72998C20.9039 5.8089 20.8454 5.88619 20.7928 5.96504Z" fill="#2F3348"/>
<path d="M15.2451 0.96682C16.7959 0.871669 18.3467 0.774656 19.8976 0.675781C19.8909 0.682694 19.883 0.688385 19.8742 0.692574C19.7045 0.708806 19.5406 0.731744 19.3709 0.75358C19.2012 0.782121 19.0373 0.810663 18.8734 0.843127C18.7037 0.877272 18.5399 0.916443 18.376 0.961217C18.2122 1.00095 18.0483 1.04572 17.8845 1.09554C17.703 0.871669 17.0534 0.871669 15.0403 0.982967C15.0634 0.97877 15.087 0.977061 15.1105 0.977874C15.1336 0.973235 15.1572 0.971353 15.1807 0.972271C15.2042 0.972271 15.2276 0.966667 15.2451 0.966667" fill="#2F3348"/>
<path d="M17.7028 36.4003C15.5668 36.7752 14.1681 37.6422 13.5361 38.991C13.4307 38.8007 13.3312 38.6048 13.2317 38.4095C13.1323 38.2125 13.0328 38.0116 12.9333 37.8106C12.8396 37.6092 12.7402 37.4071 12.6465 37.2006C12.5587 36.993 12.4651 36.7859 12.3773 36.5732C12.6348 35.3313 13.9047 33.6914 16.6318 33.1592C16.7079 33.439 16.784 33.7189 16.8659 33.9987C16.9537 34.2729 17.0356 34.5471 17.1293 34.8164C17.2171 35.0906 17.3107 35.3531 17.4044 35.6217C17.4154 35.6563 17.4291 35.6899 17.4453 35.7225C17.4614 35.7815 17.481 35.8396 17.5039 35.8965C17.5683 36.0633 17.6327 36.2374 17.7029 36.4002" fill="#2F3348"/>
<path d="M13.9281 46.8659H13.8872C13.8415 46.8602 13.7965 46.8507 13.7526 46.8374C13.8105 46.8502 13.8691 46.8597 13.9281 46.8659Z" fill="#2F3348"/>
<path d="M13.8111 1.15186C13.7525 1.16304 13.694 1.17369 13.6355 1.186C13.6941 1.17369 13.7525 1.16306 13.8111 1.15186Z" fill="#6D7080"/>
<path d="M13.3897 46.7598C14.168 46.8208 15.0634 46.9053 16.0114 47.0004C15.3852 46.9607 14.5601 46.9054 13.9281 46.8656C13.869 46.8595 13.8104 46.8502 13.7525 46.8376C13.7052 46.8309 13.6583 46.8217 13.612 46.8101C13.536 46.7928 13.4599 46.776 13.3896 46.7598" fill="#2F3348"/>
<path d="M14.8528 2.48304C14.6129 1.94071 13.7585 1.73308 11.798 1.73308C11.9852 1.66088 12.1784 1.59315 12.3656 1.53215C12.5587 1.46555 12.7519 1.40847 12.945 1.35252C13.1381 1.30271 13.3312 1.25235 13.5244 1.20757C13.5595 1.20197 13.6004 1.19078 13.6356 1.18574C13.6941 1.17343 13.7526 1.1628 13.8111 1.15159C13.9105 1.12865 14.0101 1.11242 14.1154 1.09556H14.1915C15.9413 1.02284 16.8601 1.06761 16.7255 1.51033C16.5675 1.57694 16.4036 1.64353 16.2515 1.71685C16.0876 1.7952 15.9354 1.8674 15.7774 1.9519C15.6194 2.03026 15.4673 2.12037 15.3093 2.20319C15.1571 2.29274 15.0049 2.38789 14.8528 2.48303" fill="#2F3348"/>
<path d="M13.3896 46.7598C13.4599 46.776 13.536 46.7928 13.612 46.8101C13.5647 46.8033 13.5178 46.7938 13.4716 46.7816C13.4436 46.7769 13.4161 46.7696 13.3896 46.7598Z" fill="#2F3348"/>
<path d="M12.5236 46.5196H12.5002C12.4416 46.5023 12.389 46.4805 12.3304 46.4575C12.393 46.483 12.4576 46.5037 12.5236 46.5196Z" fill="#2F3348"/>
<path d="M12.0788 4.72194C11.7276 3.87129 10.7561 3.46939 8.82495 3.37312C8.94199 3.28974 9.05318 3.20577 9.17023 3.13246C9.22882 3.08768 9.29312 3.04963 9.35164 3.00989C9.52721 2.8918 9.70864 2.7804 9.89005 2.67353C9.95442 2.63492 10.0188 2.59573 10.0832 2.56215C10.1768 2.50612 10.2704 2.4502 10.3699 2.4004C10.3934 2.38809 10.4109 2.37746 10.4343 2.36626C10.6157 2.26552 10.7971 2.17594 10.9844 2.08643H11.0605C12.2602 2.10826 13.852 2.24817 13.7818 3.22201C13.6355 3.33449 13.4892 3.44644 13.3429 3.56957C13.2024 3.68654 13.0561 3.81023 12.9157 3.9328C12.7752 4.05649 12.6348 4.1854 12.4943 4.31954C12.3538 4.44881 12.2134 4.58202 12.0789 4.72194" fill="#2F3348"/>
<path d="M15.5142 21.7539C14.6247 21.966 11.9092 22.6153 9.99558 25.4366C9.98973 25.3185 9.98973 25.2015 9.98388 25.0834C9.98388 24.9609 9.97803 24.8433 9.97803 24.7264C9.97217 24.6027 9.97217 24.4846 9.97217 24.362C9.96631 24.2439 9.96631 24.1213 9.96631 24.0037C9.96631 23.8526 9.96631 23.7015 9.97217 23.5498C9.97217 23.4043 9.97803 23.2538 9.97803 23.1083C9.98388 22.9571 9.98973 22.8111 9.99558 22.66C10.0014 22.5145 10.0073 22.3639 10.0131 22.2184C10.8734 20.6564 12.8865 18.7367 15.9355 18.0371C15.8828 18.3388 15.8361 18.6416 15.7951 18.9489C15.7892 19.0116 15.7775 19.0726 15.7717 19.1336C15.7366 19.3754 15.7073 19.6211 15.678 19.8729C15.6712 19.9155 15.6673 19.9585 15.6663 20.0016C15.6371 20.2652 15.6077 20.5395 15.5844 20.8076C15.5776 20.8556 15.5737 20.904 15.5727 20.9525C15.561 21.0426 15.5551 21.1322 15.5493 21.2217C15.5493 21.2553 15.5434 21.2895 15.5434 21.323C15.5364 21.375 15.5325 21.4273 15.5317 21.4797C15.5259 21.5693 15.52 21.6588 15.5142 21.754" fill="#2F3348"/>
<path d="M10.3525 45.5507C11.9034 45.7466 11.9034 45.7466 17.8433 46.8996C17.9369 46.927 18.0364 46.9556 18.1301 46.9841C18.2295 47.0059 18.329 47.0339 18.4227 47.0557C18.5221 47.0787 18.6216 47.101 18.7153 47.124C18.8147 47.1458 18.9142 47.1676 19.0137 47.185L17.9252 47.1173C16.1228 46.9158 14.332 46.6863 12.5237 46.519C12.4577 46.5033 12.3931 46.4826 12.3306 46.4569C12.196 46.4177 12.0614 46.3673 11.9268 46.3169C11.7395 46.2447 11.5522 46.1714 11.365 46.0875C11.1718 46.0046 10.9904 45.9201 10.8032 45.8306C10.6159 45.7354 10.4345 45.6403 10.2531 45.5396C10.2858 45.546 10.3191 45.5498 10.3525 45.5507" fill="#2F3348"/>
<path d="M10.3699 2.3999C10.2705 2.45028 10.1768 2.50568 10.0831 2.56165C10.1755 2.5026 10.2712 2.4486 10.3699 2.3999Z" fill="#2F3348"/>
<path d="M19.4936 45.7299C19.6399 45.825 19.7921 45.9202 19.9442 46.0097C20.0964 46.0993 20.2485 46.1877 20.4007 46.2722C20.5528 46.3506 20.7108 46.4351 20.8688 46.5073C21.021 46.5856 21.179 46.659 21.337 46.7256C21.4541 46.5073 22.0159 45.9812 24.6786 45.8804C24.9244 46.0545 25.1819 46.2163 25.4388 46.3724C23.2448 46.4239 22.3202 46.8655 22.4957 47.1621C22.6011 47.1957 22.7064 47.2242 22.8059 47.2572C22.9112 47.2852 23.0107 47.3137 23.1161 47.3411C23.2214 47.3641 23.3267 47.3915 23.4262 47.4144C23.5316 47.4363 23.6369 47.4592 23.7422 47.4754C25.0467 47.5594 26.3465 47.3859 27.6515 47.4088C27.9201 47.5039 28.1899 47.5868 28.4655 47.6601C27.7269 47.6383 27.1377 47.6383 26.5396 47.6495L29.1321 47.8112H29.1432C29.5852 47.8995 30.0333 47.9575 30.4839 47.9847L22.8937 47.5096L22.8995 47.425C21.0151 47.0668 19.2302 46.2105 17.5975 44.9351C15.9472 43.6416 14.4548 41.9179 13.2025 39.8532C11.9384 37.7707 10.9201 35.3473 10.212 32.6726C9.50391 29.9856 9.11182 27.0646 9.11182 24.0032C9.11182 20.7565 9.55073 17.6671 10.3408 14.8525C11.1308 12.0541 12.2661 9.53558 13.6648 7.41946C15.0518 5.32638 16.6846 3.62497 18.4929 2.42166C20.2544 1.25193 22.1622 0.557894 24.1578 0.412417C24.1876 0.412417 24.2157 0.406814 24.2455 0.406814L25.0654 0.356997C24.9361 0.367626 24.8071 0.378821 24.6786 0.390582C24.5147 0.406814 24.345 0.423606 24.1812 0.452148C24.0173 0.473972 23.8535 0.501954 23.6896 0.536093C23.5199 0.569117 23.356 0.602702 23.198 0.641873C23.0342 0.686647 22.8703 0.726378 22.7064 0.776755C24.2865 0.513154 25.8719 0.345808 27.9968 0.182945C28.0146 0.183886 28.0324 0.181992 28.0495 0.177341C28.1021 0.177341 28.1489 0.172248 28.1958 0.172248C29.19 0.110681 29.5769 0.0821396 29.9872 0.054158C30.0378 0.0530211 30.0884 0.049286 30.1387 0.0429688C30.0398 0.054158 29.9456 0.0659075 29.8461 0.0771137C29.7414 0.0933458 29.636 0.103975 29.5295 0.121888C29.5184 0.121888 29.5125 0.126981 29.5014 0.126981H29.4956C27.0084 0.31224 23.8593 0.597116 21.536 1.19093C21.378 1.25754 21.22 1.32525 21.0678 1.39744C20.9098 1.47076 20.7577 1.54856 20.5997 1.62692C20.4475 1.70583 20.2953 1.7896 20.1432 1.87821C19.991 1.96271 19.8389 2.05786 19.6867 2.14741C21.7525 1.51552 24.1461 1.07284 27.2125 0.753816C27.0779 0.81034 26.9498 0.860785 26.821 0.921723C26.6858 0.983289 26.5524 1.03869 26.4172 1.10642H26.4114C23.2624 1.45342 20.4943 2.09145 18.5982 2.90242C18.4578 3.01547 18.3115 3.12685 18.171 3.24494C18.0247 3.36191 17.8843 3.48504 17.7438 3.60874C17.6033 3.73131 17.4629 3.86003 17.3284 3.98932C17.1879 4.12364 17.0533 4.2518 16.9187 4.39173C19.0021 3.45147 21.4073 2.80785 24.2749 2.41103C24.1929 2.47203 24.111 2.53975 24.0291 2.60075C23.8652 2.73003 23.7014 2.85765 23.5434 2.99755C20.6172 3.41731 17.7789 4.33575 15.953 5.45509C15.8242 5.60621 15.6956 5.76347 15.5726 5.91963C15.4438 6.07578 15.321 6.23827 15.2039 6.4071C15.081 6.56884 14.9581 6.73731 14.8411 6.90458C14.724 7.07808 14.607 7.24654 14.4899 7.42508C16.5149 6.20515 18.844 5.39409 21.6121 4.92956C21.6004 4.94019 21.5887 4.95642 21.577 4.96873C21.3721 5.21443 21.1673 5.46622 20.9625 5.72939C18.1301 6.21569 15.4029 7.35293 13.6766 8.76278C13.5712 8.95306 13.4659 9.14336 13.3605 9.33869C13.261 9.53565 13.1616 9.73173 13.0621 9.92692C12.9626 10.1284 12.8631 10.3304 12.7695 10.537C12.6758 10.7379 12.5822 10.9462 12.4944 11.1576C14.3964 9.69744 16.626 8.74096 19.3122 8.22607C19.359 8.14771 19.4 8.07439 19.4468 7.9966C19.1425 8.51709 18.8499 9.05382 18.5807 9.6135C18.645 9.47862 18.7094 9.34542 18.7738 9.2167C16.0233 9.75342 13.4425 11.0681 11.8682 12.7365C11.7863 12.9547 11.7102 13.1792 11.6341 13.403C11.5581 13.6263 11.4878 13.8558 11.4175 14.0853C11.3473 14.3147 11.2771 14.5442 11.2127 14.7793L11.0196 15.4845C12.746 13.834 14.8586 12.7594 17.4687 12.1997C17.5447 12.0039 17.615 11.8074 17.6969 11.6171C17.4395 12.2663 17.2053 12.9318 16.9888 13.6208C17.0122 13.5312 17.0415 13.4467 17.0707 13.3583C13.9281 14.0293 11.675 15.8147 10.6158 17.2586C10.569 17.5111 10.5222 17.7568 10.4812 18.0086C10.4344 18.2554 10.3934 18.507 10.3583 18.7636C10.3173 19.016 10.2822 19.2679 10.253 19.526C10.2179 19.7829 10.1886 20.0409 10.1593 20.2978C11.6458 18.518 13.6706 17.3264 16.1753 16.7545C16.1695 16.783 16.1636 16.8172 16.1578 16.8446C16.0817 17.2196 16.0115 17.6007 15.9471 17.9813C15.9413 17.9975 15.9413 18.0205 15.9354 18.0367C12.8864 18.7362 10.8733 20.656 10.013 22.218C10.0072 22.3635 10.0013 22.5141 9.99548 22.6596C9.98962 22.8107 9.98378 22.9573 9.97792 23.1079C9.97792 23.2534 9.97207 23.4039 9.97207 23.5494C9.96621 23.7017 9.96621 23.8522 9.96621 24.0033C9.96621 24.1214 9.96621 24.2434 9.97207 24.3616C9.97207 24.4842 9.97207 24.6023 9.97792 24.7259C9.97792 24.8429 9.98378 24.961 9.98378 25.083C9.98964 25.2011 9.98964 25.3181 9.99548 25.4362C11.9091 22.6149 14.6245 21.9657 15.5141 21.7535C15.5199 21.6584 15.5258 21.5688 15.5316 21.4793C15.5141 21.6981 15.5024 21.9153 15.4965 22.1398C15.4789 22.4476 15.4672 22.7548 15.4614 23.0632C15.4497 23.3039 15.4497 23.544 15.4497 23.7846V23.3486C15.4555 23.2753 15.4555 23.2031 15.4555 23.1298C12.5412 23.8238 10.7621 25.8454 10.1242 27.3666C10.1535 27.6247 10.1769 27.8815 10.2062 28.1395C10.2413 28.3964 10.2705 28.6544 10.3056 28.9113C10.3465 29.1626 10.3817 29.4155 10.4226 29.6668C10.4636 29.9192 10.5104 30.1706 10.5572 30.4168C11.5931 28.6656 13.2785 27.5121 15.5667 26.981C15.5725 27.0257 15.5725 27.076 15.5784 27.1209C15.6018 27.4282 15.637 27.7365 15.6661 28.0443L15.7013 28.3298C12.8805 28.9561 11.3765 30.8091 10.9435 32.2083C11.002 32.4484 11.0605 32.6835 11.1249 32.9186C11.1892 33.1536 11.2595 33.3831 11.3238 33.6181C11.3941 33.8476 11.4643 34.0776 11.5404 34.3015C11.6107 34.5309 11.6867 34.7542 11.7628 34.9781C12.5821 33.4116 14.1154 32.3807 16.3217 31.9284C16.3919 32.2358 16.468 32.5491 16.5499 32.8519C16.5733 32.9526 16.6026 33.0584 16.6318 33.1592C13.9048 33.6913 12.6348 35.3311 12.3774 36.5731C12.4651 36.7857 12.5588 36.9928 12.6466 37.2004C12.7402 37.407 12.8397 37.609 12.9333 37.8105C13.0327 38.0114 13.1323 38.2123 13.2318 38.4093C13.3312 38.6046 13.4307 38.8006 13.5361 38.9908C14.1681 37.642 15.5668 36.7751 17.7028 36.4001C17.8433 36.7751 18.0013 37.1378 18.1593 37.4965C15.6838 37.8889 14.4607 39.2097 14.3437 40.3453C14.4549 40.5244 14.5719 40.7035 14.689 40.8708C14.806 41.0449 14.9231 41.2184 15.0401 41.3802C15.163 41.5486 15.2859 41.7104 15.4088 41.8733C15.5317 42.035 15.6604 42.1928 15.7834 42.349C16.1111 41.599 17.0358 40.6307 19.6107 40.2894C19.5949 40.2644 19.5812 40.2382 19.5698 40.211C19.681 40.4008 19.7921 40.586 19.9092 40.7651C20.0204 40.9386 20.1316 41.1071 20.2428 41.2745C20.2252 41.2527 20.2135 41.2297 20.1959 41.2079C17.7966 41.4933 16.7256 42.5567 16.7432 43.4292C16.8778 43.5692 17.0124 43.7091 17.147 43.8378C17.2874 43.9721 17.422 44.1014 17.5624 44.229C17.7029 44.3583 17.8433 44.4816 17.9838 44.599C18.1242 44.7221 18.2705 44.8402 18.411 44.9516C18.6099 44.5038 19.3356 43.7091 21.9691 43.479C22.1915 43.732 22.4256 43.9671 22.6538 44.1966C20.3422 44.3639 19.3942 45.1083 19.4936 45.7301" fill="#6D7080"/>
<path d="M9.8901 2.67334C9.70877 2.78024 9.52727 2.89217 9.3517 3.01026C9.29311 3.04943 9.22881 3.08749 9.17029 3.13227C9.23466 3.08189 9.30488 3.03209 9.37512 2.98732C9.54483 2.87539 9.71454 2.7752 9.8901 2.67334Z" fill="#6D7080"/>
<path d="M9.65596 7.73882C9.15851 6.60832 8.07001 6.02066 6.14465 5.82477C6.15659 5.80676 6.17031 5.78989 6.18561 5.77439C6.3202 5.61818 6.46651 5.46602 6.60697 5.31546C6.63037 5.28804 6.65964 5.26509 6.68304 5.23654C6.77668 5.14146 6.87031 5.04626 6.9698 4.95671C7.08685 4.82911 7.20975 4.71654 7.33264 4.60468C7.36656 4.56824 7.40377 4.53472 7.44383 4.50451C7.6428 4.31981 7.84179 4.14576 8.0466 3.97729C8.05902 3.96512 8.07274 3.95424 8.08756 3.94482C8.11069 3.94902 8.13425 3.95073 8.15779 3.94992C10.0539 4.08984 11.0546 4.69989 11.1307 5.76383C10.9961 5.91438 10.8733 6.07115 10.7444 6.22836C10.6157 6.3901 10.4928 6.55297 10.3698 6.71471C10.2469 6.88318 10.1241 7.05052 10.007 7.21841C9.88995 7.38688 9.76706 7.55981 9.65587 7.73891" fill="#2F3348"/>
<path d="M17.5975 44.935C19.2303 46.2105 21.0152 47.0668 22.8996 47.425L21.7818 47.3584C19.8974 46.9996 18.1067 46.1439 16.4739 44.8672C14.8236 43.5806 13.3313 41.8624 12.0789 39.8083C10.8149 37.7314 9.79073 35.3136 9.08263 32.6495C8.37452 29.9692 7.98242 27.0528 7.98242 24.0031C7.98242 20.767 8.42133 17.6838 9.21137 14.8798C10.0014 12.0871 11.1367 9.58032 12.5413 7.46982C13.9224 5.38271 15.561 3.68633 17.3693 2.48918C19.043 1.37535 20.8572 0.692061 22.7474 0.501776C22.7826 0.501776 22.8177 0.496682 22.8469 0.496682L23.6896 0.440651C23.8476 0.43386 24.0114 0.423299 24.1577 0.412109C22.1622 0.55762 20.2544 1.25162 18.4928 2.42135C16.6845 3.62466 15.0518 5.32607 13.6648 7.41925C12.2662 9.5355 11.1309 12.054 10.3409 14.8523C9.5508 17.6669 9.11191 20.7563 9.11191 24.003C9.11191 27.0645 9.50401 29.9854 10.2121 32.6724C10.9202 35.3471 11.9385 37.7705 13.2026 39.853C14.4549 41.9177 15.9472 43.6415 17.5975 44.9349" fill="#2F3348"/>
<path d="M16.5324 2.53347C18.2529 1.39789 20.1197 0.703338 22.0686 0.547181C22.1447 0.541578 22.2207 0.536552 22.2968 0.530949L22.7473 0.502441C20.8571 0.692692 19.0429 1.37607 17.3692 2.48981C15.5609 3.68696 13.9223 5.38334 12.5412 7.46979C11.1367 9.58088 10.0014 12.0871 9.21132 14.8805C8.42127 17.6839 7.98237 20.7677 7.98237 24.0032C7.98237 27.0534 8.37447 29.9693 9.08259 32.6502C9.7907 35.3136 10.8148 37.732 12.0789 39.809C13.3312 41.8624 14.8236 43.5812 16.4739 44.8679C18.1066 46.1445 19.8974 47.0002 21.7818 47.359L22.8995 47.4256L22.8937 47.5095L19.833 47.3192L19.8389 47.2353L20.9449 47.3019C19.0605 46.9448 17.2698 46.093 15.637 44.8231C13.9809 43.5364 12.4886 41.8232 11.2362 39.7692C9.96627 37.6979 8.94799 35.2862 8.23989 32.6278C7.52588 29.9576 7.13379 27.0478 7.13379 24.0032C7.13379 20.7745 7.5727 17.7018 8.36859 14.9035C9.15864 12.1157 10.294 9.61343 11.6926 7.50955C13.0854 5.42141 14.724 3.7317 16.5324 2.53348" fill="#6D7080"/>
<path d="M8.85428 9.04803C8.74895 9.23831 8.64361 9.42861 8.53826 9.62504C8.43293 9.81533 8.33343 10.0163 8.23394 10.2121C8.13452 10.4131 8.03497 10.6157 7.94134 10.8222C7.8477 11.0242 7.75407 11.2308 7.66629 11.444C6.79431 9.66367 5.15571 9.21089 3.82727 9.0206C3.85067 8.98702 3.86823 8.94729 3.89165 8.91364C3.98528 8.75692 4.07891 8.60078 4.17255 8.45415C4.19011 8.42729 4.20181 8.40433 4.21937 8.38251C4.33056 8.20846 4.44759 8.02935 4.55879 7.86202C4.7168 7.62701 4.88066 7.39754 5.04448 7.17311C5.19079 6.98338 5.33708 6.79308 5.48339 6.6084H5.48925C5.51267 6.6084 5.53607 6.61349 5.56533 6.61349C7.97645 6.91511 8.68457 8.10273 8.85428 9.04803Z" fill="#2F3348"/>
<path d="M8.5091 44.3923C8.47848 44.3738 8.44916 44.3534 8.42133 44.3313C8.30428 44.2362 8.18724 44.1466 8.07019 44.0459C8.2165 44.1685 8.35695 44.281 8.5091 44.3923Z" fill="#2F3348"/>
<path d="M8.08817 3.94434C8.07321 3.95401 8.05937 3.96517 8.04688 3.97763C8.05715 3.96514 8.06904 3.95395 8.08228 3.94434H8.08817Z" fill="#2F3348"/>
<path d="M8.04649 3.97754C7.84168 4.14601 7.64269 4.3195 7.44373 4.5042C7.48576 4.45867 7.5307 4.41567 7.5783 4.37546C7.73045 4.24114 7.88846 4.10626 8.04647 3.97754" fill="#2F3348"/>
<path d="M7.68982 43.7212C7.7659 43.7878 7.84197 43.8544 7.91814 43.9171H7.91228C7.8362 43.8544 7.76013 43.7878 7.68989 43.7212" fill="#2F3348"/>
<path d="M7.91798 43.9166C7.8419 43.8545 7.76583 43.7879 7.68975 43.7207C7.66032 43.7027 7.63455 43.6798 7.61368 43.653C7.54812 43.5983 7.4856 43.5404 7.42639 43.4795C7.4552 43.486 7.48459 43.49 7.51417 43.4912C8.2691 43.6138 10.569 43.9832 14.8118 45.4949C14.964 45.59 15.1161 45.6852 15.2683 45.7747C15.4263 45.8643 15.5785 45.9476 15.7365 46.0316C15.8945 46.1105 16.0525 46.1883 16.2105 46.2667C16.3685 46.34 16.5265 46.4122 16.6845 46.4799C13.9165 45.8469 11.9092 45.3936 9.47465 45.0751C9.29324 44.9626 9.11767 44.8401 8.94203 44.7169C8.79572 44.6161 8.65527 44.5092 8.50897 44.3923C8.35682 44.2803 8.21637 44.1678 8.07006 44.0453C8.01649 44.0055 7.96567 43.9625 7.91791 43.9165" fill="#2F3348"/>
<path d="M7.42639 43.4795C7.48498 43.5416 7.54928 43.5976 7.61366 43.6536C7.54626 43.5987 7.4818 43.5406 7.42053 43.4795H7.42639Z" fill="#2F3348"/>
<path d="M7.33269 4.60498C7.20979 4.71636 7.08685 4.82885 6.96985 4.95701C7.00575 4.91354 7.04485 4.87259 7.08685 4.83445C7.16878 4.75609 7.25072 4.67719 7.33263 4.60498" fill="#2F3348"/>
<path d="M15.637 44.8226C17.2697 46.0931 19.0605 46.9443 20.9449 47.3019L19.8388 47.2354C17.9544 46.8766 16.1636 46.0259 14.525 44.7615C12.8689 43.4737 11.3766 41.7672 10.1184 39.7244C8.8543 37.6592 7.83018 35.2521 7.12206 32.5992C6.4081 29.9352 6.01599 27.0366 6.01599 24.0031C6.01599 20.785 6.4549 17.7175 7.2508 14.9302C8.04085 12.1548 9.18202 9.65809 10.5807 7.55931C11.9676 5.48348 13.6121 3.79214 15.4204 2.60114C17.2053 1.42592 19.1424 0.731996 21.1614 0.597029H21.1907C21.4423 0.580797 21.7525 0.557858 22.0275 0.547212C22.034 0.544416 22.0409 0.542969 22.048 0.542969C22.0551 0.542969 22.062 0.544416 22.0685 0.547212C20.1197 0.70342 18.2529 1.39736 16.5323 2.53294C14.724 3.7312 13.0854 5.42142 11.6926 7.50901C10.2939 9.61341 9.15862 12.1157 8.36858 14.9029C7.57269 17.7013 7.13378 20.7739 7.13378 24.0032C7.13378 27.0473 7.52588 29.9571 8.23985 32.6278C8.94797 35.2863 9.96624 37.6979 11.2361 39.7692C12.4885 41.8232 13.9808 43.5359 15.637 44.8225" fill="#2F3348"/>
<path d="M7.05186 12.9838C6.96992 13.2015 6.89385 13.4254 6.81777 13.6493C6.74169 13.8737 6.67146 14.1032 6.59538 14.3315C6.52515 14.561 6.46079 14.791 6.39056 15.0255C6.32618 15.2606 6.26181 15.4956 6.20329 15.7307C5.02709 13.6442 3.23625 13.0952 1.98389 12.8658C2.07752 12.6201 2.17701 12.3727 2.27649 12.127C2.38182 11.8757 2.48718 11.6284 2.59835 11.3827C2.62761 11.3211 2.65694 11.2534 2.68613 11.1924C2.82075 10.9013 2.96121 10.6108 3.1075 10.331C3.16609 10.2129 3.22455 10.0959 3.28891 9.9834C3.31464 9.98378 3.34021 9.98735 3.36498 9.99403C5.97504 10.4423 6.79435 12.0604 7.05184 12.9838" fill="#2F3348"/>
<path d="M6.96987 4.95703C6.87044 5.04658 6.77674 5.14173 6.68311 5.23686C6.77674 5.13613 6.87627 5.04096 6.96987 4.95703Z" fill="#6D7080"/>
<path d="M6.72409 42.797H6.71239C6.64214 42.7236 6.57194 42.6515 6.50757 42.5781C6.57778 42.6514 6.64802 42.7236 6.72417 42.797" fill="#2F3348"/>
<path d="M6.18599 5.77441C6.17042 5.78993 6.15659 5.80695 6.1447 5.8252H6.13879C6.1565 5.80884 6.16829 5.79078 6.18599 5.77441Z" fill="#2F3348"/>
<path d="M6.24428 42.2934C6.08627 42.1249 5.93412 41.947 5.78197 41.7679C5.74685 41.7225 5.70589 41.6728 5.67078 41.6279C5.85804 41.8574 6.05117 42.0745 6.24423 42.2934" fill="#2F3348"/>
<path d="M5.04457 7.17383C4.8807 7.39765 4.71685 7.62773 4.55884 7.86223C4.58224 7.82864 4.5998 7.8001 4.62321 7.76764C4.76367 7.56504 4.90412 7.36972 5.04457 7.17383Z" fill="#2F3348"/>
<path d="M13.741 44.7505C10.9085 43.7089 8.87779 43.1436 6.7242 42.7972C6.64813 42.7239 6.57789 42.6517 6.5076 42.5784C6.41397 42.4833 6.33204 42.3881 6.24426 42.293C6.05113 42.0747 5.85802 41.857 5.67081 41.6275C5.55962 41.4932 5.44842 41.3532 5.33723 41.2133C5.20264 41.0393 5.07974 40.8708 4.95105 40.6928C4.93412 40.6761 4.92025 40.6568 4.91003 40.6357C4.94515 40.6425 4.97441 40.6481 5.00946 40.6537C7.92389 41.2077 10.6686 42.5174 12.0437 43.2444C12.1783 43.3843 12.3188 43.5186 12.4534 43.6474C12.5939 43.7817 12.7343 43.911 12.8748 44.0391C13.0211 44.1623 13.1615 44.2859 13.3078 44.4029C13.4483 44.521 13.5946 44.638 13.7409 44.7505" fill="#2F3348"/>
<path d="M4.90991 40.6362C4.92026 40.6572 4.93409 40.6765 4.95087 40.6933C4.93362 40.6756 4.91796 40.6565 4.90405 40.6362H4.90991Z" fill="#2F3348"/>
<path d="M4.04387 8.65713C4.08483 8.58942 4.12581 8.52281 4.17263 8.45508C4.07903 8.60115 3.98536 8.75787 3.89172 8.91401C3.93854 8.83006 3.99115 8.74107 4.04387 8.65711" fill="#6D7080"/>
<path d="M3.28895 9.98291C3.22454 10.0954 3.16606 10.2124 3.10754 10.3305C3.16613 10.2124 3.2246 10.0954 3.28311 9.98291H3.28895Z" fill="#2F3348"/>
<path d="M3.16614 37.7993C3.17784 37.8212 3.18956 37.8374 3.20126 37.8603C3.18956 37.8374 3.17784 37.8212 3.16614 37.7993Z" fill="#2F3348"/>
<path d="M3.10739 10.3306C2.96108 10.6104 2.82063 10.9014 2.68604 11.1919C2.76797 11.0184 2.8499 10.8455 2.93182 10.6714C2.99041 10.5533 3.04887 10.4419 3.10739 10.3306Z" fill="#2F3348"/>
<path d="M11.0958 42.1982C7.90633 40.5695 5.7937 40.0384 4.31311 39.7586H4.30725C4.17266 39.5509 4.03805 39.3438 3.90929 39.1256C3.78056 38.9123 3.65767 38.6946 3.52883 38.4707C3.41764 38.2748 3.31223 38.0615 3.20111 37.8607C3.18941 37.8377 3.17771 37.8215 3.16599 37.7997C3.04903 37.5697 2.93199 37.3346 2.8208 37.1001C2.85457 37.1044 2.88785 37.1117 2.92022 37.1219C5.88142 37.76 8.39199 39.3321 9.62095 40.2164C9.738 40.3955 9.85504 40.5693 9.97209 40.738C10.095 40.9104 10.212 41.0788 10.3349 41.2406C10.4578 41.409 10.5866 41.5708 10.7095 41.7281C10.8383 41.8898 10.9612 42.0471 11.0958 42.1982" fill="#2F3348"/>
<path d="M2.59835 11.3818C2.48716 11.6275 2.38175 11.8749 2.27649 12.1262C2.17707 12.3724 2.07752 12.6193 1.98389 12.865H1.97803C2.07745 12.6137 2.177 12.3613 2.27649 12.1156C2.38182 11.8694 2.48717 11.6225 2.59835 11.3818Z" fill="#2F3348"/>
<path d="M1.52747 33.8584C1.5977 34.0934 1.67962 34.3173 1.76164 34.5467C1.74994 34.5188 1.73824 34.4857 1.72652 34.4572C1.65622 34.2619 1.59184 34.0593 1.52747 33.8584Z" fill="#6D7080"/>
<path d="M1.58606 13.9795C1.61367 13.9809 1.64109 13.9846 1.66799 13.9907C4.34829 14.5554 5.41338 16.4085 5.81132 17.4612C5.7645 17.7069 5.71768 17.9532 5.67087 18.2045C5.62991 18.4569 5.58893 18.7082 5.54798 18.9606C5.51286 19.2124 5.47774 19.4704 5.44855 19.7217C5.41344 19.9798 5.38418 20.2366 5.35492 20.4946C3.8684 18.1659 1.98401 17.5278 0.696533 17.248C0.737545 17.0633 0.778379 16.873 0.819426 16.6883C0.860384 16.5199 0.895502 16.3581 0.936478 16.1952C0.954036 16.1231 0.971595 16.0497 0.995066 15.9775C1.07114 15.6641 1.15893 15.3558 1.24671 15.0541C1.34613 14.7183 1.44568 14.383 1.55687 14.0517C1.56273 14.0299 1.57443 14.0013 1.58029 13.9795L1.58606 13.9795Z" fill="#2F3348"/>
<path d="M1.55662 14.0518C1.44543 14.3831 1.34595 14.7183 1.24646 15.0541C1.26988 14.9591 1.29914 14.8639 1.32839 14.7687C1.40447 14.528 1.47469 14.2868 1.55662 14.0518Z" fill="#2F3348"/>
<path d="M1.2876 33.0874C1.35197 33.3051 1.41635 33.529 1.48657 33.7422C1.45731 33.6583 1.43389 33.5682 1.40463 33.4841C1.36367 33.3555 1.32856 33.2206 1.2876 33.0874Z" fill="#6D7080"/>
<path d="M7.91793 37.1271C8.01156 37.3292 8.11106 37.5357 8.20469 37.7316C8.30411 37.9325 8.40952 38.1351 8.50901 38.3254C8.61434 38.5207 8.7197 38.7166 8.82503 38.9069C5.91063 36.9598 3.73361 36.3497 2.35253 36.0581C2.31157 35.9686 2.27646 35.8791 2.23548 35.7839C2.1711 35.6272 2.10673 35.471 2.04821 35.3138C1.94879 35.0625 1.85508 34.8044 1.76145 34.5476C1.67951 34.3175 1.59758 34.0937 1.52736 33.8586C1.51566 33.8312 1.5098 33.7976 1.4981 33.7691C1.49225 33.7579 1.49225 33.7528 1.4864 33.7416C1.41619 33.5284 1.35181 33.3046 1.28744 33.0868C1.27574 33.0477 1.26404 33.0085 1.25232 32.9688C1.28158 32.9744 1.3167 32.9855 1.34595 32.9917C4.40078 33.7131 6.76506 35.6888 7.63702 36.5064C7.73066 36.713 7.82429 36.9206 7.91793 37.1271Z" fill="#2F3348"/>
<path d="M1.2464 15.0542C1.15862 15.3559 1.07083 15.6642 0.994751 15.9777C1.02401 15.8433 1.05913 15.7146 1.09417 15.5797C1.14099 15.4006 1.1936 15.2283 1.24632 15.0542" fill="#2F3348"/>
<path d="M0.883712 16.4086C0.90127 16.3352 0.918758 16.263 0.936388 16.1953C0.895412 16.3582 0.860294 16.5199 0.819336 16.6884C0.842753 16.5932 0.860294 16.5037 0.883712 16.4086Z" fill="#2F3348"/>
<path d="M0.907208 31.6758C0.88379 31.6036 0.866249 31.5303 0.84862 31.4581C0.813502 31.2902 0.772544 31.1161 0.737427 30.9487C0.790103 31.1894 0.842761 31.4351 0.907137 31.6757" fill="#6D7080"/>
<path d="M0.714092 17.1419C0.749209 16.9902 0.784321 16.8389 0.819426 16.688C0.778379 16.8732 0.737545 17.0629 0.696533 17.2477C0.699017 17.212 0.704894 17.1766 0.714092 17.1419Z" fill="#6D7080"/>
<path d="M0.573486 30.1489C0.620303 30.417 0.67882 30.6857 0.737355 30.9493C0.708079 30.8256 0.684679 30.7086 0.655421 30.5849C0.626162 30.44 0.596922 30.2944 0.573486 30.1489Z" fill="#6D7080"/>
<path d="M5.21434 25.571C3.33579 23.1028 1.46895 22.3909 0.0527344 22.0557C0.0644342 21.815 0.0819929 21.5743 0.10541 21.3393C0.11711 21.2161 0.122969 21.0925 0.134669 20.9755C0.158086 20.7298 0.181486 20.488 0.210744 20.2474C0.222444 20.1024 0.245862 19.9513 0.26342 19.8002C0.269279 19.7325 0.280979 19.6659 0.292679 19.5981C0.304379 19.5086 0.316096 19.4257 0.327796 19.3412C0.368755 19.0508 0.409766 18.7642 0.462389 18.4844C0.491647 18.4912 0.520977 18.4961 0.544323 18.5017C3.30653 19.1677 4.65839 21.2106 5.2202 22.3691C5.21435 22.504 5.2085 22.6385 5.20264 22.7726C5.19678 22.9125 5.19094 23.0469 5.19094 23.1806C5.18508 23.3205 5.18508 23.4549 5.18508 23.5892C5.17922 23.7291 5.17922 23.8634 5.17922 24.0033C5.17922 24.1326 5.17922 24.2669 5.18508 24.3946C5.18508 24.5294 5.18508 24.6582 5.19094 24.7874C5.19094 24.9218 5.1968 25.0494 5.20264 25.1787C5.20264 25.313 5.2085 25.4423 5.21434 25.571Z" fill="#2F3348"/>
<path d="M0.550119 30.0415C0.52672 29.9246 0.50909 29.8121 0.485744 29.6951C0.456485 29.544 0.433085 29.3923 0.409668 29.2412C0.456485 29.5048 0.503302 29.7791 0.550119 30.0415Z" fill="#6D7080"/>
<path d="M0.462312 18.4844C0.409654 18.7642 0.368678 19.0508 0.32772 19.3412C0.31602 19.4257 0.304302 19.5086 0.292603 19.5981C0.298461 19.5209 0.310161 19.4364 0.321861 19.358C0.362837 19.067 0.409654 18.7709 0.456471 18.4844H0.462312Z" fill="#2F3348"/>
<path d="M0.34526 28.7879C0.32186 28.6424 0.304302 28.5024 0.286743 28.3569C0.316491 28.3627 0.345812 28.3704 0.374519 28.3799C3.37078 29.1354 5.43665 31.3064 6.18572 32.2081C6.24431 32.4431 6.30861 32.6782 6.37299 32.9133C6.43736 33.1483 6.50758 33.3778 6.57782 33.6073C6.64805 33.8367 6.72413 34.0668 6.79441 34.2895C6.87049 34.5139 6.95242 34.7378 7.0285 34.9617C4.43014 32.7733 2.30581 32.0956 0.936395 31.7883H0.930536C0.91987 31.7514 0.912044 31.7138 0.907119 31.6758C0.842743 31.4357 0.790067 31.1894 0.737409 30.9488C0.678821 30.6857 0.620357 30.4165 0.57354 30.1491C0.567681 30.1311 0.567681 30.1149 0.56184 30.0976C0.555982 30.0813 0.555982 30.059 0.550141 30.0415C0.503323 29.7791 0.456506 29.5048 0.409689 29.2418V29.2362C0.386272 29.0907 0.362872 28.9396 0.345313 28.788" fill="#2F3348"/>
<path d="M0.286987 28.3569C0.304545 28.5024 0.322104 28.6424 0.345575 28.7879C0.322086 28.6424 0.298687 28.5024 0.281128 28.3569H0.286987Z" fill="#2F3348"/>
<path d="M0.263369 19.8003C0.245811 19.9514 0.222393 20.102 0.210693 20.2475C0.222393 20.0964 0.239952 19.9458 0.263369 19.8003Z" fill="#6D7080"/>
<path d="M19.3706 0.753813C19.5403 0.731978 19.7042 0.709039 19.8739 0.692807C19.8827 0.688619 19.8906 0.682929 19.8973 0.676015H19.9031L21.1613 0.597656C19.1424 0.731978 17.2053 1.42598 15.4204 2.60129C13.6121 3.79284 11.9676 5.48362 10.5806 7.55947C9.18197 9.65825 8.0408 12.155 7.25076 14.9304C6.45487 17.7181 6.01596 20.7852 6.01596 24.0033C6.01596 27.0367 6.40805 29.9358 7.12203 32.5993C7.83013 35.2528 8.85417 37.6594 10.1183 39.7246C11.3765 41.7674 12.8688 43.4738 14.5249 44.7617C16.1636 46.0266 17.9543 46.8767 19.8387 47.2354L19.8328 47.3194L15.2447 47.0339C14.8021 47.009 14.362 46.9529 13.928 46.866C14.56 46.9052 15.3852 46.9611 16.0114 47.0004C15.0633 46.9053 14.1679 46.8213 13.3896 46.7597C13.3779 46.7597 13.372 46.7541 13.3603 46.7541C13.3486 46.7541 13.3428 46.7479 13.3369 46.7479C13.0619 46.6813 12.7927 46.608 12.5235 46.519C14.3318 46.6864 16.1226 46.9158 17.925 47.1173L19.0135 47.185C18.9141 47.1677 18.8146 47.1459 18.7151 47.124C18.6214 47.1011 18.5219 47.0787 18.4225 47.0558C18.3288 47.0339 18.2293 47.006 18.1299 46.9841C18.0362 46.9556 17.9367 46.927 17.8431 46.8996C11.9032 45.7467 11.9032 45.7467 10.3523 45.5508C10.3189 45.5498 10.2857 45.5461 10.2529 45.5396C9.98957 45.3997 9.73207 45.2425 9.47459 45.0751C11.9091 45.3935 13.9164 45.8469 16.6845 46.4799C16.5265 46.4122 16.3684 46.3399 16.2104 46.2666C16.0524 46.1883 15.8944 46.1104 15.7364 46.0316C15.5784 45.9476 15.4262 45.8648 15.2682 45.7747C15.1161 45.6851 14.9639 45.59 14.8118 45.4948C10.5689 43.9832 8.26904 43.6138 7.51411 43.4912C7.4845 43.4902 7.45508 43.4863 7.42633 43.4794H7.42047C7.18053 43.2617 6.94644 43.0379 6.72406 42.7972C8.87761 43.1436 10.9084 43.709 13.7408 44.7505C13.5945 44.638 13.4482 44.521 13.3078 44.4029C13.1614 44.2859 13.021 44.1628 12.8747 44.0391C12.7342 43.9109 12.5938 43.7822 12.4533 43.6479C12.3187 43.5186 12.1783 43.3843 12.0437 43.2444C10.6684 42.5174 7.92376 41.2077 5.0094 40.6536C4.97428 40.648 4.94502 40.6424 4.90998 40.6363C4.77538 40.4516 4.64663 40.268 4.51788 40.0766C4.44765 39.9702 4.37743 39.8645 4.31305 39.7581C5.79373 40.038 7.90627 40.5697 11.0957 42.1983C10.9611 42.0472 10.8383 41.8899 10.7095 41.7282C10.5866 41.5709 10.4578 41.4092 10.3349 41.2407C10.212 41.079 10.0949 40.9105 9.97202 40.7376C9.85497 40.5697 9.73793 40.396 9.62088 40.2165C8.39193 39.3322 5.88135 37.7601 2.92015 37.1215C2.88763 37.1119 2.8544 37.1045 2.82073 37.0997C2.6159 36.6738 2.42277 36.2322 2.23551 35.7838C2.27646 35.8789 2.31158 35.9685 2.35256 36.058C3.73367 36.3502 5.91068 36.9596 8.82504 38.9068C8.71971 38.7165 8.61435 38.5206 8.50902 38.3253C8.4096 38.135 8.30419 37.933 8.2047 37.7315C8.11106 37.5362 8.01157 37.3296 7.91794 37.127C7.8243 36.9205 7.73067 36.7129 7.63704 36.5063C6.76507 35.6887 4.40079 33.7136 1.34596 32.9921C1.3167 32.9853 1.28159 32.9742 1.25233 32.9692C1.20551 32.8069 1.15869 32.644 1.11188 32.4823C1.0475 32.2528 0.988984 32.0233 0.936308 31.7883C2.3057 32.0956 4.43005 32.7733 7.02841 34.9617C6.95234 34.7378 6.8704 34.5134 6.79433 34.2895C6.72409 34.0662 6.64802 33.8367 6.57773 33.6073C6.50744 33.3778 6.43728 33.1483 6.3729 32.9133C6.30853 32.6782 6.24415 32.4431 6.18563 32.2081C5.43656 31.3065 3.37075 29.1354 0.374449 28.3799C0.345742 28.3704 0.316422 28.3628 0.286673 28.3569C0.263256 28.2007 0.239856 28.039 0.222298 27.8762C0.18718 27.5801 0.157922 27.288 0.128663 26.9919C0.116964 26.852 0.105246 26.7176 0.0994049 26.5777C0.111105 26.7406 0.122822 26.9023 0.140363 27.0652C1.4805 27.3898 3.52292 28.095 5.7994 30.4787C5.74672 30.2319 5.70576 29.9806 5.65894 29.7343C5.61799 29.4819 5.57701 29.2306 5.54191 28.9782C5.50095 28.7263 5.47168 28.4694 5.43658 28.217C5.40732 27.9601 5.37799 27.7021 5.3488 27.4452C4.73432 26.4825 2.99623 24.1661 0.0936349 23.4094C0.0643764 23.4043 0.0292591 23.3932 0.00585938 23.3876C0.00585938 23.2925 0.00585938 23.1979 0.0117182 23.1027C0.017577 22.805 0.0292768 22.5089 0.0468355 22.2184C0.0468355 22.1624 0.0526943 22.111 0.0526943 22.0556C1.46891 22.3908 3.33575 23.1027 5.2143 25.5709C5.20844 25.4416 5.2026 25.3128 5.2026 25.1785C5.19674 25.0493 5.1909 24.9216 5.1909 24.7868C5.18504 24.658 5.18504 24.5287 5.18504 24.3944C5.17918 24.2668 5.17918 24.1319 5.17918 24.0032C5.17918 23.8633 5.17918 23.729 5.18504 23.5891C5.18504 23.4547 5.18504 23.3199 5.1909 23.1799C5.1909 23.0467 5.19676 22.9123 5.2026 22.7724L5.22016 22.3688C4.65835 21.2103 3.30649 19.1669 0.544283 18.5015C0.520866 18.4959 0.491607 18.4903 0.462349 18.4841C0.474049 18.4007 0.485748 18.3168 0.503307 18.2323C0.561895 17.897 0.6262 17.5724 0.696434 17.2478C1.98391 17.5276 3.8683 18.1657 5.35475 20.4939C5.38401 20.2365 5.41334 19.9796 5.44838 19.7216C5.47764 19.4697 5.51276 19.2117 5.5478 18.9604C5.58876 18.708 5.62974 18.4567 5.6707 18.2043C5.71751 17.9524 5.76433 17.7068 5.81115 17.4611C5.41319 16.4084 4.34812 14.5552 1.66782 13.9899C1.64086 13.9843 1.61345 13.9808 1.58589 13.9793C1.70878 13.6043 1.84332 13.2294 1.98384 12.8655C3.23621 13.095 5.02696 13.6434 6.20324 15.7305C6.26183 15.4954 6.32614 15.2603 6.39051 15.0253C6.46075 14.7902 6.52511 14.5607 6.59534 14.3313C6.67142 14.1029 6.74165 13.8728 6.81773 13.649C6.8938 13.4252 6.96988 13.2008 7.05181 12.9836C6.79438 12.0595 5.97502 10.4421 3.36496 9.99378C3.34022 9.9869 3.31464 9.98314 3.28888 9.98259C3.45859 9.65238 3.64002 9.33336 3.82729 9.0205C5.15573 9.21079 6.79433 9.66357 7.66631 11.4445C7.75409 11.2312 7.84772 11.0247 7.94136 10.8221C8.03499 10.6156 8.13448 10.4135 8.23396 10.2121C8.33338 10.0168 8.43293 9.81526 8.53828 9.62552C8.64361 9.42856 8.74897 9.23822 8.8543 9.04794C8.68459 8.10265 7.97647 6.91558 5.56538 6.61392C5.53612 6.61392 5.51271 6.60831 5.48931 6.60831C5.69413 6.33911 5.91652 6.07607 6.13889 5.82476H6.14475C8.07011 6.02002 9.1586 6.60831 9.65605 7.73831C9.76724 7.55921 9.89013 7.38684 10.0072 7.21837C10.1242 7.04991 10.2471 6.88256 10.37 6.71409C10.4929 6.55235 10.6158 6.38949 10.7446 6.22773C10.8734 6.07047 10.9963 5.91431 11.1309 5.7632C11.0548 4.69981 10.0541 4.08977 8.15797 3.94983C8.13441 3.95075 8.11082 3.94886 8.08774 3.94422C8.28671 3.77576 8.48569 3.61962 8.69052 3.46906C8.73734 3.43492 8.77829 3.40079 8.82511 3.37279C10.7563 3.46906 11.7278 3.87091 12.0789 4.72161C12.2135 4.58169 12.354 4.44849 12.4944 4.31921C12.6348 4.18505 12.7752 4.05623 12.9157 3.93276C13.0561 3.81019 13.2024 3.68656 13.3429 3.56953C13.4892 3.44639 13.6355 3.33447 13.7818 3.22197C13.852 2.24813 12.2603 2.10814 11.0605 2.08638H10.9845C11.1659 2.00188 11.3473 1.91792 11.5287 1.84572C11.6165 1.80655 11.7043 1.77241 11.7979 1.73324C13.7584 1.73324 14.6128 1.94087 14.8527 2.4832C15.0049 2.38812 15.1571 2.29292 15.3092 2.20337C15.4672 2.11999 15.6194 2.03044 15.7774 1.95208C15.9354 1.86758 16.0875 1.79536 16.2514 1.71702C16.4036 1.64371 16.5674 1.5771 16.7254 1.5105C16.86 1.06781 15.9412 1.02247 14.1915 1.09579H14.1212C14.1732 1.08323 14.226 1.07388 14.2792 1.06781C14.3904 1.05662 14.4958 1.03927 14.6011 1.02808C14.7123 1.01184 14.8177 1.00066 14.923 0.988906C14.9639 0.988906 15.0049 0.983303 15.04 0.983303C17.0531 0.87192 17.7027 0.87192 17.8842 1.09579C18.048 1.04542 18.2119 1.00064 18.3758 0.961468C18.5396 0.916694 18.7035 0.877523 18.8732 0.843378C19.0371 0.810914 19.2009 0.782372 19.3706 0.75383" fill="#6D7080"/>
<path d="M0.134727 20.9757C0.123027 21.0926 0.117169 21.2163 0.105469 21.3394C0.105469 21.2717 0.111328 21.2107 0.117169 21.1429L0.134727 20.9756" fill="#2F3348"/>
<path d="M0.0995704 26.5778C0.0878706 26.4883 0.0820295 26.3987 0.076153 26.3092C0.0703119 26.242 0.0703119 26.181 0.0644531 26.1133C0.076153 26.2705 0.0878706 26.4267 0.0995704 26.5778Z" fill="#2F3348"/>
<path d="M0.0936343 23.41C2.9963 24.1667 4.73439 26.4826 5.3488 27.4458C5.37806 27.7027 5.40739 27.9607 5.43658 28.2176C5.47169 28.47 5.50095 28.727 5.54191 28.9783C5.57703 29.2307 5.61798 29.4826 5.65896 29.735C5.70578 29.9807 5.74674 30.232 5.79941 30.4793C3.523 28.095 1.48068 27.3899 0.140451 27.0652C0.122893 26.9024 0.111193 26.7406 0.0994931 26.5778C0.0877932 26.4272 0.0760756 26.2705 0.0643758 26.1132C0.0526759 25.923 0.0409583 25.7327 0.0351173 25.548V25.4926C0.0234174 25.2793 0.0116998 25.0672 0.0116998 24.854C0.00684116 24.8283 0.00487697 24.8022 0.00584105 24.7762C0 24.5182 0 24.2613 0 24.0038V23.8471C0 23.7016 0 23.5555 0.0058588 23.41V23.3882C0.0292762 23.3938 0.0644468 23.4044 0.0936343 23.41Z" fill="#2F3348"/>
<path d="M0.0351362 25.4921C0.0234186 25.397 0.0234186 25.2962 0.0175775 25.196C0.0175775 25.0835 0.0117188 24.9716 0.0117188 24.8535C0.0117188 25.0668 0.0234186 25.2789 0.0351362 25.4921Z" fill="#6D7080"/>
<path d="M0.0058588 23.4102C0 23.5557 0 23.7017 0 23.8473V23.5389C0 23.4941 0.0058588 23.4549 0.0058588 23.4102Z" fill="#2F3348"/>
<path d="M32.8077 26.7075C32.8438 26.7067 32.8796 26.713 32.9131 26.726C32.9493 26.7415 32.9829 26.7622 33.0125 26.7875C33.0471 26.8176 33.0778 26.8516 33.1038 26.8888C33.134 26.9346 33.1596 26.9829 33.1804 27.0332L36.5303 35.0568C36.5445 35.0912 36.5568 35.1264 36.5671 35.1621C36.5782 35.1983 36.587 35.2351 36.5935 35.2723C36.5999 35.3093 36.6058 35.3479 36.6093 35.387C36.6116 35.4251 36.614 35.4648 36.6128 35.504C36.6128 35.5214 36.6116 35.5387 36.6105 35.5578C36.6093 35.5751 36.6081 35.5925 36.6058 35.6098C36.6034 35.6277 36.6011 35.6451 36.5993 35.6624C36.597 35.6798 36.5935 35.6977 36.59 35.7151C36.5783 35.7676 36.5631 35.8194 36.5443 35.8701C36.5259 35.9177 36.5034 35.9638 36.477 36.0078C36.4534 36.049 36.4249 36.0875 36.3922 36.1225C36.3629 36.1555 36.3295 36.185 36.2928 36.2104C36.0258 36.3905 35.7471 36.5541 35.4583 36.7001C35.1801 36.8408 34.8922 36.9634 34.5967 37.0671C34.3083 37.1676 34.0125 37.2479 33.7119 37.3072C33.1148 37.4262 32.5024 37.4579 31.8954 37.4012C31.592 37.372 31.2914 37.3213 30.9959 37.2496C30.6924 37.1753 30.395 37.0803 30.1058 36.9652C29.8043 36.8453 29.5118 36.7058 29.2303 36.5477C29.1912 36.5261 29.1554 36.4996 29.1238 36.4688C29.0905 36.4357 29.0607 36.3995 29.0348 36.3608C29.0072 36.3182 28.9839 36.2732 28.9652 36.2265C28.9438 36.1765 28.9274 36.1248 28.916 36.0719C28.9113 36.0512 28.9067 36.0305 28.9032 36.0098C28.8996 35.988 28.8973 35.9662 28.895 35.9455C28.8932 35.9236 28.8909 35.9018 28.8896 35.88C28.8896 35.8581 28.8885 35.8363 28.8896 35.8134C28.8896 35.777 28.892 35.7401 28.895 35.7037C28.8997 35.6667 28.9056 35.6304 28.9125 35.5945C28.9195 35.5584 28.9287 35.5227 28.94 35.4876C28.9497 35.453 28.9614 35.419 28.9751 35.3857L32.4349 27.0432C32.4507 27.004 32.4695 26.9661 32.4911 26.9296C32.5092 26.8976 32.5306 26.8674 32.5549 26.8395C32.5762 26.8147 32.6004 26.7924 32.6269 26.7729C32.6501 26.7555 32.6755 26.7408 32.7024 26.7292C32.7109 26.7254 32.7197 26.7222 32.7287 26.7197L32.755 26.7129C32.7723 26.7088 32.79 26.707 32.8077 26.7073L32.8077 26.7075ZM31.7929 26.4387C31.7632 26.4386 31.7335 26.4352 31.7046 26.4286C31.6749 26.4226 31.6462 26.413 31.6191 26.4001C31.5896 26.3864 31.5616 26.3699 31.5355 26.3508C31.5069 26.3295 31.4804 26.3057 31.4565 26.2797C31.3904 26.2069 31.3387 26.1233 31.3038 26.0329C31.2639 25.9352 31.2389 25.8324 31.2295 25.7279C31.2176 25.6198 31.2202 25.5108 31.2371 25.4033C31.2543 25.2972 31.2866 25.1938 31.333 25.096C31.3593 25.0431 31.3913 24.9931 31.4284 24.9466C31.4609 24.9054 31.4989 24.8686 31.5414 24.8369C31.5783 24.8081 31.6201 24.7856 31.6649 24.7703C31.7068 24.7553 31.7512 24.7475 31.7959 24.7473C31.8253 24.7464 31.8546 24.7494 31.8831 24.7563C31.9123 24.7627 31.9406 24.7724 31.9674 24.7854C31.9968 24.7992 32.0249 24.8157 32.0511 24.8346C32.079 24.8558 32.1051 24.8792 32.1289 24.9045C32.1947 24.9777 32.2462 25.0615 32.2811 25.1519C32.3195 25.2501 32.3445 25.3526 32.3554 25.457C32.3665 25.5651 32.3641 25.674 32.3483 25.7816C32.3331 25.8866 32.3019 25.989 32.2558 26.0855C32.2297 26.139 32.1979 26.1898 32.161 26.2372C32.1287 26.2783 32.091 26.3152 32.0487 26.3469C32.0108 26.3751 31.9688 26.3979 31.924 26.4146C31.882 26.4294 31.8377 26.4375 31.7929 26.4387H31.7929ZM33.8125 26.4157C33.7688 26.4163 33.7253 26.4091 33.6843 26.3944C33.64 26.3799 33.5986 26.3581 33.562 26.3301C33.5202 26.2999 33.483 26.2643 33.4514 26.2243C33.4148 26.1781 33.3836 26.1282 33.3584 26.0754C33.3128 25.9788 33.2816 25.8765 33.2659 25.7715C33.2501 25.6643 33.2477 25.5557 33.2588 25.448C33.2699 25.3441 33.2949 25.2419 33.3331 25.1441C33.3685 25.0548 33.4191 24.9718 33.4829 24.8984C33.5069 24.8721 33.5334 24.8479 33.5619 24.8262C33.5878 24.8071 33.6154 24.7902 33.6445 24.7758C33.6715 24.7622 33.7002 24.7519 33.7299 24.7451C33.7583 24.7376 33.7876 24.734 33.8171 24.7344C33.861 24.7345 33.9046 24.7419 33.9458 24.7563C33.9901 24.772 34.0314 24.7945 34.0681 24.8229C34.1102 24.8539 34.1476 24.8902 34.1793 24.9309C34.2155 24.9775 34.2469 25.0274 34.273 25.0798C34.3173 25.1763 34.3476 25.2782 34.3631 25.3826C34.3789 25.4886 34.3813 25.5961 34.3702 25.7027C34.3592 25.8055 34.3342 25.9065 34.2959 26.0032C34.2613 26.0929 34.2102 26.1759 34.145 26.2484C34.1219 26.2754 34.0958 26.3 34.0672 26.3217C34.0419 26.3418 34.0144 26.3593 33.9852 26.3737C33.9583 26.3871 33.9298 26.3974 33.9004 26.4045C33.8718 26.4121 33.8422 26.4158 33.8126 26.4157L33.8125 26.4157ZM31.1615 23.5638C31.1466 23.5642 31.1317 23.5634 31.117 23.5616C31.1024 23.5593 31.0866 23.5571 31.0714 23.5537C31.0559 23.5499 31.0406 23.5453 31.0257 23.5398C31.0104 23.5348 30.9955 23.5286 30.9812 23.5213C30.9025 23.4825 30.8347 23.4263 30.7834 23.3573C30.724 23.28 30.6781 23.194 30.6477 23.1026C30.6131 23.0013 30.5926 22.8961 30.5868 22.7898C30.5797 22.6772 30.5886 22.5642 30.6132 22.4539C30.6315 22.3695 30.6602 22.2875 30.6986 22.2094C30.7323 22.1425 30.7754 22.0804 30.8268 22.0247C30.872 21.9772 30.926 21.9379 30.9859 21.9089C31.0404 21.8826 31.1005 21.869 31.1615 21.8692C31.1767 21.8692 31.1914 21.8703 31.2054 21.8714C31.22 21.8736 31.2347 21.8759 31.2499 21.8792C31.2645 21.8837 31.2797 21.8871 31.2932 21.8927C31.3078 21.8978 31.323 21.9044 31.3376 21.9111C31.4163 21.9517 31.484 22.0092 31.5354 22.079C31.5943 22.1574 31.6399 22.2441 31.6706 22.3359C31.7048 22.4373 31.7251 22.5424 31.731 22.6488C31.7385 22.7598 31.7304 22.8712 31.707 22.9801C31.6885 23.0635 31.6602 23.1446 31.6227 23.2219C31.5893 23.2887 31.5466 23.3508 31.4957 23.4066C31.4509 23.4544 31.3974 23.4941 31.3377 23.5236C31.2829 23.5496 31.2227 23.5633 31.1615 23.5638L31.1615 23.5638ZM34.4364 23.5627C34.3763 23.5622 34.3171 23.548 34.2638 23.5213C34.2055 23.4921 34.1533 23.4528 34.1099 23.4055C34.0588 23.3505 34.0164 23.2886 33.984 23.2219C33.946 23.1448 33.9179 23.0637 33.9004 22.9801C33.877 22.8723 33.869 22.762 33.8764 22.6521C33.8818 22.5469 33.9018 22.4428 33.936 22.3426C33.9657 22.2523 34.0103 22.167 34.0683 22.0902C34.1189 22.0228 34.1855 21.9677 34.2626 21.9296C34.2768 21.9225 34.2914 21.9164 34.3065 21.9111C34.3205 21.9054 34.3349 21.9009 34.3498 21.8977C34.3644 21.8943 34.3785 21.8926 34.3931 21.8904C34.4077 21.8893 34.4218 21.8882 34.4364 21.8882C34.4957 21.8896 34.5539 21.9037 34.6067 21.9296C34.6648 21.9593 34.7168 21.999 34.76 22.0466C34.8106 22.1013 34.8526 22.1627 34.8847 22.229C34.9217 22.3055 34.9492 22.3859 34.9666 22.4686C34.9897 22.5771 34.9982 22.6881 34.9917 22.7988C34.9859 22.9038 34.966 23.0076 34.9326 23.1078C34.9023 23.1982 34.8575 23.2835 34.7998 23.3608C34.75 23.4288 34.6837 23.4843 34.6067 23.5225C34.5929 23.529 34.5789 23.5348 34.5645 23.5399C34.5504 23.5452 34.536 23.5495 34.5212 23.5527C34.5072 23.5561 34.4929 23.5584 34.4785 23.5595C34.4646 23.5617 34.4505 23.5629 34.4364 23.5629L34.4364 23.5627ZM23.7942 21.7667C23.8056 21.7669 23.8169 21.7676 23.8282 21.7689C23.84 21.7698 23.8517 21.7713 23.8633 21.7734C23.8744 21.7757 23.8861 21.7773 23.8978 21.7807C23.9095 21.784 23.9212 21.7875 23.9329 21.7919L30.4827 24.1464C30.5255 24.161 30.5656 24.1819 30.6015 24.2086C30.6391 24.2353 30.6722 24.2674 30.6998 24.3036C30.7303 24.3413 30.7556 24.3825 30.7753 24.4262C30.7968 24.4728 30.8125 24.5216 30.8221 24.5717C30.8257 24.5846 30.828 24.5975 30.8303 24.6109C30.8327 24.6238 30.8339 24.6372 30.8362 24.6501L30.8397 24.6909C30.8409 24.7038 30.8409 24.7167 30.8409 24.7301C30.8418 24.771 30.8399 24.812 30.835 24.8527C30.8301 24.893 30.8225 24.933 30.8122 24.9724C30.8025 25.013 30.7897 25.0528 30.7742 25.0916C30.7585 25.1309 30.7403 25.1692 30.7197 25.2064L26.4078 32.7481C26.381 32.7942 26.3501 32.838 26.3153 32.879C26.2843 32.9158 26.2492 32.9492 26.2106 32.9787C26.1756 33.0047 26.137 33.026 26.0959 33.0419C26.0573 33.0568 26.0163 33.0653 25.9747 33.0671C25.934 33.0682 25.8933 33.0631 25.8542 33.052C25.8137 33.0403 25.7753 33.0225 25.7407 32.9993C25.7026 32.9739 25.6678 32.9442 25.6371 32.9109C25.6026 32.8727 25.5722 32.8312 25.5464 32.7872C25.1608 32.1407 24.8257 31.4678 24.5439 30.7741C24.2468 30.0426 24.0001 29.2932 23.8053 28.5309C23.6021 27.7378 23.4499 26.9335 23.3495 26.1226C23.2456 25.2898 23.1936 24.4518 23.1938 23.6131C23.1938 23.5191 23.1944 23.4262 23.1956 23.3344C23.1973 23.2426 23.1991 23.1519 23.202 23.0607C23.2049 22.9712 23.2084 22.8816 23.2125 22.7921C23.2161 22.7025 23.2213 22.613 23.2266 22.5223C23.2309 22.4255 23.248 22.3296 23.2775 22.2369C23.3029 22.1549 23.3405 22.0768 23.3893 22.0052C23.4315 21.9426 23.4855 21.8882 23.5485 21.8445C23.605 21.8052 23.6707 21.7796 23.7399 21.7701L23.7534 21.769C23.7623 21.7682 23.7713 21.7675 23.7803 21.7667L23.7942 21.7667ZM41.25 21.8837C41.2785 21.8835 41.3069 21.8871 41.3343 21.8943C41.3622 21.9017 41.389 21.912 41.4145 21.9251C41.4406 21.9394 41.4651 21.9563 41.4876 21.9754C41.5124 21.995 41.5349 22.017 41.5549 22.0409C41.5724 22.0609 41.5884 22.0821 41.6029 22.1042C41.6181 22.1275 41.632 22.1516 41.6444 22.1764C41.6579 22.2025 41.67 22.2292 41.6807 22.2564C41.6913 22.285 41.7012 22.3141 41.7094 22.3437C41.7154 22.3632 41.7203 22.383 41.724 22.4031C41.7287 22.4238 41.7334 22.4445 41.7369 22.4652C41.7404 22.4859 41.7427 22.5077 41.7445 22.5295C41.7468 22.5503 41.7492 22.5732 41.7503 22.595C41.755 22.6795 41.7597 22.7624 41.7632 22.8469C41.7668 22.9308 41.7697 23.0148 41.772 23.1004C41.7743 23.1844 41.7756 23.2694 41.7767 23.3551C41.7779 23.4402 41.779 23.5253 41.779 23.6132C41.7793 24.3954 41.734 25.1769 41.6433 25.9543C41.5544 26.7152 41.4208 27.4706 41.243 28.2171C41.0701 28.9411 40.8518 29.6545 40.5893 30.3533C40.3367 31.0256 40.0369 31.6808 39.6922 32.3144C39.6691 32.3565 39.6423 32.3966 39.612 32.4342C39.5853 32.4682 39.5542 32.4988 39.5195 32.5254C39.4884 32.5492 39.4542 32.569 39.4177 32.5842C39.3824 32.5971 39.3453 32.6049 39.3076 32.6072C39.2704 32.6081 39.2334 32.6026 39.1982 32.5909C39.1606 32.5779 39.1251 32.5598 39.0929 32.5372C39.0582 32.5114 39.0264 32.4821 38.9981 32.4499C38.9661 32.4126 38.9383 32.3723 38.915 32.3296L34.8641 25.1814C34.8436 25.1456 34.826 25.1083 34.8114 25.07C34.7964 25.0317 34.7837 24.9927 34.7734 24.953C34.7646 24.9138 34.7564 24.8735 34.7517 24.8338C34.747 24.7942 34.7453 24.7544 34.7464 24.7146C34.7464 24.7006 34.747 24.6877 34.7482 24.6743C34.7482 24.6612 34.7494 24.6481 34.7517 24.6351C34.7529 24.6217 34.7541 24.6088 34.7564 24.596C34.7587 24.5836 34.7611 24.5708 34.7646 24.5573C34.7743 24.5081 34.7896 24.4601 34.8102 24.4141C34.829 24.3711 34.8532 24.3305 34.8822 24.2932C34.9087 24.2575 34.9407 24.2258 34.977 24.1992C35.0114 24.1733 35.0494 24.1522 35.09 24.1365L41.1265 21.9045C41.1319 21.9029 41.1371 21.9011 41.1423 21.8989C41.1475 21.8979 41.1526 21.8964 41.1575 21.8944L41.1733 21.8916L41.1879 21.8882L41.1961 21.8871L41.2043 21.886L41.2119 21.8848H41.2201L41.2272 21.8837H41.25L41.25 21.8837ZM32.8042 21.7941C32.7258 21.7932 32.6494 21.77 32.5848 21.7275C32.5122 21.6794 32.4508 21.6175 32.4045 21.5456C32.3496 21.4631 32.3087 21.3728 32.2834 21.2781C32.2533 21.1704 32.2382 21.0594 32.2383 20.9479C32.2381 20.8371 32.2532 20.7268 32.2834 20.6199C32.3087 20.5248 32.3496 20.4342 32.4045 20.3513C32.4509 20.2797 32.5122 20.2182 32.5848 20.1705C32.6501 20.1281 32.7276 20.1061 32.8065 20.1073C32.8854 20.1085 32.9621 20.1329 33.026 20.1773C33.0989 20.2258 33.1605 20.2884 33.2068 20.3609C33.261 20.4447 33.3018 20.5358 33.328 20.6312C33.3575 20.7382 33.3725 20.8484 33.3724 20.9591C33.3726 21.0697 33.3577 21.1797 33.328 21.2866C33.3023 21.3806 33.2614 21.4703 33.2068 21.5524C33.1606 21.6234 33.0989 21.6841 33.026 21.7304C32.9605 21.7725 32.8832 21.7947 32.8042 21.7942V21.7941ZM34.8536 10.2749H34.8548C34.8619 10.2749 34.8694 10.276 34.8765 10.276L34.8981 10.2794C34.9052 10.2811 34.9122 10.2822 34.9198 10.2845C34.9271 10.2858 34.9344 10.2876 34.9414 10.2901L34.9508 10.2935L34.9601 10.2969L34.9677 10.3003L34.9771 10.3031C35.553 10.5415 36.1101 10.865 36.6415 11.2629C37.191 11.6796 37.6931 12.1505 38.1396 12.6677C38.6247 13.227 39.0573 13.8261 39.4323 14.4581C39.8369 15.1378 40.1859 15.8464 40.4764 16.5776C40.4898 16.6117 40.5021 16.6464 40.5126 16.6829C40.522 16.7187 40.5308 16.7551 40.5367 16.792C40.5436 16.8292 40.5485 16.8668 40.5513 16.9045C40.5548 16.9424 40.556 16.9806 40.5548 17.0187C40.5548 17.0349 40.5537 17.0522 40.5525 17.0696C40.5513 17.0864 40.5501 17.1037 40.5496 17.12L40.5425 17.1703C40.5401 17.1866 40.5366 17.2034 40.5343 17.2196C40.5223 17.2716 40.5063 17.3227 40.4863 17.3724C40.4684 17.4184 40.4463 17.4628 40.4202 17.505C40.3952 17.5436 40.3664 17.5798 40.3342 17.6131C40.3044 17.6438 40.2706 17.6708 40.2335 17.6931L34.4539 21.1796C34.4364 21.1897 34.4206 21.1981 34.4036 21.2059C34.3874 21.2141 34.3706 21.221 34.3533 21.2266C34.3369 21.2322 34.3201 21.2363 34.3029 21.2389C34.2863 21.2416 34.2695 21.2429 34.2526 21.2428C34.2249 21.243 34.1974 21.2387 34.1712 21.23C34.1438 21.222 34.1179 21.2097 34.0946 21.1936C34.0684 21.1775 34.0449 21.1576 34.025 21.1348C34.0018 21.1104 33.9815 21.0835 33.9646 21.0548C33.9457 21.025 33.9298 20.9935 33.9172 20.9607C33.9037 20.926 33.8926 20.8897 33.8821 20.8516C33.8626 20.7691 33.8526 20.6849 33.8522 20.6003C33.8516 20.5938 33.8516 20.5872 33.8522 20.5807V20.541C33.8522 20.5348 33.8534 20.5281 33.8534 20.5214L34.3304 10.9862C34.3347 10.8594 34.3624 10.7344 34.4123 10.6168C34.4334 10.5662 34.4607 10.5181 34.4936 10.4735C34.5225 10.4331 34.5572 10.3968 34.5966 10.3655C34.6327 10.3351 34.6741 10.3111 34.7189 10.2944C34.7403 10.2867 34.7624 10.2812 34.7851 10.2782C34.8077 10.2749 34.8306 10.2737 34.8535 10.2748L34.8536 10.2749ZM30.7354 10.0661C30.7442 10.0664 30.753 10.0671 30.7617 10.0684C30.7702 10.0691 30.7786 10.0704 30.7869 10.0723C30.7954 10.0736 30.8038 10.0755 30.812 10.0779C30.8206 10.0799 30.829 10.0825 30.8372 10.0857C30.889 10.1043 30.937 10.1316 30.9788 10.1663C31.0248 10.2056 31.0652 10.2506 31.0988 10.3001C31.1365 10.3555 31.1675 10.4148 31.1912 10.4769C31.2187 10.5455 31.2387 10.6166 31.2509 10.689L31.258 10.7271C31.2592 10.7405 31.2609 10.7534 31.2621 10.7668L31.2657 10.806L31.2692 10.8463L31.7504 20.4973C31.7513 20.5038 31.7517 20.5104 31.7515 20.5169C31.7515 20.5237 31.7527 20.5304 31.7527 20.5371V20.5763C31.7515 20.621 31.7491 20.6647 31.7451 20.7061C31.7403 20.747 31.7329 20.7875 31.7228 20.8275C31.7143 20.8645 31.7029 20.9008 31.6888 20.9361C31.676 20.9692 31.6603 21.0012 31.6419 21.0318C31.6237 21.0605 31.603 21.0877 31.5799 21.113C31.5584 21.1344 31.5346 21.1538 31.5091 21.1707C31.4847 21.1861 31.4581 21.1979 31.4301 21.206C31.4035 21.2135 31.3759 21.2171 31.3482 21.2166C31.3309 21.2164 31.3137 21.2151 31.2967 21.2127C31.2791 21.2094 31.2618 21.2045 31.2452 21.1981C31.2275 21.1924 31.2103 21.1855 31.1937 21.1774C31.176 21.1689 31.1588 21.1593 31.1422 21.1489L24.9412 17.3442C24.8999 17.3189 24.8621 17.2886 24.8289 17.2541C24.7933 17.2177 24.7617 17.178 24.7347 17.1354C24.7059 17.0894 24.6812 17.0411 24.6609 16.9911C24.64 16.9377 24.6234 16.8829 24.6112 16.8271C24.6056 16.8061 24.6013 16.7848 24.5983 16.7633C24.5942 16.7426 24.5912 16.7208 24.5884 16.6989C24.5861 16.6771 24.5843 16.6564 24.5831 16.6346C24.5818 16.6127 24.5813 16.5909 24.5819 16.5691C24.5818 16.5328 24.5838 16.4966 24.5878 16.4605C24.5919 16.4247 24.5971 16.3894 24.6041 16.3535C24.6118 16.3188 24.6205 16.2836 24.6311 16.2494C24.6422 16.2158 24.6539 16.1817 24.6685 16.1493C24.9925 15.3963 25.3823 14.6708 25.8337 13.9805C26.2673 13.3223 26.7419 12.7296 27.2505 12.213C27.7578 11.697 28.2962 11.2565 28.8598 10.8977C29.421 10.5412 30.0039 10.267 30.6026 10.0834L30.6119 10.08C30.6153 10.0787 30.6189 10.078 30.6225 10.0778C30.6252 10.0764 30.6282 10.0756 30.6313 10.0755C30.6342 10.0743 30.6374 10.0735 30.6406 10.0733L30.6564 10.0699C30.6615 10.0696 30.6666 10.069 30.6716 10.0682L30.6874 10.066H30.7021L30.7102 10.0648H30.7184L30.7272 10.066L30.7354 10.0661ZM32.8077 7.28284C31.2838 7.18881 29.8167 7.56156 28.4678 8.32049C27.1054 9.08779 25.8659 10.2486 24.8166 11.7188C23.7597 13.1997 22.8977 14.9913 22.2996 17.0027C21.6986 19.0232 21.365 21.2574 21.365 23.6075C21.365 25.9587 21.6986 28.194 22.2996 30.2155C22.8977 32.2276 23.7597 34.0202 24.8166 35.5017C25.8658 36.972 27.1054 38.1327 28.4678 38.9C29.8167 39.6601 31.2838 40.0317 32.8077 39.9388C34.3141 39.847 35.7338 39.308 37.0119 38.4182C38.2771 37.5384 39.406 36.3116 40.3482 34.8307C41.2816 33.3593 42.033 31.6321 42.5492 29.7331C43.0636 27.842 43.3474 25.774 43.3474 23.6075C43.3474 21.4432 43.0636 19.3746 42.5492 17.4852C42.033 15.5873 41.2815 13.8602 40.3482 12.3899C39.406 10.909 38.2771 9.68221 37.0119 8.80241C35.7338 7.91364 34.314 7.37467 32.8077 7.2829" fill="white"/>
<path d="M32.8042 20.1074C32.7261 20.1071 32.6496 20.1292 32.5847 20.1707C32.512 20.2183 32.4505 20.2799 32.4039 20.3514C32.3495 20.4346 32.3086 20.5252 32.2828 20.6201C32.2531 20.7271 32.2381 20.8373 32.2383 20.948C32.2382 21.0595 32.2532 21.1705 32.2828 21.2783C32.3087 21.3728 32.3496 21.463 32.4039 21.5458C32.4506 21.6175 32.5121 21.6794 32.5847 21.7277C32.6494 21.7706 32.7261 21.7938 32.8049 21.7943C32.8836 21.7948 32.9607 21.7726 33.026 21.7305C33.0988 21.6843 33.1603 21.6236 33.2062 21.5525C33.261 21.4705 33.302 21.3808 33.3279 21.2867C33.3576 21.1797 33.3726 21.0694 33.3724 20.9587C33.3724 20.8482 33.3575 20.7381 33.3279 20.6313C33.3016 20.5359 33.2605 20.4448 33.2062 20.361C33.1604 20.2883 33.099 20.2257 33.026 20.1774C32.9611 20.1333 32.8838 20.1089 32.8042 20.1074" fill="#CDCED0"/>
<path d="M34.4371 21.8882C34.4219 21.8882 34.4078 21.8894 34.3938 21.8905C34.378 21.8927 34.3651 21.895 34.3499 21.8983C34.3349 21.9012 34.3202 21.9055 34.306 21.9112C34.292 21.9168 34.2768 21.9229 34.2633 21.9296C34.186 21.9678 34.1192 22.0228 34.0684 22.0903C34.0104 22.1671 33.9655 22.2523 33.9356 22.3427C33.9017 22.4429 33.882 22.547 33.877 22.6522C33.8693 22.762 33.8773 22.8724 33.901 22.9801C33.918 23.0637 33.9459 23.145 33.9841 23.2219C34.0163 23.2886 34.0585 23.3504 34.1093 23.4055C34.1528 23.453 34.2052 23.4923 34.2638 23.5214C34.3172 23.5483 34.3766 23.5625 34.437 23.5628C34.4511 23.5627 34.4652 23.5615 34.4791 23.5594C34.4931 23.5581 34.507 23.5561 34.5207 23.5532C34.5356 23.5498 34.5503 23.5453 34.5645 23.5398C34.579 23.5349 34.5931 23.5291 34.6067 23.5224C34.6837 23.4842 34.75 23.4287 34.7998 23.3607C34.8575 23.2835 34.9025 23.1984 34.9332 23.1083C34.9656 23.0077 34.9853 22.9038 34.9918 22.7988C34.9988 22.6881 34.9904 22.5771 34.9667 22.4686C34.9492 22.386 34.9219 22.3056 34.8853 22.229C34.8528 22.1628 34.8107 22.1014 34.7601 22.0466C34.717 21.9988 34.665 21.9592 34.6067 21.9296C34.5542 21.9037 34.4961 21.8896 34.437 21.8882" fill="#CDCED0"/>
<path d="M33.8172 24.7349C33.7879 24.7346 33.7587 24.7384 33.7306 24.7461C33.7007 24.7526 33.6718 24.7628 33.6446 24.7763C33.6156 24.7908 33.588 24.8076 33.562 24.8266C33.5338 24.8484 33.5075 24.8726 33.4836 24.8988C33.4194 24.9719 33.3687 25.055 33.3338 25.1444C33.295 25.2421 33.27 25.3444 33.2595 25.4484C33.2478 25.5563 33.2502 25.6651 33.2666 25.7724C33.2823 25.8772 33.3134 25.9793 33.359 26.0758C33.3841 26.1285 33.4151 26.1784 33.4515 26.2246C33.4832 26.2647 33.5204 26.3004 33.5621 26.331C33.5991 26.3585 33.6403 26.3802 33.6844 26.3953C33.7255 26.4095 33.7689 26.4165 33.8126 26.4161C33.8424 26.4162 33.8722 26.4124 33.9009 26.4049C33.9301 26.3979 33.9584 26.3877 33.9852 26.3747C34.0145 26.3598 34.0422 26.3422 34.0677 26.322C34.0965 26.3005 34.1226 26.2759 34.1456 26.2487C34.2104 26.1763 34.2613 26.0936 34.296 26.0042C34.3348 25.9075 34.3598 25.8062 34.3703 25.703C34.3813 25.5964 34.3791 25.489 34.3638 25.3829C34.3481 25.2785 34.3176 25.1766 34.2731 25.0801C34.2471 25.0278 34.2157 24.9782 34.1794 24.9318C34.148 24.8909 34.1108 24.8543 34.0688 24.8233C34.0319 24.7951 33.9907 24.7726 33.9465 24.7566C33.905 24.7426 33.8613 24.7352 33.8172 24.7349Z" fill="#CDCED0"/>
<path d="M31.1621 21.8697C31.101 21.869 31.0406 21.8824 30.986 21.9088C30.9263 21.938 30.8726 21.9773 30.8274 22.0247C30.776 22.0803 30.7328 22.1424 30.6992 22.2094C30.6606 22.2875 30.6319 22.3698 30.6138 22.4545C30.5892 22.5648 30.5803 22.6777 30.5875 22.7903C30.5928 22.8965 30.6131 23.0015 30.6479 23.1026C30.6786 23.1939 30.7247 23.28 30.7842 23.3572C30.8351 23.4264 30.9028 23.4826 30.9814 23.5212C30.9956 23.529 31.0108 23.5352 31.0265 23.5397C31.0414 23.5455 31.0566 23.5503 31.0721 23.5543C31.0872 23.5575 31.1024 23.56 31.1178 23.5615C31.1325 23.5634 31.1474 23.5641 31.1622 23.5638C31.2234 23.5635 31.2837 23.5497 31.3384 23.5235C31.3979 23.494 31.4513 23.4544 31.4958 23.4065C31.547 23.3509 31.5898 23.2888 31.6228 23.2218C31.6606 23.1445 31.6891 23.0634 31.7077 22.98C31.7307 22.8713 31.7388 22.7601 31.7316 22.6493C31.7258 22.5429 31.7054 22.4377 31.6707 22.3365C31.6401 22.2447 31.5947 22.158 31.5361 22.0796C31.4847 22.0096 31.417 21.9519 31.3383 21.9111C31.3231 21.9043 31.3085 21.8982 31.2938 21.8926C31.2795 21.8874 31.2649 21.8831 31.2499 21.8797C31.2353 21.8763 31.2207 21.8741 31.2055 21.8719C31.192 21.8708 31.1768 21.8697 31.1622 21.8697" fill="#CDCED0"/>
<path d="M34.2527 20.6921L34.2363 20.687C34.2332 20.6831 34.2314 20.6784 34.231 20.6735C34.2281 20.6658 34.2261 20.6577 34.2251 20.6495C34.2239 20.6389 34.2228 20.6276 34.2215 20.6137C34.2215 20.5991 34.2215 20.584 34.2227 20.5666L34.65 11.9572C35.1761 12.1661 35.68 12.4525 36.1557 12.8051C36.6309 13.1572 37.078 13.5769 37.493 14.0538C37.9211 14.5505 38.3021 15.0828 38.6312 15.6444C38.9855 16.2476 39.2905 16.8761 39.5436 17.5243L34.3165 20.6725L34.2527 20.6921ZM34.8537 10.2748C34.8308 10.2737 34.8078 10.2749 34.7852 10.2782C34.7626 10.2815 34.7405 10.287 34.7191 10.2944C34.697 10.3022 34.6758 10.3121 34.6559 10.3241C34.6347 10.3359 34.6149 10.3497 34.5967 10.3655C34.5573 10.3967 34.5226 10.4331 34.4937 10.4735C34.4611 10.5182 34.4338 10.5663 34.4124 10.6168C34.3883 10.6727 34.3695 10.7306 34.3562 10.7897C34.341 10.8543 34.3321 10.92 34.3299 10.9862L33.8535 20.522C33.8535 20.5282 33.8524 20.5349 33.8524 20.5416V20.5808C33.8518 20.5873 33.8518 20.5938 33.8524 20.6004C33.8527 20.6439 33.8554 20.6875 33.8606 20.7308C33.8664 20.7733 33.8729 20.8136 33.8822 20.8517C33.8918 20.8888 33.9035 20.9254 33.9173 20.9614C33.9302 20.9939 33.9459 21.0253 33.9641 21.0554C33.9816 21.0837 34.002 21.1104 34.025 21.1349C34.0451 21.1577 34.0686 21.1777 34.0946 21.1942C34.1179 21.2101 34.1438 21.2222 34.1713 21.23C34.1974 21.2389 34.2249 21.2434 34.2526 21.2434C34.2695 21.2436 34.2864 21.2421 34.303 21.239C34.3201 21.2364 34.337 21.2323 34.3533 21.2267C34.3706 21.2214 34.3872 21.2145 34.403 21.2059C34.4205 21.1984 34.4373 21.1896 34.4534 21.1796L40.2336 17.6928C40.2707 17.6704 40.3045 17.6435 40.3343 17.6127C40.3666 17.5795 40.3954 17.5433 40.4203 17.5047C40.4465 17.4627 40.4687 17.4185 40.4864 17.3726C40.5064 17.3227 40.5224 17.2715 40.5344 17.2193C40.5367 17.203 40.5402 17.1868 40.5426 17.17C40.5449 17.1538 40.5473 17.1364 40.549 17.1196L40.5526 17.0698C40.5537 17.0519 40.5549 17.0346 40.5549 17.0183C40.5561 16.9804 40.5549 16.9425 40.5514 16.9047C40.5478 16.8661 40.5437 16.8292 40.5367 16.7923C40.5309 16.7547 40.5221 16.7189 40.5127 16.6826C40.5024 16.6471 40.4901 16.6121 40.4759 16.5779C40.186 15.8466 39.8371 15.138 39.4324 14.4584C39.0573 13.8263 38.6247 13.227 38.1397 12.6675C37.693 12.1506 37.1909 11.6799 36.6415 11.2633C36.1096 10.8654 35.553 10.5419 34.9772 10.3034L34.9678 10.3001L34.9602 10.2967L34.9508 10.2933L34.9414 10.2899C34.9344 10.2876 34.9271 10.2859 34.9198 10.2848C34.9122 10.2825 34.9052 10.2814 34.8981 10.2792L34.8765 10.2758C34.8694 10.2758 34.8619 10.2747 34.8548 10.2747L34.8537 10.2748Z" fill="#CDCED0"/>
<path d="M31.3483 20.6619L31.3366 20.6608C31.3317 20.6595 31.3268 20.658 31.322 20.6563L31.3062 20.6495C31.2991 20.6461 31.2933 20.6427 31.2863 20.6389L25.7145 17.2064C25.9929 16.54 26.3286 15.8968 26.7181 15.2834C27.0746 14.7209 27.4876 14.193 27.9512 13.7072C28.3959 13.2461 28.8711 12.8504 29.3721 12.5274C29.8713 12.2073 30.3962 11.9594 30.9404 11.7943L31.3758 20.5393C31.3774 20.5549 31.3778 20.5706 31.377 20.5863C31.3773 20.5975 31.3769 20.6087 31.3758 20.6199C31.3745 20.6277 31.3726 20.6353 31.37 20.6428C31.3692 20.6474 31.3672 20.6516 31.3641 20.6551L31.3618 20.6585L31.3582 20.6597L31.3541 20.6608L31.3483 20.6619L31.3483 20.6619ZM30.7356 10.0661H30.7274L30.7187 10.0649H30.7104L30.7022 10.0661H30.6876L30.6718 10.0683L30.6566 10.0705L30.6408 10.0739C30.6376 10.0742 30.6344 10.0749 30.6314 10.0762L30.6227 10.0779C30.619 10.0781 30.6155 10.0788 30.6121 10.0801L30.6028 10.0835C30.0041 10.2671 29.4212 10.542 28.86 10.8979C28.2964 11.2566 27.758 11.6971 27.2506 12.2131C26.7421 12.7302 26.2675 13.3224 25.8339 13.9806C25.3827 14.671 24.993 15.3964 24.6688 16.1492C24.6541 16.1822 24.6424 16.2158 24.6313 16.2499C24.6208 16.2835 24.612 16.3187 24.6044 16.3535C24.5973 16.3899 24.5921 16.4246 24.588 16.4609C24.584 16.4968 24.582 16.5329 24.5821 16.569C24.5816 16.5908 24.5821 16.6126 24.5833 16.6344C24.5845 16.6563 24.5862 16.6775 24.5886 16.6994C24.5916 16.7212 24.5945 16.743 24.5986 16.7637C24.6016 16.785 24.6059 16.8062 24.6115 16.827C24.6235 16.8828 24.6402 16.9376 24.6612 16.991C24.6812 17.0411 24.7059 17.0894 24.7349 17.1353C24.7621 17.1779 24.7936 17.2179 24.8291 17.2545C24.8625 17.2888 24.9002 17.3188 24.9415 17.3441L31.1423 21.1493C31.1599 21.1599 31.1769 21.1689 31.1938 21.1779C31.2108 21.1851 31.2284 21.193 31.2453 21.1986C31.2621 21.2045 31.2793 21.2092 31.2968 21.2126C31.3138 21.2152 31.331 21.2167 31.3483 21.217C31.376 21.2173 31.4037 21.2135 31.4302 21.2059C31.4582 21.198 31.4848 21.1863 31.5092 21.1711C31.5346 21.1538 31.5583 21.1344 31.5801 21.1129C31.603 21.0877 31.6237 21.0608 31.6421 21.0323C31.6604 21.0015 31.676 20.9693 31.6889 20.9361C31.7029 20.9009 31.7143 20.8648 31.7228 20.8281C31.7328 20.788 31.7402 20.7475 31.7451 20.7066C31.7492 20.6646 31.7515 20.621 31.7527 20.5762V20.537C31.7527 20.5302 31.7515 20.5242 31.7515 20.5174C31.7517 20.5109 31.7514 20.5043 31.7504 20.4978L31.2692 10.8468L31.2657 10.8059L31.2621 10.7668C31.261 10.7539 31.2592 10.7405 31.258 10.7276L31.2509 10.689C31.2386 10.6166 31.2188 10.5455 31.1916 10.4769C31.1677 10.4148 31.1367 10.3555 31.0991 10.3C31.0657 10.2506 31.0253 10.2057 30.9791 10.1668C30.9375 10.1317 30.8895 10.1042 30.8375 10.0856C30.8293 10.0824 30.8209 10.0798 30.8124 10.0778C30.8042 10.0761 30.7954 10.0739 30.7872 10.0727C30.7789 10.0707 30.7705 10.0692 30.762 10.0682C30.7533 10.067 30.7445 10.0662 30.7357 10.066" fill="#CDCED0"/>
<path d="M26.5648 31.5979C26.2333 31.0464 25.9435 30.473 25.6975 29.8819C25.4342 29.2509 25.2151 28.6038 25.0415 27.9449C24.8568 27.247 24.7183 26.5387 24.6266 25.8242C24.5299 25.0731 24.4816 24.3171 24.482 23.5603C24.482 23.4786 24.4826 23.3963 24.4838 23.3158C24.4856 23.2336 24.4867 23.1518 24.4891 23.0707C24.4915 22.989 24.495 22.9078 24.4985 22.8272C24.502 22.7449 24.5061 22.6649 24.5108 22.5843L30.3927 24.6854C30.4048 24.6894 30.4164 24.6949 30.4272 24.7016C30.435 24.7067 30.4423 24.7125 30.4489 24.7189C30.4536 24.7235 30.4576 24.7288 30.4606 24.7346C30.4626 24.738 30.4644 24.7416 30.4659 24.7452V24.7564C30.4647 24.7609 30.4635 24.7682 30.4612 24.7771C30.4583 24.788 30.4546 24.7987 30.4501 24.809C30.4447 24.8222 30.4383 24.8349 30.4308 24.8471L26.5648 31.5979ZM23.7944 21.7666H23.7809C23.7762 21.7665 23.7715 21.7668 23.7669 21.7678C23.7626 21.7676 23.7582 21.7679 23.754 21.7689L23.74 21.77C23.6708 21.7796 23.6051 21.8052 23.5486 21.8444C23.486 21.8885 23.4321 21.9429 23.3894 22.0051C23.3407 22.0768 23.303 22.1548 23.2776 22.2368C23.2481 22.3295 23.231 22.4254 23.2266 22.5222C23.2213 22.6129 23.2167 22.7024 23.2126 22.792C23.2085 22.8815 23.205 22.9711 23.2021 23.0612C23.1991 23.1518 23.1974 23.2425 23.1956 23.3343C23.1945 23.4261 23.1945 23.519 23.1945 23.613C23.1941 24.4517 23.2459 25.2897 23.3495 26.1225C23.4502 26.9335 23.6026 27.7378 23.8061 28.5309C24.0003 29.2933 24.2468 30.0427 24.544 30.7741C24.8261 31.4677 25.1612 32.1406 25.5465 32.7872C25.5726 32.8311 25.6029 32.8725 25.6372 32.9109C25.6681 32.9441 25.7028 32.9738 25.7408 32.9993C25.7754 33.0226 25.8138 33.0404 25.8543 33.052C25.8936 33.0632 25.9345 33.0683 25.9755 33.0671C26.0169 33.0653 26.0576 33.0568 26.096 33.0419C26.1372 33.026 26.1758 33.0047 26.2107 32.9787C26.2493 32.9492 26.2845 32.9158 26.3155 32.879C26.3502 32.8379 26.3813 32.7941 26.4085 32.7481L30.7198 25.2064C30.7404 25.1692 30.7588 25.1309 30.7749 25.0917C30.7902 25.053 30.8027 25.0134 30.8123 24.973C30.8228 24.9335 30.8304 24.8933 30.8351 24.8527C30.84 24.812 30.8419 24.7711 30.841 24.7301C30.841 24.7167 30.841 24.7038 30.8398 24.691L30.8363 24.6501C30.8339 24.6372 30.8327 24.6238 30.8304 24.6109C30.8287 24.5977 30.8262 24.5847 30.8228 24.5718C30.8129 24.5217 30.7972 24.4729 30.776 24.4263C30.7563 24.3825 30.731 24.3413 30.7005 24.3037C30.6726 24.2677 30.6395 24.2357 30.6022 24.2086C30.5661 24.1822 30.5261 24.1613 30.4834 24.1465L23.9331 21.7918C23.922 21.7873 23.9097 21.784 23.8985 21.7806C23.8863 21.7778 23.8751 21.7755 23.8634 21.7734C23.8518 21.7713 23.8401 21.7698 23.8283 21.7689C23.817 21.7676 23.8057 21.7668 23.7944 21.7666" fill="#CDCED0"/>
<path d="M38.7722 31.2423L35.1439 24.8267C35.1363 24.8122 35.1304 24.7993 35.1258 24.7881C35.121 24.7784 35.1173 24.7683 35.1146 24.7579C35.1123 24.7489 35.1111 24.7411 35.11 24.736L35.1111 24.726C35.1122 24.7222 35.1138 24.7187 35.1158 24.7153C35.1192 24.7097 35.1234 24.7044 35.1281 24.6997C35.134 24.6941 35.141 24.689 35.1486 24.6823C35.1588 24.676 35.1696 24.6706 35.1808 24.6661L40.6204 22.6446C40.6239 22.7201 40.6275 22.7968 40.6303 22.8735C40.6339 22.9485 40.6362 23.0252 40.6385 23.103C40.6408 23.1791 40.6432 23.2558 40.6444 23.3324C40.6455 23.4102 40.6455 23.4864 40.6455 23.5642C40.6462 24.2767 40.6034 24.9887 40.5174 25.6965C40.4355 26.373 40.3122 27.0442 40.1481 27.7068C39.9919 28.3374 39.7953 28.9581 39.5594 29.5655C39.336 30.1405 39.0731 30.7006 38.7722 31.2423V31.2423ZM41.25 21.8839H41.2272L41.2201 21.885H41.2124L41.2042 21.8862L41.196 21.8873L41.1884 21.8884L41.1732 21.8918L41.1574 21.8952C41.1524 21.8968 41.1474 21.8981 41.1422 21.8991C41.1371 21.9014 41.1318 21.9033 41.1264 21.9047L35.0907 24.1366C35.0499 24.1522 35.0116 24.1733 34.9771 24.1993C34.9411 24.2262 34.9092 24.2578 34.8823 24.2933C34.8533 24.3306 34.8291 24.3712 34.8103 24.4141C34.7902 24.4603 34.7749 24.5083 34.7647 24.5574C34.7611 24.5708 34.7588 24.5837 34.7565 24.596C34.7542 24.6089 34.7529 24.6223 34.7518 24.6352C34.75 24.6482 34.749 24.6613 34.7489 24.6744C34.7477 24.6878 34.7465 24.7007 34.7465 24.7152C34.7457 24.7548 34.7475 24.7945 34.7519 24.8339C34.757 24.874 34.7644 24.9138 34.7741 24.9531C34.7842 24.9927 34.7967 25.0318 34.8116 25.07C34.8262 25.1085 34.8438 25.1459 34.8642 25.182L38.915 32.3297C38.9385 32.3723 38.9664 32.4126 38.9981 32.45C39.0265 32.4822 39.0582 32.5115 39.093 32.5374C39.1253 32.5599 39.1607 32.578 39.1983 32.5911C39.2337 32.6027 39.2709 32.6082 39.3084 32.6073C39.3459 32.6053 39.3828 32.5975 39.4178 32.5844C39.4545 32.5695 39.4887 32.5497 39.5196 32.5256C39.5543 32.4992 39.5854 32.4687 39.6121 32.4349C39.6423 32.397 39.6691 32.3568 39.6923 32.3146C40.037 31.6809 40.3367 31.0257 40.5894 30.3535C40.8525 29.6548 41.0708 28.9414 41.2431 28.2172C41.4212 27.4708 41.5548 26.7153 41.6434 25.9545C41.734 25.1771 41.7793 24.3955 41.7791 23.6133C41.7791 23.526 41.7779 23.4404 41.7767 23.3552C41.7755 23.2701 41.7744 23.1845 41.7726 23.1006C41.7703 23.0149 41.7668 22.931 41.7632 22.847C41.7597 22.7625 41.755 22.6797 41.7504 22.5952C41.7498 22.5733 41.7474 22.5504 41.7451 22.5297C41.7427 22.5078 41.7404 22.486 41.7369 22.4653C41.7334 22.4446 41.7287 22.4239 41.7246 22.4032C41.7206 22.3832 41.7155 22.3634 41.7094 22.3439C41.7012 22.3148 41.6912 22.2851 41.6807 22.2566C41.67 22.2293 41.6579 22.2026 41.6444 22.1765C41.6316 22.1519 41.6181 22.1278 41.6035 22.1049C41.5887 22.0826 41.5725 22.0613 41.5549 22.0411C41.5349 22.0171 41.5123 21.9951 41.4876 21.9756C41.4649 21.9566 41.4404 21.9398 41.4144 21.9252C41.3892 21.9122 41.3625 21.902 41.3348 21.895C41.3073 21.8874 41.2787 21.8836 41.25 21.8838" fill="#CDCED0"/>
<path d="M32.8078 35.5762C32.5354 35.5889 32.2624 35.5809 31.9914 35.5521C31.7217 35.5226 31.4547 35.474 31.1926 35.4066C30.9282 35.338 30.6692 35.2514 30.4177 35.1474C30.1604 35.0405 29.9108 34.9175 29.6704 34.7791L32.7539 27.3253C32.761 27.3085 32.768 27.2957 32.7732 27.2845C32.7782 27.2761 32.7836 27.2681 32.7896 27.2604C32.7933 27.2558 32.7974 27.2515 32.8019 27.2475L32.8078 27.2441L32.8149 27.2475C32.8189 27.2516 32.8226 27.2559 32.826 27.2604C32.8307 27.266 32.8365 27.275 32.8436 27.2856C32.8489 27.2979 32.8558 27.3119 32.8617 27.3292L35.8731 34.5223C35.6437 34.6775 35.404 34.8185 35.1556 34.9443C34.9124 35.0675 34.6608 35.1748 34.4024 35.2655C34.147 35.3554 33.8849 35.4267 33.6182 35.4788C33.3512 35.5316 33.0802 35.5642 32.8077 35.5762L32.8078 35.5762ZM32.8077 26.7076C32.79 26.7072 32.7723 26.7091 32.7551 26.7132C32.7463 26.7154 32.7381 26.7176 32.7287 26.7193C32.7199 26.7227 32.7117 26.7249 32.7024 26.7294C32.6755 26.741 32.6501 26.7556 32.6269 26.773C32.6004 26.7926 32.5762 26.8149 32.5549 26.8396C32.5307 26.8675 32.5094 26.8975 32.4911 26.9292C32.4697 26.9659 32.4509 27.0041 32.435 27.0434L28.9752 35.3859C28.9615 35.4192 28.9497 35.4532 28.9401 35.4878C28.9288 35.5229 28.9196 35.5586 28.9126 35.5947C28.9055 35.6305 28.8997 35.6669 28.895 35.7039C28.8921 35.7402 28.8897 35.7772 28.8897 35.8136C28.8885 35.8365 28.8897 35.8583 28.8897 35.8802C28.8909 35.902 28.8932 35.9238 28.895 35.9456C28.8974 35.9664 28.8997 35.9882 28.9032 36.01C28.9067 36.0307 28.9114 36.0514 28.9161 36.0721C28.9274 36.125 28.9439 36.1767 28.9652 36.2266C28.9839 36.2734 29.0072 36.3184 29.0349 36.361C29.0607 36.3997 29.0905 36.4359 29.1238 36.469C29.1554 36.4998 29.1913 36.5263 29.2303 36.5479C29.5119 36.706 29.8044 36.8455 30.1058 36.9654C30.395 37.0805 30.6925 37.1755 30.9959 37.2497C31.2914 37.3215 31.5921 37.3722 31.8954 37.4014C32.5024 37.4581 33.1149 37.4264 33.7119 37.3074C34.0126 37.248 34.3083 37.1678 34.5968 37.0673C34.8922 36.9635 35.18 36.8409 35.4582 36.7001C35.747 36.5541 36.0257 36.3905 36.2926 36.2104C36.3294 36.1851 36.3627 36.1556 36.3921 36.1225C36.4248 36.0875 36.4533 36.049 36.4769 36.0078C36.5033 35.9638 36.5258 35.9177 36.5442 35.8701C36.5629 35.8195 36.5782 35.7677 36.5899 35.7151C36.5934 35.6972 36.597 35.6798 36.5992 35.6625C36.601 35.6451 36.6033 35.6278 36.6057 35.6098C36.608 35.5925 36.6092 35.5751 36.6104 35.5578C36.6115 35.5388 36.6127 35.5214 36.6127 35.5041C36.6139 35.4643 36.6115 35.4251 36.6091 35.3871C36.6056 35.3479 36.5998 35.3093 36.5933 35.2724C36.5868 35.235 36.578 35.198 36.567 35.1615C36.5566 35.1261 36.5443 35.0912 36.5301 35.0569L33.1805 27.0333C33.1597 26.983 33.1341 26.9347 33.1039 26.8889C33.0779 26.8517 33.0472 26.8177 33.0126 26.7877C32.983 26.7623 32.9494 26.7416 32.9132 26.7261C32.8797 26.7131 32.8439 26.7068 32.8078 26.7076" fill="#CDCED0"/>
<path d="M31.7964 24.7477C31.7515 24.748 31.7069 24.7557 31.6648 24.7707C31.62 24.7862 31.5782 24.8086 31.5412 24.8372C31.499 24.869 31.461 24.9057 31.4282 24.9464C31.3915 24.9932 31.3598 25.0435 31.3334 25.0964C31.2866 25.194 31.2543 25.2975 31.2374 25.4037C31.2207 25.5111 31.2179 25.6202 31.2292 25.7283C31.2392 25.8328 31.2642 25.9354 31.3036 26.0333C31.339 26.1236 31.3909 26.2072 31.4569 26.2801C31.4809 26.3061 31.5073 26.3299 31.5359 26.3512C31.5618 26.3702 31.5896 26.3867 31.619 26.4004C31.6463 26.4134 31.6752 26.423 31.705 26.429C31.7338 26.4354 31.7633 26.4386 31.7928 26.4385C31.8378 26.4378 31.8823 26.4299 31.9245 26.415C31.9693 26.3982 32.0113 26.3752 32.0491 26.3467C32.0914 26.3153 32.129 26.2786 32.161 26.2376C32.198 26.1903 32.2298 26.1395 32.2558 26.0859C32.3018 25.9894 32.333 25.887 32.3482 25.782C32.3646 25.6745 32.367 25.5654 32.3553 25.4574C32.345 25.353 32.32 25.2504 32.281 25.1523C32.2466 25.0617 32.195 24.9778 32.1289 24.905C32.1051 24.8798 32.0792 24.8564 32.0516 24.835C32.0254 24.8162 31.9974 24.7997 31.9679 24.7858C31.9409 24.773 31.9124 24.7632 31.8831 24.7567C31.8548 24.7498 31.8256 24.7468 31.7965 24.7477" fill="#CDCED0"/>
<path fill-rule="evenodd" clip-rule="evenodd" d="M33.5348 4.21856C27.2823 3.92752 23.5335 8.04746 22.5309 10.5602L22.5134 10.5538C23.5182 8.03555 27.2734 3.90918 33.5357 4.20068C36.6686 4.34652 39.1811 6.36629 41.0599 8.88165C42.9387 11.3972 44.185 14.41 44.7851 16.5456L44.767 16.5503C44.1674 14.4162 42.9219 11.4054 41.0447 8.89206C39.1673 6.37851 36.6593 4.364 33.5348 4.21856Z" fill="#2F3348"/>
<path d="M23.3461 10.9167L23.5482 10.5292L23.2948 10.2817L23.6509 9.59897L24.0101 9.64359L24.2122 9.25611L22.2076 8.98828L21.9189 9.54181L23.3461 10.9167ZM23.0439 10.0583L22.3997 9.43993L22.4117 9.41687L23.3134 9.54166L23.0439 10.0583Z" fill="#2F3348"/>
<path d="M24.5113 8.88274L24.9126 8.33658L23.6929 6.80489L23.4279 7.16548L24.4499 8.41938L24.4345 8.44047L22.8546 7.94571L22.5912 8.3042L24.5113 8.88274Z" fill="#2F3348"/>
<path d="M25.1806 7.96316L25.4909 7.64783L25.3229 7.34093L25.8696 6.78534L26.2001 6.92707L26.5104 6.61174L24.6716 5.80274L24.2283 6.25321L25.1806 7.96316ZM25.1499 7.05787L24.7194 6.28818L24.7379 6.26941L25.5636 6.63743L25.1499 7.05787Z" fill="#2F3348"/>
<path d="M26.4851 6.64892L26.8219 6.39981L26.0042 5.38854L26.0255 5.37277L27.4189 5.95834L27.8282 5.65561L26.6544 4.20395L26.3175 4.45307L27.1369 5.46638L27.1156 5.48214L25.7206 4.89454L25.3113 5.19727L26.4851 6.64892Z" fill="#2F3348"/>
<path d="M28.3502 5.3925L28.7446 5.19044L28.014 3.88641L28.5532 3.61011L28.3776 3.29659L26.9048 4.05127L27.0804 4.36478L27.6197 4.08847L28.3502 5.3925Z" fill="#2F3348"/>
</g>
<defs>
<clipPath id="clip0_645_15585">
<rect width="48" height="48" fill="white"/>
</clipPath>
</defs>
</svg>
