<svg width="24" height="24" viewBox="0 0 24 24" fill="none" xmlns="http://www.w3.org/2000/svg">
<path fill-rule="evenodd" clip-rule="evenodd" d="M5.5999 3.6001C6.04173 3.6001 6.3999 3.97618 6.3999 4.4401V10.3201C6.3999 10.784 6.04173 11.1601 5.5999 11.1601C5.15807 11.1601 4.7999 10.784 4.7999 10.3201V4.4401C4.7999 3.97618 5.15807 3.6001 5.5999 3.6001ZM6.3999 14.5201H7.9999C8.44173 14.5201 8.7999 14.144 8.7999 13.6801C8.7999 13.2162 8.44173 12.8401 7.9999 12.8401H5.5999H3.1999C2.75807 12.8401 2.3999 13.2162 2.3999 13.6801C2.3999 14.144 2.75807 14.5201 3.1999 14.5201H4.7999V19.5601C4.7999 20.024 5.15807 20.4001 5.5999 20.4001C6.04173 20.4001 6.3999 20.024 6.3999 19.5601V14.5201ZM12.7999 12.0001C12.7999 11.5362 12.4417 11.1601 11.9999 11.1601C11.5581 11.1601 11.1999 11.5362 11.1999 12.0001V19.5601C11.1999 20.024 11.5581 20.4001 11.9999 20.4001C12.4417 20.4001 12.7999 20.024 12.7999 19.5601V12.0001ZM11.9999 3.6001C12.4417 3.6001 12.7999 3.97618 12.7999 4.4401V7.8001H14.3999C14.8417 7.8001 15.1999 8.17618 15.1999 8.6401C15.1999 9.10402 14.8417 9.4801 14.3999 9.4801H11.9999H9.5999C9.15807 9.4801 8.7999 9.10402 8.7999 8.6401C8.7999 8.17618 9.15807 7.8001 9.5999 7.8001H11.1999V4.4401C11.1999 3.97618 11.5581 3.6001 11.9999 3.6001ZM18.3999 14.5201H20.7999C21.2417 14.5201 21.5999 14.8962 21.5999 15.3601C21.5999 15.824 21.2417 16.2001 20.7999 16.2001H19.1999V19.5601C19.1999 20.024 18.8417 20.4001 18.3999 20.4001C17.9581 20.4001 17.5999 20.024 17.5999 19.5601V16.2001H15.9999C15.5581 16.2001 15.1999 15.824 15.1999 15.3601C15.1999 14.8962 15.5581 14.5201 15.9999 14.5201H18.3999ZM18.3999 3.6001C18.8417 3.6001 19.1999 3.97618 19.1999 4.4401V12.0001C19.1999 12.464 18.8417 12.8401 18.3999 12.8401C17.9581 12.8401 17.5999 12.464 17.5999 12.0001V4.4401C17.5999 3.97618 17.9581 3.6001 18.3999 3.6001Z" fill="#F5F7FF"/>
</svg>
