<svg width="17" height="19" viewBox="0 0 17 19" fill="none" xmlns="http://www.w3.org/2000/svg">
<path fill-rule="evenodd" clip-rule="evenodd" d="M13.5 2.00016C12.5795 2.00016 11.8333 2.74635 11.8333 3.66683C11.8333 3.99341 11.9272 4.29805 12.0895 4.55521C12.2713 4.61174 12.4306 4.71055 12.5377 4.84583C12.603 4.92836 12.6427 5.0167 12.6586 5.10585C12.9055 5.25055 13.1931 5.3335 13.5 5.3335C14.4204 5.3335 15.1666 4.5873 15.1666 3.66683C15.1666 2.74635 14.4204 2.00016 13.5 2.00016ZM11.3107 6.18055C11.8964 6.69101 12.6621 7.00016 13.5 7.00016C15.3409 7.00016 16.8333 5.50778 16.8333 3.66683C16.8333 1.82588 15.3409 0.333496 13.5 0.333496C11.659 0.333496 10.1666 1.82588 10.1666 3.66683C10.1666 4.12137 10.2576 4.55466 10.4223 4.94949L5.68917 6.98644C5.10354 6.47598 4.33785 6.16683 3.49996 6.16683C1.65901 6.16683 0.166626 7.65921 0.166626 9.50016C0.166626 11.3411 1.65901 12.8335 3.49996 12.8335C4.33781 12.8335 5.10347 12.5244 5.6891 12.0139L10.4226 14.0503C10.2577 14.4453 10.1666 14.8788 10.1666 15.3335C10.1666 17.1744 11.659 18.6668 13.5 18.6668C15.3409 18.6668 16.8333 17.1744 16.8333 15.3335C16.8333 13.4925 15.3409 12.0002 13.5 12.0002C12.6621 12.0002 11.8964 12.3093 11.3108 12.8197L6.57737 10.7833C6.74224 10.3884 6.83329 9.95489 6.83329 9.50016C6.83329 9.04562 6.74231 8.61233 6.57757 8.2175L11.3107 6.18055ZM4.34132 8.06114C4.35722 8.15029 4.39693 8.23863 4.46223 8.32116C4.56929 8.45645 4.72865 8.55525 4.91038 8.61178C5.07269 8.86894 5.16663 9.17358 5.16663 9.50016C5.16663 9.82664 5.07276 10.1312 4.91053 10.3883C4.72849 10.4448 4.56888 10.5439 4.46178 10.6796C4.39673 10.762 4.35717 10.8502 4.34131 10.9392C4.09437 11.0839 3.80685 11.1668 3.49996 11.1668C2.57948 11.1668 1.83329 10.4206 1.83329 9.50016C1.83329 8.57969 2.57948 7.8335 3.49996 7.8335C3.80685 7.8335 4.09437 7.91644 4.34132 8.06114ZM11.8333 15.3335C11.8333 15.007 11.9272 14.7025 12.0894 14.4454C12.2714 14.3888 12.431 14.2898 12.5381 14.1541C12.6032 14.0717 12.6428 13.9835 12.6586 13.8945C12.9056 13.7498 13.1931 13.6668 13.5 13.6668C14.4204 13.6668 15.1666 14.413 15.1666 15.3335C15.1666 16.254 14.4204 17.0002 13.5 17.0002C12.5795 17.0002 11.8333 16.254 11.8333 15.3335Z" fill="#16DB93"/>
</svg>
