<svg width="137" height="68" viewBox="0 0 137 68" fill="none" xmlns="http://www.w3.org/2000/svg">
<path fill-rule="evenodd" clip-rule="evenodd" d="M73.1566 0.0529045C76.49 -0.113762 85.0566 1.2529 92.6566 8.0529C100.257 14.8529 110.823 17.2196 115.157 17.5529C120.823 18.2196 132.157 21.8529 132.157 31.0529C135.657 34.0529 140.557 42.1529 132.157 50.5529C124.404 58.3058 117.332 58.1364 114.323 58.0643C114.072 58.0582 113.849 58.0529 113.657 58.0529H110.819C109.878 63.1731 105.392 67.0529 100 67.0529C94.6079 67.0529 90.1219 63.1731 89.1814 58.0529H43.8186C42.8781 63.1731 38.3921 67.0529 33 67.0529C27.5912 67.0529 23.0942 63.1492 22.1728 58.0055C22.162 58.0367 22.1566 58.0529 22.1566 58.0529C14.8233 55.0529 0.156629 47.3529 0.156629 40.5529C0.156629 39.9078 0.127827 39.1273 0.0949242 38.2356C-0.305685 27.3798 -1.31411 0.0529045 41.6566 0.0529045H73.1566ZM40 4.5529C36.1221 4.22974 28.4846 6.22498 28.022 16.5526C27.9973 17.1043 28.4477 17.5529 29 17.5529H93.9069C94.7475 17.5529 95.1951 16.599 94.6088 15.9965C90.1669 11.4314 80.4724 4.5529 68 4.5529H40ZM100 63.0529C103.866 63.0529 107 59.9189 107 56.0529C107 52.1869 103.866 49.0529 100 49.0529C96.134 49.0529 93 52.1869 93 56.0529C93 59.9189 96.134 63.0529 100 63.0529ZM40 56.0529C40 59.9189 36.866 63.0529 33 63.0529C29.134 63.0529 26 59.9189 26 56.0529C26 52.1869 29.134 49.0529 33 49.0529C36.866 49.0529 40 52.1869 40 56.0529Z" fill="black"/>
</svg>
