<svg width="50" height="25" viewBox="0 0 50 25" fill="none" xmlns="http://www.w3.org/2000/svg">
<path d="M33.867 2.92885C31.0892 0.443372 27.9579 -0.0561603 26.7396 0.00475825H15.226C-1.77031 0.00475825 0.0572498 11.7011 0.0572498 14.808C0.0572498 17.2934 5.41808 20.1079 8.0985 21.2044H41.5428C42.4565 21.2044 45.2344 21.5334 48.3047 18.4631C51.375 15.3928 49.584 12.4321 48.3047 11.3356C48.3047 7.9729 44.1623 6.64488 42.091 6.4012C40.5072 6.27937 36.6449 5.41432 33.867 2.92885Z" fill="#2F3348"/>
<path d="M10.2425 6.03539C10.4116 2.26055 13.2032 1.53127 14.6206 1.64939H24.8549C29.4137 1.64939 32.9572 4.16355 34.5808 5.83214C34.795 6.05237 34.6315 6.40103 34.3242 6.40103H10.6C10.3981 6.40103 10.2335 6.23706 10.2425 6.03539Z" fill="#FAF9FE"/>
<path d="M16.0823 20.4733C16.0823 22.6938 14.2822 24.4939 12.0616 24.4939C9.84111 24.4939 8.04102 22.6938 8.04102 20.4733C8.04102 18.2527 9.84111 16.4526 12.0616 16.4526C14.2822 16.4526 16.0823 18.2527 16.0823 20.4733Z" fill="white"/>
<path fill-rule="evenodd" clip-rule="evenodd" d="M12.0616 23.0318C13.4747 23.0318 14.6202 21.8863 14.6202 20.4733C14.6202 19.0602 13.4747 17.9147 12.0616 17.9147C10.6486 17.9147 9.50306 19.0602 9.50306 20.4733C9.50306 21.8863 10.6486 23.0318 12.0616 23.0318ZM12.0616 24.4939C14.2822 24.4939 16.0823 22.6938 16.0823 20.4733C16.0823 18.2527 14.2822 16.4526 12.0616 16.4526C9.84111 16.4526 8.04102 18.2527 8.04102 20.4733C8.04102 22.6938 9.84111 24.4939 12.0616 24.4939Z" fill="#2F3348"/>
<path d="M40.5715 20.4733C40.5715 22.6938 38.7714 24.4939 36.5509 24.4939C34.3304 24.4939 32.5303 22.6938 32.5303 20.4733C32.5303 18.2527 34.3304 16.4526 36.5509 16.4526C38.7714 16.4526 40.5715 18.2527 40.5715 20.4733Z" fill="white"/>
<path fill-rule="evenodd" clip-rule="evenodd" d="M36.5509 23.0318C37.964 23.0318 39.1095 21.8863 39.1095 20.4733C39.1095 19.0602 37.964 17.9147 36.5509 17.9147C35.1378 17.9147 33.9923 19.0602 33.9923 20.4733C33.9923 21.8863 35.1378 23.0318 36.5509 23.0318ZM36.5509 24.4939C38.7714 24.4939 40.5715 22.6938 40.5715 20.4733C40.5715 18.2527 38.7714 16.4526 36.5509 16.4526C34.3304 16.4526 32.5303 18.2527 32.5303 20.4733C32.5303 22.6938 34.3304 24.4939 36.5509 24.4939Z" fill="#2F3348"/>
</svg>
