<svg width="12" height="13" viewBox="0 0 12 13" fill="none" xmlns="http://www.w3.org/2000/svg">
<path fill-rule="evenodd" clip-rule="evenodd" d="M7.34616 1.11522C7.34616 0.867402 7.54705 0.666504 7.79487 0.666504H11.3846C11.6324 0.666504 11.8333 0.867402 11.8333 1.11522V4.70497C11.8333 4.95279 11.6324 5.15368 11.3846 5.15368C11.1368 5.15368 10.9359 4.95279 10.9359 4.70497V2.19852L5.12071 8.01371C4.94548 8.18895 4.66136 8.18895 4.48613 8.01371C4.31089 7.83847 4.31089 7.55436 4.48613 7.37913L10.3013 1.56394H7.79487C7.54705 1.56394 7.34616 1.36304 7.34616 1.11522ZM1.81197 3.35881C1.40167 3.35881 1.0641 3.69638 1.0641 4.10667V10.6879C1.0641 10.8862 1.1429 11.0764 1.28315 11.2167C1.4234 11.3569 1.61362 11.4357 1.81197 11.4357H8.39316C8.59151 11.4357 8.78173 11.3569 8.92198 11.2167C9.06223 11.0764 9.14103 10.8862 9.14103 10.6879V7.69642C9.14103 7.4486 9.34193 7.2477 9.58975 7.2477C9.83757 7.2477 10.0385 7.4486 10.0385 7.69642V10.6879C10.0385 11.1242 9.86512 11.5427 9.55657 11.8513C9.24801 12.1598 8.82952 12.3332 8.39316 12.3332H1.81197C1.37561 12.3332 0.957118 12.1598 0.648565 11.8513C0.340011 11.5427 0.166668 11.1242 0.166668 10.6879V4.10667C0.166668 3.20073 0.906027 2.46138 1.81197 2.46138H4.80342C5.05124 2.46138 5.25214 2.66227 5.25214 2.91009C5.25214 3.15791 5.05124 3.35881 4.80342 3.35881H1.81197Z" fill="#2F3348"/>
</svg>
