<svg width="20" height="20" viewBox="0 0 20 20" fill="none" xmlns="http://www.w3.org/2000/svg">
<path d="M14.3399 0C17.7299 0 19.9999 2.38 19.9999 5.92V14.091C19.9999 17.62 17.7299 20 14.3399 20H5.66991C2.27991 20 -9.15527e-05 17.62 -9.15527e-05 14.091V5.92C-9.15527e-05 2.38 2.27991 0 5.66991 0H14.3399ZM14.1799 7C13.8399 6.66 13.2799 6.66 12.9399 7L8.80991 11.13L7.05991 9.38C6.71991 9.04 6.15991 9.04 5.81991 9.38C5.47991 9.72 5.47991 10.27 5.81991 10.62L8.19991 12.99C8.36991 13.16 8.58991 13.24 8.80991 13.24C9.03991 13.24 9.25991 13.16 9.42991 12.99L14.1799 8.24C14.5199 7.9 14.5199 7.35 14.1799 7Z" fill="#16DB93"/>
</svg>
