<svg width="20" height="20" viewBox="0 0 20 20" fill="none" xmlns="http://www.w3.org/2000/svg">
<path fill-rule="evenodd" clip-rule="evenodd" d="M9.43429 2.23422C9.58432 2.08419 9.7878 1.9999 9.99998 1.9999C10.2121 1.9999 10.4156 2.08419 10.5657 2.23422C10.7157 2.38425 10.8 2.58773 10.8 2.7999V2.8719L10.8 2.87509C10.8016 3.28854 10.9241 3.69248 11.1524 4.03719C11.3799 4.38071 11.7026 4.65046 12.0809 4.81351C12.4674 4.98317 12.8958 5.03359 13.3112 4.95827C13.728 4.8827 14.1126 4.684 14.4154 4.38779L14.4154 4.38783L14.4217 4.38159L14.4697 4.33359L14.47 4.33327C14.5443 4.25889 14.6325 4.19989 14.7296 4.15963C14.8267 4.11937 14.9308 4.09864 15.036 4.09864C15.1411 4.09864 15.2452 4.11937 15.3423 4.15963C15.4394 4.19988 15.5277 4.25889 15.602 4.33327L15.6026 4.3339C15.677 4.4082 15.736 4.49643 15.7763 4.59355C15.8165 4.69067 15.8372 4.79477 15.8372 4.8999C15.8372 5.00503 15.8165 5.10914 15.7763 5.20625C15.736 5.30337 15.677 5.3916 15.6026 5.4659L15.6023 5.46622L15.5543 5.51422L15.5543 5.51418L15.5481 5.52049C15.2519 5.8233 15.0532 6.20791 14.9776 6.6247C14.912 6.98656 14.9418 7.35828 15.0627 7.70359C15.0722 7.77624 15.0917 7.8474 15.1207 7.91505C15.2835 8.29507 15.554 8.61917 15.8987 8.84745C16.2434 9.07574 16.6473 9.19825 17.0608 9.1999L17.064 9.1999H17.2C17.4121 9.1999 17.6156 9.28419 17.7657 9.43422C17.9157 9.58425 18 9.78773 18 9.9999C18 10.2121 17.9157 10.4156 17.7657 10.5656C17.6156 10.7156 17.4121 10.7999 17.2 10.7999L17.128 10.7999L17.1248 10.7999C16.7113 10.8016 16.3074 10.9241 15.9627 11.1524C15.6191 11.3799 15.3494 11.7025 15.1863 12.0809C15.0167 12.4674 14.9663 12.8957 15.0416 13.3111C15.1172 13.7279 15.3159 14.1125 15.6121 14.4153L15.612 14.4153L15.6183 14.4216L15.6663 14.4696L15.6666 14.4699C15.741 14.5442 15.8 14.6324 15.8403 14.7296C15.8805 14.8267 15.9012 14.9308 15.9012 15.0359C15.9012 15.141 15.8805 15.2451 15.8403 15.3423C15.8 15.4394 15.741 15.5276 15.6666 15.6019L15.666 15.6025C15.5917 15.6769 15.5034 15.7359 15.4063 15.7762C15.3092 15.8164 15.2051 15.8372 15.1 15.8372C14.9948 15.8372 14.8907 15.8164 14.7936 15.7762C14.6965 15.7359 14.6083 15.6769 14.534 15.6025L14.5337 15.6022L14.4857 15.5542L14.4857 15.5542L14.4794 15.548C14.1766 15.2518 13.792 15.0531 13.3752 14.9775C12.9598 14.9022 12.5315 14.9526 12.145 15.1223C11.7666 15.2853 11.4439 15.5551 11.2164 15.8986C10.9881 16.2433 10.8656 16.6473 10.864 17.0607L10.864 17.0639V17.1999C10.864 17.4121 10.7797 17.6156 10.6297 17.7656C10.4796 17.9156 10.2761 17.9999 10.064 17.9999C9.8518 17.9999 9.64832 17.9156 9.49829 17.7656C9.34826 17.6156 9.26398 17.4121 9.26398 17.1999V17.1279L9.26376 17.1092C9.25381 16.6839 9.11615 16.2715 8.86868 15.9255C8.62611 15.5863 8.28903 15.3264 7.89979 15.1779C7.51834 15.015 7.09728 14.9675 6.68878 15.0415C6.27198 15.1171 5.88738 15.3158 5.58456 15.612L5.58453 15.612L5.57828 15.6182L5.53028 15.6662L5.52998 15.6665C5.45568 15.7409 5.36745 15.7999 5.27033 15.8402C5.17321 15.8804 5.06911 15.9012 4.96397 15.9012C4.85884 15.9012 4.75474 15.8804 4.65762 15.8402C4.5605 15.7999 4.47227 15.7409 4.39798 15.6665L4.39735 15.6659C4.32297 15.5916 4.26396 15.5034 4.2237 15.4063C4.18344 15.3091 4.16272 15.205 4.16272 15.0999C4.16272 14.9948 4.18344 14.8907 4.2237 14.7936C4.26396 14.6964 4.32297 14.6082 4.39735 14.5339L4.39766 14.5336L4.44566 14.4856L4.44569 14.4856L4.45187 14.4793C4.74807 14.1765 4.94677 13.7919 5.02234 13.3751C5.09766 12.9597 5.04724 12.5313 4.87758 12.1448C4.71454 11.7665 4.44478 11.4438 4.10127 11.2164C3.75655 10.9881 3.35261 10.8656 2.93917 10.8639H2.93598H2.79997C2.5878 10.8639 2.38432 10.7796 2.23429 10.6296C2.08426 10.4796 1.99998 10.2761 1.99998 10.0639C1.99998 9.85173 2.08426 9.64825 2.23429 9.49822C2.38432 9.34819 2.5878 9.2639 2.79997 9.2639H2.87197L2.89068 9.26368C3.31596 9.25374 3.72841 9.11608 4.07441 8.86861C4.41356 8.62604 4.67349 8.28896 4.82194 7.89972C4.98488 7.51827 5.03241 7.09721 4.95834 6.6887C4.88277 6.27191 4.68407 5.8873 4.38787 5.58449L4.3879 5.58446L4.38166 5.57822L4.33366 5.53022L4.33335 5.5299C4.25896 5.4556 4.19996 5.36737 4.1597 5.27025C4.11944 5.17314 4.09872 5.06903 4.09872 4.9639C4.09872 4.85877 4.11944 4.75467 4.1597 4.65755C4.19996 4.56043 4.25896 4.4722 4.33335 4.3979L4.33397 4.39727C4.40827 4.32289 4.49651 4.26388 4.59362 4.22363C4.69074 4.18337 4.79484 4.16264 4.89998 4.16264C5.00511 4.16264 5.10921 4.18337 5.20633 4.22363C5.30344 4.26388 5.39168 4.32289 5.46598 4.39727L5.46629 4.39759L5.51429 4.44559L5.51425 4.44562L5.52056 4.45179C5.82338 4.748 6.20798 4.9467 6.62478 5.02227C6.98664 5.08788 7.35836 5.05808 7.70366 4.93715C7.77631 4.92766 7.84748 4.90821 7.91512 4.87921C8.29514 4.71634 8.61924 4.44591 8.84753 4.10119C9.07581 3.75648 9.19832 3.35254 9.19997 2.93909H9.19998V2.9359V2.7999C9.19998 2.58773 9.28426 2.38425 9.43429 2.23422ZM16.6519 12.7229L15.92 12.3999L16.6553 12.715C16.6952 12.6218 16.7616 12.5423 16.8461 12.4863C16.9303 12.4306 17.029 12.4005 17.13 12.3999H17.2C17.8365 12.3999 18.4469 12.147 18.897 11.697C19.3471 11.2469 19.6 10.6364 19.6 9.9999C19.6 9.36338 19.3471 8.75293 18.897 8.30285C18.4469 7.85276 17.8365 7.5999 17.2 7.5999H17.066C16.965 7.59927 16.8663 7.56924 16.7821 7.51346C16.7254 7.47589 16.6769 7.42774 16.639 7.37196C16.6276 7.31744 16.6105 7.26412 16.5879 7.21289C16.5459 7.11784 16.5334 7.01239 16.5519 6.91016C16.5703 6.80904 16.6182 6.71564 16.6895 6.64175L16.7333 6.5979L16.7337 6.59759C16.9567 6.37476 17.1336 6.11018 17.2543 5.81896C17.3751 5.5276 17.4372 5.2153 17.4372 4.8999C17.4372 4.5845 17.3751 4.2722 17.2543 3.98085C17.1336 3.68976 16.9568 3.42529 16.734 3.20253C16.5111 2.97939 16.2464 2.80237 15.955 2.68159C15.6637 2.56081 15.3514 2.49864 15.036 2.49864C14.7206 2.49864 14.4083 2.56081 14.1169 2.68159C13.8256 2.80237 13.5609 2.97939 13.338 3.20253L13.2941 3.24639C13.2202 3.31773 13.1268 3.36561 13.0257 3.38394C12.9235 3.40248 12.818 3.38996 12.723 3.34801L12.723 3.34797L12.7151 3.34459C12.6219 3.30464 12.5424 3.23831 12.4864 3.15376C12.4306 3.06953 12.4006 2.9709 12.4 2.8699V2.7999C12.4 2.16338 12.1471 1.55293 11.697 1.10285C11.2469 0.652759 10.6365 0.399902 9.99998 0.399902C9.36346 0.399902 8.75301 0.652759 8.30292 1.10285C7.85283 1.55293 7.59998 2.16338 7.59998 2.7999V2.9339C7.59934 3.0349 7.56931 3.13353 7.51353 3.21776C7.47596 3.27449 7.42781 3.32302 7.37203 3.36088C7.31752 3.3723 7.2642 3.3894 7.21296 3.41201C7.11791 3.45396 7.01247 3.46648 6.91023 3.44794C6.80911 3.42961 6.71572 3.38173 6.64182 3.31038L6.59797 3.26653C6.37508 3.04339 6.11039 2.86637 5.81903 2.74559C5.52768 2.62481 5.21537 2.56264 4.89998 2.56264C4.58458 2.56264 4.27227 2.62481 3.98092 2.74559C3.6897 2.86631 3.42512 3.04322 3.20229 3.26622C2.9793 3.48905 2.80238 3.75363 2.68166 4.04485C2.56088 4.3362 2.49872 4.64851 2.49872 4.9639C2.49872 5.2793 2.56088 5.5916 2.68166 5.88296C2.80244 6.17431 2.97946 6.43901 3.2026 6.6619L3.24645 6.70575C3.3178 6.77965 3.36568 6.87304 3.38401 6.97416C3.40255 7.07639 3.39004 7.18184 3.34809 7.27689C3.34128 7.29231 3.33496 7.30794 3.32915 7.32376C3.29313 7.42169 3.22849 7.50652 3.14362 7.56721C3.06071 7.62652 2.96224 7.66011 2.86049 7.6639H2.79997C2.16345 7.6639 1.55301 7.91676 1.10292 8.36685C0.652832 8.81693 0.399975 9.42738 0.399975 10.0639C0.399975 10.7004 0.652832 11.3109 1.10292 11.761C1.55301 12.211 2.16345 12.4639 2.79997 12.4639H2.93398C3.03497 12.4645 3.13361 12.4946 3.21783 12.5503C3.30238 12.6063 3.36871 12.6858 3.40866 12.779L3.40862 12.7791L3.41208 12.7869C3.45404 12.882 3.46655 12.9874 3.44801 13.0896C3.42968 13.1908 3.3818 13.2841 3.31046 13.358L3.2666 13.4019C3.04346 13.6248 2.86644 13.8895 2.74566 14.1808C2.62488 14.4722 2.56272 14.7845 2.56272 15.0999C2.56272 15.4153 2.62488 15.7276 2.74566 16.019C2.86644 16.3103 3.04346 16.575 3.2666 16.7979C3.48937 17.0208 3.75384 17.1976 4.04492 17.3182C4.33627 17.439 4.64858 17.5012 4.96397 17.5012C5.27937 17.5012 5.59168 17.439 5.88303 17.3182C6.17425 17.1975 6.43884 17.0206 6.66167 16.7976L6.66197 16.7973L6.70582 16.7534C6.77971 16.6821 6.87311 16.6342 6.97423 16.6159C7.07647 16.5973 7.18191 16.6098 7.27696 16.6518C7.29238 16.6586 7.30801 16.6649 7.32383 16.6707C7.42176 16.7067 7.50659 16.7714 7.56729 16.8563C7.62659 16.9392 7.66018 17.0376 7.66398 17.1394V17.1999C7.66398 17.8364 7.91683 18.4469 8.36692 18.897C8.81701 19.347 9.42745 19.5999 10.064 19.5999C10.7005 19.5999 11.3109 19.347 11.761 18.897C12.2111 18.4469 12.464 17.8364 12.464 17.1999V17.0659C12.4646 16.9649 12.4946 16.8663 12.5504 16.782C12.6064 16.6975 12.6859 16.6312 12.7791 16.5912L12.7791 16.5913L12.787 16.5878C12.882 16.5458 12.9875 16.5333 13.0897 16.5519C13.1908 16.5702 13.2842 16.6181 13.3581 16.6894L13.402 16.7333L13.4023 16.7336C13.6251 16.9566 13.8897 17.1335 14.1809 17.2542C14.4723 17.375 14.7846 17.4372 15.1 17.4372C15.4154 17.4372 15.7277 17.375 16.019 17.2542C16.3103 17.1335 16.5748 16.9566 16.7977 16.7336C17.0207 16.5108 17.1976 16.2462 17.3183 15.955C17.4391 15.6636 17.5012 15.3513 17.5012 15.0359C17.5012 14.7205 17.4391 14.4082 17.3183 14.1168C17.1976 13.8256 17.0207 13.561 16.7977 13.3382L16.7973 13.3379L16.7535 13.294C16.6821 13.2201 16.6343 13.1268 16.6159 13.0256C16.5974 12.9234 16.6099 12.818 16.6519 12.7229ZM16.7977 16.7336C16.7978 16.7335 16.7979 16.7334 16.798 16.7333L16.232 16.1679L16.7973 16.7339C16.7975 16.7338 16.7976 16.7337 16.7977 16.7336ZM8.39998 9.9999C8.39998 9.11625 9.11632 8.3999 9.99998 8.3999C10.8836 8.3999 11.6 9.11625 11.6 9.9999C11.6 10.8836 10.8836 11.5999 9.99998 11.5999C9.11632 11.5999 8.39998 10.8836 8.39998 9.9999ZM9.99998 6.7999C8.23266 6.7999 6.79998 8.23259 6.79998 9.9999C6.79998 11.7672 8.23266 13.1999 9.99998 13.1999C11.7673 13.1999 13.2 11.7672 13.2 9.9999C13.2 8.23259 11.7673 6.7999 9.99998 6.7999Z" fill="#2F3348"/>
</svg>
